<svg id="alan" xmlns="http://www.w3.org/2000/svg" viewBox="0 0 698.23 978.65" ><defs><style>.cls-1{fill:#fff;}.cls-2{fill:none;stroke:#fff;stroke-miterlimit:10;stroke-width:5px;}</style></defs><title>alan-archibald</title><path class="cls-1" d="M140.9,421.16a18.55,18.55,0,0,0-17.62,3.13c-6.11,4.82-7.28,12.21-6.56,19.59,1.74,17.88,5.23,35.76,9.28,53.24a491.19,491.19,0,0,0,15.25,52.39c2.89,8.2,5.92,16.37,9.35,24.36,2.77,6.47,6.21,13.06,11.75,17.61A20.17,20.17,0,0,0,181,595.67c6.18-1.76,11.11-6.46,11.51-13.09h-5a235.87,235.87,0,0,0,65,135.5,224.84,224.84,0,0,0,19.06,17.45c6.9,5.63,14.09,11.18,21.93,15.43,18,9.72,37.69,7.4,57.07,4.33,19.61-3.11,39.21-7.11,57.51-15,34.7-15,60.67-44.82,85.48-72.31,24.56-27.2,48.86-61.36,41.65-100.15a63.58,63.58,0,0,0-3.86-12.87,2.51,2.51,0,0,0-4.91.66c-.93,7,3.88,13.51,10,16.42,6.84,3.23,14.37,2.06,19.34-3.8,3.13-3.69,5.44-8.12,7.79-12.33q3.87-6.95,7.29-14.13a251.19,251.19,0,0,0,23.62-88.92,244.3,244.3,0,0,0,.39-31.32c-.36-6.95-.62-16.89-7.76-20.62-4.36-2.27-9.11-.7-12.75,2.14-4.68,3.65-8.42,8.68-12.36,13.08l-27,30.17,4.18,1.1c-2.12-12.06-4.25-24.13-7.17-36a241.46,241.46,0,0,0-11.62-34.85c-4.65-11.23-9.55-22.34-13.38-33.89-3.65-11-6.61-22.27-9.76-33.45-5.86-20.82-12.48-42.06-25.28-59.79-10.89-15.1-26-28.25-44.29-33.1-22.68-6-44.08,5.23-66.49,7-12.34.95-24.72.31-37.08.8a215.24,215.24,0,0,0-32.69,3.79c-41.74,8.12-80.76,29.73-105.93,64.54a135,135,0,0,0-23.69,54.54c-4.15,22.88-.71,46.24-4,69.18a92.47,92.47,0,0,1-4,16.9h4.82a14.69,14.69,0,0,0-20.34-8.34c-2.87,1.46-.34,5.78,2.52,4.32a9.61,9.61,0,0,1,13,5.35,2.52,2.52,0,0,0,4.82,0c7.36-21.71,5-44.83,6-67.33a129.7,129.7,0,0,1,16.14-58c20.42-36.65,56.28-61.46,96.25-72.65A199.82,199.82,0,0,1,309,230.18c11.36-1.26,22.72-1.33,34.12-1.37,11.9-.05,23.71-.55,35.36-3.13,11.32-2.51,22.55-6.31,34.25-6.34,18.86-.06,35.65,10.38,48,24,14.08,15.49,22,34.89,28.09,54.66,6.71,21.86,11.89,44,20.65,65.21,4.63,11.2,9.62,22.28,13.35,33.83a287.7,287.7,0,0,1,8.5,34.63c1.08,5.68,2.09,11.37,3.09,17.07.32,1.83,3,2.43,4.18,1.1l20.61-23,10.66-11.91c2.88-3.22,5.81-7.35,9.77-9.32,8.37-4.17,9.84,8.34,10.16,13.62a242.75,242.75,0,0,1,.16,27.11A245.8,245.8,0,0,1,560.67,550.9c-2.38,4.39-4.73,9-7.76,13-2.4,3.16-5.48,5.24-9.56,4.92-6.64-.52-12.81-6.35-11.9-13.24l-4.91.67c7,16.83,5.89,35.54.1,52.56-6,17.63-17.1,33-29.1,47.08-11.78,13.78-24.26,27.15-37.06,40s-26.48,24.8-42.25,33.75c-16.56,9.4-35,14.57-53.57,18.16-9.52,1.84-19.14,3.49-28.78,4.57s-19.36,1.37-28.71-1.17c-9-2.45-16.89-7.69-24.33-13.19a218.39,218.39,0,0,1-19-15.87,231.35,231.35,0,0,1-69.48-127.42q-1.08-6-1.81-12.13c-.38-3.13-4.81-3.28-5,0-.3,5-5.13,7.95-9.68,8.69-5.56.91-10.43-1.5-14.23-5.44-4.34-4.5-7-10.4-9.36-16.11-2.92-7.1-5.62-14.3-8.17-21.54a492.72,492.72,0,0,1-22.6-91.1c-.65-4.39-1.32-8.79-1.75-13.2-.38-3.95-.57-8.28,1.39-11.88a13.7,13.7,0,0,1,16.46-6c3,1.1,4.34-3.73,1.33-4.82Z" transform="translate(-40.02 -167.93)"/><path class="cls-1" d="M141.83,425.71c3.43-6.56,1.5-13.34-1.56-19.63-3.38-6.95-8-13.41-8.64-21.33-.72-8.22,1.45-16.32,3-24.33a87.67,87.67,0,0,0,1.58-12.18,62.14,62.14,0,0,0-1.07-12.91c-1.37-8.17-2.84-16-1.93-24.34a64,64,0,0,1,6-20.37c6.42-13.49,16.31-25,26.87-35.46,11.41-11.26,23.82-21.58,36.25-31.68,13.5-11,27.71-21.2,43.43-28.77,16-7.71,33.24-13,50.57-16.68a211.85,211.85,0,0,1,54.25-4.9C368.6,174,386.09,178,403.12,184c8.53,3,16.92,6.37,25.26,9.84,7.13,3,14.69,5.65,21.13,10a24.56,24.56,0,0,1,7.36,7.52,2.56,2.56,0,0,0,3.42.89c13.76-6.61,28.31,5.36,37.5,14.54C504,233,509.71,239.6,515.61,246s12,13,17.94,19.58c10.81,11.85,21.53,24,29.06,38.3s11.18,30.53,12.38,46.7c1.37,18.36,0,36.8-1.52,55.11-.27,3.2,4.74,3.19,5,0,2.72-33.55,5.23-69.24-9.63-100.53-7.2-15.18-18.2-28.16-29.4-40.52-6.23-6.89-12.54-13.72-18.82-20.57S508.47,230.5,502.09,224c-11.17-11.35-27.81-24-44.33-16.08l3.42.89c-3.88-6.39-10.19-10.45-16.84-13.55-7.82-3.66-15.9-6.85-23.9-10.06-17.13-6.87-34.71-12.87-53-15.47-36.22-5.15-74.11,1.06-108.18,13.83a191.79,191.79,0,0,0-46.6,25.59c-13.71,10.1-26.82,21.19-39.52,32.54C151.43,261.07,128,286,127.81,316.94c0,8.87,2.66,17.34,3.28,26.13s-1.65,17.12-3.19,25.59c-1.46,8-2.35,16.51.44,24.39,2.52,7.13,7.39,13.24,9.62,20.47,1,3.28,1.18,6.56-.45,9.67-1.49,2.84,2.82,5.37,4.32,2.52Z" transform="translate(-40.02 -167.93)"/><path class="cls-1" d="M268.73,731.18a69.77,69.77,0,0,0,19.7,46.07c4,4.13,8.73,8.34,14.13,10.52,6.23,2.51,12.29.12,17.69-3.18s10.95-6.64,16.69-9.52a173.07,173.07,0,0,1,35.8-13.2,188.6,188.6,0,0,1,19-3.62c6.66-.94,13.37-1.72,19.9-3.39,12-3.09,22.45-9.7,31.81-17.65,9.61-8.17,18.19-17.53,27-26.56l30-30.79c8.95-9.2,18.55-18.22,25.29-29.24,6.2-10.13,9.64-22.53,6.73-34.31a31.89,31.89,0,0,0-3.29-8.13c-1.61-2.79-5.93-.27-4.32,2.52,5.54,9.64,4.27,21.83-.3,31.59-5.15,11-13.78,19.79-22.15,28.39Q488,685.43,473.62,700.19c-9,9.21-17.75,18.66-27.09,27.51-8.2,7.77-17.2,15.07-27.7,19.5-11.78,5-24.78,5.33-37.19,7.63A175.36,175.36,0,0,0,346,765.48a179.93,179.93,0,0,0-17,8.12q-4,2.17-7.87,4.57a65.92,65.92,0,0,1-7.81,4.51,11.48,11.48,0,0,1-7.81.82,21.83,21.83,0,0,1-7.18-4.08,62.28,62.28,0,0,1-11.14-11.22,65.65,65.65,0,0,1-12.73-29.38,61.3,61.3,0,0,1-.71-7.64c-.11-3.21-5.11-3.23-5,0Z" transform="translate(-40.02 -167.93)"/><path class="cls-1" d="M256.15,728.13q4.31,57.66,10.34,115.16,1.68,16.05,3.5,32.09c.27,2.37,3.25,3.51,4.66,1.26a156.12,156.12,0,0,0,21.43-56,159.59,159.59,0,0,0,2-17.16l-4.91.67c1.66,10.94,16.6,17,25.42,10.32L314.92,813a148.34,148.34,0,0,0,16.71,50,153,153,0,0,0,32.66,41.15,146.86,146.86,0,0,0,24.25,17.49,2.54,2.54,0,0,0,3-.4q24-26.64,47-54.21,22.8-27.4,44.52-55.67,21.87-28.44,42.59-57.75c6.63-9.37,13.69-18.68,19.28-28.73A65,65,0,0,0,553.51,693c0-22.54-10.55-43.82-21.4-63q-2.07-3.64-4.19-7.26c-1.62-2.78-5.95-.26-4.32,2.52,11,18.72,22.44,39,24.58,61a59.22,59.22,0,0,1-4.92,30.91c-4.77,10.25-11.76,19.42-18.22,28.63q-20.22,28.8-41.54,56.79t-43.68,55.06q-22.4,27.14-45.84,53.38-3,3.32-6,6.62l3-.39A144.41,144.41,0,0,1,352,884.19a147.65,147.65,0,0,1-25.28-44.36,143.13,143.13,0,0,1-6.95-28.18,2.52,2.52,0,0,0-3.68-1.5c-6.41,4.87-16.86.65-18.07-7.33a2.46,2.46,0,0,0-2.74-1.79,2.52,2.52,0,0,0-2.17,2.45,151,151,0,0,1-14.71,56.11,153.18,153.18,0,0,1-8.05,14.52l4.66,1.27q-6.51-57.45-11.3-115.07-1.33-16.08-2.54-32.18c-.24-3.18-5.24-3.21-5,0Z" transform="translate(-40.02 -167.93)"/><path class="cls-1" d="M45,949.23c6.2-17,17-31.76,30-44.19,13.43-12.88,29-23.33,45.09-32.57,16.41-9.42,33.55-17.44,50.42-26,17.07-8.63,34-17.76,49.55-28.94,15.3-11,29.23-24,39.69-39.74q1.9-2.87,3.63-5.84c1.63-2.78-2.69-5.3-4.31-2.52-9.41,16.07-22.59,29.54-37.39,40.73-15.3,11.57-32.13,20.95-49.17,29.69-16.85,8.65-34.06,16.6-50.61,25.82s-32.44,19.52-46.49,32.14C61.75,910,50,924.6,42.74,941.42c-.93,2.14-1.8,4.29-2.6,6.48A2.5,2.5,0,1,0,45,949.23Z" transform="translate(-40.02 -167.93)"/><path class="cls-1" d="M545.64,713.5c8,11.74,18.57,21.41,30.37,29.28s24.94,14,38.2,19.33c13.46,5.36,27.26,9.75,40.93,14.49s27.46,9.89,40.44,16.53c12.71,6.5,24.73,14.48,34.69,24.77q1.92,2,3.74,4.07a2.5,2.5,0,1,0,3.53-3.54c-9.51-10.9-21.26-19.64-33.86-26.65-12.86-7.15-26.57-12.64-40.4-17.6C649.72,769.32,636,765,622.48,760c-13.26-5-26.32-10.67-38.46-18-11.77-7.13-22.67-15.93-31.11-26.88-1-1.34-2-2.71-2.95-4.09a2.57,2.57,0,0,0-3.42-.9,2.51,2.51,0,0,0-.9,3.42Z" transform="translate(-40.02 -167.93)"/><path class="cls-1" d="M170.83,1140.2c-.4-20.25,4.47-40,10.42-59.26,6.13-19.8,12.91-39.43,19.68-59s13.75-39.2,20.91-58.69,14.51-38.93,22-58.28,15.33-38.82,23.28-58.12l2.92-7.06a2.52,2.52,0,0,0-1.74-3.08,2.58,2.58,0,0,0-3.08,1.75q-12,28.92-23.42,58.06T219.56,955q-10.84,29.35-21.14,58.93c-6.83,19.64-13.55,39.33-19.91,59.13-6.21,19.29-11.77,39.09-12.61,59.46-.1,2.56-.13,5.13-.07,7.69.06,3.22,5.06,3.23,5,0Z" transform="translate(-40.02 -167.93)"/><path class="cls-1" d="M311.21,1144.87q16.16-44.61,36.09-87.73c13.29-28.71,27.87-56.8,43.47-84.32S423,918.22,440,891.49s34.62-53.44,52.1-80l54.24-82.53,6.76-10.27c1.77-2.7-2.56-5.21-4.32-2.53L494.3,799c-17.64,26.84-35.35,53.64-52.68,80.67-17.19,26.8-34,53.85-49.9,81.42C375.9,988.5,361,1016.45,347.47,1045s-25.93,57.79-37,87.44q-2.06,5.52-4.07,11.07c-1.09,3,3.74,4.33,4.82,1.32Z" transform="translate(-40.02 -167.93)"/><path class="cls-1" d="M518.19,1135.66c2.09-32.45,24.06-59.13,45.65-81.57,11.44-11.88,23.33-23.36,33.92-36a177.52,177.52,0,0,0,14.68-20c4-6.5,9.49-14.76,7.24-22.77-1.19-4.23-4.46-7.25-7.85-9.8-4.06-3.07-8.27-6-12.41-8.92l-26.37-18.89-.6,4.57a232.42,232.42,0,0,0,39.32-17c11.41-6.26,23.24-13.29,32.19-22.89a47.21,47.21,0,0,0,10-15.75c2.45-6.63,3-13.86,2.68-20.88-.31-7.22-1.42-14.4-2.39-21.55q-1.56-11.46-3.27-22.88-3.9-26.09-8.6-52c-.58-3.16-5.39-1.82-4.83,1.33q4,22,7.41,44.17c2.26,14.63,4.63,29.32,6.16,44,.69,6.69,1,13.58-.25,20.22a38.49,38.49,0,0,1-7.62,16.54c-7.76,9.85-18.93,16.72-29.65,22.91a224.63,224.63,0,0,1-42.47,19,2.54,2.54,0,0,0-.59,4.57l22.85,16.37,11.14,8c3.16,2.26,6.94,4.46,9.15,7.76,4.5,6.75-2,15.69-5.55,21.42a167.49,167.49,0,0,1-14.3,19.51c-20.59,24.5-46,44.83-63.37,72-9.4,14.68-16.13,31.14-17.26,48.66-.2,3.21,4.8,3.2,5,0Z" transform="translate(-40.02 -167.93)"/><path class="cls-1" d="M270.8,876.26l-3.75,46.47,1.84-2.41A17.9,17.9,0,0,0,258.06,928c-2.92,4.2-4.1,9.24-4.6,14.27-.54,5.44-.32,10.94-.61,16.4S252,969.57,251.24,975a193.8,193.8,0,0,1-7.94,32.56c-1.66,5-2.76,10.06-1.33,15.25,1.25,4.52,3.91,8.47,6.53,12.3,3.05,4.46,5.89,8.89,7.33,14.17a34.71,34.71,0,0,1,.45,16.58c-.59,2.69,3.12,4.48,4.57,1.92a359.24,359.24,0,0,1,25.92-39.29,354.18,354.18,0,0,1,30.75-35.37q9.33-9.4,19.33-18.1a2.42,2.42,0,0,0,.65-2.43l-11.87-30.18A135.42,135.42,0,0,0,320.09,929c-2-3.82-4.82-7.5-8.78-9.43-4.2-2.05-9.47-2.47-13.42.39l3.67,2.83a31.29,31.29,0,0,1,15.55-18.35,29.06,29.06,0,0,1,11.52-3.3c5.09-.32,10.17.48,15.24.84,5.79.41,11.62.1,16.85-2.66,2.85-1.5.33-5.82-2.52-4.32-4.48,2.37-9.62,2.32-14.55,2-5.23-.38-10.48-1.22-15.74-.76a36.21,36.21,0,0,0-23.53,11.84,35.29,35.29,0,0,0-7.64,13.42c-.59,2,1.87,4.13,3.67,2.82,2.61-1.89,5.92-1.67,8.7-.23,3.32,1.73,5.41,4.93,7,8.2,2,4,3.42,8.23,5,12.35l5.38,13.7,6.11,15.56.65-2.43a357.78,357.78,0,0,0-33.57,33.31,363.83,363.83,0,0,0-29.16,37.77q-7.45,11.07-14.06,22.69l4.57,1.93a40.1,40.1,0,0,0-4.7-29.16c-4.42-7.37-11.73-14.51-9.79-23.85a71.91,71.91,0,0,1,2.32-7.71q1.29-3.93,2.4-7.92c1.45-5.17,2.66-10.41,3.64-15.68a196.42,196.42,0,0,0,3.14-32.64c.09-5.53.09-11.53,2.52-16.64,1.91-4,5.08-7.49,9.59-8.42a2.54,2.54,0,0,0,1.83-2.41l3.75-46.47a2.52,2.52,0,0,0-2.5-2.5,2.55,2.55,0,0,0-2.5,2.5Z" transform="translate(-40.02 -167.93)"/><path class="cls-1" d="M230.21,1128a11.26,11.26,0,0,0,2.08,14.43,2.54,2.54,0,0,0,4.18-1.11,477.72,477.72,0,0,1,21.5-52.49A491.71,491.71,0,0,1,356.63,951a483.49,483.49,0,0,1,42.91-37.48c1.8-1.39,3.61-2.76,5.43-4.13a2.57,2.57,0,0,0,.89-3.42,2.51,2.51,0,0,0-3.42-.89,488.43,488.43,0,0,0-83.14,79.15,501.19,501.19,0,0,0-34.22,46.36A492,492,0,0,0,234,1133.35q-1.18,3.32-2.33,6.66l4.18-1.11a6.29,6.29,0,0,1-1.29-8.37c1.78-2.69-2.55-5.2-4.32-2.52Z" transform="translate(-40.02 -167.93)"/><path class="cls-1" d="M256.65,1064.56a421.06,421.06,0,0,1-14.16,58.37q-2.62,8.17-5.57,16.24a2.52,2.52,0,0,0,1.74,3.08,2.56,2.56,0,0,0,3.08-1.75,419.27,419.27,0,0,0,16.54-57.73q1.77-8.4,3.19-16.88a2.57,2.57,0,0,0-1.75-3.07,2.51,2.51,0,0,0-3.07,1.74Z" transform="translate(-40.02 -167.93)"/><path class="cls-1" d="M297.1,469.3c4.43-10.14,12-20.3,22.84-24a23.27,23.27,0,0,1,14-.5,31.41,31.41,0,0,1,12.93,7.61,51.26,51.26,0,0,1,11.64,17.19,2.52,2.52,0,0,0,3.42.89,2.57,2.57,0,0,0,.9-3.42c-5-11.5-13.73-22.36-25.89-26.57-11.21-3.89-22.81.12-31.32,7.85a54.29,54.29,0,0,0-12.87,18.46,2.58,2.58,0,0,0,.9,3.42,2.52,2.52,0,0,0,3.42-.89Z" transform="translate(-40.02 -167.93)"/><path class="cls-1" d="M173.51,482.32c11.1,5.59,23.83,8.41,36.07,5.21,3.12-.81,1.8-5.64-1.32-4.82-10.91,2.85-22.34.27-32.23-4.7-2.87-1.45-5.4,2.87-2.52,4.31Z" transform="translate(-40.02 -167.93)"/><path class="cls-1" d="M121.9,438.61c8.81,8.32,17.57,16.68,26.45,24.92,2.35,2.19,5.9-1.34,3.53-3.53-8.87-8.24-17.63-16.61-26.44-24.92-2.34-2.21-5.88,1.32-3.54,3.53Z" transform="translate(-40.02 -167.93)"/><path class="cls-1" d="M446.72,465.45c11.52-.82,22.44-4.53,33.07-8.88,11.24-4.6,22.4-9.41,33.59-14.13l19.27-8.13a2.58,2.58,0,0,0,1.75-3.07,2.53,2.53,0,0,0-3.08-1.75L497.38,443.8c-10.56,4.45-21.06,9.31-32,12.81a80.07,80.07,0,0,1-18.67,3.84,2.56,2.56,0,0,0-2.5,2.5,2.51,2.51,0,0,0,2.5,2.5Z" transform="translate(-40.02 -167.93)"/><circle class="cls-2" cx="211.91" cy="308.64" r="43.01"/><circle class="cls-2" cx="363.68" cy="295.03" r="43.01"/><path class="cls-1" d="M156.11,429.9a33.63,33.63,0,0,0-.69,4,1.89,1.89,0,0,0,.21,1,1.85,1.85,0,0,0,.52.8,1.82,1.82,0,0,0,.8.52,1.8,1.8,0,0,0,1,.21,2.52,2.52,0,0,0,1.77-.73l.39-.5a2.54,2.54,0,0,0,.34-1.27c0-.1,0-.21,0-.32l-.09.67a27.64,27.64,0,0,1,.57-3,2.65,2.65,0,0,0-.26-1.93,1.87,1.87,0,0,0-.64-.7,1.83,1.83,0,0,0-.85-.44,2.5,2.5,0,0,0-1.93.25,2.53,2.53,0,0,0-1.15,1.49Z" transform="translate(-40.02 -167.93)"/><path class="cls-1" d="M535.6,448.67l-.28,18.89-.14,9.44c0,2.64-.36,5.53.72,8,2.12,4.91,8.32,4.42,11.39.74,4-4.86.86-10.67-.5-15.87-.46-1.77-.88-4.14.27-5.75a4.34,4.34,0,0,1,4.2-1.44c4.66.61,7.59,5.89,10,9.39,2.93,4.33,5.93,9.1,6.66,14.38s-1.54,9.63-4.63,13.58c-4.12,5.26-8.73,10.17-13.1,15.22l-14.06,16.21h3.53c-3.18-2.81-1.6-8,.07-11.33,2.62-5.3,6.21-11,4.16-17.15a2.53,2.53,0,0,0-3.67-1.5,8.35,8.35,0,0,0-3.3,3.95c-.85,1.84-1.66,3.7-2.46,5.56-1.65,3.82-3.23,7.66-4.62,11.57-2.68,7.58-4.68,15.56-4.77,23.64a45,45,0,0,0,1.86,13.4c.92,3.07,5.74,1.76,4.82-1.33-2.7-9-1.78-18.4.69-27.35a121.46,121.46,0,0,1,4.71-13.52c.9-2.23,1.85-4.43,2.82-6.62.47-1.06.92-2.12,1.42-3.16a3.72,3.72,0,0,1,1.36-1.82l-3.68-1.5c1.89,5.65-3,11.14-4.89,16.14-1.8,4.75-2.21,10.89,2,14.56a2.53,2.53,0,0,0,3.53,0c8.34-9.62,16.73-19.19,25-28.85,3.48-4.05,7-8.53,8-13.92,1-5.69-.59-11.21-3.2-16.25a67.44,67.44,0,0,0-4.41-7.16,55.09,55.09,0,0,0-4.81-6.37c-3.34-3.62-8.48-6.06-13.37-4.16-5.52,2.13-6.21,8.22-4.79,13.28.74,2.63,2.16,5.24,2.23,8,.06,1.8-.63,3.3-2.1,3.9a1.76,1.76,0,0,1-1,.2c.37,0-.16,0-.26-.07s-.08,0-.23-.15a4.58,4.58,0,0,1-.59-2.73c0-3.57.09-7.14.15-10.7l.31-21.37c0-3.22-5-3.22-5,0Z" transform="translate(-40.02 -167.93)"/><path class="cls-1" d="M149.63,465.53l26.11,18.79a2.53,2.53,0,0,0,3.42-.9,2.56,2.56,0,0,0-.9-3.42l-26.1-18.78a2.53,2.53,0,0,0-3.43.89,2.56,2.56,0,0,0,.9,3.42Z" transform="translate(-40.02 -167.93)"/><path class="cls-1" d="M154.53,434.75l-.36,22.55L154,468.45c-.06,3.56-.55,7.5.46,11,.77,2.63,2.41,4.86,3.48,7.36a8.2,8.2,0,0,1,.5,1.52s.07.49,0,.19c0,0,0,.87,0,.42-.09.59-.76,1-1.83,1.11a42.26,42.26,0,0,0-4.49.38,9.16,9.16,0,0,0-3.84,2,11.74,11.74,0,0,0-3.88,7.86c-.35,3.55.8,7,2.21,10.21,1.18,2.67,2.65,5.4,5.13,7.09a7.58,7.58,0,0,0,8.4-.12c1.73-1.06,3.61-3.2,5.82-2.87s4.15,2.8,4.77,4.93c.93,3.24.44,6.72.3,10A47.47,47.47,0,0,0,174,547.12c4.27,12.33,12.15,23.86,13.21,37.14a2.55,2.55,0,0,0,2.5,2.5,2.53,2.53,0,0,0,2.5-2.5c-1-12.14-7.07-22.69-11.59-33.74-2.14-5.23-4-10.72-4.43-16.4-.47-6.41,1.72-13.8-2.2-19.51a10.89,10.89,0,0,0-7.25-4.95c-3.08-.44-5.47,1-7.87,2.7a7.45,7.45,0,0,1-2.65,1.46,3,3,0,0,1-2.61-1.32,19.93,19.93,0,0,1-3.67-7.61c-.73-2.66-.81-5.66,1-7.94,1.63-2.09,3.82-1.72,6.19-2,3.22-.33,6.09-2.23,6.4-5.67.23-2.58-1.16-5.07-2.32-7.27a20.93,20.93,0,0,1-1.86-4,19.26,19.26,0,0,1-.34-5.67l.19-12.4.4-25.27c.05-3.22-4.95-3.22-5,0Z" transform="translate(-40.02 -167.93)"/><path class="cls-1" d="M300.78,586.83c3.22,0,3.22-5,0-5s-3.22,5,0,5Z" transform="translate(-40.02 -167.93)"/><path class="cls-1" d="M289.49,576.73c-19.34.16-34.83,13.32-46.54,27.49-12,14.49-21,31.35-35.07,44.11-7.47,6.79-16.27,11.9-26.33,13.52-1.92.31-2.32,3-1.1,4.18a70.42,70.42,0,0,0,44,20.29,68.36,68.36,0,0,0,45.11-12.75A69.78,69.78,0,0,0,288,654.05l-4.57-.6,3.56,12.33a2.53,2.53,0,0,0,3.68,1.5c9.52-5.8,19-11.72,28.57-17.39a20.75,20.75,0,0,1,6.28-2.72,19,19,0,0,1,5.22-.15c3.56.25,7.13,1,10.72.83,3.85-.18,7.51-1.66,9.15-5.38l-4.66-1.26c-.26,7.73,7.25,11.06,13.81,11.89a39,39,0,0,0,11.1-.37l17-2.71L407.08,647l-2.82-1.15c2.81,5.62,10.91,5.67,14.49.94h-4.32l4.27,6a2.55,2.55,0,0,0,3.93.51c9-8.33,22.72-5.89,33.44-2.88,11.57,3.26,23,8.09,35.26,7.12,6.66-.53,12.95-2.87,17.69-7.7,1.4-1.44.48-4.48-1.77-4.27-22,2.06-39.55-14.25-53.62-28.92-7.69-8-15.27-16.18-24.19-22.87a90.51,90.51,0,0,0-28-14.08A91.51,91.51,0,0,0,366,576.11a2.58,2.58,0,0,0-2.5,2.5,2.51,2.51,0,0,0,2.5,2.5,87.7,87.7,0,0,1,59.44,15.81c17.82,12.76,29.87,32,48.37,44,9.89,6.41,21.56,10.74,33.49,9.62l-1.77-4.27c-8.44,8.62-21.79,6.87-32.38,4.11-11.8-3.08-23.15-8.23-35.61-7.74-6.83.26-13.32,2.41-18.4,7.09l3.93.51-4.27-6a2.55,2.55,0,0,0-4.32,0c-1.48,2-4.9,1-5.86-.93a2.55,2.55,0,0,0-2.82-1.15l-19.9,3.16c-6,1-12.09,2.17-18.17,2.87-5.11.59-17,.51-16.78-7,.08-2.36-3.64-3.58-4.66-1.27-1.16,2.63-3.49,3-6.17,2.92-3.49-.06-6.94-.75-10.43-.9a22.13,22.13,0,0,0-12.24,3.19c-4.57,2.62-9,5.46-13.52,8.2L288.09,663l3.67,1.49-3.55-12.33a2.53,2.53,0,0,0-4.57-.59,64.94,64.94,0,0,1-34,26.71A64.27,64.27,0,0,1,184,662.49l-1.1,4.18c18.64-3,32.4-17.11,43.4-31.44,11.37-14.79,20.76-31.36,35.73-43,7.94-6.17,17.31-10.42,27.48-10.51,3.22,0,3.23-5,0-5Z" transform="translate(-40.02 -167.93)"/><path class="cls-1" d="M272.44,538.54c-3.2,5.54-6.29,11.52-5,18.11a12.59,12.59,0,0,0,3.76,6.94c2.4,2.13,5.38,2.64,8.21,3.92,4.77,2.15,7.6,7.09,11.12,10.72A27.83,27.83,0,0,0,305.85,586a67.91,67.91,0,0,0,17.95.85,21.28,21.28,0,0,0,9.2-2.73c2.49-1.5,4.5-3.64,6.89-5.29,3.9-2.68,8.33-2.52,12.9-1.85,4.79.71,9.65,1.9,14.5,1.21a12.32,12.32,0,0,0,10.79-10.75c.69-5.78-2.33-11.5-6.88-14.91a2.52,2.52,0,0,0-3.42.9,2.57,2.57,0,0,0,.9,3.42,11.64,11.64,0,0,1,4.44,10.28,7.56,7.56,0,0,1-6.78,6.19c-4.21.5-8.42-.62-12.55-1.21-4.62-.66-9.37-1-13.75.92-4.85,2.11-7.92,6.9-13.17,8.27a30.12,30.12,0,0,1-8,.71c-2.72,0-5.45-.11-8.16-.36-5-.47-10.21-1.66-14.26-4.75-3.85-2.94-6.35-7.26-9.91-10.49a21.59,21.59,0,0,0-7.75-4.44c-2.58-.88-4.81-1.87-5.95-4.52-2.41-5.63,1.14-11.61,3.89-16.38,1.62-2.79-2.7-5.32-4.31-2.53Z" transform="translate(-40.02 -167.93)"/></svg>