<svg xmlns="http://www.w3.org/2000/svg" viewBox="0 0 552.06 159.31"><defs><style>.cls-1{fill:#fff;}.cls-2{fill:#d6f2ff;}.cls-10,.cls-11,.cls-3,.cls-7,.cls-8,.cls-9{isolation:isolate;}.cls-11,.cls-3,.cls-8{font-size:18.74px;}.cls-3,.cls-7,.cls-8{font-family:FootlightMTLight, Footlight MT Light;}.cls-4{letter-spacing:0.09em;}.cls-5{letter-spacing:-0.04em;}.cls-6{letter-spacing:0.01em;}.cls-10,.cls-7,.cls-9{font-size:9.37px;}.cls-10,.cls-7{fill:gray;}.cls-8{fill:#999;}.cls-9{fill:#b3b3b3;}.cls-10,.cls-11,.cls-9{font-family:Gadugi;}</style></defs><title>Asset 3</title><g id="Layer_2" data-name="Layer 2"><g id="Layer_1-2" data-name="Layer 1"><g id="poster"><g id="infobox"><rect class="cls-1" x="1.31" y="1.05" width="549.43" height="157.21"/><path d="M549.43,2.1V157.27H2.63V2.1h546.8M552.06,0H0V159.31H552.06Z"/></g><rect class="cls-2" x="1.31" y="1.05" width="549.43" height="157.21"/><path d="M549.43,2.1V157.27H2.63V2.1h546.8M552.06,0H0V159.31H552.06Z"/><text class="cls-3" transform="translate(143.27 23.49) scale(1.26 1)">T</text><text class="cls-3" transform="translate(154.86 23.49) scale(1.26 1)">he i</text><text class="cls-3" transform="translate(190.4 23.49) scale(1.26 1)">n</text><text class="cls-3" transform="translate(203.22 23.49) scale(1.26 1)">v</text><text class="cls-3" transform="translate(214.36 23.49) scale(1.26 1)">e</text><text class="cls-3" transform="translate(226.21 23.49) scale(1.26 1)">n</text><text class="cls-3" transform="translate(239.25 23.49) scale(1.26 1)">tion o<tspan class="cls-4" x="43.94" y="0">f</tspan><tspan x="51.42" y="0" xml:space="preserve"> the l</tspan><tspan class="cls-5" x="89.89" y="0">i</tspan><tspan x="94.26" y="0">g</tspan></text><text class="cls-3" transform="translate(370.85 23.49) scale(1.26 1)">h</text><text class="cls-3" transform="translate(383.88 23.49) scale(1.26 1)">t <tspan class="cls-6" x="10.15" y="0">b</tspan><tspan x="19.94" y="0">ulb</tspan></text><text class="cls-7" transform="translate(143.27 35.98) scale(1.26 1)">b</text><text class="cls-7" transform="translate(149.92 35.98) scale(1.26 1)">y </text><text class="cls-7" transform="translate(157.99 35.98) scale(1.26 1)">E</text><text class="cls-7" transform="translate(163.76 35.98) scale(1.26 1)">dison</text><text class="cls-8" transform="translate(480.42 41.19) scale(1.26 1)">1879</text><text class="cls-9" transform="translate(143.27 61.49) scale(1.26 1)">2h 22min</text><text class="cls-10" transform="translate(143.27 82.32) scale(1.26 1)">Di</text><text class="cls-10" transform="translate(153.91 82.32) scale(1.26 1)">r</text><text class="cls-10" transform="translate(157.67 82.32) scale(1.26 1)">e</text><text class="cls-10" transform="translate(163.59 82.32) scale(1.26 1)">c</text><text class="cls-10" transform="translate(169.04 82.32) scale(1.26 1)">t</text><text class="cls-10" transform="translate(172.89 82.32) scale(1.26 1)">ed </text><text class="cls-10" transform="translate(188 82.32) scale(1.26 1)">b</text><text class="cls-10" transform="translate(194.64 82.32) scale(1.26 1)">y</text><text class="cls-11" transform="translate(143.27 103.66) scale(1.26 1)">A</text><text class="cls-11" transform="translate(157.67 103.66) scale(1.26 1)">l</text><text class="cls-11" transform="translate(163.26 103.66) scale(1.26 1)">f</text><text class="cls-11" transform="translate(169.86 103.66) scale(1.26 1)">onso </text><text class="cls-11" transform="translate(223.35 103.66) scale(1.26 1)">C</text><text class="cls-11" transform="translate(236.79 103.66) scale(1.26 1)">ua</text><text class="cls-11" transform="translate(261.24 103.66) scale(1.26 1)">r</text><text class="cls-11" transform="translate(268.74 103.66) scale(1.26 1)">ón</text><text class="cls-10" transform="translate(143.27 127.09) scale(1.26 1)">S</text><text class="cls-10" transform="translate(149.17 127.09) scale(1.26 1)">c</text><text class="cls-10" transform="translate(154.47 127.09) scale(1.26 1)">r</text><text class="cls-10" transform="translate(158.22 127.09) scale(1.26 1)">eenpl</text><text class="cls-10" transform="translate(186.16 127.09) scale(1.26 1)">a</text><text class="cls-10" transform="translate(191.77 127.09) scale(1.26 1)">y </text><text class="cls-10" transform="translate(199.85 127.09) scale(1.26 1)">b</text><text class="cls-10" transform="translate(206.5 127.09) scale(1.26 1)">y</text><text class="cls-11" transform="translate(143.27 144.8) scale(1.26 1)">S</text><text class="cls-11" transform="translate(154.86 144.8) scale(1.26 1)">t</text><text class="cls-11" transform="translate(162.55 144.8) scale(1.26 1)">e</text><text class="cls-11" transform="translate(174.41 144.8) scale(1.26 1)">v</text><text class="cls-11" transform="translate(185.54 144.8) scale(1.26 1)">e </text><text class="cls-11" transform="translate(202.42 144.8) scale(1.26 1)">K</text><text class="cls-11" transform="translate(215.47 144.8) scale(1.26 1)">l</text><text class="cls-11" transform="translate(221.06 144.8) scale(1.26 1)">o</text><text class="cls-11" transform="translate(233.88 144.8) scale(1.26 1)">v</text><text class="cls-11" transform="translate(245.02 144.8) scale(1.26 1)">es</text></g></g></g></svg>