<svg xmlns="http://www.w3.org/2000/svg" xmlns:xlink="http://www.w3.org/1999/xlink" viewBox="0 0 430.63 166.25"><defs><style>.cls-1{fill:none;stroke:#231f20;stroke-miterlimit:10;stroke-width:0.75px;}.cls-2{font-size:22px;}.cls-15,.cls-16,.cls-2,.cls-4{font-family:HoeflerText-Regular, Hoefler Text;}.cls-3{letter-spacing:-0.13em;}.cls-4{font-size:10px;}.cls-5{letter-spacing:-0.04em;}.cls-6{letter-spacing:-0.01em;}.cls-7{letter-spacing:-0.01em;}.cls-8{letter-spacing:0.01em;}.cls-9{letter-spacing:-0.01em;}.cls-10{letter-spacing:0.01em;}.cls-11{letter-spacing:-0.02em;}.cls-12{letter-spacing:0em;}.cls-13{letter-spacing:-0.01em;}.cls-14{letter-spacing:-0.05em;}.cls-15{font-size:18px;}.cls-16{font-size:12px;}.cls-17{letter-spacing:-0.02em;}</style></defs><title>Asset 1</title><g id="Layer_2" data-name="Layer 2"><g id="Layer_1-2" data-name="Layer 1"><g id="infobox"><rect id="box" class="cls-1" x="33.64" y="0.38" width="375.89" height="165.5" rx="29.18"/><text id="title" class="cls-2" transform="translate(180.86 42.03)"><tspan class="cls-3">T</tspan><tspan x="12.74" y="0">elephone</tspan></text><text id="text" class="cls-4" transform="translate(183.48 94.42)"><tspan class="cls-5">H</tspan><tspan x="8.3" y="0">e found a way </tspan><tspan class="cls-6" x="68.31" y="0">t</tspan><tspan x="71.85" y="0">o transmit human voi</tspan><tspan class="cls-7" x="162.33" y="0">c</tspan><tspan x="166.85" y="0">e </tspan><tspan class="cls-8" x="174.03" y="0">o</tspan><tspan x="179.49" y="0">ver </tspan><tspan x="0" y="12">wires: a simple re</tspan><tspan class="cls-7" x="72.48" y="12">c</tspan><tspan x="77" y="12">eiver that </tspan><tspan class="cls-9" x="119.81" y="12">c</tspan><tspan x="124.33" y="12">ould tu</tspan><tspan class="cls-10" x="154.35" y="12">r</tspan><tspan x="158.17" y="12">n electricity </tspan><tspan x="0" y="24">in</tspan><tspan class="cls-6" x="8.28" y="24">t</tspan><tspan x="11.82" y="24">o sound. </tspan><tspan class="cls-6" x="49.96" y="24">H</tspan><tspan x="58.47" y="24">is in</tspan><tspan class="cls-11" x="75.87" y="24">t</tspan><tspan x="79.41" y="24">erest in sound </tspan><tspan class="cls-6" x="141.09" y="24">t</tspan><tspan x="144.63" y="24">echnology w</tspan><tspan class="cls-8" x="197.05" y="24">a</tspan><tspan x="201.61" y="24">s </tspan><tspan x="0" y="36">deep-roo</tspan><tspan class="cls-6" x="37.96" y="36">t</tspan><tspan x="41.5" y="36">ed and personal, </tspan><tspan class="cls-8" x="112.52" y="36">a</tspan><tspan class="cls-12" x="117.08" y="36">s both his wife and </tspan><tspan x="0" y="48">mother </tspan><tspan class="cls-13" x="33.76" y="48">w</tspan><tspan x="40.66" y="48">ere de</tspan><tspan class="cls-7" x="66.34" y="48">a</tspan><tspan class="cls-14" x="70.7" y="48">f</tspan><tspan x="73.54" y="48">.</tspan></text><text id="year" class="cls-15" transform="translate(344.21 39.15)">1876</text><text id="inventor" class="cls-16" transform="translate(183.48 69.01)">Alexander <tspan class="cls-17" x="54.83" y="0">G</tspan><tspan x="64.49" y="0">raham Be</tspan><tspan class="cls-8" x="112.63" y="0">l</tspan><tspan x="115.86" y="0">l</tspan></text><g id="image"><image width="500" height="326" transform="translate(0 36.42) scale(0.35)" xlink:href="../frontend_design/th_12/assignments/12C.04.01%20Animation%20Project%20copy/static/imgs/telephone%20(1).png"/></g></g></g></g></svg>