<svg xmlns="http://www.w3.org/2000/svg" viewBox="0 0 500.32 536.27"><style>#bulb {stroke: #fff}</style><title>bulb</title><g id="bulb"><path d="M140.76,242.28s4.68-41,31.32-64.44,52.2-42.12,117-32,88.56,68.76,93.24,114.12-34.2,74.88-42.48,103.32c0,0-7.2,18-7.56,33.48s3.6,45-16.2,46.08-30.24,6.12-29.88-7.92,3.24-36.72-.72-46.8c0,0-2.52-.24-.6-9.12s7.68-24.48-3.12-23.28c0,0,23.28-79.68,33.84-87.12,0,0,5.76-1-4.08-6s-20.4-1.44-22.32,0c0,0-4.08-8.88-11.76-2.4,0,0-16.56-6.24-34.32-1.68,0,0,.72-6.24-8.4-4.08a4.63,4.63,0,0,0-2.64,2.88s-13.2-4.08-22.32,5c0,0-6.72-1-4.32,2.88s19.2,42.48,23.52,52.08,13.92,27.84,13.2,37.92c0,0-4.32.72-3.6,7.68s3.12,22.08,2.4,24,3.6,1.92,2.88-6.24-4.32-17.76-.72-21.6c0,0,7.84,2.16,10.52-.48s3.4-14.16,2.92-37.68c0,0-3.2-5.76-2.92,8.4s3.88,26.88-3.8,26.4-1.2-3.6-10.08-23-27.12-61.44-27.12-61.44-5.52-5.76,6-8.64,12.72-.72,17,9.84,13,33.12,13,33.12L252,303.6l-15.36-39.12a48.51,48.51,0,0,1,39.84-1c21.6,9.12,16.32-8.4,33.84,2.4,0,0-22.08,55.44-25.2,66s-6.24,23.28-6.24,23.28-7.92,6-7.2-12.24-1.92-28.8,5.76-29.28c0,0,5.28-4.08-3.36-7.68l12.24-37.2s-5.05-.58-7.92-3.12-2.88,2.88,4.56,4.32l-10.8,34.8s-24.48-1.92-26.64,5.52,18.24,6.48,20.88,6.48-10.8-.48-13.92-3.12-5.37-6.43,9.25-6.48,16.19,2.88,9.71,7.2c0,0-2.4-.72-1.92,8.64s.24,31.92.24,31.92.72,4.8,7,4.08,8.4,0,8.4,3.36-1.68,15.6-2.64,17.76-3.66-11.13-1.92-18.72c0,0-3.12-4.08-2.64,4.56s4.08,18.72-1,15.36-3,.95,3.12,5,3.84,34.32,3.84,34.32l-1.2,23.84S270,449,270.48,441.12s0-49.44,0-49.44,5.28-1.92,7.68,1.92,1,42,1,42,1.44-28.08,2.4-41.76c0,0,0-5-12-5.28s-18.72-1.2-27.84,6c0,0,4.08-4.56,4.08,12.48s.24,34.32.24,34.32,1.2-48.72,3.36-49.2,13.68-3.12,18.72-1l.48,54.62s-6.24,2.31-10.8,0-4.8,3.46,15.12,3.7a366.63,366.63,0,0,0,40.56-2.16s-12.24,3.6-19,3.84c0,0,20.16.24,24.48-2.16,0,0-.48-3.12,3.12-5s12.48-.48,13.68-30.72-.72-37.92,24-77.76,30.24-51.6,25-94.32a115.73,115.73,0,0,0-80.88-96.48C257.76,130.56,213.12,138,183.36,161s-50.4,64.32-47.52,110.4,43,91.92,49.2,104.16,13.2,19.68,12.48,52.08c0,0,5,6.48,4.32-9.84s-1.68-29.28-30-68.88S137.76,280.08,140.76,242.28Z" transform="translate(-15.82 -21.96)"/><path d="M280.56,361.44s-.29-2.51,3-2.09-1-2.11-3-2.11-2.57,4.34-2.62,5.65S279.73,363.21,280.56,361.44Z" transform="translate(-15.82 -21.96)"/><path d="M277,381.36a7.85,7.85,0,0,0-5.16-1.68s2.28-10-4.92-13.44-14.16,2.52-14.52,7.56c0,0-1.32,5-.48,6.6a15.23,15.23,0,0,0-6,2.28s-2.52,1.56,0-6-.24-16.31-.24-16.31-1.08-.78,1.2-.64-3.93-4.51-4.6.64c0,0,1.6-1.69,2,3.95s1,10.62-.57,14.43l-2.54,6.81a47.44,47.44,0,0,1-1.69,6.6c-.84,2-1,32.52-.84,34.44s0,18.24,0,18.24,1.36,1.44-6.56,1.32-25.8,1.32-28.68-7.44-1.2-16.21-1.44-20.88-4.28,7.2-4.28,7.2-2.2,20.16,11.12,23.64c0,0-3.72,4.32-.48,8.88s-1,6.12.72,8.4,10.44,3.48,4.8,6.24-7.8,9.48,1.08,13c0,0,2.76,1.56-2.28,4s-3.72,9.36,3.72,10.92c0,0,2.76,1.92-.6,3.12s-7.92,8.28,1.68,11.76c0,0,2.64,1.68-2,2.4s-6,9.24,2.16,14.28,8.4,1.92,4.32-1.2-6.24-5-1.2-5.16,50.28.36,55-2.52c0,0-54.48,1.44-58.44-.84s5.28-.6,4.44-7c0,0-.36-1.2,7.2-.84s51.12.36,58.56-2.64c0,0-39.72.84-49.92,1s-18,1.2-20.88-1.8c0,0,42.24-1.2,63.24-2.88s30.24-4.2,30.72-2.4-12.36,3.36-15.12,3.36,6.24,2.16,16.2-.24c0,0-.6,3,4.68,4.8s-16.08,6.36-27.48,6.24a58.3,58.3,0,0,0,27.72-2.16s4.2.48-2,3.48-35.88,7.52-47.16,5.76a107,107,0,0,0,34.8,0s7.08-2.4,7.2-.72,0,6.48-16.92,9.12-36.36,1.56-43.08,1-20-.12-24.24-3.72-8.16,1.08.24,3.24,8.64,11,16.68,17.28,34,8.64,47-.72-5,1.08-15.6,2-5.64-3,2.88-4,7.44.6,7.44.6-3.24-3-6.36-2,6.6-.24,11-4.2-6.72,2.52-18.48,1.32-2-2.64,10.92-3.48,15.48-4.08,15.48-4.08-15.6,2.16-23.88,2.16,27-3.48,27-3.48,8.16-1.44,11.28-7,1.8-6.6,8.4-8.76c0,0,7-3.6,0-10s-1.32-4.92,2-10.32-10.08-5.76-2.76-11.16a91.9,91.9,0,0,1-15.84,4.08c-7.2,1-31.32,2.52-39,2.88s1.56,3,19.68,1,28.28-2.8,30.72-3.48c0,0,3.36.84-.36,3.24S299,499.2,299,499.2s10.08,2.4,18.48-.84c0,0,3.84,3.72-5.76,4.32s-25.44,4.08-38.4,3-28.68,2.76-38.88,2.76-22.44,1.92-18.12-2.88,11-5.52,23.88-5.76,16.8-1.68,10.44-1.92-31.32,3.72-33.24-1.44c0,0,5.88-.72,45-2s50.76-4.32,50.76-4.32.48-1.8-17.64-.12-77,4.8-78.36,3.24c0,0-6.24-.6-1.8-3.24s3.6-3.72,3.6-3.72,66-.84,76.2-5c0,0-41.28,1.32-49.56,1.56s-27.24,2.4-29.64-1.32c0,0,67.92-2.4,79.2-4s-48,.48-54,.72-27.48,1.08-28.56-.36,2.52-4,16.2-3.48c0,0-7.35-1.51-12.24-1.2,0,0-2.64-4,8.76-3.12s18.48-2.4,28.92-.72c0,0-1.73-4.36-18.12-1.8s-18.72,1.32-18.24-.72,19.56-.72,26.64-1.56,5.64-3.36,11.52-1.44,8-1.8,5.12-4.44-4.76,2-4.76,2,2.52-2.79,4.2-1.56.12,4.2-4.32,2.88-6.48-2.64-14.4-.24-30,4-29.76.48,1.8-5.32,9.72-4.88,22-3.52,22-3.52a169.56,169.56,0,0,1-17.64,1.56c-6.48,0-15.24,4.56-16.08-2.52s7.56-4.56,11.52-4.2,25.92,1.92,29.52,0,.72-2.76.12-8.88c0,0-1.72,1.27-1.56,5.28s-8,3.84-8.16-1.32-.48-47.52-.48-47.52,1.06-5.15,3.11-1.91l4.51-4.71s-4,2.55-4.38-2.5,5.28-3.84,6.12-2.52,1.86,1.68.39,4.26,5.41-1,5.47-1l-2.1.26s-1.72-5.18-4.12-5.78c0,0-.48-2.4,2.88-.6a7.38,7.38,0,0,0,5.64,4.44s1.8,1.08-.72,2.16,4.92-.6,4.8-3.6c0,0-6.2.84-9-4.8s2.16-13.56,8.56-13.44,9,8,7,13.44c0,0-1.81,3.8-4.68,4.32s.72,4.92,5.4-1.56,4.44,3.72-1.56,5.88l5.27-.41s-1-5.44,3.29-4.92S278.52,382.2,277,381.36Z" transform="translate(-15.82 -21.96)"/><path d="M278.88,549.84s7,.37,3.38,2.1,4.2,1.89,6.7.06,3.72-2,7.44-7.44,6-7.94,11.8-11.71l-7.36,2-4,2.29-2.74.28s1.63,1-3.95,1.56a16.1,16.1,0,0,0-8.53,3.25s6.23,1.78-2.77,3.2C278.88,545.42,274.08,549,278.88,549.84Z" transform="translate(-15.82 -21.96)"/><path d="M279.73,542.35s2.41-.39,3.72.73S283.11,540.14,279.73,542.35Z" transform="translate(-15.82 -21.96)"/><path d="M298.8,529.32s-43.8,4.56-57.48,2C241.32,531.36,271.56,539,298.8,529.32Z" transform="translate(-15.82 -21.96)"/><path d="M281.52,500.28s-22.56.12-29.4,2.64-14.88.72-14.88.72a57,57,0,0,0,20.4.62C268.8,502.56,275.76,504.48,281.52,500.28Z" transform="translate(-15.82 -21.96)"/><path d="M311.66,450.57s5.26-.93,5.26,2.31-5,4.8-2.63,8.52,7.91,6.84,2.63,12.12H306.84a191.65,191.65,0,0,1-32.27,3.65l10.19,1.19s26.88-2.92,27.72-1.36.36,3.72,5.16,5.52.48,5.28-11,5.52c0,0-9.36,1.83-14.52,2.22s19.44,0,19.44,0,2.87,1.37-3.56,2.51,8.73-1.49,8.73-1.49,4-3.12,5.48-4,3.63-4.92-2.85-7.92c0,0-4.68-2.64.36-5s2.32-9.9-1.8-12c0,0-4.56-3.36,1.56-5.64s-3.12-4.2.24-10.56l-4.92-1.2Z" transform="translate(-15.82 -21.96)"/><path d="M307.2,458.08s-15.48,1.4-28.56,1.64-12.48,2.16,9,3.36S316.92,458,307.2,458.08Z" transform="translate(-15.82 -21.96)"/><path d="M279.6,472.68s-16.68-5.52-41,1.2C238.56,473.88,265.2,476.52,279.6,472.68Z" transform="translate(-15.82 -21.96)"/><path d="M258.84,451.21s13.21,1.79,19.2,0S266.06,459.73,258.84,451.21Z" transform="translate(-15.82 -21.96)"/><path d="M268.52,441.84s1,3.53-3.1,4.76S272.69,450,268.52,441.84Z" transform="translate(-15.82 -21.96)"/><path d="M282.91,440.75s.29,4.38-3.67,4.72S287.66,449.49,282.91,440.75Z" transform="translate(-15.82 -21.96)"/><path d="M258.3,446.06s-2.46,2.14-2.58-12.5,0-41.4,0-41.4.07-2.11,5.48-1.77-4.28-1.6-8.6,0-1.45,1.41-1.45,1.41,2.57-.57,2.49,2.79,0,46.8,0,46.8-.8,6.36,5.2,7.8,24.24.28,24.24.28Z" transform="translate(-15.82 -21.96)"/><path d="M256.2,441.84s-.73,5,7.55,5S252.59,451.2,256.2,441.84Z" transform="translate(-15.82 -21.96)"/><polygon points="248.7 371.76 248.7 419.88 250.01 419.88 250.01 372.12 248.7 371.76"/><polygon points="245.24 371.64 245.24 419.76 246.54 419.76 246.54 372 245.24 371.64"/><polygon points="241.84 371.64 241.84 419.76 243.14 419.76 243.14 372 241.84 371.64"/><path d="M274.57,309.23s-19,1.09-20.29,1.09,20.29,1.34,20.29,1.34a8,8,0,0,1-5.41,3c-3.72.48-14.94,1.39-17.73-1.95s-1.52,2.89,0,3.18,2,1.92,2.21,10.25,3.22,3.92,3,0-.81-9.32,2.31-9.2,6.24-.6,6.24,1.68.12,26.28.12,26.28-1.08,12.12,4.32,14c0,0-3-3.6-2.52-10s1.44-31,1.44-31,.86-1.44.91,1.8,2.33-4.44,3.77-5.28S278.65,309.69,274.57,309.23Z" transform="translate(-15.82 -21.96)"/><path d="M250.89,300.78s1.92,4.79,4.31,4.48-6.68,4-6.68,4,.55-2.61-1.7-8.45S248.08,294.94,250.89,300.78Z" transform="translate(-15.82 -21.96)"/><path d="M276.05,263.34s-2.07,3.49,5,6.16l4.88.49,2.19-5.39S283.53,271.8,276.05,263.34Z" transform="translate(-15.82 -21.96)"/><path d="M258.31,372.12s4.56-2.76,6.87,1.2S263.65,382.8,259,380s-1.81-7.56-1.81-7.56-4.55,5.88,1.81,9.72,11.29-5.64,7.68-9.72S258.31,372.12,258.31,372.12Z" transform="translate(-15.82 -21.96)"/></g><g id="crown"><path d="M271.44,117.36s-.72-73.44,1.44-95.4C272.88,22,276.48,109.08,271.44,117.36Z" transform="translate(-15.82 -21.96)"/><path d="M284,117.36s5-78.48,10.08-95.4C294.12,22,290.88,117,284,117.36Z" transform="translate(-15.82 -21.96)"/><path d="M342.82,32.4s-25.5,91.62-32.24,90.36c0,0,23.36-75.1,32.24-90.36" transform="translate(-15.82 -21.96)"/><path d="M304.92,86s-8.28,26.64-7.92,31.32S301.32,119.16,304.92,86Z" transform="translate(-15.82 -21.96)"/><path d="M304.92,82.08s1.8-7.2,4-9S308.88,89.28,304.92,82.08Z" transform="translate(-15.82 -21.96)"/><path d="M310.58,69.66s-2.78-2.34,2.62-12.78S315.62,59.43,310.58,69.66Z" transform="translate(-15.82 -21.96)"/><path d="M436.93,89.11S374.51,160.85,369,156.82c0,0,53.37-57.75,67.95-67.71" transform="translate(-15.82 -21.96)"/><path d="M379.65,121.23S360.72,141.72,359,146.1,362.16,149.59,379.65,121.23Z" transform="translate(-15.82 -21.96)"/><path d="M381.36,117.66s4.72-5.73,7.44-6.42S381.83,125.86,381.36,117.66Z" transform="translate(-15.82 -21.96)"/><path d="M391.81,108.88s-1.51-3.31,7.86-10.41S400.76,101.81,391.81,108.88Z" transform="translate(-15.82 -21.96)"/><path d="M469.19,124.79s-76.14,57-80.7,51.86c0,0,64.35-45.2,80.7-51.86" transform="translate(-15.82 -21.96)"/><path d="M406.43,144.12s-22.83,16-25.4,20S383.35,168.14,406.43,144.12Z" transform="translate(-15.82 -21.96)"/><path d="M408.84,141s5.83-4.6,8.64-4.71S407.58,149.1,408.84,141Z" transform="translate(-15.82 -21.96)"/><path d="M420.92,134.61s-.78-3.56,9.87-8.53S431.15,129.58,420.92,134.61Z" transform="translate(-15.82 -21.96)"/><path d="M506.19,319.08s-89.67-31.65-92.5-25.42c0,0,74.91,23.94,92.5,25.42" transform="translate(-15.82 -21.96)"/><path d="M440.52,319.36s-26.57-8.49-30.2-11.47S411.32,303.32,440.52,319.36Z" transform="translate(-15.82 -21.96)"/><path d="M443.76,321.63s6.93,2.66,9.65,1.92S440.14,314.26,443.76,321.63Z" transform="translate(-15.82 -21.96)"/><path d="M457.19,324.12s.32,3.62,12,5.19S468.46,325.86,457.19,324.12Z" transform="translate(-15.82 -21.96)"/><path d="M325.08,124.79s20.16-48.18,29.52-63.45C354.6,61.34,330.84,130.05,325.08,124.79Z" transform="translate(-15.82 -21.96)"/><path d="M356,56.16s0-9.72,6.84-15.84S356,65.88,356,56.16Z" transform="translate(-15.82 -21.96)"/><path d="M348.84,140s3.6-10.56,18-24.32C366.84,115.65,356.76,137.73,348.84,140Z" transform="translate(-15.82 -21.96)"/><path d="M369,111.21s-.34-4.29,9-13.65S375.79,106.51,369,111.21Z" transform="translate(-15.82 -21.96)"/><path d="M337.17,135.13s35.26-70.29,46.5-83.9C383.67,51.23,343.61,137.47,337.17,135.13Z" transform="translate(-15.82 -21.96)"/><path d="M491.92,162.81S408.87,209.14,405,203.47c0,0,69.8-36.23,86.89-40.66" transform="translate(-15.82 -21.96)"/><path d="M513.81,255.15s-94.79,7.54-95.93.78c0,0,78.55-3.87,95.93-.78" transform="translate(-15.82 -21.96)"/><path d="M397.76,188.64S436.5,168,448.47,162.81,404.2,194,397.76,188.64Z" transform="translate(-15.82 -21.96)"/><path d="M455,160.2s2.52-3.4,8.64-5.12S463.68,159.84,455,160.2Z" transform="translate(-15.82 -21.96)"/><path d="M410.76,217.44S435.6,204.5,445.32,204,415.8,220.68,410.76,217.44Z" transform="translate(-15.82 -21.96)"/><path d="M451.44,203.93s3.6-7,11.16-6.65S457.56,203.92,451.44,203.93Z" transform="translate(-15.82 -21.96)"/><path d="M413.69,229.68s37.75-12,72.31-18.79S438.58,229.32,413.69,229.68Z" transform="translate(-15.82 -21.96)"/><path d="M415.8,244.44s21.32-9.36,44.14-5.76S415.8,244.44,415.8,244.44Z" transform="translate(-15.82 -21.96)"/><path d="M471.24,237.86s6.48-4.58,31.32-3.86S481.68,241.35,471.24,237.86Z" transform="translate(-15.82 -21.96)"/><path d="M417.88,266.66s53.36,2.26,69.56,8.74S417.88,266.66,417.88,266.66Z" transform="translate(-15.82 -21.96)"/><path d="M496.08,277a48,48,0,0,1,17.73,3.07C523.8,283.68,498.6,281.85,496.08,277Z" transform="translate(-15.82 -21.96)"/><path d="M417.88,279.47s60.92,11.51,78.2,23.34S417.88,279.47,417.88,279.47Z" transform="translate(-15.82 -21.96)"/><path d="M405,319.36s61.17,24.81,80.61,41S406.13,323,405,319.36Z" transform="translate(-15.82 -21.96)"/><path d="M397.08,329.6s49.54,28.6,60.95,38.32S401.76,340.25,397.08,329.6Z" transform="translate(-15.82 -21.96)"/><path d="M388.8,341.39s31.28,17.79,39.4,29.18S393.48,347.25,388.8,341.39Z" transform="translate(-15.82 -21.96)"/><path d="M440.52,380.16s14.18,6.12,25.33,22S446.52,389.16,440.52,380.16Z" transform="translate(-15.82 -21.96)"/><path d="M383.4,353.16s52.84,42.94,75.92,66.65S402,379,383.4,353.16Z" transform="translate(-15.82 -21.96)"/><path d="M375.48,363.49s23.14,15.23,38.21,36.83S382.32,374.18,375.48,363.49Z" transform="translate(-15.82 -21.96)"/><path d="M370.44,375.12s23.4,27.72,30.6,36S384.84,380.16,370.44,375.12Z" transform="translate(-15.82 -21.96)"/><path d="M417.88,409.68,438.12,432S439.41,423,417.88,409.68Z" transform="translate(-15.82 -21.96)"/><path d="M260.52,117.51s.72-73.44-1.44-95.4C259.08,22.11,255.48,109.23,260.52,117.51Z" transform="translate(-15.82 -21.96)"/><path d="M247.92,117.51s-5-78.48-10.08-95.4C237.84,22.11,241.08,117.15,247.92,117.51Z" transform="translate(-15.82 -21.96)"/><path d="M189.15,32.55s25.5,91.61,32.23,90.35c0,0-23.35-75.09-32.23-90.35" transform="translate(-15.82 -21.96)"/><path d="M227,86.19s8.28,26.64,7.92,31.32S230.64,119.31,227,86.19Z" transform="translate(-15.82 -21.96)"/><path d="M227,82.23s-1.8-7.2-4-9S223.08,89.43,227,82.23Z" transform="translate(-15.82 -21.96)"/><path d="M221.38,69.81s2.78-2.34-2.62-12.78S216.34,59.58,221.38,69.81Z" transform="translate(-15.82 -21.96)"/><path d="M95,89.25S157.45,161,163,157c0,0-53.38-57.75-68-67.71" transform="translate(-15.82 -21.96)"/><path d="M152.31,121.38s18.93,20.49,20.62,24.87S169.81,149.73,152.31,121.38Z" transform="translate(-15.82 -21.96)"/><path d="M150.61,117.81s-4.72-5.73-7.45-6.43S150.13,126,150.61,117.81Z" transform="translate(-15.82 -21.96)"/><path d="M140.15,109s1.51-3.31-7.85-10.41S131.21,102,140.15,109Z" transform="translate(-15.82 -21.96)"/><path d="M62.77,124.93s76.14,57,80.71,51.87c0,0-64.36-45.2-80.71-51.87" transform="translate(-15.82 -21.96)"/><path d="M125.54,144.26s22.82,16,25.4,20S148.62,168.29,125.54,144.26Z" transform="translate(-15.82 -21.96)"/><path d="M123.12,141.13s-5.82-4.6-8.63-4.71S124.38,149.25,123.12,141.13Z" transform="translate(-15.82 -21.96)"/><path d="M111.05,134.75s.78-3.55-9.88-8.52S100.81,129.73,111.05,134.75Z" transform="translate(-15.82 -21.96)"/><path d="M25.77,319.23s89.67-31.66,92.51-25.42c0,0-74.91,23.94-92.51,25.42" transform="translate(-15.82 -21.96)"/><path d="M91.45,319.51S118,311,121.65,308,120.64,303.46,91.45,319.51Z" transform="translate(-15.82 -21.96)"/><path d="M88.2,321.78s-6.93,2.66-9.64,1.92S91.83,314.41,88.2,321.78Z" transform="translate(-15.82 -21.96)"/><path d="M74.78,324.26s-.32,3.63-12,5.19S63.51,326,74.78,324.26Z" transform="translate(-15.82 -21.96)"/><path d="M206.88,124.93s-20.16-48.18-29.52-63.44C177.36,61.49,201.12,130.2,206.88,124.93Z" transform="translate(-15.82 -21.96)"/><path d="M175.92,56.31s0-9.72-6.84-15.84S175.92,66,175.92,56.31Z" transform="translate(-15.82 -21.96)"/><path d="M183.12,140.11s-3.6-10.55-18-24.32C165.12,115.79,175.2,137.88,183.12,140.11Z" transform="translate(-15.82 -21.96)"/><path d="M163,111.36s.33-4.29-9-13.65S156.17,106.65,163,111.36Z" transform="translate(-15.82 -21.96)"/><path d="M194.8,135.28S159.54,65,148.3,51.37C148.3,51.37,188.36,137.62,194.8,135.28Z" transform="translate(-15.82 -21.96)"/><path d="M40.05,163s83.05,46.32,86.89,40.65c0,0-69.8-36.22-86.89-40.65" transform="translate(-15.82 -21.96)"/><path d="M18.15,255.3s94.8,7.54,95.93.78c0,0-78.55-3.87-95.93-.78" transform="translate(-15.82 -21.96)"/><path d="M134.2,188.79S95.46,168.09,83.49,163,127.76,194.19,134.2,188.79Z" transform="translate(-15.82 -21.96)"/><path d="M76.92,160.35s-2.52-3.4-8.64-5.12S68.28,160,76.92,160.35Z" transform="translate(-15.82 -21.96)"/><path d="M121.2,217.59s-24.84-13-34.56-13.5S116.16,220.83,121.2,217.59Z" transform="translate(-15.82 -21.96)"/><path d="M80.52,204.08s-3.6-7-11.16-6.65S74.4,204.07,80.52,204.08Z" transform="translate(-15.82 -21.96)"/><path d="M118.28,229.83S80.52,217.81,46,211,93.39,229.47,118.28,229.83Z" transform="translate(-15.82 -21.96)"/><path d="M116.16,244.59S94.84,235.23,72,238.83,116.16,244.59,116.16,244.59Z" transform="translate(-15.82 -21.96)"/><path d="M60.72,238s-6.48-4.57-31.32-3.85S50.28,241.5,60.72,238Z" transform="translate(-15.82 -21.96)"/><path d="M114.08,266.81s-53.36,2.26-69.56,8.74S114.08,266.81,114.08,266.81Z" transform="translate(-15.82 -21.96)"/><path d="M35.88,277.15a48.1,48.1,0,0,0-17.73,3.08C8.16,283.83,33.36,282,35.88,277.15Z" transform="translate(-15.82 -21.96)"/><path d="M114.08,279.62S53.16,291.13,35.88,303,114.08,279.62,114.08,279.62Z" transform="translate(-15.82 -21.96)"/><path d="M126.94,319.51s-61.18,24.81-80.62,41S125.83,323.15,126.94,319.51Z" transform="translate(-15.82 -21.96)"/><path d="M134.88,329.75s-49.53,28.6-60.94,38.32S130.2,340.39,134.88,329.75Z" transform="translate(-15.82 -21.96)"/><path d="M143.16,341.53s-31.28,17.79-39.4,29.19S138.48,347.4,143.16,341.53Z" transform="translate(-15.82 -21.96)"/><path d="M91.45,380.31s-14.18,6.12-25.33,22S85.45,389.31,91.45,380.31Z" transform="translate(-15.82 -21.96)"/><path d="M148.56,353.31S95.72,396.25,72.64,420,130,379.1,148.56,353.31Z" transform="translate(-15.82 -21.96)"/><path d="M156.48,363.64s-23.13,15.23-38.2,36.83S149.64,374.33,156.48,363.64Z" transform="translate(-15.82 -21.96)"/><path d="M161.52,375.27s-23.4,27.72-30.6,36S147.12,380.31,161.52,375.27Z" transform="translate(-15.82 -21.96)"/><path d="M114.08,409.83,93.84,432.15S92.56,423.15,114.08,409.83Z" transform="translate(-15.82 -21.96)"/></g></svg>