<svg xmlns="http://www.w3.org/2000/svg" viewBox="0 0 2783.35 570.1"><defs><style>.cls-1,.cls-2{fill:none;stroke:#000;stroke-miterlimit:10;}.cls-1{stroke-width:0.89px;}.cls-2{stroke-width:2.68px;}</style></defs><title>Asset 2</title><g id="Layer_2" data-name="Layer 2"><g id="Layer_1-2" data-name="Layer 1"><g id="timeline"><g id="vertical_line" data-name="vertical line"><line class="cls-1" x1="0.95" x2="0.45" y2="565.4"/></g><line class="cls-2" x1="201.55" y1="561.2" x2="201.55" y2="451.7"/><line id="line1" class="cls-1" x1="0.85" y1="565.6" x2="201.55" y2="565.6"/><line id="line2" class="cls-1" x1="211.05" y1="565.6" x2="478.25" y2="565.6"/><line id="line3" class="cls-1" x1="483.45" y1="565.6" x2="761.95" y2="565.8"/><line id="line4" class="cls-1" x1="761.95" y1="565.8" x2="1029.15" y2="565.8"/><line id="line5" class="cls-1" x1="1033.45" y1="565.6" x2="1311.15" y2="565.8"/><line id="line6" class="cls-1" x1="1327.55" y1="565.8" x2="1604.25" y2="565.6"/><line id="line7" class="cls-1" x1="1608.95" y1="566" x2="1885.65" y2="565.8"/><line id="line8" class="cls-1" x1="1902.35" y1="565.9" x2="2179.05" y2="565.7"/><line id="line9" class="cls-1" x1="2191.85" y1="566" x2="2468.55" y2="565.8"/><line id="line10" class="cls-1" x1="2487.64" y1="566.1" x2="2764.35" y2="565.9"/><g id="bullets"><ellipse id="point1" cx="201.55" cy="565.6" rx="30", rx="30"/><ellipse id="point2" cx="478.25" cy="564.9"  rx="30", rx="30"/><ellipse id="point3" cx="761.95" cy="565.6"  rx="30", rx="30"/><ellipse id="point4" cx="1033.45" cy="565.6" rx="30", rx="30"/><ellipse id="point5" cx="1318.85" cy="565.6"  rx="30", rx="30"/><ellipse id="point6" cx="1604.25" cy="564.9" rx="30", rx="30"/><ellipse id="point7" cx="1892.75" cy="564.9" rx="30", rx="30"/><ellipse id="point8" cx="2182.35" cy="564.9" rx="30", rx="30"/><ellipse id="point9" cx="2478.14" cy="565.7" rx="30", rx="30"/><ellipse id="point10" cx="2773.85" cy="565.7" rx="30", rx="30"/></g></g></g></g></svg>