<svg xmlns="http://www.w3.org/2000/svg" viewBox="0 0 1609.39 401.3"><defs><style>.cls-1,.cls-2{fill:none;stroke:#000;stroke-miterlimit:10;}.cls-1{stroke-width:0.89px;}.cls-2{stroke-width:2.68px;}</style></defs><title>Asset 2</title><g id="Layer_2" data-name="Layer 2"><g id="Layer_1-2" data-name="Layer 1"><g id="timeline"><g id="vertical_line" data-name="vertical line"><line class="cls-1" x1="0.65" x2="0.45" y2="396.6"/></g><line class="cls-2" x1="116.65" y1="392.4" x2="116.65" y2="282.9"/><line id="line1" class="cls-1" x1="0.65" y1="396.8" x2="116.65" y2="396.8"/><line id="line2" class="cls-1" x1="122.15" y1="396.8" x2="276.65" y2="396.8"/><line id="line3" class="cls-1" x1="279.65" y1="396.8" x2="440.65" y2="397"/><line id="line4" class="cls-1" x1="440.65" y1="397" x2="595.15" y2="397"/><line id="line5" class="cls-1" x1="597.65" y1="396.8" x2="758.15" y2="397"/><line id="line6" class="cls-1" x1="767.65" y1="397" x2="927.65" y2="396.8"/><line id="line7" class="cls-1" x1="930.37" y1="397.2" x2="1090.37" y2="397"/><line id="line8" class="cls-1" x1="1099.9" y1="397.1" x2="1259.9" y2="396.9"/><line id="line9" class="cls-1" x1="1267.39" y1="397.2" x2="1427.39" y2="397"/><line id="line10" class="cls-1" x1="1438.39" y1="397.3" x2="1598.39" y2="397.1"/><g id="bullets"><ellipse id="point1" cx="116.65" cy="396.8" rx="5.5" ry="4.4"/><ellipse id="point2" cx="276.65" cy="396.1" rx="5.5" ry="4.4"/><ellipse id="point3" cx="440.65" cy="396.8" rx="5.5" ry="4.4"/><ellipse id="point4" cx="597.65" cy="396.8" rx="5.5" ry="4.4"/><ellipse id="point5" cx="762.65" cy="396.8" rx="5.5" ry="4.4"/><ellipse id="point6" cx="927.65" cy="396.1" rx="5.5" ry="4.4"/><ellipse id="point7" cx="1094.4" cy="396.1" rx="5.5" ry="4.4"/><ellipse id="point8" cx="1261.89" cy="396.1" rx="5.5" ry="4.4"/><ellipse id="point9" cx="1432.89" cy="396.9" rx="5.5" ry="4.4"/><ellipse id="point10" cx="1603.89" cy="396.9" rx="5.5" ry="4.4"/></g></g></g></g></svg>