<svg xmlns="http://www.w3.org/2000/svg" viewBox="0 0 840 242.4"><defs><style>.cls-1{fill:#fff;}.cls-2{fill:#d6f2ff;}.cls-10,.cls-11,.cls-12,.cls-3,.cls-8,.cls-9{isolation:isolate;}.cls-12,.cls-3,.cls-9{font-size:28.52px;}.cls-3,.cls-8,.cls-9{font-family:FootlightMTLight, Footlight MT Light;}.cls-4{letter-spacing:0.09em;}.cls-5{letter-spacing:-0.04em;}.cls-6{letter-spacing:0.01em;}.cls-7{letter-spacing:0em;}.cls-10,.cls-11,.cls-8{font-size:14.26px;}.cls-11,.cls-8{fill:gray;}.cls-9{fill:#999;}.cls-10{fill:#b3b3b3;}.cls-10,.cls-11,.cls-12{font-family:Gadugi;}</style></defs><title>Asset 2</title><g id="Layer_2" data-name="Layer 2"><g id="Layer_1-2" data-name="Layer 1"><g id="poster"><g id="infobox"><rect class="cls-1" x="2" y="1.6" width="836" height="239.2"/><path d="M836,3.2V239.3H4V3.2H836M840,0H0V242.4H840Z"/></g><rect class="cls-2" x="2" y="1.6" width="836" height="239.2"/><path d="M836,3.2V239.3H4V3.2H836M840,0H0V242.4H840Z"/><text class="cls-3" transform="translate(217.99 35.74) scale(1.26 1)">T</text><text class="cls-3" transform="translate(235.63 35.74) scale(1.26 1)">he i</text><text class="cls-3" transform="translate(289.7 35.74) scale(1.26 1)">n</text><text class="cls-3" transform="translate(309.21 35.74) scale(1.26 1)">v</text><text class="cls-3" transform="translate(326.17 35.74) scale(1.26 1)">e</text><text class="cls-3" transform="translate(344.2 35.74) scale(1.26 1)">n</text><text class="cls-3" transform="translate(364.04 35.74) scale(1.26 1)">tion o<tspan class="cls-4" x="66.86" y="0">f</tspan><tspan x="78.25" y="0" xml:space="preserve"> the l</tspan><tspan class="cls-5" x="136.77" y="0">i</tspan><tspan x="143.42" y="0">g</tspan></text><text class="cls-3" transform="translate(564.27 35.74) scale(1.26 1)">h</text><text class="cls-3" transform="translate(584.1 35.74) scale(1.26 1)">t <tspan class="cls-6" x="15.44" y="0">b</tspan><tspan class="cls-7" x="30.34" y="0">ulb</tspan></text><text class="cls-8" transform="translate(217.99 54.75) scale(1.26 1)">b</text><text class="cls-8" transform="translate(228.11 54.75) scale(1.26 1)">y </text><text class="cls-8" transform="translate(240.4 54.75) scale(1.26 1)">E</text><text class="cls-8" transform="translate(249.18 54.75) scale(1.26 1)">dison</text><text class="cls-9" transform="translate(730.99 62.67) scale(1.26 1)">1879</text><text class="cls-10" transform="translate(217.99 93.57) scale(1.26 1)">2h 22min</text><text class="cls-11" transform="translate(217.99 125.25) scale(1.26 1)">Di</text><text class="cls-11" transform="translate(234.19 125.25) scale(1.26 1)">r</text><text class="cls-11" transform="translate(239.9 125.25) scale(1.26 1)">e</text><text class="cls-11" transform="translate(248.91 125.25) scale(1.26 1)">c</text><text class="cls-11" transform="translate(257.21 125.25) scale(1.26 1)">t</text><text class="cls-11" transform="translate(263.06 125.25) scale(1.26 1)">ed </text><text class="cls-11" transform="translate(286.05 125.25) scale(1.26 1)">b</text><text class="cls-11" transform="translate(296.16 125.25) scale(1.26 1)">y</text><text class="cls-12" transform="translate(217.99 157.73) scale(1.26 1)">A</text><text class="cls-12" transform="translate(239.91 157.73) scale(1.26 1)">l</text><text class="cls-12" transform="translate(248.41 157.73) scale(1.26 1)">f</text><text class="cls-12" transform="translate(258.45 157.73) scale(1.26 1)">onso </text><text class="cls-12" transform="translate(339.85 157.73) scale(1.26 1)">C</text><text class="cls-12" transform="translate(360.3 157.73) scale(1.26 1)">ua</text><text class="cls-12" transform="translate(397.49 157.73) scale(1.26 1)">r</text><text class="cls-12" transform="translate(408.9 157.73) scale(1.26 1)">ón</text><text class="cls-11" transform="translate(217.99 193.38) scale(1.26 1)">S</text><text class="cls-11" transform="translate(226.97 193.38) scale(1.26 1)">c</text><text class="cls-11" transform="translate(235.04 193.38) scale(1.26 1)">r</text><text class="cls-11" transform="translate(240.74 193.38) scale(1.26 1)">eenpl</text><text class="cls-11" transform="translate(283.26 193.38) scale(1.26 1)">a</text><text class="cls-11" transform="translate(291.79 193.38) scale(1.26 1)">y </text><text class="cls-11" transform="translate(304.08 193.38) scale(1.26 1)">b</text><text class="cls-11" transform="translate(314.2 193.38) scale(1.26 1)">y</text><text class="cls-12" transform="translate(217.99 220.32) scale(1.26 1)">S</text><text class="cls-12" transform="translate(235.63 220.32) scale(1.26 1)">t</text><text class="cls-12" transform="translate(247.33 220.32) scale(1.26 1)">e</text><text class="cls-12" transform="translate(265.37 220.32) scale(1.26 1)">v</text><text class="cls-12" transform="translate(282.32 220.32) scale(1.26 1)">e </text><text class="cls-12" transform="translate(307.99 220.32) scale(1.26 1)">K</text><text class="cls-12" transform="translate(327.86 220.32) scale(1.26 1)">l</text><text class="cls-12" transform="translate(336.36 220.32) scale(1.26 1)">o</text><text class="cls-12" transform="translate(355.87 220.32) scale(1.26 1)">v</text><text class="cls-12" transform="translate(372.82 220.32) scale(1.26 1)">es</text></g></g></g></svg>