<svg id="laser" xmlns="http://www.w3.org/2000/svg" viewBox="0 0 554.63 509.65"><defs><style>.cls-1{fill:none;stroke:#fff;stroke-miterlimit:10;stroke-width:4px;}</style></defs><title>laser</title><line class="cls-1" x1="466.18" y1="103.63" x2="29.85" y2="508.18"/><line class="cls-1" x1="443.18" y1="88.42" x2="1.28" y2="457.04"/><line class="cls-1" x1="466.18" y1="103.63" x2="465.66" y2="123.48"/><line class="cls-1" x1="477.65" y1="106.86" x2="465.66" y2="123.48"/><line class="cls-1" x1="483" y1="123.36" x2="477.65" y2="106.86"/><line class="cls-1" x1="493.52" y1="107.57" x2="483" y2="123.36"/><line class="cls-1" x1="506.54" y1="134.35" x2="493.52" y2="107.57"/><line class="cls-1" x1="508.66" y1="108.71" x2="506.54" y2="134.35"/><line class="cls-1" x1="532.45" y1="132.27" x2="508.66" y2="108.71"/><line class="cls-1" x1="518.45" y1="93.34" x2="532.45" y2="132.27"/><line class="cls-1" x1="553.18" y1="101.86" x2="518.45" y2="93.34"/><line class="cls-1" x1="529.7" y1="77.14" x2="553.18" y2="101.86"/><line class="cls-1" x1="552.9" y1="73.67" x2="529.7" y2="77.14"/><line class="cls-1" x1="525.91" y1="61.71" x2="552.9" y2="73.67"/><line class="cls-1" x1="541.15" y1="42.25" x2="525.91" y2="61.71"/><line class="cls-1" x1="526.94" y1="44.5" x2="541.15" y2="42.25"/><line class="cls-1" x1="533.16" y1="33.13" x2="526.94" y2="44.5"/><line class="cls-1" x1="520.6" y1="38.35" x2="533.16" y2="33.13"/><line class="cls-1" x1="531.57" y1="16.44" x2="520.6" y2="38.35"/><line class="cls-1" x1="508.94" y1="31.32" x2="531.57" y2="16.44"/><line class="cls-1" x1="511.98" y1="9.06" x2="508.94" y2="31.32"/><line class="cls-1" x1="490.46" y1="31.12" x2="511.98" y2="9.06"/><line class="cls-1" x1="482.15" y1="0.67" x2="490.46" y2="31.12"/><line class="cls-1" x1="471.24" y1="31.34" x2="482.15" y2="0.67"/><line class="cls-1" x1="450.38" y1="6.1" x2="471.24" y2="31.34"/><line class="cls-1" x1="455.94" y1="42.03" x2="450.38" y2="6.1"/><line class="cls-1" x1="426.12" y1="33.64" x2="455.94" y2="42.03"/><line class="cls-1" x1="445.14" y1="52.11" x2="426.12" y2="33.64"/><line class="cls-1" x1="429.78" y1="54.03" x2="445.14" y2="52.11"/><line class="cls-1" x1="444.24" y1="64.35" x2="429.78" y2="54.03"/><line class="cls-1" x1="428.62" y1="76.2" x2="444.24" y2="64.35"/><line class="cls-1" x1="443.98" y1="74.27" x2="428.62" y2="76.2"/><line class="cls-1" x1="430.11" y1="90.99" x2="443.98" y2="74.27"/><line class="cls-1" x1="443.18" y1="88.42" x2="430.11" y2="90.99"/><line class="cls-1" x1="469.91" y1="94.96" x2="469.51" y2="110.48"/><line class="cls-1" x1="478.89" y1="97.48" x2="469.51" y2="110.48"/><line class="cls-1" x1="483.07" y1="110.39" x2="478.89" y2="97.48"/><line class="cls-1" x1="491.3" y1="98.04" x2="483.07" y2="110.39"/><line class="cls-1" x1="501.49" y1="118.99" x2="491.3" y2="98.04"/><line class="cls-1" x1="503.14" y1="98.93" x2="501.49" y2="118.99"/><line class="cls-1" x1="521.75" y1="117.36" x2="503.14" y2="98.93"/><line class="cls-1" x1="510.8" y1="86.91" x2="521.75" y2="117.36"/><line class="cls-1" x1="537.97" y1="93.57" x2="510.8" y2="86.91"/><line class="cls-1" x1="519.6" y1="74.23" x2="537.97" y2="93.57"/><line class="cls-1" x1="537.75" y1="71.52" x2="519.6" y2="74.23"/><line class="cls-1" x1="516.64" y1="62.16" x2="537.75" y2="71.52"/><line class="cls-1" x1="528.56" y1="46.94" x2="516.64" y2="62.16"/><line class="cls-1" x1="517.44" y1="48.7" x2="528.56" y2="46.94"/><line class="cls-1" x1="522.31" y1="39.81" x2="517.44" y2="48.7"/><line class="cls-1" x1="512.48" y1="43.89" x2="522.31" y2="39.81"/><line class="cls-1" x1="521.07" y1="26.75" x2="512.48" y2="43.89"/><line class="cls-1" x1="503.36" y1="38.39" x2="521.07" y2="26.75"/><line class="cls-1" x1="505.74" y1="20.98" x2="503.36" y2="38.39"/><line class="cls-1" x1="488.91" y1="38.23" x2="505.74" y2="20.98"/><line class="cls-1" x1="482.41" y1="14.41" x2="488.91" y2="38.23"/><line class="cls-1" x1="473.87" y1="38.4" x2="482.41" y2="14.41"/><line class="cls-1" x1="457.56" y1="18.66" x2="473.87" y2="38.4"/><line class="cls-1" x1="461.91" y1="46.77" x2="457.56" y2="18.66"/><line class="cls-1" x1="438.58" y1="40.2" x2="461.91" y2="46.77"/><line class="cls-1" x1="453.45" y1="54.65" x2="438.58" y2="40.2"/><line class="cls-1" x1="441.44" y1="56.16" x2="453.45" y2="54.65"/><line class="cls-1" x1="452.75" y1="64.23" x2="441.44" y2="56.16"/><line class="cls-1" x1="442.35" y1="72.22" x2="452.61" y2="63.97"/><line class="cls-1" x1="453.05" y1="71.7" x2="442.35" y2="72.22"/><line class="cls-1" x1="441.7" y1="85.07" x2="452.55" y2="71.99"/><line class="cls-1" x1="455.32" y1="82.46" x2="441.7" y2="85.07"/><line class="cls-1" x1="469.87" y1="93.67" x2="27.36" y2="503.74"/><line class="cls-1" x1="455.32" y1="82.46" x2="2.86" y2="459.48"/></svg>