<svg id="laser" xmlns="http://www.w3.org/2000/svg" viewBox="0 0 552.58 508.05"><defs><style>.cls-1{fill:none;stroke:#fff;stroke-miterlimit:20;}</style></defs><title>laser</title><line class="cls-1" x1="465.22" y1="103.13" x2="28.88" y2="507.68"/><line class="cls-1" x1="442.22" y1="87.91" x2="0.32" y2="456.54"/><line class="cls-1" x1="465.22" y1="103.13" x2="464.7" y2="122.98"/><line class="cls-1" x1="476.69" y1="106.36" x2="464.7" y2="122.98"/><line class="cls-1" x1="482.04" y1="122.86" x2="476.69" y2="106.36"/><line class="cls-1" x1="492.56" y1="107.07" x2="482.04" y2="122.86"/><line class="cls-1" x1="505.58" y1="133.85" x2="492.56" y2="107.07"/><line class="cls-1" x1="507.7" y1="108.21" x2="505.58" y2="133.85"/><line class="cls-1" x1="531.49" y1="131.77" x2="507.7" y2="108.21"/><line class="cls-1" x1="517.48" y1="92.84" x2="531.49" y2="131.77"/><line class="cls-1" x1="552.21" y1="101.36" x2="517.48" y2="92.84"/><line class="cls-1" x1="528.74" y1="76.64" x2="552.21" y2="101.36"/><line class="cls-1" x1="551.94" y1="73.17" x2="528.74" y2="76.64"/><line class="cls-1" x1="524.95" y1="61.21" x2="551.94" y2="73.17"/><line class="cls-1" x1="540.19" y1="41.75" x2="524.95" y2="61.21"/><line class="cls-1" x1="525.98" y1="44" x2="540.19" y2="41.75"/><line class="cls-1" x1="532.2" y1="32.63" x2="525.98" y2="44"/><line class="cls-1" x1="519.64" y1="37.85" x2="532.2" y2="32.63"/><line class="cls-1" x1="530.61" y1="15.94" x2="519.64" y2="37.85"/><line class="cls-1" x1="507.98" y1="30.82" x2="530.61" y2="15.94"/><line class="cls-1" x1="511.02" y1="8.56" x2="507.98" y2="30.82"/><line class="cls-1" x1="489.5" y1="30.62" x2="511.02" y2="8.56"/><line class="cls-1" x1="481.19" y1="0.17" x2="489.5" y2="30.62"/><line class="cls-1" x1="470.28" y1="30.84" x2="481.19" y2="0.17"/><line class="cls-1" x1="449.42" y1="5.6" x2="470.28" y2="30.84"/><line class="cls-1" x1="454.98" y1="41.53" x2="449.42" y2="5.6"/><line class="cls-1" x1="425.16" y1="33.14" x2="454.98" y2="41.53"/><line class="cls-1" x1="444.18" y1="51.61" x2="425.16" y2="33.14"/><line class="cls-1" x1="428.82" y1="53.53" x2="444.18" y2="51.61"/><line class="cls-1" x1="443.28" y1="63.85" x2="428.82" y2="53.53"/><line class="cls-1" x1="427.66" y1="75.7" x2="443.28" y2="63.85"/><line class="cls-1" x1="443.02" y1="73.77" x2="427.66" y2="75.7"/><line class="cls-1" x1="429.15" y1="90.49" x2="443.02" y2="73.77"/><line class="cls-1" x1="442.22" y1="87.91" x2="429.15" y2="90.49"/><line class="cls-1" x1="468.95" y1="94.46" x2="468.55" y2="109.98"/><line class="cls-1" x1="477.93" y1="96.98" x2="468.55" y2="109.98"/><line class="cls-1" x1="482.11" y1="109.89" x2="477.93" y2="96.98"/><line class="cls-1" x1="490.34" y1="97.54" x2="482.11" y2="109.89"/><line class="cls-1" x1="500.53" y1="118.49" x2="490.34" y2="97.54"/><line class="cls-1" x1="502.18" y1="98.43" x2="500.53" y2="118.49"/><line class="cls-1" x1="520.79" y1="116.86" x2="502.18" y2="98.43"/><line class="cls-1" x1="509.84" y1="86.41" x2="520.79" y2="116.86"/><line class="cls-1" x1="537" y1="93.07" x2="509.84" y2="86.41"/><line class="cls-1" x1="518.64" y1="73.73" x2="537" y2="93.07"/><line class="cls-1" x1="536.79" y1="71.02" x2="518.64" y2="73.73"/><line class="cls-1" x1="515.68" y1="61.66" x2="536.79" y2="71.02"/><line class="cls-1" x1="527.6" y1="46.44" x2="515.68" y2="61.66"/><line class="cls-1" x1="516.48" y1="48.2" x2="527.6" y2="46.44"/><line class="cls-1" x1="521.35" y1="39.31" x2="516.48" y2="48.2"/><line class="cls-1" x1="511.52" y1="43.39" x2="521.35" y2="39.31"/><line class="cls-1" x1="520.11" y1="26.25" x2="511.52" y2="43.39"/><line class="cls-1" x1="502.4" y1="37.89" x2="520.11" y2="26.25"/><line class="cls-1" x1="504.78" y1="20.48" x2="502.4" y2="37.89"/><line class="cls-1" x1="487.94" y1="37.73" x2="504.78" y2="20.48"/><line class="cls-1" x1="481.45" y1="13.91" x2="487.94" y2="37.73"/><line class="cls-1" x1="472.91" y1="37.9" x2="481.45" y2="13.91"/><line class="cls-1" x1="456.59" y1="18.16" x2="472.91" y2="37.9"/><line class="cls-1" x1="460.95" y1="46.27" x2="456.59" y2="18.16"/><line class="cls-1" x1="437.62" y1="39.7" x2="460.95" y2="46.27"/><line class="cls-1" x1="452.49" y1="54.15" x2="437.62" y2="39.7"/><line class="cls-1" x1="440.48" y1="55.66" x2="452.49" y2="54.15"/><line class="cls-1" x1="451.79" y1="63.73" x2="440.48" y2="55.66"/><line class="cls-1" x1="441.39" y1="71.72" x2="451.65" y2="63.47"/><line class="cls-1" x1="452.09" y1="71.2" x2="441.39" y2="71.72"/><line class="cls-1" x1="440.74" y1="84.57" x2="451.59" y2="71.49"/><line class="cls-1" x1="454.36" y1="81.96" x2="440.74" y2="84.57"/><line class="cls-1" x1="468.91" y1="93.17" x2="26.4" y2="503.24"/><line class="cls-1" x1="454.36" y1="81.96" x2="1.9" y2="458.98"/></svg>