<svg id="laser" xmlns="http://www.w3.org/2000/svg" viewBox="0 0 555.31 510.19"><defs><style>.cls-1{fill:none;stroke:#fff;stroke-miterlimit:10;stroke-width:5px;}</style></defs><title>laser</title><line class="cls-1" x1="466.5" y1="103.8" x2="30.17" y2="508.35"/><line class="cls-1" x1="443.5" y1="88.59" x2="1.6" y2="457.21"/><line class="cls-1" x1="466.5" y1="103.8" x2="465.98" y2="123.65"/><line class="cls-1" x1="477.97" y1="107.03" x2="465.98" y2="123.65"/><line class="cls-1" x1="483.32" y1="123.53" x2="477.97" y2="107.03"/><line class="cls-1" x1="493.84" y1="107.74" x2="483.32" y2="123.53"/><line class="cls-1" x1="506.86" y1="134.52" x2="493.84" y2="107.74"/><line class="cls-1" x1="508.98" y1="108.88" x2="506.86" y2="134.52"/><line class="cls-1" x1="532.77" y1="132.44" x2="508.98" y2="108.88"/><line class="cls-1" x1="518.77" y1="93.51" x2="532.77" y2="132.44"/><line class="cls-1" x1="553.5" y1="102.03" x2="518.77" y2="93.51"/><line class="cls-1" x1="530.02" y1="77.31" x2="553.5" y2="102.03"/><line class="cls-1" x1="553.22" y1="73.84" x2="530.02" y2="77.31"/><line class="cls-1" x1="526.23" y1="61.88" x2="553.22" y2="73.84"/><line class="cls-1" x1="541.47" y1="42.42" x2="526.23" y2="61.88"/><line class="cls-1" x1="527.26" y1="44.67" x2="541.47" y2="42.42"/><line class="cls-1" x1="533.48" y1="33.3" x2="527.26" y2="44.67"/><line class="cls-1" x1="520.92" y1="38.52" x2="533.48" y2="33.3"/><line class="cls-1" x1="531.89" y1="16.61" x2="520.92" y2="38.52"/><line class="cls-1" x1="509.26" y1="31.49" x2="531.89" y2="16.61"/><line class="cls-1" x1="512.3" y1="9.23" x2="509.26" y2="31.49"/><line class="cls-1" x1="490.78" y1="31.29" x2="512.3" y2="9.23"/><line class="cls-1" x1="482.47" y1="0.84" x2="490.78" y2="31.29"/><line class="cls-1" x1="471.56" y1="31.51" x2="482.47" y2="0.84"/><line class="cls-1" x1="450.7" y1="6.27" x2="471.56" y2="31.51"/><line class="cls-1" x1="456.26" y1="42.2" x2="450.7" y2="6.27"/><line class="cls-1" x1="426.44" y1="33.81" x2="456.26" y2="42.2"/><line class="cls-1" x1="445.46" y1="52.28" x2="426.44" y2="33.81"/><line class="cls-1" x1="430.1" y1="54.2" x2="445.46" y2="52.28"/><line class="cls-1" x1="444.56" y1="64.52" x2="430.1" y2="54.2"/><line class="cls-1" x1="428.94" y1="76.37" x2="444.56" y2="64.52"/><line class="cls-1" x1="444.3" y1="74.44" x2="428.94" y2="76.37"/><line class="cls-1" x1="430.43" y1="91.16" x2="444.3" y2="74.44"/><line class="cls-1" x1="443.5" y1="88.59" x2="430.43" y2="91.16"/><line class="cls-1" x1="470.23" y1="95.13" x2="469.83" y2="110.65"/><line class="cls-1" x1="479.21" y1="97.65" x2="469.83" y2="110.65"/><line class="cls-1" x1="483.39" y1="110.56" x2="479.21" y2="97.65"/><line class="cls-1" x1="491.62" y1="98.21" x2="483.39" y2="110.56"/><line class="cls-1" x1="501.81" y1="119.16" x2="491.62" y2="98.21"/><line class="cls-1" x1="503.46" y1="99.1" x2="501.81" y2="119.16"/><line class="cls-1" x1="522.07" y1="117.53" x2="503.46" y2="99.1"/><line class="cls-1" x1="511.12" y1="87.08" x2="522.07" y2="117.53"/><line class="cls-1" x1="538.29" y1="93.74" x2="511.12" y2="87.08"/><line class="cls-1" x1="519.92" y1="74.4" x2="538.29" y2="93.74"/><line class="cls-1" x1="538.07" y1="71.69" x2="519.92" y2="74.4"/><line class="cls-1" x1="516.96" y1="62.33" x2="538.07" y2="71.69"/><line class="cls-1" x1="528.88" y1="47.11" x2="516.96" y2="62.33"/><line class="cls-1" x1="517.76" y1="48.87" x2="528.88" y2="47.11"/><line class="cls-1" x1="522.63" y1="39.98" x2="517.76" y2="48.87"/><line class="cls-1" x1="512.8" y1="44.06" x2="522.63" y2="39.98"/><line class="cls-1" x1="521.39" y1="26.92" x2="512.8" y2="44.06"/><line class="cls-1" x1="503.68" y1="38.56" x2="521.39" y2="26.92"/><line class="cls-1" x1="506.06" y1="21.15" x2="503.68" y2="38.56"/><line class="cls-1" x1="489.23" y1="38.4" x2="506.06" y2="21.15"/><line class="cls-1" x1="482.73" y1="14.58" x2="489.23" y2="38.4"/><line class="cls-1" x1="474.19" y1="38.57" x2="482.73" y2="14.58"/><line class="cls-1" x1="457.88" y1="18.83" x2="474.19" y2="38.57"/><line class="cls-1" x1="462.23" y1="46.94" x2="457.88" y2="18.83"/><line class="cls-1" x1="438.9" y1="40.37" x2="462.23" y2="46.94"/><line class="cls-1" x1="453.77" y1="54.82" x2="438.9" y2="40.37"/><line class="cls-1" x1="441.76" y1="56.33" x2="453.77" y2="54.82"/><line class="cls-1" x1="453.07" y1="64.4" x2="441.76" y2="56.33"/><line class="cls-1" x1="442.67" y1="72.39" x2="452.93" y2="64.14"/><line class="cls-1" x1="453.37" y1="71.87" x2="442.67" y2="72.39"/><line class="cls-1" x1="442.02" y1="85.24" x2="452.87" y2="72.16"/><line class="cls-1" x1="455.64" y1="82.63" x2="442.02" y2="85.24"/><line class="cls-1" x1="470.19" y1="93.84" x2="27.68" y2="503.91"/><line class="cls-1" x1="455.64" y1="82.63" x2="3.18" y2="459.65"/></svg>