<?xml version="1.0" encoding="utf-8"?>
<!-- Generator: Adobe Illustrator 24.1.1, SVG Export Plug-In . SVG Version: 6.00 Build 0)  -->
<svg version="1.1" id="Layer_1" xmlns="http://www.w3.org/2000/svg" xmlns:xlink="http://www.w3.org/1999/xlink" x="0px" y="0px"
	 viewBox="0 0 1757 948" style="enable-background:new 0 0 1757 948;" xml:space="preserve">
<style type="text/css">
	.st0{fill:none;stroke:#000000;stroke-width:0.8901;stroke-miterlimit:10;}
	.st1{fill:none;stroke:#000000;stroke-width:2.6818;stroke-miterlimit:10;}
	.st2{fill:none;stroke:#231F20;stroke-width:0.8474;stroke-miterlimit:10;}
	.st3{fill:none;}
</style>
<g id="timeline">
	<g id="vertical_line">
		<line class="st0" x1="33.5" y1="72.8" x2="33.3" y2="469.4"/>
	</g>
	<line class="st1" x1="149.5" y1="465.2" x2="149.5" y2="355.7"/>
	<line id="line1" class="st0" x1="33.5" y1="469.6" x2="149.5" y2="469.6"/>
	<line id="line2" class="st0" x1="155" y1="469.6" x2="309.5" y2="469.6"/>
	<line id="line3" class="st0" x1="312.5" y1="469.6" x2="473.5" y2="469.8"/>
	<line id="line4" class="st0" x1="473.5" y1="469.8" x2="628" y2="469.8"/>
	<line id="line5" class="st0" x1="630.5" y1="469.6" x2="791" y2="469.8"/>
	<line id="line6" class="st0" x1="800.5" y1="469.8" x2="960.5" y2="469.6"/>
	<line id="line7" class="st0" x1="963.2" y1="470" x2="1123.2" y2="469.8"/>
	<line id="line8" class="st0" x1="1132.8" y1="469.9" x2="1292.8" y2="469.7"/>
	<line id="line9" class="st0" x1="1300.2" y1="470" x2="1460.2" y2="469.8"/>
	<line id="line10" class="st0" x1="1471.2" y1="470.1" x2="1631.2" y2="469.9"/>
	<g id="bullets">
		<ellipse id="point1" cx="149.5" cy="469.6" rx="5.5" ry="4.4"/>
		<ellipse id="point2_1_" cx="309.5" cy="468.9" rx="5.5" ry="4.4"/>
		<ellipse id="point3_1_" cx="473.5" cy="469.6" rx="5.5" ry="4.4"/>
		<ellipse id="point4" cx="630.5" cy="469.6" rx="5.5" ry="4.4"/>
		<ellipse id="point5" cx="795.5" cy="469.6" rx="5.5" ry="4.4"/>
		<ellipse id="point6" cx="960.5" cy="468.9" rx="5.5" ry="4.4"/>
		<ellipse id="point7" cx="1127.3" cy="468.9" rx="5.5" ry="4.4"/>
		<ellipse id="point8" cx="1294.7" cy="468.9" rx="5.5" ry="4.4"/>
		<ellipse id="point9" cx="1465.7" cy="469.7" rx="5.5" ry="4.4"/>
		<ellipse id="point10" cx="1636.7" cy="469.7" rx="5.5" ry="4.4"/>
	</g>
</g>
<g id="infobox">
	<rect x="163.7" y="-217.1" class="st2" width="410.6" height="193.4"/>
	<rect x="313.9" y="-174.1" class="st3" width="171.5" height="34.2"/>
	<text id="inventor" transform="matrix(1 0 0 1 313.9299 -163.412)" style="font-family:'ArialMT'; font-size:15px;">Alexander Graham Bell</text>
	<text id="title" transform="matrix(1 0 0 1 310.8472 -191.4232)" style="font-family:'ArialMT'; font-size:22px;">Telephone</text>
	<rect x="313.5" y="-124.2" class="st3" width="129.1" height="34.2"/>
	<text transform="matrix(1 0 0 1 313.4662 -132.5283)" style="font-family:'ArialMT'; font-size:15px;">He found a way to transmit human</text>
	<text transform="matrix(1 0 0 1 313.4662 -114.5283)" style="font-family:'ArialMT'; font-size:15px;">voice over wires: a simple receiver</text>
	<text transform="matrix(1 0 0 1 313.4662 -96.5283)" style="font-family:'ArialMT'; font-size:15px;">that could turn electricity into sound.</text>
	<text transform="matrix(1 0 0 1 313.4662 -78.5283)" style="font-family:'ArialMT'; font-size:15px;">His interest in sound technology was</text>
	<text transform="matrix(1 0 0 1 313.4662 -60.5283)" style="font-family:'ArialMT'; font-size:15px;">deep-rooted and personal, as both</text>
	<text transform="matrix(1 0 0 1 313.4662 -42.5283)" style="font-family:'ArialMT'; font-size:15px;">his wife and mother were deaf..</text>
	<text id="date" transform="matrix(1 0 0 1 517.3658 -191.4232)" style="font-family:'ArialMT'; font-size:18px;">1986</text>
	
		<image style="overflow:visible;enable-background:new    ;" width="500" height="326" id="image" xlink:href="../../../../../Desktop/telephone.png"  transform="matrix(0.374 0 0 0.3718 100.3617 -182.251)">
	</image>
</g>
</svg>
