<svg id="optical-fiber" xmlns="http://www.w3.org/2000/svg" viewBox="0 0 759.25 836.21"><defs><style>.cls-1{fill:#fff;}</style></defs><title>optical-fiber</title><path class="cls-1" d="M227.65,609c-10.85-55.57-18.52-112.39-13.93-169.09,4.25-52.43,19.42-104,49.43-147.61a274.86,274.86,0,0,1,52.06-57.09,158.33,158.33,0,0,1,31.67-20.37,139.84,139.84,0,0,1,37.26-11.35c26.43-4.4,54-3.07,80.47.55A390.21,390.21,0,0,1,541,222.72a431.21,431.21,0,0,1,71.42,32.6c20.33,11.65,39.8,25.54,54.81,43.74a124.17,124.17,0,0,1,19.1,32.33c5.07,12.4,8.73,25.34,12.51,38.18,7.54,25.62,14.56,51.48,18.89,77.86,4.23,25.82,5.85,52.47,1.78,78.42a161.3,161.3,0,0,1-26.9,67.86,157.89,157.89,0,0,1-52.17,46.84c-11.62,6.53-23.71,12.25-34.44,20.24-10.51,7.84-19.78,17.11-29.47,25.9-2.1,1.91-4.54,4.57-7.46,5.17-3.13.64-5.29-2-7.16-4.13a69.75,69.75,0,0,1-9.73-14.45c-5.45-10.51-8.82-21.93-12.47-33.14-8.19-25.12-20.42-48.06-34.35-70.42C474.7,520.56,443,472,411.88,423.19L389,387.27c-1.73-2.7-6.06-.2-4.32,2.52l97.09,152.13c15.08,23.61,30.93,47,42.72,72.53,5.38,11.63,9.29,23.71,13.27,35.86,3.65,11.14,7.64,22.4,14,32.29,3,4.57,6.71,10.34,11.55,13.1,5.51,3.13,10.87-.27,15-4,10.28-9.08,19.79-19,30.88-27.18s23.46-13.83,35.28-20.6A160.49,160.49,0,0,0,714,564.67c9.88-24.38,13.4-50.87,12.67-77.06-.75-27.21-5.8-54.18-12.38-80.53-3.32-13.33-7.06-26.54-10.94-39.71s-7.66-26.35-13-39c-9.66-23.07-25.54-42-45.19-57.25s-41.93-27.25-64.53-37.65C531.56,210.86,478,196.78,423.77,195.93c-27.1-.43-54.72,2.82-79.42,14.61-23,11-42.48,28.18-59.57,46.78a280.37,280.37,0,0,0-45.36,65.49,301,301,0,0,0-25.18,76.27c-10.74,55.73-7.54,112.92,1.07,168.7,2.2,14.24,4.76,28.42,7.52,42.56.61,3.16,5.43,1.82,4.82-1.33Z" transform="translate(-16.23 -195.89)"/><path class="cls-1" d="M229.11,607.56c1.21.45.25.58.47-.07a5.68,5.68,0,0,0,0-1.08c0-1,.08-2,.13-3.08.11-2.05.25-4.1.44-6.14q.56-6.08,1.6-12.09a175.08,175.08,0,0,1,5.7-23.13,209.86,209.86,0,0,1,20.32-44.14c17.5-29.11,40.79-54,66.08-76.48,27-24,56.18-45.39,84.21-68.16a742.46,742.46,0,0,0,80.63-75.77c23-25.16,46.57-55.54,82.33-61.56a62.35,62.35,0,0,1,12.36-.79c3.21.1,3.21-4.9,0-5-37.41-1.15-65.55,27.39-88.61,53.13-25.38,28.32-52.28,55-81.53,79.3C384.87,386.11,355,407.85,327,432c-26.44,22.81-51.06,48-69.93,77.51-17.87,28-30.45,59.83-32.32,93.22-.19,3.48-1,8.16,3,9.67,3,1.13,4.32-3.7,1.33-4.82Z" transform="translate(-16.23 -195.89)"/><path class="cls-1" d="M606.87,663.26c-8.23-21.52-17-42.85-26.52-63.8a679.61,679.61,0,0,0-31.56-61.18,486.78,486.78,0,0,0-38.39-56.45,400.05,400.05,0,0,0-48.75-51.29c-19.6-17.32-40.27-33.44-60.61-49.89l-7.58-6.13a2.59,2.59,0,0,0-3.54,0,2.54,2.54,0,0,0,0,3.54c20.38,16.48,41,32.68,60.95,49.71a417.14,417.14,0,0,1,50.18,50.43,461.49,461.49,0,0,1,39.17,55.47,649.15,649.15,0,0,1,32,60.07c9.73,20.68,18.56,41.78,26.84,63.09q1.51,3.87,3,7.76a2.57,2.57,0,0,0,3.08,1.74,2.52,2.52,0,0,0,1.75-3.07Z" transform="translate(-16.23 -195.89)"/><path class="cls-1" d="M621.69,649.68a85.64,85.64,0,0,0,12.21-37.22,88.63,88.63,0,0,0-6.06-39.83c-4.72-12.26-10.92-24-17.33-35.47q-8.93-15.95-19.22-31.08A433.74,433.74,0,0,0,490.1,400.93a421.66,421.66,0,0,0-62.25-38.19q-4-2-8.12-3.94a2.57,2.57,0,0,0-3.42.9,2.53,2.53,0,0,0,.9,3.42,420.94,420.94,0,0,1,62.31,36.32A430.48,430.48,0,0,1,581,500.09a408.28,408.28,0,0,1,37.19,62.8c5.79,12.23,10.36,25.07,10.94,38.7a79.46,79.46,0,0,1-11.78,45.56c-1.69,2.75,2.63,5.27,4.31,2.53Z" transform="translate(-16.23 -195.89)"/><path class="cls-1" d="M649.32,636.77q7.73-22.15,14.6-44.6c4.34-14.23,9.24-29.11,8.06-44.2-1.13-14.34-8.47-26.47-17.08-37.6C647,500.12,638.52,490.2,630,480.42A633.06,633.06,0,0,0,576,425a411.33,411.33,0,0,0-61.36-46.13A293.55,293.55,0,0,0,445.54,348q-4.44-1.31-8.93-2.46c-3.12-.8-4.45,4-1.33,4.82a281.51,281.51,0,0,1,68.93,28.22,383.55,383.55,0,0,1,61.08,43.67,593.44,593.44,0,0,1,54,53.64q12.7,14.19,24.74,29c8.22,10,17,20.47,20.94,33.05,4.47,14.33,1,29.34-3,43.33-4.26,14.62-8.93,29.12-13.81,43.54q-1.81,5.36-3.68,10.69c-1.06,3,3.77,4.36,4.82,1.33Z" transform="translate(-16.23 -195.89)"/><path class="cls-1" d="M666.87,622c3.22,0,3.22-5,0-5s-3.22,5,0,5Z" transform="translate(-16.23 -195.89)"/><path class="cls-1" d="M666.43,630.12c16.23-25.4,30.18-53.42,33.45-83.77,3.22-29.86-6.17-59.19-22.23-84.17-16.51-25.67-39.32-46.51-62.78-65.7-22.51-18.43-46.39-35.48-72.38-48.67-25.45-12.91-53-22-81.61-23.89-3.54-.23-7.1-.34-10.65-.35-3.22,0-3.22,5,0,5,28,.06,55.46,7.5,80.79,19.21,25.89,12,49.78,28,72.13,45.65,23.12,18.24,46,37.92,63.58,61.73,17.12,23.16,29.17,50.93,28.82,80.12-.35,29.72-12.67,57.87-27.67,83q-2.8,4.71-5.77,9.33c-1.74,2.72,2.59,5.23,4.32,2.52Z" transform="translate(-16.23 -195.89)"/><path class="cls-1" d="M700.13,573.29c3.78-27.73,18.48-53.49,15.71-82.08-2.6-26.77-17.33-50.37-33.66-71a421.24,421.24,0,0,0-56.29-59c-21.08-18-44.48-33.3-70.26-43.69A193.33,193.33,0,0,0,515.25,306a174.53,174.53,0,0,0-20.78-2.22q-5.18-.24-10.37-.13c-3.07.07-6.6-.39-8.58,2.45a4,4,0,0,0-.75,3.37,3,3,0,0,0,3.77,1.86c3.1-.87,1.78-5.69-1.33-4.82l1.3.23.9.9.17,1.38c.08-.25.08-.24,0,0,.33-.1-.08-.27.14-.2s-.31-.27.21-.16l-.54.14.71,0c1.73-.08,3.46-.14,5.19-.16q5.07-.06,10.13.19A162.57,162.57,0,0,1,514.85,311a193.62,193.62,0,0,1,38.57,11c24.48,9.74,46.88,24.21,67,41.11s38,35.94,54.55,56.1c15.77,19.23,30.58,41,35,66,2.27,12.68,1,25.37-2.06,37.8-3.22,13.16-7.94,25.91-10.86,39.15-.72,3.26-1.32,6.54-1.77,9.85a2.58,2.58,0,0,0,1.75,3.07c1.16.32,2.89-.4,3.07-1.74Z" transform="translate(-16.23 -195.89)"/><path class="cls-1" d="M353.21,420.75a425.47,425.47,0,0,1,55.84,12.9c3.08.94,4.4-3.89,1.33-4.82a423.88,423.88,0,0,0-55.84-12.9,2.58,2.58,0,0,0-3.08,1.74,2.54,2.54,0,0,0,1.75,3.08Z" transform="translate(-16.23 -195.89)"/><path class="cls-1" d="M216.53,535.86a227,227,0,0,1,57.7-.72,221.74,221.74,0,0,1,28.11,5.09c6.81,1.69,13.49,4,19.4,7.85s10.78,9.49,10.71,16.86a2.55,2.55,0,0,0,2.5,2.5,64.82,64.82,0,0,1,26.2,6.53,2.59,2.59,0,0,0,3.42-.9c9.29-12.72,28.73-10,42.06-7.31,10.84,2.22,21.63,4.69,32.44,7l16.38,3.57a128.54,128.54,0,0,1,14.64,3.7c4.87,1.68,9.47,4.17,12.84,8.14,3,3.53,4.89,8.32,3.94,13a2.54,2.54,0,0,0,2.41,3.17A173.28,173.28,0,0,0,530,600.89c2.74-.57,2.16-5.1-.66-4.92-12.49.84-26.28,2.25-36.92,9.48a32.12,32.12,0,0,0-11.8,15.06c-1.33,3.23-2.7,6.33-5.33,8.73a20.11,20.11,0,0,1-7.62,4.15c-6.32,2-13,2-19.6,1.68-8.9-.39-17.79-1.19-26.6-2.44-13.23-1.88-26.79-4.57-38.36-11.59a37.13,37.13,0,0,1-12.59-11.89c-3.88-6.29-4.33-13.24-4.42-20.47-.1-7.44-.51-15.1-5-21.35-4-5.52-10.63-8.76-17.34-6.24-7.18,2.69-11.18,9.46-13.83,16.24-1.47,3.76-2.64,7.66-4.5,11.25a31.65,31.65,0,0,1-6,8.07c-10.86,10.62-26.92,13.06-41.44,11.13a131.89,131.89,0,0,1-25.19-6.43c-6.49-2.23-13.51-5-17.84-10.64-4.76-6.18-5.46-14.78-5.71-22.29a90.68,90.68,0,0,1,2.65-24.94,95.07,95.07,0,0,1,3.9-12A2.52,2.52,0,0,0,234,528.4a2.55,2.55,0,0,0-3.07,1.74c-6.27,15.72-8.68,33.82-5.46,50.53,1.52,7.89,5.36,14.55,12.06,19.11,6.43,4.37,14.28,6.69,21.66,8.89,15.63,4.67,32.93,7.24,48.53,1.09a43.6,43.6,0,0,0,17.4-11.93,37.56,37.56,0,0,0,6-9.74c1.6-3.75,2.76-7.67,4.41-11.39,2.47-5.57,7.65-12.76,14.71-11.34,6.22,1.25,9.47,8.38,10.35,14,1.29,8.29-.29,16.81,2.28,25a35.06,35.06,0,0,0,9.83,15.12c9.51,8.74,22.42,13.26,34.87,15.85A234.83,234.83,0,0,0,432.88,639c8.11.8,16.4,1.56,24.55,1.12,6.46-.36,13.34-1.55,18.78-5.28a21.29,21.29,0,0,0,6.79-7.48c1.77-3.31,2.76-7,4.74-10.18,6.62-10.69,20.48-13.93,32.11-15.34,3.15-.38,6.31-.64,9.48-.86l-.67-4.91a167.33,167.33,0,0,1-39.38,3.28l2.41,3.16c2.06-10.09-4.56-19.4-13.1-24.13a58,58,0,0,0-14.92-5.3c-5.72-1.34-11.47-2.52-17.2-3.77L411,561.58c-8.59-1.87-17.45-3.4-26.28-2.86-9.56.59-18.63,3.88-24.43,11.83l3.42-.9A70.85,70.85,0,0,0,335,562.44l2.5,2.5c.16-15.59-15.81-24.23-28.79-28.18a185,185,0,0,0-28.44-5.86,229.09,229.09,0,0,0-65,.13,2.51,2.51,0,0,0-1.74,3.08,2.56,2.56,0,0,0,3.07,1.75Z" transform="translate(-16.23 -195.89)"/><path class="cls-1" d="M315.8,599.36a38.31,38.31,0,0,0-12.3,22.78c-.69,4.78-.38,9.58-.49,14.4a24.41,24.41,0,0,1-3.36,12.69c-2.12,3.47-4.81,6.86-5.44,11-.68,4.44,1.2,8.17,3.61,11.75a31.43,31.43,0,0,1,3.07,5.09,13.51,13.51,0,0,1,.86,6c-.21,4.45-1.54,8.83-1.17,13.31A15.62,15.62,0,0,0,305.71,707a20.53,20.53,0,0,0,10.4,4.78c9.19,1.42,17.67-3.09,24.78-8.45s13.87-12.27,22.65-15c7-2.18,14.43-2.18,21.38-4.42s13.16-7.41,13.34-15.18a17.57,17.57,0,0,0-11.4-16.45,13.52,13.52,0,0,0-5.05-.69c-2.32.13-3.6,3.46-1.26,4.66a136.53,136.53,0,0,1,50.68,45.11,135,135,0,0,1,9.6,16.77,2.52,2.52,0,0,0,3.42.89,2.55,2.55,0,0,0,.9-3.42,141.59,141.59,0,0,0-45.24-53.41A137,137,0,0,0,383.07,652l-1.26,4.65a9.76,9.76,0,0,1,7.36,2.82,13.23,13.23,0,0,1,4,7.34,9.4,9.4,0,0,1-1.95,7.55,15,15,0,0,1-6.83,4.54c-6.52,2.29-13.57,2.42-20.23,4.13-8.42,2.16-15.13,7.53-21.75,12.89-6.18,5-13.41,10.85-21.72,11.23-6.11.29-13.29-2.69-14.82-9.16-.94-4,.2-8.23.68-12.18.52-4.27.25-8.39-1.8-12.24-1.68-3.15-4.44-5.89-5.41-9.37s1-6.66,2.81-9.49c2.32-3.61,4.45-7.13,5.25-11.41.84-4.49.63-9,.65-13.57a38.91,38.91,0,0,1,1.7-12.18,33.27,33.27,0,0,1,5.53-10.31,36.07,36.07,0,0,1,4.09-4.29c2.41-2.15-1.14-5.68-3.53-3.54Z" transform="translate(-16.23 -195.89)"/><path class="cls-1" d="M260.68,692.3a81.33,81.33,0,0,1,44.76-49.36,2.52,2.52,0,0,0,.9-3.42,2.56,2.56,0,0,0-3.42-.89,86.54,86.54,0,0,0-40.72,37.55A85.49,85.49,0,0,0,255.85,691c-1,3.07,3.84,4.39,4.83,1.33Z" transform="translate(-16.23 -195.89)"/><path class="cls-1" d="M218.69,618.29a3.19,3.19,0,0,1-1.17,3,21.24,21.24,0,0,1-3.85,2.72c-3.29,2-6.72,4.2-8.16,8a16.77,16.77,0,0,0-.54,7.87c.33,3,.72,6.1,1.08,9.15l2.23,18.83,2.49,21.07.73-1.77c-7.11,5.59-4.55,15.8-2.47,23.2a79,79,0,0,1,3,14.93c.47,5.6.4,11.23.31,16.84-.17,11.14-.1,22.11,2.47,33s6.82,21.2,11.13,31.44q6.89,16.37,13.79,32.72c4.5,10.68,8.84,21.44,13.53,32A64.64,64.64,0,0,0,261.17,885a61.06,61.06,0,0,0,10.25,10.2,113.8,113.8,0,0,0,26.23,15.13,146.15,146.15,0,0,0,61,11.71,142.66,142.66,0,0,0,15.58-1.27c5.25-.71,10.58-1.55,15.36-3.95,4.54-2.27,7.88-6.13,11.57-9.49a46.86,46.86,0,0,1,11.68-7.53c8.67-4.08,18-6.42,26.81-10.26a82.48,82.48,0,0,0,23.86-16.4,167.28,167.28,0,0,0,18.87-22.35c6.19-8.48,12.11-17.18,17.83-26,11.76-18.1,22.39-37.13,29.42-57.6s10.28-42.69,7.28-64.31a106.51,106.51,0,0,0-3.32-15.41c-.91-3.08-5.73-1.77-4.82,1.33,6.8,23.09,4.93,47.76-1.9,70.62s-18.72,44.1-31.78,64.08c-6.3,9.63-12.79,19.2-19.72,28.4-6.43,8.53-13.52,16.7-21.88,23.41a72.25,72.25,0,0,1-13.33,8.5,130.21,130.21,0,0,1-14.82,5.83c-9.94,3.46-20,7.07-27.91,14.32-4.2,3.86-7.83,7.95-13.42,9.76-5.41,1.74-11.26,2.35-16.9,2.84a140.83,140.83,0,0,1-67.49-10.78c-10-4.31-20-9.67-28.13-17A51.53,51.53,0,0,1,261.16,876c-3-5.27-5.19-11-7.54-16.55l-15.2-36.06c-4.94-11.71-10.19-23.35-14.48-35.32a124.9,124.9,0,0,1-5-17.57,96.37,96.37,0,0,1-1.68-18.17c-.1-12.33,1-24.8-1.65-37-1-4.82-2.87-9.47-3.55-14.37a16.42,16.42,0,0,1,.06-5.89,8.13,8.13,0,0,1,1-2.48,31.4,31.4,0,0,1,2.15-2.3c1-1.26.33-3.25.16-4.7l-.6-5.11L213.65,671l-2.34-19.79-1.13-9.58c-.31-2.61-1-5.79.14-8.29,1.43-3.09,5.35-4.6,8-6.4,3-2,5.71-4.76,5.37-8.65-.27-3.18-5.28-3.21-5,0Z" transform="translate(-16.23 -195.89)"/><path class="cls-1" d="M525.41,785.17c3.9-11,13-19.23,19.72-28.47a58.4,58.4,0,0,0,8.59-16.63c2.14-6.56,3.25-13.4,4.39-20.19l4.21-25a2.57,2.57,0,0,0-1.75-3.07,2.51,2.51,0,0,0-3.07,1.74l-3.8,22.58a185.46,185.46,0,0,1-4,20.09,54.71,54.71,0,0,1-8,16.73c-3.38,4.8-7.32,9.17-11,13.77-4.16,5.27-7.92,10.78-10.17,17.15a2.52,2.52,0,0,0,1.74,3.07,2.55,2.55,0,0,0,3.08-1.74Z" transform="translate(-16.23 -195.89)"/><path class="cls-1" d="M222.18,616.84l-7.27,12.35c-2.27,3.85-4.72,7.71-5.2,12.25-.82,7.66,5.36,13.27,7,20.32a40.19,40.19,0,0,1,.37,5.38,9.46,9.46,0,0,0,2.27,5.86,17.88,17.88,0,0,0,5.28,3.35l6.42,3.24c4.3,2.17,8.58,4.39,12.91,6.51,3.64,1.79,7.7,3.47,11.84,3,4.3-.52,7.13-3.38,9.26-6.92.85-1.41,1.6-2.88,2.52-4.24a7.28,7.28,0,0,1,2.79-2.66l-2.43-4.18-3.4,3.71c-2.18,2.37,1.35,5.91,3.53,3.54l3.4-3.71a2.56,2.56,0,0,0,.39-3,2.49,2.49,0,0,0-2.82-1.15c-3,1.21-4.88,3.41-6.51,6.11-1.37,2.28-2.45,5-4.58,6.55-2.58,1.93-6.35.89-9.19-.26-3.92-1.59-7.65-3.75-11.42-5.65-4-2-8-4-12-6.07-1.31-.68-2.65-1.38-3.05-2.89-.46-1.72-.2-3.57-.36-5.33a27.32,27.32,0,0,0-3.49-10c-1.48-2.82-3.28-5.74-3.68-9-.53-4.2,2-7.94,4-11.38l7.77-13.19c1.63-2.78-2.69-5.29-4.32-2.52Z" transform="translate(-16.23 -195.89)"/><path class="cls-1" d="M423.57,708.44a23,23,0,0,0,18.62,9.34A29.54,29.54,0,0,0,454,715.24a49.38,49.38,0,0,0,9.65-6,8.61,8.61,0,0,1,4.85-2,31.86,31.86,0,0,1,6.08.65c4.29.73,8.53,1.71,12.83,2.4a51.45,51.45,0,0,0,12.75.77,36.13,36.13,0,0,0,11.6-3c7.83-3.47,14.36-9.35,20.63-15,2.39-2.16-1.16-5.69-3.53-3.53-5.25,4.76-10.59,9.56-16.88,12.92a33,33,0,0,1-9.7,3.44,38.55,38.55,0,0,1-11.55,0c-4-.53-8-1.43-12-2.19s-8.41-1.86-12.47-1.08C462.6,703.19,460,706,457,708a29.59,29.59,0,0,1-10,4.3c-6.83,1.48-14.87-.47-19.11-6.37a2.58,2.58,0,0,0-3.42-.9,2.52,2.52,0,0,0-.9,3.42Z" transform="translate(-16.23 -195.89)"/><path class="cls-1" d="M287.3,728.15c7.65,13.67,16.14,28,29.36,37a43.83,43.83,0,0,0,23.9,7.66c9.57.18,19-2.57,27.54-6.71,9.75-4.71,18.44-11.27,27-17.77a2.58,2.58,0,0,0,.9-3.42,2.52,2.52,0,0,0-3.42-.9c-14.26,10.78-29.78,22.55-48.33,23.71a39.21,39.21,0,0,1-23-5.53c-6.26-3.79-11.47-9.14-15.94-14.89-5.25-6.76-9.56-14.2-13.74-21.66-1.57-2.8-5.89-.29-4.31,2.53Z" transform="translate(-16.23 -195.89)"/><path class="cls-1" d="M292.37,725.61c6.59,1.4,13.18,2.81,19.63,4.75a93.65,93.65,0,0,1,9.48,3.37c3.12,1.32,6.09,3,9.15,4.4C343,744,356.84,743.65,370.2,745a91.15,91.15,0,0,1,22.28,4.67,2.5,2.5,0,0,0,1.32-4.82c-13-4.73-26.78-4.94-40.37-6.21-6.44-.6-13-1.61-19-4.22-3.18-1.39-6.2-3.11-9.36-4.53a98.09,98.09,0,0,0-9.36-3.59,218.89,218.89,0,0,0-22-5.51c-3.14-.67-4.48,4.15-1.33,4.83Z" transform="translate(-16.23 -195.89)"/><path class="cls-1" d="M20,865.72q37.5-22.11,76.5-41.58t79.06-36.06q22.48-9.3,45.34-17.74a2.56,2.56,0,0,0,1.75-3.07,2.53,2.53,0,0,0-3.08-1.75q-41.16,15.19-81.18,33.23-39.7,17.89-78.09,38.52Q38.61,848.91,17.43,861.4c-2.77,1.64-.26,6,2.53,4.32Z" transform="translate(-16.23 -195.89)"/><path class="cls-1" d="M543.43,745.72l94.33,32.34,23.59,8.09c7.77,2.67,15.5,5.48,23.34,7.93a88.43,88.43,0,0,0,11.67,2.9,114.65,114.65,0,0,0,12.12,1.24c7.71.47,15.41.78,22.86,3,15.14,4.49,27.8,14.7,39.88,24.48a2.58,2.58,0,0,0,3.53,0,2.52,2.52,0,0,0,0-3.54c-11.16-9-22.54-18.11-36-23.59a71.92,71.92,0,0,0-22.16-4.83c-8-.6-16-.69-23.9-2.59s-15.55-4.83-23.22-7.46l-23.82-8.17-47.41-16.26-47.64-16.33-5.89-2a2.5,2.5,0,0,0-1.33,4.83Z" transform="translate(-16.23 -195.89)"/><path class="cls-1" d="M544.91,752.17c-6.34,25.34,3.81,50.85,15.6,72.94,11.51,21.57,25.91,42.47,30.43,66.95A70.85,70.85,0,0,1,592,910c-.38,5.36-1.8,10.76-5.61,14.72-6.68,6.95-17.49,8.25-26.63,8.12-12.06-.18-24.67-2.36-36.17,2.44-9.63,4-16,12.37-20,21.79-4,9.67-5.37,20-6.55,30.36-1.24,10.9-2.43,22.36-7.51,32.26a39,39,0,0,1-4.29,6.71,2.58,2.58,0,0,0,0,3.54,2.53,2.53,0,0,0,3.54,0c14.51-18.08,11-42.24,16.82-63.34,2.51-9.1,6.85-18.53,14.89-24,10.07-6.85,22.74-5.49,34.26-4.93,10.15.49,21.14.08,30.07-5.37A24.25,24.25,0,0,0,595,920.32c2.2-5.61,2.42-12,2.17-17.94-1.07-25.16-14.22-47.68-26.33-69s-24.92-45.44-22.61-70.91a60,60,0,0,1,1.55-8.93c.78-3.12-4-4.45-4.82-1.33Z" transform="translate(-16.23 -195.89)"/><path class="cls-1" d="M268.18,906.08l-1.9,18.08c-.57,5.47-1.22,11-.84,16.48a34.06,34.06,0,0,0,4.19,14.68,48,48,0,0,0,7.95,10c5.93,5.93,13,11,17.89,17.89,6,8.43,6.68,18.84,9.74,28.44s9.86,19.31,20.64,20.43a2.5,2.5,0,1,0,0-5c-8.16-.85-13.36-9.29-15.68-16.35-3.11-9.45-3.8-19.73-9.22-28.33-8.83-14-27.54-21.47-30.23-39.08-.89-5.84-.2-11.87.41-17.7q1-9.78,2.05-19.55a2.52,2.52,0,0,0-2.5-2.5,2.55,2.55,0,0,0-2.5,2.5Z" transform="translate(-16.23 -195.89)"/><path class="cls-1" d="M327.37,923.54a137.08,137.08,0,0,1,26.47,32.93c7.24,12.58,12,26.31,17.72,39.61a144.89,144.89,0,0,0,11.26,21.79c1.74,2.69,6.07.19,4.31-2.52-8-12.28-12.95-26.08-18.53-39.52a198,198,0,0,0-9.38-20A142.77,142.77,0,0,0,330.9,920c-2.37-2.16-5.91,1.36-3.53,3.54Z" transform="translate(-16.23 -195.89)"/><path class="cls-1" d="M346,929c12.35,14.88,33.06,17.76,51.27,17.39a259.69,259.69,0,0,0,28.54-2.42,276.59,276.59,0,0,0,29-5.35c18.53-4.53,36.75-11.34,52.88-21.64a121.71,121.71,0,0,0,21.94-17.76c7.11-7.33,13.57-15.74,17.87-25a58.09,58.09,0,0,0,4.92-16.64,87.67,87.67,0,0,0,.45-17.14c-.72-11.62-2.86-23.13-2.84-34.79a78.41,78.41,0,0,1,.46-8.54,2.51,2.51,0,0,0-2.5-2.5,2.55,2.55,0,0,0-2.5,2.5c-1.25,11.31.36,22.62,1.55,33.87,1.17,11.07,2,22.49-1.11,33.34-2.85,9.9-8.74,18.79-15.4,26.55a111.68,111.68,0,0,1-20.08,18.28c-15.06,10.7-32.28,17.94-50,22.88A272.34,272.34,0,0,1,405,941c-9.07.59-18.31.66-27.28-.89-8.47-1.46-17-4.36-23.6-10a39.52,39.52,0,0,1-4.57-4.67,2.51,2.51,0,0,0-3.53,0,2.55,2.55,0,0,0,0,3.54Z" transform="translate(-16.23 -195.89)"/><path class="cls-1" d="M547.33,935.23a60.56,60.56,0,0,0,10.74-34.61,62.65,62.65,0,0,0-3-18.47c-2-6.52-4.51-12.91-4.85-19.79-.4-8.09,1.3-16.05,3-23.91.67-3.14-4.15-4.48-4.82-1.33-1.51,7-3,14.15-3.21,21.37s1.43,13.82,3.64,20.56c2,6,3.75,12,4.12,18.31a56.22,56.22,0,0,1-1.67,17.33,55.43,55.43,0,0,1-8.29,18,2.5,2.5,0,0,0,4.32,2.52Z" transform="translate(-16.23 -195.89)"/><path class="cls-1" d="M549.61,749.49a117.77,117.77,0,0,1,14.7,33.85,114.72,114.72,0,0,1,3.18,18.32c.6,6.65.6,13.33.76,20a122.58,122.58,0,0,0,2.23,22.94c.67,3.15,5.49,1.82,4.82-1.33-2.88-13.39-1.62-27.18-2.73-40.75A121.61,121.61,0,0,0,563.79,766a123,123,0,0,0-9.86-19c-1.72-2.71-6-.21-4.32,2.52Z" transform="translate(-16.23 -195.89)"/></svg>