<?xml version="1.0" encoding="utf-8"?>
<!-- Generator: Adobe Illustrator 24.1.1, SVG Export Plug-In . SVG Version: 6.00 Build 0)  -->
<svg version="1.1" xmlns="http://www.w3.org/2000/svg" xmlns:xlink="http://www.w3.org/1999/xlink" x="0px" y="0px"
	 viewBox="0 0 1920 206" style="enable-background:new 0 0 1920 206;" xml:space="preserve">
<style type="text/css">
	.st0{fill:#FFFFFF;}
	.st1{fill:#FFFAFA;}
</style>
<g id="lightning">
	<g>
		<path class="st0" d="M329.8,118.7c0,0-23.3-2.2-30.3,2.2c0,0-4.7,5.1-7,5.1c-2.3,0-5.8-2.2-9.3-2.9c-3.5-0.7-3.5,1.4-10.5-3.6
			c0,0,3.5-0.7,8.2,0.7c4.7,1.4,8.2-2.2,19.8-2.2l2.3,0.7l2.3,0l-1.2-0.7c0,0,1.2-0.7,3.5,0l3.5,0c0,0-1.2-1.4-7-1.4
			c0,0-2.3,0-3.5-0.7c0,0,2.3-2.2,7-2.9c4.7-0.7,4.7-2.9,4.7-2.9s-1.2,2.2-5.8,2.2c-4.7,0-7,2.9-7,2.9s-2.3,1.4-5.8-0.7
			c-3.5-2.2-4.7-2.2-9.3-2.2c0,0,5.8,0,8.2,2.9c0,0,0,0.7-7,0.7c0,0-2.3,0-3.5,1.4c-1.2,1.4-4.7,0-5.8-1.4
			c-1.2-1.4-4.7-2.2-11.7-1.5s-5.8-1.4-5.8-1.4s-1.2,4.3,8.2,2.2c0,0,9.3-0.7,9.3,2.2c0,0,0,0.7,1.2,0.7c0,0-4.7-0.7-8.2,0
			c-3.5,0.7-4.7-0.7-5.8-1.4c-1.2-0.7-2.3,0-4.7-0.7s-1.2-2.2-9.3-1.5c-8.2,0.7-3.5-2.9-12.8-4.3c-9.3-1.5-14,4.3-23.3,1.4
			c0,0-2.3-1.4-5.8,0.7s-3.5,0-9.3,2.9c0,0-2.3,0.7-5.8-1.4c-3.5-2.2-7-1.4-8.2-0.7c-1.2,0.7-8.2,0-10.5-2.2s-8.2-6.5-17.5-5.8
			s-19.8,10.1-21,10.8s-4.7,1.4-5.8,5.1c0,0-3.5,2.2-12.8,0c0,0-5.8,0.7-8.2-2.2c-2.3-2.9-9.3,0-14-3.6c-4.7-3.6-9.3-1.5-14-3.6
			c-4.7-2.2-9.3-2.2-9.3-2.2s7,1.4,8.2,3.6s4.7-1.4,12.8,2.2c0,0,4.7,3.6,9.3,3.6c4.7,0,4.7,3.6,15.2,4.3s16.3,1.5,16.3-2.9
			c0-4.3,2.3,0.7,8.2-5.1c5.8-5.8,10.5-8.7,16.3-8.7c5.8,0,10.5,1.5,14,5.1s11.7,3.6,14,2.9c2.3-0.7,5.8-1.4,8.2,1.4
			c2.3,2.9,5.8-0.7,11.7-0.7c5.8,0,3.5-4.3,9.3-2.2c0,0,3.5,1.4,8.2,0c0,0-1.2,1.4-3.5,1.4c-2.3,0-2.3,1.4-2.3,1.4s0,0.7-3.5,0.7
			c-3.5,0-7,1.4-7,1.4s-9.3,0.7-14-0.7c-4.7-1.4-9.3-0.7-14,0.7c-4.7,1.4-5.8,4.3-11.7,3.6c-5.8-0.7-12.8-3.6-15.2-2.9
			c-2.3,0.7-3.5-0.7-4.7-1.4c-1.2-0.7-2.3-0.7-1.2,0c1.2,0.7,2.3,2.9,5.8,2.2c3.5-0.7,8.2,1.4,12.8,2.9c4.7,1.4,9.3-0.7,16.3-3.6
			c7-2.9,11.7-0.7,11.7-0.7s-1.2,1.4-4.7,0.7c0,0,1.2,1.4,5.8,0c0,0,1.2-0.7,4.7,0c3.5,0.7,8.2,0,8.2,0s1.2-0.7,5.8,0
			c0,0-1.2,1.4-5.8,1.4c-4.7,0-5.8,2.2-5.8,2.2s1.2-1.4,4.7-1.4c3.5,0,7,0,10.5-2.9c0,0-3.5-0.7-5.8,0c0,0,1.2-0.7,5.8-0.7
			c4.7,0,0-2.2,4.7-2.9c0,0,1.2,0.7-1.2,1.4c0,0,2.3,0,3.5-1.4c0,0,1.2,1.4,4.7,2.2c0,0,1.2,1.4-2.3,1.4c-3.5,0-7-1.4-10.5,2.2
			c-3.5,3.6-7,3.6-7,3.6s4.7,0.7,8.2-3.6c0,0,2.3-2.2,5.8-1.4c3.5,0.7,3.5,0,3.5,0s0,2.2-5.8,2.9c-5.8,0.7-3.5,3.6-9.3,2.9
			c0,0,2.3,2.2,5.8-0.7c3.5-2.9,3.5,0,9.3-2.9c0,0,2.3-1.4,2.3-2.2s3.5-2.2,5.8-1.4c2.3,0.7,4.7,2.2,10.5,2.9
			c5.8,0.7,5.8,2.2,11.7,0c5.8-2.2,12.8,0.7,12.8,0.7s-5.8-4.3-12.8-2.2c-7,2.2-7,1.4-9.3,0.7c-2.3-0.7-5.8-0.7-10.5-2.2
			c-4.7-1.4-10.5-1.5-11.7-3.6c0,0,2.3-2.9,10.5-2.9c0,0,3.5,0,4.7,1.4c0,0,1.2,0.7-3.5,1.4c-4.7,0.7-4.7,2.2-4.7,2.2s0-1.4,4.7-1.4
			c4.7,0,4.7-2.2,7,0c2.3,2.2,10.5,0,12.8,1.5c2.3,1.4,5.8,0,8.2,2.2c2.3,2.2,7,0,10.5,3.6c3.5,3.6,5.8,0.7,10.5,2.9
			c4.7,2.2,5.8,4.3,9.3,2.9s4.7,2.2,7,0.7c2.3-1.4,4.7-2.2,7,0c2.3,2.2,9.3,1.5,9.3,1.5s-4.7,0-7-1.4c-2.3-1.4-4.7-5.1-9.3-1.5
			c0,0-1.2,1.4-2.3,0c-1.2-1.4-3.5-0.7-3.5-0.7s5.8-6.5,9.3-4.3c0,0,1.2,1.4-1.2,2.2c-2.3,0.7,4.7,0,3.5-2.9
			C305.3,117.9,329.8,118.7,329.8,118.7"/>
		<polygon class="st0" points="301.6,118.2 303.7,119.2 306.5,119.4 304.1,117.9 		"/>
		<path class="st0" d="M306.5,117.7c0,0,0-0.5,2.3,1l3.5,0c0,0-0.9-0.5-2.2-1.3C308.8,116.5,306.5,117.7,306.5,117.7z"/>
		<path class="st0" d="M309.8,119.2c0,0,2.5,1.6,3.7,3l8.2,1.4c0,0,3.5-1.4,8.2-0.7c0,0-3.5-1.4-8.2,0l-7-1.4l-2.3-2.6
			C312.3,118.9,308.4,118.4,309.8,119.2z"/>
		<path class="st0" d="M306.5,120.4l3.5,2.6c0,0,3.5-2.2,7-2.9c0,0,2.3-2.9,4.7-4.3c2.3-1.4,9.3,0.7,9.3,0.7s-4.7-2.9-10.5-1.5
			l-4.7,4.3c0,0-3.5,0.7-5.8,2.2l-4.7-2.9C305.3,118.6,301.8,117.9,306.5,120.4z"/>
		<path class="st0" d="M230.5,117l9.3,2.4c0,0,0.2,4.2,3.7,6.4c0,0,4.7-2.9,10.5-2.9c0,0,1.2,1.4,4.7,1.4c0,0-1.2-2.2,4.7-2.9
			c0,0-5.8,0-5.8,2.2c0,0-1.2,0-2.3-1.4c0,0-8.2,0-11.7,2.9c0,0-2.1-2.8-2.2-5.4C241.3,119.7,231.6,115.5,230.5,117z"/>
		<path class="st0" d="M177.2,120"/>
		<path class="st0" d="M73.3,122.9c2.3,0,9.3,2.9,22.2,1.5l-7-3.6l8.2-3.1l5.8-4.8l8.2,1.4c0,0,5.8-2.2,11.7-0.7
			c5.8,1.4,12.8-1.4,7-5.8c0,0,3.5-0.7,5.8-2.2c0,0,7.2-0.9,10.6,2.8c0,0,2.1,1.3,2.1-1.1c0,0-4.6-3.9-13.9-3.2
			c0,0-8.2,5.8-18.7,2.9c0,0-8.2-3.6-14,0.7c0,0,5.8-2.9,11.7,0c5.8,2.9,14,0.7,14,0.7s3.5,2.2,1.2,3.6c-2.3,1.4-8.2-2.2-17.5,0.7
			l-8.2-1.4c0,0-7,6.5-16.3,9.4l5.8,2.9c0,0-10.5,0.7-18.7-2.2"/>
		<path class="st0" d="M146.9,109.8c0,0,4.5,3,5.7,6.6c0,0,8.2-2.2,16.3,0c0,0-7-3.6-15.2-1.5c0,0-0.3-2-4.8-6.4
			c0,0-4.5-1.5-2.2,1.4"/>
	</g>
	<g>
		<path class="st0" d="M375.6,120.2c0,0,23.3-2.2,30.3,2.2c0,0,4.7,5.1,7,5.1c2.3,0,5.8-2.2,9.3-2.9c3.5-0.7,3.5,1.4,10.5-3.6
			c0,0-3.5-0.7-8.2,0.7c-4.7,1.4-8.2-2.2-19.8-2.2l-2.3,0.7l-2.3,0l1.2-0.7c0,0-1.2-0.7-3.5,0l-3.5,0c0,0,1.2-1.4,7-1.4
			c0,0,2.3,0,3.5-0.7c0,0-2.3-2.2-7-2.9c-4.7-0.7-4.7-2.9-4.7-2.9s1.2,2.2,5.8,2.2c4.7,0,7,2.9,7,2.9s2.3,1.4,5.8-0.7
			c3.5-2.2,4.7-2.2,9.3-2.2c0,0-5.8,0-8.2,2.9c0,0,0,0.7,7,0.7c0,0,2.3,0,3.5,1.4c1.2,1.4,4.7,0,5.8-1.4c1.2-1.4,4.7-2.2,11.7-1.5
			s5.8-1.4,5.8-1.4s1.2,4.3-8.2,2.2c0,0-9.3-0.7-9.3,2.2c0,0,0,0.7-1.2,0.7c0,0,4.7-0.7,8.2,0s4.7-0.7,5.8-1.4
			c1.2-0.7,2.3,0,4.7-0.7c2.3-0.7,1.2-2.2,9.3-1.5c8.2,0.7,3.5-2.9,12.8-4.3c9.3-1.5,14,4.3,23.3,1.4c0,0,2.3-1.4,5.8,0.7
			c3.5,2.2,3.5,0,9.3,2.9c0,0,2.3,0.7,5.8-1.4c3.5-2.2,7-1.4,8.2-0.7c1.2,0.7,8.2,0,10.5-2.2c2.3-2.2,8.2-6.5,17.5-5.8
			c9.3,0.7,19.8,10.1,21,10.8s4.7,1.4,5.8,5.1c0,0,3.5,2.2,12.8,0c0,0,5.8,0.7,8.2-2.2c2.3-2.9,9.3,0,14-3.6s9.3-1.5,14-3.6
			s9.3-2.2,9.3-2.2s-7,1.4-8.2,3.6c-1.2,2.2-4.7-1.4-12.8,2.2c0,0-4.7,3.6-9.3,3.6s-4.7,3.6-15.2,4.3s-16.3,1.5-16.3-2.9
			c0-4.3-2.3,0.7-8.2-5.1s-10.5-8.7-16.3-8.7s-10.5,1.5-14,5.1c-3.5,3.6-11.7,3.6-14,2.9c-2.3-0.7-5.8-1.4-8.2,1.4
			c-2.3,2.9-5.8-0.7-11.7-0.7c-5.8,0-3.5-4.3-9.3-2.2c0,0-3.5,1.4-8.2,0c0,0,1.2,1.4,3.5,1.4c2.3,0,2.3,1.4,2.3,1.4s0,0.7,3.5,0.7
			c3.5,0,7,1.4,7,1.4s9.3,0.7,14-0.7s9.3-0.7,14,0.7c4.7,1.4,5.8,4.3,11.7,3.6c5.8-0.7,12.8-3.6,15.2-2.9c2.3,0.7,3.5-0.7,4.7-1.4
			c1.2-0.7,2.3-0.7,1.2,0c-1.2,0.7-2.3,2.9-5.8,2.2c-3.5-0.7-8.2,1.4-12.8,2.9c-4.7,1.4-9.3-0.7-16.3-3.6c-7-2.9-11.7-0.7-11.7-0.7
			s1.2,1.4,4.7,0.7c0,0-1.2,1.4-5.8,0c0,0-1.2-0.7-4.7,0c-3.5,0.7-8.2,0-8.2,0s-1.2-0.7-5.8,0c0,0,1.2,1.4,5.8,1.4
			c4.7,0,5.8,2.2,5.8,2.2s-1.2-1.4-4.7-1.4c-3.5,0-7,0-10.5-2.9c0,0,3.5-0.7,5.8,0c0,0-1.2-0.7-5.8-0.7c-4.7,0,0-2.2-4.7-2.9
			c0,0-1.2,0.7,1.2,1.4c0,0-2.3,0-3.5-1.4c0,0-1.2,1.4-4.7,2.2c0,0-1.2,1.4,2.3,1.4c3.5,0,7-1.4,10.5,2.2c3.5,3.6,7,3.6,7,3.6
			s-4.7,0.7-8.2-3.6c0,0-2.3-2.2-5.8-1.4s-3.5,0-3.5,0s0,2.2,5.8,2.9s3.5,3.6,9.3,2.9c0,0-2.3,2.2-5.8-0.7c-3.5-2.9-3.5,0-9.3-2.9
			c0,0-2.3-1.4-2.3-2.2s-3.5-2.2-5.8-1.4c-2.3,0.7-4.7,2.2-10.5,2.9c-5.8,0.7-5.8,2.2-11.7,0c-5.8-2.2-12.8,0.7-12.8,0.7
			s5.8-4.3,12.8-2.2c7,2.2,7,1.4,9.3,0.7c2.3-0.7,5.8-0.7,10.5-2.2c4.7-1.4,10.5-1.5,11.7-3.6c0,0-2.3-2.9-10.5-2.9
			c0,0-3.5,0-4.7,1.4c0,0-1.2,0.7,3.5,1.4c4.7,0.7,4.7,2.2,4.7,2.2s0-1.4-4.7-1.4s-4.7-2.2-7,0s-10.5,0-12.8,1.5s-5.8,0-8.2,2.2
			s-7,0-10.5,3.6c-3.5,3.6-5.8,0.7-10.5,2.9s-5.8,4.3-9.3,2.9c-3.5-1.4-4.7,2.2-7,0.7c-2.3-1.4-4.7-2.2-7,0
			c-2.3,2.2-9.3,1.5-9.3,1.5s4.7,0,7-1.4c2.3-1.4,4.7-5.1,9.3-1.5c0,0,1.2,1.4,2.3,0c1.2-1.4,3.5-0.7,3.5-0.7s-5.8-6.5-9.3-4.3
			c0,0-1.2,1.4,1.2,2.2s-4.7,0-3.5-2.9C400.1,119.5,375.6,120.2,375.6,120.2"/>
		<polygon class="st0" points="403.8,119.8 401.7,120.8 398.9,120.9 401.3,119.5 		"/>
		<path class="st0" d="M398.9,119.2c0,0,0-0.5-2.3,1l-3.5,0c0,0,0.9-0.5,2.2-1.3S398.9,119.2,398.9,119.2z"/>
		<path class="st0" d="M395.6,120.8c0,0-2.5,1.6-3.7,3l-8.2,1.4c0,0-3.5-1.4-8.2-0.7c0,0,3.5-1.4,8.2,0l7-1.4l2.3-2.6
			C393.1,120.5,397,119.9,395.6,120.8z"/>
		<path class="st0" d="M398.9,122l-3.5,2.6c0,0-3.5-2.2-7-2.9c0,0-2.3-2.9-4.7-4.3c-2.3-1.4-9.3,0.7-9.3,0.7s4.7-2.9,10.5-1.5
			l4.7,4.3c0,0,3.5,0.7,5.8,2.2l4.7-2.9C400.1,120.2,403.6,119.5,398.9,122z"/>
		<path class="st0" d="M474.8,118.6l-9.3,2.4c0,0-0.2,4.2-3.7,6.4c0,0-4.7-2.9-10.5-2.9c0,0-1.2,1.4-4.7,1.4c0,0,1.2-2.2-4.7-2.9
			c0,0,5.8,0,5.8,2.2c0,0,1.2,0,2.3-1.4c0,0,8.2,0,11.7,2.9c0,0,2.1-2.8,2.2-5.4C464.1,121.3,473.8,117.1,474.8,118.6z"/>
		<path class="st0" d="M528.2,121.5"/>
		<path class="st0" d="M557.6,108.9c0,0,4.6-3.9,13.9-3.2c0,0,8.2,5.8,18.7,2.9c0,0,8.2-3.6,14,0.7c0,0-5.8-2.9-11.7,0
			s-14,0.7-14,0.7s-3.5,2.2-1.2,3.6c2.3,1.4,8.2-2.2,17.5,0.7l8.2-1.4c0,0,7,6.5,16.3,9.4l-5.8,2.9c0,0,10.5,0.7,18.7-2.2
			c0,0,8.2,4.3,9.3,8.7c0,0-7-7.2-9.3-7.2c-2.3,0-9.3,2.9-22.2,1.5l7-3.6l-8.2-3.1l-5.8-4.8l-8.2,1.4c0,0-5.8-2.2-11.7-0.7
			c-5.8,1.4-12.8-1.4-7-5.8c0,0-3.5-0.7-5.8-2.2c0,0-7.2-0.9-10.6,2.8C559.7,109.9,557.6,111.3,557.6,108.9z"/>
		<path class="st0" d="M558.5,111.4c0,0-4.5,3-5.7,6.6c0,0-8.2-2.2-16.3,0c0,0,7-3.6,15.2-1.5c0,0,0.3-2,4.8-6.4
			c0,0,4.5-1.5,2.2,1.4"/>
	</g>
	<g>
		<path class="st1" d="M956.3,119.5c0,0-23.3-2.2-30.3,2.2c0,0-4.7,5.1-7,5.1c-2.3,0-5.8-2.2-9.3-2.9s-3.5,1.4-10.5-3.6
			c0,0,3.5-0.7,8.2,0.7c4.7,1.4,8.2-2.2,19.8-2.2l2.3,0.7l2.3,0l-1.2-0.7c0,0,1.2-0.7,3.5,0l3.5,0c0,0-1.2-1.4-7-1.4
			c0,0-2.3,0-3.5-0.7c0,0,2.3-2.2,7-2.9c4.7-0.7,4.7-2.9,4.7-2.9s-1.2,2.2-5.8,2.2c-4.7,0-7,2.9-7,2.9s-2.3,1.4-5.8-0.7
			c-3.5-2.2-4.7-2.2-9.3-2.2c0,0,5.8,0,8.2,2.9c0,0,0,0.7-7,0.7c0,0-2.3,0-3.5,1.4c-1.2,1.4-4.7,0-5.8-1.4
			c-1.2-1.4-4.7-2.2-11.7-1.5c-7,0.7-5.8-1.4-5.8-1.4s-1.2,4.3,8.2,2.2c0,0,9.3-0.7,9.3,2.2c0,0,0,0.7,1.2,0.7c0,0-4.7-0.7-8.2,0
			c-3.5,0.7-4.7-0.7-5.8-1.4s-2.3,0-4.7-0.7c-2.3-0.7-1.2-2.2-9.3-1.5c-8.2,0.7-3.5-2.9-12.8-4.3s-14,4.3-23.3,1.4
			c0,0-2.3-1.4-5.8,0.7c-3.5,2.2-3.5,0-9.3,2.9c0,0-2.3,0.7-5.8-1.4c-3.5-2.2-7-1.4-8.2-0.7s-8.2,0-10.5-2.2
			c-2.3-2.2-8.2-6.5-17.5-5.8c-9.3,0.7-19.8,10.1-21,10.8s-4.7,1.4-5.8,5.1c0,0-3.5,2.2-12.8,0c0,0-5.8,0.7-8.2-2.2
			c-2.3-2.9-9.3,0-14-3.6s-9.3-1.5-14-3.6c-4.7-2.2-9.3-2.2-9.3-2.2s7,1.4,8.2,3.6c1.2,2.2,4.7-1.4,12.8,2.2c0,0,4.7,3.6,9.3,3.6
			c4.7,0,4.7,3.6,15.2,4.3s16.3,1.5,16.3-2.9c0-4.3,2.3,0.7,8.2-5.1c5.8-5.8,10.5-8.7,16.3-8.7s10.5,1.5,14,5.1
			c3.5,3.6,11.7,3.6,14,2.9c2.3-0.7,5.8-1.4,8.2,1.4c2.3,2.9,5.8-0.7,11.7-0.7s3.5-4.3,9.3-2.2c0,0,3.5,1.4,8.2,0
			c0,0-1.2,1.4-3.5,1.4c-2.3,0-2.3,1.4-2.3,1.4s0,0.7-3.5,0.7c-3.5,0-7,1.4-7,1.4s-9.3,0.7-14-0.7c-4.7-1.4-9.3-0.7-14,0.7
			c-4.7,1.4-5.8,4.3-11.7,3.6c-5.8-0.7-12.8-3.6-15.2-2.9c-2.3,0.7-3.5-0.7-4.7-1.4c-1.2-0.7-2.3-0.7-1.2,0c1.2,0.7,2.3,2.9,5.8,2.2
			c3.5-0.7,8.2,1.4,12.8,2.9s9.3-0.7,16.3-3.6c7-2.9,11.7-0.7,11.7-0.7s-1.2,1.4-4.7,0.7c0,0,1.2,1.4,5.8,0c0,0,1.2-0.7,4.7,0
			s8.2,0,8.2,0s1.2-0.7,5.8,0c0,0-1.2,1.4-5.8,1.4c-4.7,0-5.8,2.2-5.8,2.2s1.2-1.4,4.7-1.4c3.5,0,7,0,10.5-2.9c0,0-3.5-0.7-5.8,0
			c0,0,1.2-0.7,5.8-0.7s0-2.2,4.7-2.9c0,0,1.2,0.7-1.2,1.4c0,0,2.3,0,3.5-1.4c0,0,1.2,1.4,4.7,2.2c0,0,1.2,1.4-2.3,1.4
			c-3.5,0-7-1.4-10.5,2.2c-3.5,3.6-7,3.6-7,3.6s4.7,0.7,8.2-3.6c0,0,2.3-2.2,5.8-1.4c3.5,0.7,3.5,0,3.5,0s0,2.2-5.8,2.9
			s-3.5,3.6-9.3,2.9c0,0,2.3,2.2,5.8-0.7c3.5-2.9,3.5,0,9.3-2.9c0,0,2.3-1.4,2.3-2.2s3.5-2.2,5.8-1.4c2.3,0.7,4.7,2.2,10.5,2.9
			c5.8,0.7,5.8,2.2,11.7,0c5.8-2.2,12.8,0.7,12.8,0.7s-5.8-4.3-12.8-2.2c-7,2.2-7,1.4-9.3,0.7c-2.3-0.7-5.8-0.7-10.5-2.2
			c-4.7-1.4-10.5-1.5-11.7-3.6c0,0,2.3-2.9,10.5-2.9c0,0,3.5,0,4.7,1.4c0,0,1.2,0.7-3.5,1.4s-4.7,2.2-4.7,2.2s0-1.4,4.7-1.4
			s4.7-2.2,7,0c2.3,2.2,10.5,0,12.8,1.5c2.3,1.4,5.8,0,8.2,2.2c2.3,2.2,7,0,10.5,3.6c3.5,3.6,5.8,0.7,10.5,2.9
			c4.7,2.2,5.8,4.3,9.3,2.9c3.5-1.4,4.7,2.2,7,0.7c2.3-1.4,4.7-2.2,7,0c2.3,2.2,9.3,1.5,9.3,1.5s-4.7,0-7-1.4
			c-2.3-1.4-4.7-5.1-9.3-1.5c0,0-1.2,1.4-2.3,0s-3.5-0.7-3.5-0.7s5.8-6.5,9.3-4.3c0,0,1.2,1.4-1.2,2.2c-2.3,0.7,4.7,0,3.5-2.9
			C931.8,118.8,956.3,119.5,956.3,119.5"/>
		<polygon class="st1" points="928.1,119.1 930.2,120.1 933,120.2 930.7,118.8 		"/>
		<path class="st1" d="M933,118.5c0,0,0-0.5,2.3,1l3.5,0c0,0-0.9-0.5-2.2-1.3C935.3,117.3,933,118.5,933,118.5z"/>
		<path class="st1" d="M936.3,120.1c0,0,2.5,1.6,3.7,3l8.2,1.4c0,0,3.5-1.4,8.2-0.7c0,0-3.5-1.4-8.2,0l-7-1.4l-2.3-2.6
			C938.8,119.8,935,119.2,936.3,120.1z"/>
		<path class="st1" d="M933,121.3l3.5,2.6c0,0,3.5-2.2,7-2.9c0,0,2.3-2.9,4.7-4.3s9.3,0.7,9.3,0.7s-4.7-2.9-10.5-1.5l-4.7,4.3
			c0,0-3.5,0.7-5.8,2.2l-4.7-2.9C931.8,119.5,928.3,118.7,933,121.3z"/>
		<path class="st1" d="M857.1,117.9l9.3,2.4c0,0,0.2,4.2,3.7,6.4c0,0,4.7-2.9,10.5-2.9c0,0,1.2,1.4,4.7,1.4c0,0-1.2-2.2,4.7-2.9
			c0,0-5.8,0-5.8,2.2c0,0-1.2,0-2.3-1.4c0,0-8.2,0-11.7,2.9c0,0-2.1-2.8-2.2-5.4C867.8,120.6,858.1,116.3,857.1,117.9z"/>
		<path class="st1" d="M803.8,120.8"/>
		<path class="st1" d="M774.4,108.1c0,0-4.6-3.9-13.9-3.2c0,0-8.2,5.8-18.7,2.9c0,0-8.2-3.6-14,0.7c0,0,5.8-2.9,11.7,0
			c5.8,2.9,14,0.7,14,0.7s3.5,2.2,1.2,3.6c-2.3,1.4-8.2-2.2-17.5,0.7l-8.2-1.4c0,0-7,6.5-16.3,9.4l5.8,2.9c0,0-10.5,0.7-18.7-2.2
			c0,0-8.2,4.3-9.3,8.7c0,0,7-7.2,9.3-7.2c2.3,0,9.3,2.9,22.2,1.5l-7-3.6l8.2-3.1l5.8-4.8l8.2,1.4c0,0,5.8-2.2,11.7-0.7
			c5.8,1.4,12.8-1.4,7-5.8c0,0,3.5-0.7,5.8-2.2c0,0,7.2-0.9,10.6,2.8C772.2,109.2,774.3,110.6,774.4,108.1z"/>
		<path class="st1" d="M773.4,110.7c0,0,4.5,3,5.7,6.6c0,0,8.2-2.2,16.3,0c0,0-7-3.6-15.2-1.5c0,0-0.3-2-4.8-6.4
			c0,0-4.5-1.5-2.2,1.4"/>
	</g>
	<g>
		<path class="st0" d="M1006.4,122.5c0,0,23.3-2.2,30.3,2.2c0,0,4.7,5.1,7,5.1s5.8-2.2,9.3-2.9s3.5,1.4,10.5-3.6
			c0,0-3.5-0.7-8.2,0.7c-4.7,1.4-8.2-2.2-19.8-2.2l-2.3,0.7l-2.3,0l1.2-0.7c0,0-1.2-0.7-3.5,0l-3.5,0c0,0,1.2-1.4,7-1.4
			c0,0,2.3,0,3.5-0.7c0,0-2.3-2.2-7-2.9s-4.7-2.9-4.7-2.9s1.2,2.2,5.8,2.2c4.7,0,7,2.9,7,2.9s2.3,1.4,5.8-0.7s4.7-2.2,9.3-2.2
			c0,0-5.8,0-8.2,2.9c0,0,0,0.7,7,0.7c0,0,2.3,0,3.5,1.4s4.7,0,5.8-1.4c1.2-1.4,4.7-2.2,11.7-1.5s5.8-1.4,5.8-1.4s1.2,4.3-8.2,2.2
			c0,0-9.3-0.7-9.3,2.2c0,0,0,0.7-1.2,0.7c0,0,4.7-0.7,8.2,0c3.5,0.7,4.7-0.7,5.8-1.4c1.2-0.7,2.3,0,4.7-0.7
			c2.3-0.7,1.2-2.2,9.3-1.5c8.2,0.7,3.5-2.9,12.8-4.3c9.3-1.5,14,4.3,23.3,1.4c0,0,2.3-1.4,5.8,0.7s3.5,0,9.3,2.9
			c0,0,2.3,0.7,5.8-1.4c3.5-2.2,7-1.4,8.2-0.7c1.2,0.7,8.2,0,10.5-2.2s8.2-6.5,17.5-5.8c9.3,0.7,19.8,10.1,21,10.8
			c1.2,0.7,4.7,1.4,5.8,5.1c0,0,3.5,2.2,12.8,0c0,0,5.8,0.7,8.2-2.2c2.3-2.9,9.3,0,14-3.6s9.3-1.5,14-3.6c4.7-2.2,9.3-2.2,9.3-2.2
			s-7,1.4-8.2,3.6c-1.2,2.2-4.7-1.4-12.8,2.2c0,0-4.7,3.6-9.3,3.6c-4.7,0-4.7,3.6-15.2,4.3c-10.5,0.7-16.3,1.5-16.3-2.9
			c0-4.3-2.3,0.7-8.2-5.1c-5.8-5.8-10.5-8.7-16.3-8.7c-5.8,0-10.5,1.5-14,5.1s-11.7,3.6-14,2.9c-2.3-0.7-5.8-1.4-8.2,1.4
			c-2.3,2.9-5.8-0.7-11.7-0.7c-5.8,0-3.5-4.3-9.3-2.2c0,0-3.5,1.4-8.2,0c0,0,1.2,1.4,3.5,1.4c2.3,0,2.3,1.4,2.3,1.4s0,0.7,3.5,0.7
			c3.5,0,7,1.4,7,1.4s9.3,0.7,14-0.7c4.7-1.4,9.3-0.7,14,0.7c4.7,1.4,5.8,4.3,11.7,3.6c5.8-0.7,12.8-3.6,15.2-2.9
			c2.3,0.7,3.5-0.7,4.7-1.4c1.2-0.7,2.3-0.7,1.2,0c-1.2,0.7-2.3,2.9-5.8,2.2s-8.2,1.4-12.8,2.9c-4.7,1.4-9.3-0.7-16.3-3.6
			c-7-2.9-11.7-0.7-11.7-0.7s1.2,1.4,4.7,0.7c0,0-1.2,1.4-5.8,0c0,0-1.2-0.7-4.7,0s-8.2,0-8.2,0s-1.2-0.7-5.8,0c0,0,1.2,1.4,5.8,1.4
			c4.7,0,5.8,2.2,5.8,2.2s-1.2-1.4-4.7-1.4c-3.5,0-7,0-10.5-2.9c0,0,3.5-0.7,5.8,0c0,0-1.2-0.7-5.8-0.7c-4.7,0,0-2.2-4.7-2.9
			c0,0-1.2,0.7,1.2,1.4c0,0-2.3,0-3.5-1.4c0,0-1.2,1.4-4.7,2.2c0,0-1.2,1.4,2.3,1.4c3.5,0,7-1.4,10.5,2.2c3.5,3.6,7,3.6,7,3.6
			s-4.7,0.7-8.2-3.6c0,0-2.3-2.2-5.8-1.4c-3.5,0.7-3.5,0-3.5,0s0,2.2,5.8,2.9s3.5,3.6,9.3,2.9c0,0-2.3,2.2-5.8-0.7s-3.5,0-9.3-2.9
			c0,0-2.3-1.4-2.3-2.2c0-0.7-3.5-2.2-5.8-1.4s-4.7,2.2-10.5,2.9s-5.8,2.2-11.7,0s-12.8,0.7-12.8,0.7s5.8-4.3,12.8-2.2
			c7,2.2,7,1.4,9.3,0.7s5.8-0.7,10.5-2.2c4.7-1.4,10.5-1.5,11.7-3.6c0,0-2.3-2.9-10.5-2.9c0,0-3.5,0-4.7,1.4c0,0-1.2,0.7,3.5,1.4
			c4.7,0.7,4.7,2.2,4.7,2.2s0-1.4-4.7-1.4c-4.7,0-4.7-2.2-7,0s-10.5,0-12.8,1.5c-2.3,1.4-5.8,0-8.2,2.2c-2.3,2.2-7,0-10.5,3.6
			s-5.8,0.7-10.5,2.9c-4.7,2.2-5.8,4.3-9.3,2.9s-4.7,2.2-7,0.7s-4.7-2.2-7,0s-9.3,1.5-9.3,1.5s4.7,0,7-1.4c2.3-1.4,4.7-5.1,9.3-1.5
			c0,0,1.2,1.4,2.3,0s3.5-0.7,3.5-0.7s-5.8-6.5-9.3-4.3c0,0-1.2,1.4,1.2,2.2c2.3,0.7-4.7,0-3.5-2.9
			C1030.9,121.7,1006.4,122.5,1006.4,122.5"/>
		<polygon class="st0" points="1034.6,122 1032.5,123.1 1029.7,123.2 1032,121.7 		"/>
		<path class="st0" d="M1029.7,121.5c0,0,0-0.5-2.3,1l-3.5,0c0,0,0.9-0.5,2.2-1.3C1027.4,120.3,1029.7,121.5,1029.7,121.5z"/>
		<path class="st0" d="M1026.4,123c0,0-2.5,1.6-3.7,3l-8.2,1.4c0,0-3.5-1.4-8.2-0.7c0,0,3.5-1.4,8.2,0l7-1.4l2.3-2.6
			C1023.9,122.7,1027.7,122.2,1026.4,123z"/>
		<path class="st0" d="M1029.7,124.2l-3.5,2.6c0,0-3.5-2.2-7-2.9c0,0-2.3-2.9-4.7-4.3c-2.3-1.4-9.3,0.7-9.3,0.7s4.7-2.9,10.5-1.5
			l4.7,4.3c0,0,3.5,0.7,5.8,2.2l4.7-2.9C1030.9,122.5,1034.4,121.7,1029.7,124.2z"/>
		<path class="st0" d="M1105.6,120.9l-9.3,2.4c0,0-0.2,4.2-3.7,6.4c0,0-4.7-2.9-10.5-2.9c0,0-1.2,1.4-4.7,1.4c0,0,1.2-2.2-4.7-2.9
			c0,0,5.8,0,5.8,2.2c0,0,1.2,0,2.3-1.4c0,0,8.2,0,11.7,2.9c0,0,2.1-2.8,2.2-5.4C1094.9,123.5,1104.6,119.3,1105.6,120.9z"/>
		<path class="st0" d="M1158.9,123.8"/>
		<path class="st0" d="M1188.3,111.1c0,0,4.6-3.9,13.9-3.2c0,0,8.2,5.8,18.7,2.9c0,0,8.2-3.6,14,0.7c0,0-5.8-2.9-11.7,0
			c-5.8,2.9-14,0.7-14,0.7s-3.5,2.2-1.2,3.6c2.3,1.4,8.2-2.2,17.5,0.7l8.2-1.4c0,0,7,6.5,16.3,9.4l-5.8,2.9c0,0,10.5,0.7,18.7-2.2
			c0,0,8.2,4.3,9.3,8.7c0,0-7-7.2-9.3-7.2c-2.3,0-9.3,2.9-22.2,1.5l7-3.6l-8.2-3.1l-5.8-4.8l-8.2,1.4c0,0-5.8-2.2-11.7-0.7
			c-5.8,1.4-12.8-1.4-7-5.8c0,0-3.5-0.7-5.8-2.2c0,0-7.2-0.9-10.6,2.8C1190.5,112.2,1188.4,113.5,1188.3,111.1z"/>
		<path class="st0" d="M1189.3,113.6c0,0-4.5,3-5.7,6.6c0,0-8.2-2.2-16.3,0c0,0,7-3.6,15.2-1.5c0,0,0.3-2,4.8-6.4
			c0,0,4.5-1.5,2.2,1.4"/>
	</g>
	<g>
		<path class="st0" d="M1585.2,122.2c0,0-23.3-2.2-30.3,2.2c0,0-4.7,5.1-7,5.1s-5.8-2.2-9.3-2.9s-3.5,1.4-10.5-3.6
			c0,0,3.5-0.7,8.2,0.7c4.7,1.4,8.2-2.2,19.8-2.2l2.3,0.7l2.3,0l-1.2-0.7c0,0,1.2-0.7,3.5,0l3.5,0c0,0-1.2-1.4-7-1.4
			c0,0-2.3,0-3.5-0.7c0,0,2.3-2.2,7-2.9c4.7-0.7,4.7-2.9,4.7-2.9s-1.2,2.2-5.8,2.2c-4.7,0-7,2.9-7,2.9s-2.3,1.4-5.8-0.7
			s-4.7-2.2-9.3-2.2c0,0,5.8,0,8.2,2.9c0,0,0,0.7-7,0.7c0,0-2.3,0-3.5,1.4s-4.7,0-5.8-1.4c-1.2-1.4-4.7-2.2-11.7-1.5
			s-5.8-1.4-5.8-1.4s-1.2,4.3,8.2,2.2c0,0,9.3-0.7,9.3,2.2c0,0,0,0.7,1.2,0.7c0,0-4.7-0.7-8.2,0c-3.5,0.7-4.7-0.7-5.8-1.4
			c-1.2-0.7-2.3,0-4.7-0.7c-2.3-0.7-1.2-2.2-9.3-1.5c-8.2,0.7-3.5-2.9-12.8-4.3c-9.3-1.5-14,4.3-23.3,1.4c0,0-2.3-1.4-5.8,0.7
			s-3.5,0-9.3,2.9c0,0-2.3,0.7-5.8-1.4c-3.5-2.2-7-1.4-8.2-0.7c-1.2,0.7-8.2,0-10.5-2.2s-8.2-6.5-17.5-5.8
			c-9.3,0.7-19.8,10.1-21,10.8c-1.2,0.7-4.7,1.4-5.8,5.1c0,0-3.5,2.2-12.8,0c0,0-5.8,0.7-8.2-2.2c-2.3-2.9-9.3,0-14-3.6
			s-9.3-1.5-14-3.6c-4.7-2.2-9.3-2.2-9.3-2.2s7,1.4,8.2,3.6c1.2,2.2,4.7-1.4,12.8,2.2c0,0,4.7,3.6,9.3,3.6c4.7,0,4.7,3.6,15.2,4.3
			c10.5,0.7,16.3,1.5,16.3-2.9s2.3,0.7,8.2-5.1c5.8-5.8,10.5-8.7,16.3-8.7c5.8,0,10.5,1.5,14,5.1s11.7,3.6,14,2.9
			c2.3-0.7,5.8-1.4,8.2,1.4c2.3,2.9,5.8-0.7,11.7-0.7c5.8,0,3.5-4.3,9.3-2.2c0,0,3.5,1.4,8.2,0c0,0-1.2,1.4-3.5,1.4
			c-2.3,0-2.3,1.4-2.3,1.4s0,0.7-3.5,0.7c-3.5,0-7,1.4-7,1.4s-9.3,0.7-14-0.7c-4.7-1.4-9.3-0.7-14,0.7c-4.7,1.4-5.8,4.3-11.7,3.6
			c-5.8-0.7-12.8-3.6-15.2-2.9c-2.3,0.7-3.5-0.7-4.7-1.4c-1.2-0.7-2.3-0.7-1.2,0c1.2,0.7,2.3,2.9,5.8,2.2c3.5-0.7,8.2,1.4,12.8,2.9
			c4.7,1.4,9.3-0.7,16.3-3.6c7-2.9,11.7-0.7,11.7-0.7s-1.2,1.4-4.7,0.7c0,0,1.2,1.4,5.8,0c0,0,1.2-0.7,4.7,0s8.2,0,8.2,0
			s1.2-0.7,5.8,0c0,0-1.2,1.4-5.8,1.4c-4.7,0-5.8,2.2-5.8,2.2s1.2-1.4,4.7-1.4c3.5,0,7,0,10.5-2.9c0,0-3.5-0.7-5.8,0
			c0,0,1.2-0.7,5.8-0.7c4.7,0,0-2.2,4.7-2.9c0,0,1.2,0.7-1.2,1.4c0,0,2.3,0,3.5-1.4c0,0,1.2,1.4,4.7,2.2c0,0,1.2,1.4-2.3,1.4
			c-3.5,0-7-1.4-10.5,2.2c-3.5,3.6-7,3.6-7,3.6s4.7,0.7,8.2-3.6c0,0,2.3-2.2,5.8-1.4c3.5,0.7,3.5,0,3.5,0s0,2.2-5.8,2.9
			s-3.5,3.6-9.3,2.9c0,0,2.3,2.2,5.8-0.7c3.5-2.9,3.5,0,9.3-2.9c0,0,2.3-1.4,2.3-2.2c0-0.7,3.5-2.2,5.8-1.4s4.7,2.2,10.5,2.9
			s5.8,2.2,11.7,0s12.8,0.7,12.8,0.7s-5.8-4.3-12.8-2.2c-7,2.2-7,1.4-9.3,0.7s-5.8-0.7-10.5-2.2c-4.7-1.4-10.5-1.5-11.7-3.6
			c0,0,2.3-2.9,10.5-2.9c0,0,3.5,0,4.7,1.4c0,0,1.2,0.7-3.5,1.4c-4.7,0.7-4.7,2.2-4.7,2.2s0-1.4,4.7-1.4c4.7,0,4.7-2.2,7,0
			s10.5,0,12.8,1.5s5.8,0,8.2,2.2c2.3,2.2,7,0,10.5,3.6c3.5,3.6,5.8,0.7,10.5,2.9s5.8,4.3,9.3,2.9s4.7,2.2,7,0.7s4.7-2.2,7,0
			c2.3,2.2,9.3,1.5,9.3,1.5s-4.7,0-7-1.4c-2.3-1.4-4.7-5.1-9.3-1.5c0,0-1.2,1.4-2.3,0c-1.2-1.4-3.5-0.7-3.5-0.7s5.8-6.5,9.3-4.3
			c0,0,1.2,1.4-1.2,2.2c-2.3,0.7,4.7,0,3.5-2.9C1560.7,121.5,1585.2,122.2,1585.2,122.2"/>
		<polygon class="st0" points="1557,121.8 1559.1,122.8 1561.9,122.9 1559.6,121.5 		"/>
		<path class="st0" d="M1561.9,121.2c0,0,0-0.5,2.3,1l3.5,0c0,0-0.9-0.5-2.2-1.3S1561.9,121.2,1561.9,121.2z"/>
		<path class="st0" d="M1565.2,122.8c0,0,2.5,1.6,3.7,3l8.2,1.4c0,0,3.5-1.4,8.2-0.7c0,0-3.5-1.4-8.2,0l-7-1.4l-2.3-2.6
			C1567.7,122.5,1563.9,121.9,1565.2,122.8z"/>
		<path class="st0" d="M1561.9,124l3.5,2.6c0,0,3.5-2.2,7-2.9c0,0,2.3-2.9,4.7-4.3c2.3-1.4,9.3,0.7,9.3,0.7s-4.7-2.9-10.5-1.5
			l-4.7,4.3c0,0-3.5,0.7-5.8,2.2l-4.7-2.9C1560.7,122.2,1557.2,121.5,1561.9,124z"/>
		<path class="st0" d="M1486,120.6l9.3,2.4c0,0,0.2,4.2,3.7,6.4c0,0,4.7-2.9,10.5-2.9c0,0,1.2,1.4,4.7,1.4c0,0-1.2-2.2,4.7-2.9
			c0,0-5.8,0-5.8,2.2c0,0-1.2,0-2.3-1.4c0,0-8.2,0-11.7,2.9c0,0-2.1-2.8-2.2-5.4C1496.7,123.3,1487,119.1,1486,120.6z"/>
		<path class="st0" d="M1432.6,123.5"/>
		<path class="st0" d="M1403.3,110.8c0,0-4.6-3.9-13.9-3.2c0,0-8.2,5.8-18.7,2.9c0,0-8.2-3.6-14,0.7c0,0,5.8-2.9,11.7,0
			c5.8,2.9,14,0.7,14,0.7s3.5,2.2,1.2,3.6c-2.3,1.4-8.2-2.2-17.5,0.7l-8.2-1.4c0,0-7,6.5-16.3,9.4l5.8,2.9c0,0-10.5,0.7-18.7-2.2
			c0,0-8.2,4.3-9.3,8.7c0,0,7-7.2,9.3-7.2c2.3,0,9.3,2.9,22.2,1.5l-7-3.6l8.2-3.1l5.8-4.8l8.2,1.4c0,0,5.8-2.2,11.7-0.7
			c5.8,1.4,12.8-1.4,7-5.8c0,0,3.5-0.7,5.8-2.2c0,0,7.2-0.9,10.6,2.8C1401.1,111.9,1403.2,113.3,1403.3,110.8z"/>
		<path class="st0" d="M1402.3,113.4c0,0,4.5,3,5.7,6.6c0,0,8.2-2.2,16.3,0c0,0-7-3.6-15.2-1.5c0,0-0.3-2-4.8-6.4
			c0,0-4.5-1.5-2.2,1.4"/>
	</g>
	<g>
		<path class="st0" d="M1634.4,121.9c0,0,23.3-2.2,30.3,2.2c0,0,4.7,5.1,7,5.1s5.8-2.2,9.3-2.9c3.5-0.7,3.5,1.4,10.5-3.6
			c0,0-3.5-0.7-8.2,0.7c-4.7,1.4-8.2-2.2-19.8-2.2l-2.3,0.7l-2.3,0l1.2-0.7c0,0-1.2-0.7-3.5,0l-3.5,0c0,0,1.2-1.4,7-1.4
			c0,0,2.3,0,3.5-0.7c0,0-2.3-2.2-7-2.9c-4.7-0.7-4.7-2.9-4.7-2.9s1.2,2.2,5.8,2.2c4.7,0,7,2.9,7,2.9s2.3,1.4,5.8-0.7
			c3.5-2.2,4.7-2.2,9.3-2.2c0,0-5.8,0-8.2,2.9c0,0,0,0.7,7,0.7c0,0,2.3,0,3.5,1.4c1.2,1.4,4.7,0,5.8-1.4c1.2-1.4,4.7-2.2,11.7-1.5
			c7,0.7,5.8-1.4,5.8-1.4s1.2,4.3-8.2,2.2c0,0-9.3-0.7-9.3,2.2c0,0,0,0.7-1.2,0.7c0,0,4.7-0.7,8.2,0c3.5,0.7,4.7-0.7,5.8-1.4
			c1.2-0.7,2.3,0,4.7-0.7c2.3-0.7,1.2-2.2,9.3-1.5c8.2,0.7,3.5-2.9,12.8-4.3s14,4.3,23.3,1.4c0,0,2.3-1.4,5.8,0.7
			c3.5,2.2,3.5,0,9.3,2.9c0,0,2.3,0.7,5.8-1.4c3.5-2.2,7-1.4,8.2-0.7c1.2,0.7,8.2,0,10.5-2.2c2.3-2.2,8.2-6.5,17.5-5.8
			c9.3,0.7,19.8,10.1,21,10.8c1.2,0.7,4.7,1.4,5.8,5.1c0,0,3.5,2.2,12.8,0c0,0,5.8,0.7,8.2-2.2c2.3-2.9,9.3,0,14-3.6s9.3-1.5,14-3.6
			c4.7-2.2,9.3-2.2,9.3-2.2s-7,1.4-8.2,3.6s-4.7-1.4-12.8,2.2c0,0-4.7,3.6-9.3,3.6c-4.7,0-4.7,3.6-15.2,4.3
			c-10.5,0.7-16.3,1.5-16.3-2.9c0-4.3-2.3,0.7-8.2-5.1c-5.8-5.8-10.5-8.7-16.3-8.7c-5.8,0-10.5,1.5-14,5.1c-3.5,3.6-11.7,3.6-14,2.9
			s-5.8-1.4-8.2,1.4s-5.8-0.7-11.7-0.7c-5.8,0-3.5-4.3-9.3-2.2c0,0-3.5,1.4-8.2,0c0,0,1.2,1.4,3.5,1.4c2.3,0,2.3,1.4,2.3,1.4
			s0,0.7,3.5,0.7c3.5,0,7,1.4,7,1.4s9.3,0.7,14-0.7c4.7-1.4,9.3-0.7,14,0.7c4.7,1.4,5.8,4.3,11.7,3.6s12.8-3.6,15.2-2.9
			c2.3,0.7,3.5-0.7,4.7-1.4c1.2-0.7,2.3-0.7,1.2,0c-1.2,0.7-2.3,2.9-5.8,2.2c-3.5-0.7-8.2,1.4-12.8,2.9c-4.7,1.4-9.3-0.7-16.3-3.6
			c-7-2.9-11.7-0.7-11.7-0.7s1.2,1.4,4.7,0.7c0,0-1.2,1.4-5.8,0c0,0-1.2-0.7-4.7,0s-8.2,0-8.2,0s-1.2-0.7-5.8,0c0,0,1.2,1.4,5.8,1.4
			c4.7,0,5.8,2.2,5.8,2.2s-1.2-1.4-4.7-1.4c-3.5,0-7,0-10.5-2.9c0,0,3.5-0.7,5.8,0c0,0-1.2-0.7-5.8-0.7c-4.7,0,0-2.2-4.7-2.9
			c0,0-1.2,0.7,1.2,1.4c0,0-2.3,0-3.5-1.4c0,0-1.2,1.4-4.7,2.2c0,0-1.2,1.4,2.3,1.4c3.5,0,7-1.4,10.5,2.2c3.5,3.6,7,3.6,7,3.6
			s-4.7,0.7-8.2-3.6c0,0-2.3-2.2-5.8-1.4c-3.5,0.7-3.5,0-3.5,0s0,2.2,5.8,2.9c5.8,0.7,3.5,3.6,9.3,2.9c0,0-2.3,2.2-5.8-0.7
			c-3.5-2.9-3.5,0-9.3-2.9c0,0-2.3-1.4-2.3-2.2c0-0.7-3.5-2.2-5.8-1.4c-2.3,0.7-4.7,2.2-10.5,2.9c-5.8,0.7-5.8,2.2-11.7,0
			c-5.8-2.2-12.8,0.7-12.8,0.7s5.8-4.3,12.8-2.2c7,2.2,7,1.4,9.3,0.7c2.3-0.7,5.8-0.7,10.5-2.2c4.7-1.4,10.5-1.5,11.7-3.6
			c0,0-2.3-2.9-10.5-2.9c0,0-3.5,0-4.7,1.4c0,0-1.2,0.7,3.5,1.4s4.7,2.2,4.7,2.2s0-1.4-4.7-1.4c-4.7,0-4.7-2.2-7,0
			c-2.3,2.2-10.5,0-12.8,1.5c-2.3,1.4-5.8,0-8.2,2.2s-7,0-10.5,3.6c-3.5,3.6-5.8,0.7-10.5,2.9c-4.7,2.2-5.8,4.3-9.3,2.9
			c-3.5-1.4-4.7,2.2-7,0.7c-2.3-1.4-4.7-2.2-7,0c-2.3,2.2-9.3,1.5-9.3,1.5s4.7,0,7-1.4c2.3-1.4,4.7-5.1,9.3-1.5c0,0,1.2,1.4,2.3,0
			c1.2-1.4,3.5-0.7,3.5-0.7s-5.8-6.5-9.3-4.3c0,0-1.2,1.4,1.2,2.2c2.3,0.7-4.7,0-3.5-2.9S1634.4,121.9,1634.4,121.9"/>
		<polygon class="st0" points="1662.6,121.4 1660.5,122.5 1657.7,122.6 1660.1,121.1 		"/>
		<path class="st0" d="M1657.7,120.9c0,0,0-0.5-2.3,1l-3.5,0c0,0,0.9-0.5,2.2-1.3C1655.4,119.7,1657.7,120.9,1657.7,120.9z"/>
		<path class="st0" d="M1654.4,122.5c0,0-2.5,1.6-3.7,3l-8.2,1.4c0,0-3.5-1.4-8.2-0.7c0,0,3.5-1.4,8.2,0l7-1.4l2.3-2.6
			C1651.9,122.2,1655.7,121.6,1654.4,122.5z"/>
		<path class="st0" d="M1657.7,123.7l-3.5,2.6c0,0-3.5-2.2-7-2.9c0,0-2.3-2.9-4.7-4.3s-9.3,0.7-9.3,0.7s4.7-2.9,10.5-1.5l4.7,4.3
			c0,0,3.5,0.7,5.8,2.2l4.7-2.9C1658.9,121.9,1662.4,121.1,1657.7,123.7z"/>
		<path class="st0" d="M1733.6,120.3l-9.3,2.4c0,0-0.2,4.2-3.7,6.4c0,0-4.7-2.9-10.5-2.9c0,0-1.2,1.4-4.7,1.4c0,0,1.2-2.2-4.7-2.9
			c0,0,5.8,0,5.8,2.2c0,0,1.2,0,2.3-1.4c0,0,8.2,0,11.7,2.9c0,0,2.1-2.8,2.2-5.4C1722.9,123,1732.6,118.7,1733.6,120.3z"/>
		<path class="st0" d="M1787,123.2"/>
		<path class="st0" d="M1816.4,110.5c0,0,4.6-3.9,13.9-3.2c0,0,8.2,5.8,18.7,2.9c0,0,8.2-3.6,14,0.7c0,0-5.8-2.9-11.7,0
			c-5.8,2.9-14,0.7-14,0.7s-3.5,2.2-1.2,3.6s8.2-2.2,17.5,0.7l8.2-1.4c0,0,7,6.5,16.3,9.4l-5.8,2.9c0,0,10.5,0.7,18.7-2.2
			c0,0,8.2,4.3,9.3,8.7c0,0-7-7.2-9.3-7.2c-2.3,0-9.3,2.9-22.2,1.5l7-3.6l-8.2-3.1l-5.8-4.8l-8.2,1.4c0,0-5.8-2.2-11.7-0.7
			c-5.8,1.4-12.8-1.4-7-5.8c0,0-3.5-0.7-5.8-2.2c0,0-7.2-0.9-10.6,2.8C1818.5,111.6,1816.4,112.9,1816.4,110.5z"/>
		<path class="st0" d="M1817.3,113c0,0-4.5,3-5.7,6.6c0,0-8.2-2.2-16.3,0c0,0,7-3.6,15.2-1.5c0,0,0.3-2,4.8-6.4c0,0,4.5-1.5,2.2,1.4
			"/>
	</g>
</g>
<g id="Points">
	<circle class="st0" cx="60.5" cy="117.5" r="19.5"/>
	<circle class="st0" cx="348.5" cy="118.5" r="19.5"/>
	<circle class="st0" cx="668.5" cy="121.5" r="19.5"/>
	<circle class="st0" cx="978.5" cy="121.5" r="19.5"/>
	<circle class="st0" cx="1296.5" cy="123.5" r="19.5"/>
	<circle class="st0" cx="1614.5" cy="118.5" r="19.5"/>
</g>
</svg>
