<svg id="illustration" xmlns="http://www.w3.org/2000/svg" viewBox="0 0 554.78 366.67"><defs><style>.cls-1{fill:none;stroke:#fff;stroke-miterlimit:10;stroke-width:3px;}</style></defs><title>telephone_white</title><path class="cls-1" d="M100.48,97.93c-4.5-21.21,3.84-43.47,18.35-59,15.24-16.3,36.44-25.73,57.92-30.42C202.07,3,228.13,3.63,253.84,3.63l79,.2c26.35.07,52.73-.17,79.09.31,24.84.46,50,2.34,73.66,10.37,20.86,7.06,42.06,19.35,54,38.44,6.39,10.19,8.92,21.9,9.5,33.8.3,6,.17,12-.06,18-.22,5.71.1,12.13-2.38,17.43-4.16,8.86-14.93,10.09-23.6,9.64-10.47-.54-21-2.87-31.3-5-21.49-4.37-43-10.67-61.81-22.12a119.73,119.73,0,0,1-13.38-9.42l.38,1.46a307.32,307.32,0,0,0,8.86-33.62q1.69-8.31,2.92-16.71a144.25,144.25,0,0,0,1.9-15.78c.14-4.38-.76-8.9-4.17-11.94a17.27,17.27,0,0,0-11.06-3.9c-7.88-.22-15.49,3.64-20.76,9.33a29.52,29.52,0,0,0-7.87,24.72l1.45-1.9q-49-3.46-98.09-2.76-14,.21-27.9.76l1.5,1.5C265,30.5,250.32,15.07,234.21,16.2c-3.85.27-8.06,1.49-10.31,4.88-2.61,3.91-1.79,9.27-1.51,13.69a227.75,227.75,0,0,0,4.55,33q1.73,8,4,15.94c.72,2.46,1.53,4.9,2.29,7.36.9,2.91,1.28,5.59-1,8-3.32,3.55-8.6,5.94-12.91,8A118.4,118.4,0,0,1,204.43,113c-21,6.88-43,11.38-64.85,14.92q-9.84,1.6-19.72,2.83c-5.43.67-11.85,2.11-15.63-3-3.19-4.3-4-10.44-4.81-15.58A100.9,100.9,0,0,1,98.35,102c-.09-1.46-.19-2.94-.16-4.4a4,4,0,0,1,.25-1.79A2.87,2.87,0,0,1,99,95c.58-.3.53-.56-.15-.77.68,1.79,3.58,1,2.89-.8-1.36-3.55-4.94-1.24-6,1.24-.88,2-.47,4.4-.37,6.48.15,3.07.44,6.14.85,9.18,1.07,7.89,2.39,20.42,11.36,23.44,5.17,1.74,11.5,0,16.73-.64q8.52-1.12,17-2.52,17.66-2.9,35.1-7a301.73,301.73,0,0,0,32.76-9,111.32,111.32,0,0,0,14.3-6.14c4.08-2.13,9.21-4.58,12-8.4,3.16-4.33.86-9.24-.54-13.79q-2.57-8.27-4.47-16.72A219.63,219.63,0,0,1,225.39,34c-.18-2.91-.62-6.14.12-9s3.26-4.63,6.18-5.32c5-1.18,10.4,0,14.86,2.31,8.92,4.69,15.07,14.35,14.22,24.55a1.51,1.51,0,0,0,1.5,1.5q49-1.91,98.12.36Q374.33,49,388.26,50a1.52,1.52,0,0,0,1.41-1.58,1.49,1.49,0,0,0-.05-.36c-2.35-14.38,9.7-29.8,24.45-30.25,3.74-.12,7.93.71,10.68,3.44,3.27,3.24,3,8.14,2.62,12.38a281.23,281.23,0,0,1-4.66,30A308.63,308.63,0,0,1,414.11,96a1.47,1.47,0,0,0,.39,1.46c17.71,14.42,39.05,23.11,61,28.77,11.23,2.9,22.65,5,34.1,6.91,9.24,1.5,19.29,3.2,28.4.09a19.58,19.58,0,0,0,9.94-7.19c3.17-4.56,3.64-10.27,3.9-15.64.58-12.25,1.07-24.7-1.18-36.82a64.77,64.77,0,0,0-14.87-30.74,99.15,99.15,0,0,0-27-21.36c-21.49-11.94-46-17-70.26-19C411.26.19,383.71,1,356.37,1L273.28.75C246.09.68,218.52-.56,191.49,3c-22.92,3-45.88,10-64.36,24.36C109.93,40.73,97.62,60.8,96.34,82.86a60.89,60.89,0,0,0,1.28,15.93c.4,1.89,3.3,1.09,2.9-.8Z" transform="translate(0.96 1.01)"/><path class="cls-1" d="M229.69,72.32c.22,10.56,12.72,13.57,17.35,21.56a10.12,10.12,0,0,1,.58,8.56c-1.4,4.18-3.71,8.14-5.62,12.11l-11.62,24.08c-6.6,13.71-12.87,27.74-21.16,40.54a100.28,100.28,0,0,1-13.1,16.58,70.42,70.42,0,0,1-8.23,7.11c-3.07,2.23-6.36,4.13-9.41,6.38a32.21,32.21,0,0,0-11.66,16.46c-2.4,7.33-3.18,15.17-4.24,22.77q-3.69,26.28-6.41,52.67-.69,6.72-1.32,13.44c-.36,3.9-.82,7.85-.25,11.75,1,7,6.06,11.79,12.12,15,6.9,3.62,14.54,6.15,22,8.38a176.63,176.63,0,0,0,23.83,5.4,186.22,186.22,0,0,0,49.69.69c8.78-1,17.53-2.25,26.35-2.71a201.38,201.38,0,0,1,26.34.8c8.77.71,17.54,1.51,26.36,1.52s17.53-.6,26.29-1.2,17.5-1.19,26.28-1.16,17.77,1,26.65,1.82c8.6.81,17.27,1.37,25.88.37a116.2,116.2,0,0,0,24.59-6c4-1.36,7.86-2.84,11.76-4.34,3.25-1.25,6.69-2.38,9.51-4.48,6.38-4.74,5.54-13,5.33-20a336.13,336.13,0,0,0-18.22-99.56c-1.22-3.52-2.43-7.15-5-9.91s-5.73-4.45-8.59-6.63a112.57,112.57,0,0,1-15-13.87c-9.35-10.28-16.89-22.06-23.35-34.33a383.37,383.37,0,0,1-17.31-39.07q-1.89-4.85-3.73-9.7c-1.32-3.47-3.11-7.29-2.13-11.08,1.27-4.84,6.07-8,9.75-11s7.66-6.47,9-11.38h-2.89l2.45,6.8c.65,1.8,3.55,1,2.89-.8L423,73.1a1.51,1.51,0,0,0-2.89,0C417.4,83,404,85.33,401.36,95.43c-.94,3.62.07,7.19,1.34,10.59,1.19,3.19,2.42,6.36,3.65,9.53,2.5,6.46,5.06,12.89,7.78,19.26,10.68,25.08,24.11,50.09,45.16,68q3.85,3.27,8,6.2c3.28,2.32,6.06,4.5,7.7,8.29a118.69,118.69,0,0,1,4,11.61c1.22,3.88,2.48,8,3.6,12a332.22,332.22,0,0,1,9.84,49.5q1.49,12.48,2.05,25c.18,4,.37,8.12.29,12.18-.07,3.68-.7,7.36-3.65,9.86s-6.62,3.48-10,4.77c-3.9,1.5-7.81,3-11.77,4.31a108.87,108.87,0,0,1-24.48,5.76c-17.42,1.67-34.83-2.43-52.26-2.36s-34.62,2.51-52,2.41-34.63-3.22-52-2.32c-17,.88-33.64,4.3-50.68,4.13a174,174,0,0,1-48.39-7.4c-7.35-2.21-15-4.67-21.72-8.32a22.62,22.62,0,0,1-7.56-6c-2.41-3.21-3-7.11-2.88-11,.22-8.54,1.49-17.16,2.39-25.66q1.4-13.09,3-26.15t3.56-26.36c1-7,1.93-14.35,5-20.84a26.59,26.59,0,0,1,6.13-8.5,77.59,77.59,0,0,1,9.23-6.57,78.2,78.2,0,0,0,15.6-13.79c9.29-10.66,16.06-23.2,22.27-35.82,7.51-15.26,14.78-30.63,22.16-46,2.86-6,6.7-12.46,3.27-19-2.22-4.24-6.42-7.07-10-10-3.3-2.69-7-5.87-7.14-10.47a1.5,1.5,0,1,0-3,0Z" transform="translate(0.96 1.01)"/><path class="cls-1" d="M96.33,94.93l-12.26,4.7a1.63,1.63,0,0,0-1.1,1.45l-1,7.34a6.38,6.38,0,0,0,0,3.07,2.9,2.9,0,0,0,2.65,2,10.59,10.59,0,0,0,3.2-.69l3.8-1.09,7.25-2.08a1.5,1.5,0,0,0-.8-2.89c-4.15,1.19-8.3,2.43-12.47,3.57a8.35,8.35,0,0,0-1,.17c-.07,0,.17.18.19.17a1.14,1.14,0,0,1-.07-.32,13.28,13.28,0,0,1,.29-2.74l.85-6.46-1.1,1.45L97,97.86a1.55,1.55,0,0,0,1-1.85,1.52,1.52,0,0,0-1.85-1Z" transform="translate(0.96 1.01)"/><path class="cls-1" d="M82.62,110.28a.75.75,0,1,0-.75-.75A.77.77,0,0,0,82.62,110.28Z" transform="translate(0.96 1.01)"/><path class="cls-1" d="M82.07,109.15l-.8,1.58a.78.78,0,0,0-.07.58.85.85,0,0,0,.34.45.78.78,0,0,0,.58.07.74.74,0,0,0,.45-.34l.79-1.59a.81.81,0,0,0,.08-.57.75.75,0,0,0-.35-.45.78.78,0,0,0-.58-.08A.7.7,0,0,0,82.07,109.15Z" transform="translate(0.96 1.01)"/><path class="cls-1" d="M83.5,102A19,19,0,0,0,69,132.38c.56.76,1.81.09,1.29-.76A23.52,23.52,0,0,1,71,106.38a.76.76,0,0,0-.12-.91c-1.78-2.27-5-2.64-7.57-1.68-3,1.13-4.82,4-5.74,6.93a34.59,34.59,0,0,0-1.15,11.72A45.63,45.63,0,0,0,58.81,135c.31.91,1.73.54,1.45-.4a70.18,70.18,0,0,1-2.8-25.65.77.77,0,0,0-.75-.75c-6.44-.09-10.68,6.21-11.15,12.09C45,128,50.67,134.8,55.37,140.35c.63.74,1.67-.33,1.06-1.07A35.84,35.84,0,0,1,50,127.44a33.79,33.79,0,0,1-1.46-6.52c-.22-1.83-.18-3.9-1.51-5.35-2.12-2.31-5.3-.87-7.18,1-2.76,2.71-3.43,6.48-3.51,10.21a26.78,26.78,0,0,0,3.54,13.85l1.3-.76c-2.11-2.81-1.93-6.39-3-9.61-.84-2.58-3-5.35-5.82-5.76-3.1-.44-5,2.39-6.09,4.89a16.76,16.76,0,0,0,3,17.53c.49.53,1.21.06,1.28-.53.65-5.52-7.15-8.77-11.13-5.42-4.64,3.9-1.56,11.79,3.67,13.35l.2-1.47a7.2,7.2,0,1,0-.34,14.4,6.91,6.91,0,0,0,.91,0l-.19-1.51a8.08,8.08,0,0,0,.83,16l-.19-1.48a6.28,6.28,0,0,0,0,12.45l.2-1.47-5.61-.1a.76.76,0,0,0-.76.76.67.67,0,0,0,0,.24,13.42,13.42,0,0,0,7.86,8.6l-.18-1.37c-6.19,2.91-4.87,13.66,1.81,15.07.8.17,1.35-.94.58-1.37-4.07-2.31-7.82,2.8-7.37,6.57.63,5.25,7.12,7.23,11.39,8.35a.75.75,0,0,0,.92-.53h0a.74.74,0,0,0-.19-.72c-3.3-3.81-10-.77-10.7,3.81-.83,5.72,6.14,9.27,10.94,7.71.66-.21.77-1.29,0-1.45A8,8,0,0,0,27,251.24V250a5.31,5.31,0,0,0-3,5.69,4.08,4.08,0,0,0,.53,1.55c.41.6,1,.56,1.68.68L32,258.92l-.33-1.25c-3.42,3.66-7.91,9.78-4.34,14.75l.12-.91c-4.28,4.24-.94,11-2.54,16.17-1.54,5-6.15,8.3-10.13,11.27-4.33,3.22-9,6.47-11.62,11.31a20.27,20.27,0,0,0,14.63,29.9c.52.09,1.13-.32.93-.92l-1.2-3.45-1.25.73c2,2.42,4.71,4.93,8,4.7,2.67-.18,5.2-2.13,5.27-4.93,0-.82-1.35-1-1.47-.2-.58,4,3.24,7.23,7.08,7,4.57-.23,7.59-4.61,8.69-8.64a.75.75,0,1,0-1.45-.4h0c-1.26,3.74,1.68,8.21,5.7,8.3s7.1-4.28,6.07-8.06a.75.75,0,1,0-1.45.4,7.73,7.73,0,0,0,15.26-.51H66.49a8.22,8.22,0,0,0,16.32-1h-1.5c.28,3.91,3.93,7.62,8,6.74a6.2,6.2,0,0,0,4.6-7.46h0a6.85,6.85,0,0,0-.32-1c-.36-.76-1.69-.22-1.37.57a7.5,7.5,0,0,0,14.54-2.32l-1.4.38a6.34,6.34,0,0,1,.86,4.78.76.76,0,0,0,.56.92h0a.78.78,0,0,0,.54-.07,11.82,11.82,0,0,0,6.73-7.75l-1.47-.2c.32,3,3.54,4.28,6.22,3.62,3.7-.9,5.08-5.2,6-8.41l-1.47-.2.37,5.3a.75.75,0,0,0,1.13.65,16.59,16.59,0,0,0,6.94-11.9l-1.47.2,1.79,6.36a.76.76,0,0,0,.94.52.51.51,0,0,0,.17-.07,15.67,15.67,0,0,0,6.12-10c.12-.77-1-1.41-1.37-.58-.83,1.65,1,2.17,2.3,1.73,1.82-.63,2.36-2.92,2.71-4.6a17.57,17.57,0,0,0-2.6-12.61,26.85,26.85,0,0,0-10.29-9.58c-5-2.64-10.86-3.48-16.47-3.75-7.09-.34-14.17.31-21.26.09l.2,1.47a54.12,54.12,0,0,1,37.77,2.88c3.48,1.63,7.18,4.7,11.24,4.37,3.2-.25,6.36-3.75,4.61-6.93l-1,1c3.51,2.41,9-.81,8.52-5.06l-1.4.38c.69,1.63,2,4,4.18,3.51,1.61-.37,2.79-2.39,1.47-3.7-.68-.69-1.74.37-1.06,1.06.44.44-.28,1.06-.67,1.17a1.38,1.38,0,0,1-1.31-.52,7,7,0,0,1-1.32-2.28c-.28-.67-1.47-.34-1.39.38.33,3.15-3.64,5.57-6.27,3.76-.64-.44-1.36.41-1,1,.87,1.58-.3,3.29-1.69,4.11-1.84,1.09-4.07.46-5.89-.37-3.42-1.56-6.57-3.53-10.1-4.87a55.9,55.9,0,0,0-22.33-3.45,54.93,54.93,0,0,0-12.65,2.22.75.75,0,0,0-.51.93.74.74,0,0,0,.71.54c10.29.32,20.86-1.3,31,1.24,7.79,2,15.13,7.52,17.68,15.37a14.89,14.89,0,0,1,.7,6.25,12.89,12.89,0,0,1-.73,3,3,3,0,0,1-.84,1.49,4.46,4.46,0,0,1-.5.22h-.23c-.29-.06-.34,0-.15.35l-1.37-.58a14.13,14.13,0,0,1-5.43,9.1l1.1.45-1.8-6.35a.75.75,0,0,0-1.47.19,14.93,14.93,0,0,1-6.19,10.58l1.12.65-.37-5.3a.76.76,0,0,0-1.48-.2c-.72,2.5-1.59,5.74-4.09,7-1.7.89-4.93.45-5.18-1.86a.76.76,0,0,0-.76-.74.74.74,0,0,0-.71.54,10.42,10.42,0,0,1-6,6.85l1.1.85a7.85,7.85,0,0,0-1-5.94.77.77,0,0,0-1-.23.75.75,0,0,0-.35.61,6,6,0,0,1-11.68,1.92l-1.37.57c1.18,2.5-.73,5.74-3.38,6.25-3.13.6-5.94-2.35-6.15-5.3a.75.75,0,0,0-1.5,0A6.73,6.73,0,0,1,68,333.7c-.13-.71-1.34-.74-1.44,0a6.25,6.25,0,0,1-12.37.5l-1.45.4c.78,2.84-1.54,6.27-4.62,6.16s-5.2-3.58-4.25-6.4l-1.45-.4c-.87,3.2-3,6.71-6.49,7.44-2.92.61-6.87-1.71-6.39-5l-1.47-.2c-.06,2.36-2.69,3.71-4.82,3.4-2.51-.37-4.42-2.35-5.94-4.23a.75.75,0,0,0-1.26.73l1.2,3.45.92-.92a19.3,19.3,0,0,1-14.09-10,19.11,19.11,0,0,1,.7-18.29c2.7-4.48,7.23-7.5,11.34-10.58,3.67-2.75,7.59-5.74,9.54-10a16.47,16.47,0,0,0,1.17-7.94c-.18-3.08-.81-6.83,1.62-9.23a.76.76,0,0,0,.11-.91c-3.12-4.34,1.15-9.77,4.11-12.93a.75.75,0,0,0,0-1.06.84.84,0,0,0-.33-.19l-3.7-.67-1.85-.33c-.67-.12-1.08,0-1.28-.69a3.85,3.85,0,0,1,2.23-4.54c.57-.23.4-1,0-1.29a6.48,6.48,0,0,1,5.07-11.69v-1.45c-3.72,1.22-9.41-1.21-9.1-5.75.25-3.61,5.64-6.21,8.2-3.26l.73-1.25c-3.58-.94-8.29-2.19-10-5.91-1.2-2.66,1.42-8.2,4.8-6.28l.58-1.37c-5.44-1.16-6.44-10-1.44-12.34.65-.31.35-1.15-.18-1.37a11.81,11.81,0,0,1-6.82-7.55l-.72,1,5.61.1c.82,0,1-1.35.19-1.48a4.79,4.79,0,0,1,0-9.55c.89-.13.59-1.4-.2-1.47a6.58,6.58,0,0,1-.43-13.09.76.76,0,0,0-.2-1.48,5.72,5.72,0,1,1-1.36-11.35,4.82,4.82,0,0,1,.76,0,.76.76,0,0,0,.74-.76.74.74,0,0,0-.54-.71c-4.07-1.22-6.75-7.47-3.21-10.67,3.06-2.78,9.27-.09,8.77,4.18l1.28-.53c-4.33-4.76-5.4-13-1.36-18.32,2.91-3.8,6.91.24,7.84,3.49s.91,6.79,3,9.6c.57.75,1.79.1,1.3-.76a25.11,25.11,0,0,1-3.28-11.27c-.18-3.48.07-7.52,2.38-10.31A6.55,6.55,0,0,1,43.71,116c1.81-.35,2.77,1.19,3,2.8.31,1.83.4,3.68.78,5.5a36.45,36.45,0,0,0,1.59,5.41,38.15,38.15,0,0,0,6.25,10.76l1.06-1.07c-4.27-5-9.44-11-9.41-18.06,0-5.37,3.74-11.66,9.69-11.57l-.75-.75A71.28,71.28,0,0,0,58.77,135l1.45-.4a42.33,42.33,0,0,1-1.78-21.23c.53-2.84,1.65-6,4.26-7.62,2.24-1.35,5.38-1.37,7.09.8l-.11-.91a25,25,0,0,0-.75,26.76l1.29-.76a17.5,17.5,0,0,1,13.24-28.09.75.75,0,0,0,0-1.5Z" transform="translate(0.96 1.01)"/><path class="cls-1" d="M163,264.25a8,8,0,0,0-14.27,5.63.76.76,0,0,0,.76.74.74.74,0,0,0,.71-.54l1.74-5.62a31.35,31.35,0,0,0,1.55-5.45c.3-2.56-1.83-4.23-4.27-3.93-2.68.32-4.16,2.9-5.08,5.17a31.62,31.62,0,0,0-2.23,10.51c0,.83,1.35,1,1.48.2.61-4,.58-11.31-5-11.72-2.75-.21-5,2-5.94,4.45-1.28,3.49.33,7.26,1.71,10.46l1.29-.76c-1.48-2.06-2.08-4.67-3.78-6.58-1.29-1.46-3.4-2.58-5.38-2-4.31,1.25-2.63,6.83-1.2,9.62.39.74,1.7.21,1.38-.58-1.73-4.21-5.74-8.64-10.78-6.77a5,5,0,0,0-3.38,4.31,4.57,4.57,0,0,0,2.53,4.63.76.76,0,0,0,.91-1.18,16.23,16.23,0,0,0-3.6-3.22,15.65,15.65,0,0,0-2.32-1.24,5.26,5.26,0,0,0-1.89-.66c-1.08.08-2.19,2-2.64,2.82a9.57,9.57,0,0,0-1.16,4.56l1.47-.2a15,15,0,0,0-4.36-7,.75.75,0,0,0-1.06,0,14,14,0,0,0-3.46,8.75l1.4-.38a25.76,25.76,0,0,0-6.82-6.83,3,3,0,0,0-3.37-.14,2.08,2.08,0,0,0-.7,2.66l1-1a13.71,13.71,0,0,0-12.32.91,18.68,18.68,0,0,0-8.14,10.76,29.41,29.41,0,0,0-1,14c.71,3.94,2.8,8,6.75,9.46,3.56,1.33,8.29.48,10-3.23H82.24l3.36,5.4,1.18-.91c-.69-.77-.13-1.76.55-2.33a2.49,2.49,0,0,1,2.85-.42c2,1,2.73,3.45,3.28,5.41a.76.76,0,0,0,1.45,0c.85-2.69,2-5.95,4.71-7.33,2-1,5.27-.65,6.06,1.78a.75.75,0,0,0,1.45-.4h0l-.84-4.62-.52.92a5.58,5.58,0,0,1,5.52,1.31c.37.35,1.17.26,1.26-.33a11.87,11.87,0,0,0-.44-5.55l-.73.95,5.29.26c1,.05,1-1.45,0-1.5l-5.29-.26a.77.77,0,0,0-.75.75.67.67,0,0,0,0,.2,10.21,10.21,0,0,1,.44,4.75l1.25-.33a7.13,7.13,0,0,0-7-1.7.77.77,0,0,0-.53.92l.83,4.61,1.45-.4c-1-3-4.48-4-7.28-3.09-3.68,1.2-5.32,5.27-6.39,8.65h1.45c-.78-2.77-2.49-7.06-6.06-6.81-2.6.18-5.17,3.31-3.13,5.6.56.64,1.62-.18,1.17-.9l-3.36-5.4a.75.75,0,0,0-1-.26.65.65,0,0,0-.26.26c-1.37,2.91-4.9,3.59-7.77,2.72-3.63-1.09-5.5-4.74-6.2-8.23-1.51-7.53.44-17.6,6.88-22.41,3.49-2.6,8.27-3.74,12.37-1.93a.75.75,0,0,0,1-.35.74.74,0,0,0,0-.65c-.32-.74.83-.92,1.27-.83a3.9,3.9,0,0,1,1.28.7A24,24,0,0,1,93.2,275a31.55,31.55,0,0,1,3.65,4.09.73.73,0,0,0,1.36-.38,12.39,12.39,0,0,1,3-7.69h-1a13.18,13.18,0,0,1,4,6.29.76.76,0,0,0,1.48-.19,8.09,8.09,0,0,1,2.83-6.1l-.73.2a14.72,14.72,0,0,1,7,4.7l.9-1.18a3.13,3.13,0,0,1-1.78-3.33,3.7,3.7,0,0,1,3.33-3.14c3.88-.6,6.57,2.8,7.88,6l1.37-.58c-1-1.9-3-7.63,1.09-7.52,3.88.11,4.87,5.47,6.68,8a.74.74,0,0,0,1.25-.8c-1.13-2.62-2.5-5.71-1.77-8.62.56-2.22,2.66-4.52,5.15-4,3.84.89,3.51,6.82,3.06,9.74l1.47.2a30.25,30.25,0,0,1,1.47-8.17c.66-2,1.65-5.14,3.94-5.9a2.68,2.68,0,0,1,2.79.56c.95,1.07.11,2.83-.25,4l-2.61,8.43,1.48.2a6.51,6.51,0,0,1,11.7-4.57c.61.75,1.67-.32,1.07-1.06Z" transform="translate(0.96 1.01)"/><path class="cls-1" d="M83.31,109.84a10.92,10.92,0,0,0-8,4.78c-2.23,3.3-1.86,7.14-1.12,10.86.71,3.52,1.85,8.33-1,11.24-1.74,1.75-6.33,1.53-6.36-1.58l-1.4.38c1,2.09-3,4.21-4.21,2.21a.75.75,0,1,0-1.3.76h0c.64,1.32-.87,2.07-1.94,2.31a4.09,4.09,0,0,1-3.89-1c-2.32-2.3-3.46-5.69-6.59-7.12a.76.76,0,0,0-1,.27.87.87,0,0,0-.07.17c-.63,3.46,1.71,6,3.18,8.85.75,1.45,1.5,3.63.17,5-.76.78-2.39,1.39-3.12.27a.75.75,0,0,0-1.3.75l2,3.49.45-1.1a11.46,11.46,0,0,0-5.1,2.67c-.53.48,0,1.53.73,1.25a3.41,3.41,0,0,1,3.26.24l-.35-.84a9.61,9.61,0,0,1-3.66,4.43.76.76,0,0,0-.24,1.05h0a.69.69,0,0,0,.24.24c2.41,1.65,1.8,5.34.1,7.27-2.29,2.6-6.24,3.08-9.46,3.49-.64.08-1.14,1-.38,1.39a19.12,19.12,0,0,0,15.28.51l-.92-.92a11.73,11.73,0,0,1-13.8,9.2h0l-.34-.07c-.51-.13-1.13.37-.92.93.86,2.31,3.26,3,5.54,2.81,2.9-.25,6.46-2.88,9.27-1.3,2.52,1.42,1.54,5.2-.22,6.81-2.6,2.37-6.79,1.93-10,1.65l.65,1.13c2.54-3.86,9.35-1.88,10.5,2.22,1.54,5.48-5.82,9.49-10.3,7.39l-.57,1.37,14,4.59-.52-.92a14,14,0,0,1-13.53,8.36v1.5A38,38,0,0,1,45.34,218a40.31,40.31,0,0,1,4,1.26c1.12.42,2.87,1,3,2.41.27,2.47-3.33,3.32-5.07,3.78s-3.66,1.13-4.78,2.81c-.43.65.4,1.37,1,1a5.37,5.37,0,1,1,5.59,9.17l-.17.1a5.32,5.32,0,0,1-1.2.52.75.75,0,0,0,.4,1.44c2.51-.41,4.59,1.78,5.25,4,.75,2.53.32,5.26,0,7.84l-.86,8.15-.44,4.1a18.29,18.29,0,0,0,.44,4.24,81.1,81.1,0,0,1-2,32.15c-1.3,4.58-3.5,9.26-7.94,11.51l1,1a8.32,8.32,0,0,1,10.77-2.64c3.82,2.1,5.31,7,4.1,11h1.44c-.68-3.58-1.54-8.17,1.38-11,2-1.92,5.08-2.25,6.67.25,2.21,3.46,1.14,8.13,2.37,11.92a4.85,4.85,0,0,0,3.9,3.65c.51.07,1.14-.32.93-.92-1.71-4.76-4-10.92-1.39-15.77,1.83-3.36,6.39-6,10-3.62.8.54,1.55-.76.75-1.3-4-2.67-9-.24-11.49,3.33-3.63,5.28-1.23,12.34.72,17.76l.92-.93c-2.22-.32-2.89-2.24-3.25-4.23-.41-2.35-.41-4.77-.86-7.12a7.84,7.84,0,0,0-2.9-5.23c-2.5-1.69-5.7-.64-7.62,1.43-3.09,3.32-2.29,8.19-1.52,12.24.14.76,1.24.67,1.44,0,1.43-4.76-.48-10.59-5.07-12.9a9.85,9.85,0,0,0-12.53,3.33.72.72,0,0,0,.26,1,.7.7,0,0,0,.74,0c4.09-2.08,6.49-6.11,8-10.31a66.82,66.82,0,0,0,3.13-16.45,86.13,86.13,0,0,0-.37-18.3,20.15,20.15,0,0,1-.38-4.24c.13-1.69.36-3.38.54-5.06.33-3.08.71-6.16,1-9.24.26-2.82.26-5.93-1.47-8.33a6.1,6.1,0,0,0-6-2.69l.4,1.44a6.87,6.87,0,1,0-3.83-13.2h0a7.34,7.34,0,0,0-1.55.67l1,1c1.53-2.29,4.87-2,7.1-3.18,1.82-1,3.64-3,2.74-5.19-1-2.39-4.56-3.16-6.77-3.79a39.14,39.14,0,0,0-9.8-1.49.75.75,0,0,0,0,1.5A15.49,15.49,0,0,0,52,207.34a.76.76,0,0,0-.52-.93l-14-4.58c-.79-.27-1.35,1-.57,1.37a9.32,9.32,0,0,0,12.24-4.89h0l.07-.16c1.73-4.73-2.26-8.91-6.85-9.37a6.42,6.42,0,0,0-6.2,2.75.76.76,0,0,0,.29,1,.74.74,0,0,0,.35.1c3.47.3,7.48.58,10.46-1.59a6.8,6.8,0,0,0,2.58-7c-.93-3.22-4.38-3.64-7.2-2.89-2.27.6-7.68,3.14-9-.35l-.92.92c7,1.85,14.77-3.05,16-10.18.08-.49-.34-1.16-.93-.92a17.74,17.74,0,0,1-14.14-.33l-.38,1.4c4-.51,8.8-1.18,11.19-4.81,1.8-2.72,1.81-6.78-1.07-8.74v1.3a11.48,11.48,0,0,0,4.35-5.33.75.75,0,0,0-.34-.84,4.87,4.87,0,0,0-4.42-.4l.73,1.26a10,10,0,0,1,4.44-2.29.75.75,0,0,0,.52-.91v0a.51.51,0,0,0-.07-.17l-2-3.48-1.3.75c1.67,2.55,5.56,1.11,6.41-1.44,1.67-4.92-4.76-8.26-3.89-13l-1.11.45c3.84,1.76,4.63,7.52,9,8.35,2.69.52,7.14-1.15,5.5-4.57l-1.3.76c2.22,3.66,8.65.12,6.8-3.73-.32-.69-1.4-.33-1.39.38,0,2.84,2.87,4.38,5.47,4.19,3.41-.25,5.24-3.37,5.63-6.49.57-4.54-1.71-8.85-1.28-13.37a9.28,9.28,0,0,1,8.16-8.1c1-.1,1-1.6,0-1.5Z" transform="translate(0.96 1.01)"/><path class="cls-1" d="M195.72,352.68c3.83-.38,6.58,3.05,9.2,5.32a23.45,23.45,0,0,0,8.33,4.65,27.18,27.18,0,0,0,19-1.14A23.38,23.38,0,0,0,240.9,355c.91-1.11-.68-2.71-1.6-1.59a23.73,23.73,0,0,1-33.48,2.37h0a.86.86,0,0,0-.14-.13c-2.79-2.52-5.87-5.63-10-5.23-1.43.14-1.44,2.39,0,2.25Z" transform="translate(0.96 1.01)"/><path class="cls-1" d="M416.62,355.27c4,6.44,11.87,9.57,19.24,8.76,8.26-.9,15.35-6.13,20.36-12.51.89-1.13-.69-2.73-1.59-1.59-4.55,5.8-10.88,10.77-18.39,11.8-6.67.92-14.06-1.71-17.67-7.6a1.15,1.15,0,0,0-2,1.14Z" transform="translate(0.96 1.01)"/><ellipse class="cls-1" cx="325.53" cy="157.64" rx="70.5" ry="53"/><ellipse class="cls-1" cx="326.03" cy="166.64" rx="79" ry="63"/><ellipse class="cls-1" cx="328.53" cy="111.64" rx="10.5" ry="7"/><ellipse class="cls-1" cx="290.53" cy="187.64" rx="10.5" ry="7"/><ellipse class="cls-1" cx="268.53" cy="147.64" rx="10.5" ry="7"/><ellipse class="cls-1" cx="279.53" cy="126.64" rx="10.5" ry="7"/><ellipse class="cls-1" cx="303.53" cy="112.64" rx="10.5" ry="7"/><ellipse class="cls-1" cx="357.53" cy="118.64" rx="10.5" ry="7"/><ellipse class="cls-1" cx="372.53" cy="186.64" rx="10.5" ry="8"/><ellipse class="cls-1" cx="347.53" cy="197.64" rx="10.5" ry="7"/><ellipse class="cls-1" cx="318.53" cy="197.64" rx="10.5" ry="7"/><ellipse class="cls-1" cx="273.53" cy="171.64" rx="10.5" ry="7"/><path class="cls-1" d="M164.62,266.17c2.66,8.42,10,14.23,18.14,17.07,10.42,3.66,22,3.18,32.91,3.55l70.75,2.4c23.44.8,46.88,1.89,70.34,1.32S404,288.85,427.54,288c11.44-.43,22.9-.71,34.34-1.31,9.19-.48,18.78-1.53,27-6a33.78,33.78,0,0,0,5.52-3.83c1.47-1.25-.66-3.36-2.12-2.12-7.14,6-16.61,7.92-25.67,8.68-10.69.89-21.49,1-32.21,1.36-22.87.85-45.74,1.78-68.62,2.54s-45.77.08-68.68-.7l-68.41-2.32-17.25-.64c-5.43-.18-10.89-.26-16.3-.82-9.22-1-19.17-4-24.83-11.88a19.8,19.8,0,0,1-2.79-5.57c-.58-1.83-3.48-1.05-2.9.8Z" transform="translate(0.96 1.01)"/><path class="cls-1" d="M167.93,265.87l-1.5-6.35a1.5,1.5,0,1,0-3,.55.94.94,0,0,0,0,.16v.09l1.53,6.31a1.52,1.52,0,0,0,1.84,1,1.54,1.54,0,0,0,1.05-1.85Z" transform="translate(0.96 1.01)"/><path class="cls-1" d="M159,279.25c1.15,9,8,16,16.18,19.38,10.34,4.35,22.16,4,33.17,4.48q36.74,1.51,73.52,2.21,36.6.63,73.21.35,36.78-.29,73.54-1.5c11.85-.4,23.72-.73,35.56-1.43,9.44-.55,19.29-1.71,27.66-6.44a33.71,33.71,0,0,0,5.57-4c1.47-1.26-.66-3.37-2.12-2.12-7.2,6.23-16.81,8.28-26,9.15-11,1-22.2,1.15-33.27,1.54q-35.41,1.28-70.86,1.66t-71.21-.09q-35.61-.46-71.19-1.81-8.85-.35-17.7-.73c-5.48-.24-11-.37-16.44-1-9.49-1.17-19.63-4.73-24.54-13.57a17.12,17.12,0,0,1-2-6.1c-.24-1.89-3.24-1.91-3,0Z" transform="translate(0.96 1.01)"/><path class="cls-1" d="M158.93,301.23c.92,10.38,10.73,15.86,19.93,17.86,5.71,1.24,11.58,1.9,17.38,2.63q9,1.13,18.07,1.92c24.52,2.17,49.15,2.78,73.76,3.28q37.44.76,74.91.79,37.31,0,74.59-.68,9.36-.18,18.73-.4c5.18-.12,10.39-.11,15.56-.59,7.77-.71,16.53-2.45,22.1-8.4a18.65,18.65,0,0,0,3.25-4.85c.8-1.74-1.78-3.27-2.59-1.51-3.47,7.5-11.65,10.22-19.28,11.36a110.43,110.43,0,0,1-13.36.85q-9,.24-18.06.42-35.94.73-71.91.79t-71.94-.55c-23.88-.41-47.78-.85-71.62-2.42-11.76-.78-23.51-1.85-35.19-3.39-9.77-1.29-22.86-1.89-29-10.87a13.14,13.14,0,0,1-2.34-6.24c-.17-1.91-3.17-1.93-3,0Z" transform="translate(0.96 1.01)"/><path class="cls-1" d="M98.91,107.82c17.78-2,35.52-4.42,53.07-7.92a347.09,347.09,0,0,0,51.81-14.27,266.41,266.41,0,0,0,27.85-12c1.29-.65.15-2.59-1.14-1.94a280.34,280.34,0,0,1-49.76,19.06,429.11,429.11,0,0,1-52,11c-9.93,1.52-19.89,2.77-29.86,3.88-1.43.16-1.44,2.41,0,2.25Z" transform="translate(0.96 1.01)"/><path class="cls-1" d="M424.53,77.12a307.78,307.78,0,0,0,47.14,19.44A308.81,308.81,0,0,0,521.46,108q14.24,2.06,28.61,2.78c1.45.08,1.44-2.17,0-2.24a307.1,307.1,0,0,1-50.16-6.72A308.27,308.27,0,0,1,451.55,87q-13.21-5.27-25.93-11.79C424.38,74.52,423.24,76.44,424.53,77.12Z" transform="translate(0.96 1.01)"/></svg>