<svg id="illustration" xmlns="http://www.w3.org/2000/svg" viewBox="0 0 549.67 362.04"><defs><style>.cls-1{fill:#af272d;}.cls-2{fill:#c1272d;}.cls-3{fill:none;stroke:#690000;stroke-miterlimit:10;stroke-width:2px;}.cls-4{fill:#6b0000;}.cls-5{fill:#730000;}.cls-6{fill:#6e0000;}</style></defs><path class="cls-1" d="M329,301.7c-4.85-22.16,4.3-45.9,20.22-62.06s37.79-25.39,60-29.82,45.11-4.38,67.79-4.32l143.6.35c23,.06,46.21.13,68.92,4s45.16,11.78,63.24,26.06c9.36,7.39,17.54,16.59,22.27,27.53,6.64,15.37,6,32.77,5.28,49.5-.22,5-.51,10.31-3.09,14.64-6.13,10.33-21,10-32.83,8.13-35.09-5.49-71.44-13.49-98.9-36a304.5,304.5,0,0,0,13.24-62c.44-4.16.73-8.66-1.45-12.24-2.74-4.51-8.64-6.12-13.91-5.79-15.35,1-28,17-25.26,32.11a1143.83,1143.83,0,0,0-126-2c1.49-15.26-13.05-30-28.33-28.72-3.3.28-6.83,1.38-8.7,4.11-1.68,2.46-1.67,5.65-1.53,8.62a223.42,223.42,0,0,0,10.8,59.42c.72,2.22,1.49,4.59.9,6.85-.67,2.58-2.94,4.38-5.16,5.87-11.75,7.89-25.5,12.17-39.18,15.8a531.27,531.27,0,0,1-74.6,14.18c-3.08.36-6.32.67-9.16-.57-4.7-2.05-6.72-7.56-7.87-12.56a104.18,104.18,0,0,1-2.64-22.74c0-2.28,3.05-5.13,3.59-2.91" transform="translate(-231.41 -205.48)"/><path class="cls-2" d="M632.24,301c.94-11.53,19.14-13.14,19.18-23.85l.05-33.86c0-3.56-.12-7.48-2.51-10.13-4.67-5.18-13.43-1.29-18,4a42.77,42.77,0,0,0-9.62,19,182.43,182.43,0,0,0-136.21-2.93c2-6.81.85-14.82-4.15-19.85s-14.16-5.83-19.09-.72c-4.35,4.51-4.3,11.56-3.91,17.82.6,9.59-.79,22.79,4.42,31,4.57,7.22,16.4,9.72,17.35,19.41.33,3.45-1.21,6.77-2.71,9.89l-20.59,42.74c-9.89,20.53-20.54,42-39.25,55-4.23,2.94-8.84,5.43-12.38,9.17-6.6,7-8.38,17.09-9.77,26.59Q389.49,482,386,520c-.42,4.59-.79,9.4,1,13.63,2.65,6.15,9.18,9.55,15.37,12.11a175.43,175.43,0,0,0,79.1,12.92c13.66-1,27.19-3.55,40.87-3.86,14.94-.33,29.8,2.06,44.73,2.42,21.31.5,42.59-3.15,63.89-2.13,14.45.69,28.88,3.53,43.29,2.21,13.84-1.27,27-6.31,40-11.3,3.59-1.38,7.39-2.93,9.57-6.11s2.23-7.21,2.18-11a334.1,334.1,0,0,0-18.7-105.53,23.84,23.84,0,0,0-3.5-7.18,28.05,28.05,0,0,0-6-5.06c-33.14-23.42-49.25-63.6-63.66-101.53C633.06,306.78,632,303.91,632.24,301Z" transform="translate(-231.41 -205.48)"/><path class="cls-2" d="M326.66,299.75l-12.25,4.67-1.08,8.23c-.11.83-.15,1.83.51,2.34a2.47,2.47,0,0,0,2.16.06l12.47-3.57" transform="translate(-231.41 -205.48)"/><path d="M312.59,313.65a.75.75,0,0,0,0-1.5.75.75,0,0,0,0,1.5Z" transform="translate(-231.41 -205.48)"/><path d="M312,312.52l-.8,1.58a.78.78,0,0,0-.07.58.81.81,0,0,0,.34.45.79.79,0,0,0,.58.07.77.77,0,0,0,.45-.34l.79-1.59a.81.81,0,0,0,.08-.57.76.76,0,0,0-.35-.45.78.78,0,0,0-.58-.08.73.73,0,0,0-.44.35Z" transform="translate(-231.41 -205.48)"/><path d="M425.65,554.92c4-.51,7.08,3.15,10.13,5.77,9.71,8.35,26.26,6.84,34.29-3.14" transform="translate(-231.41 -205.48)"/><path d="M425.65,556.05c3.83-.38,6.58,3.05,9.2,5.32a23.45,23.45,0,0,0,8.33,4.65,27.18,27.18,0,0,0,19-1.14,23.35,23.35,0,0,0,8.65-6.53c.91-1.11-.68-2.71-1.6-1.59A23.73,23.73,0,0,1,435.61,559c-2.79-2.52-5.87-5.63-10-5.23-1.43.14-1.44,2.39,0,2.25Z" transform="translate(-231.41 -205.48)"/><path d="M647.51,558.07c3.83,6.42,12.13,9.31,19.5,8s13.74-6.11,18.33-12" transform="translate(-231.41 -205.48)"/><path d="M646.53,558.64c4,6.44,11.87,9.57,19.24,8.76,8.26-.9,15.35-6.13,20.36-12.51.89-1.13-.69-2.73-1.59-1.59-4.55,5.8-10.88,10.77-18.39,11.8-6.67.92-14.06-1.71-17.67-7.6-.76-1.23-2.71-.1-2,1.14Z" transform="translate(-231.41 -205.48)"/><ellipse class="cls-3" cx="323.09" cy="151.94" rx="70.5" ry="50.48"/><ellipse class="cls-3" cx="323.59" cy="160.52" rx="79" ry="60"/><ellipse cx="326.09" cy="108.52" rx="10.5" ry="7"/><ellipse cx="288.09" cy="184.52" rx="10.5" ry="7"/><ellipse cx="266.09" cy="144.52" rx="10.5" ry="7"/><ellipse cx="277.09" cy="123.52" rx="10.5" ry="7"/><ellipse cx="301.09" cy="109.52" rx="10.5" ry="7"/><ellipse cx="355.09" cy="115.52" rx="10.5" ry="7"/><ellipse cx="370.09" cy="183.52" rx="10.5" ry="8"/><ellipse cx="345.09" cy="194.52" rx="10.5" ry="7"/><ellipse cx="316.09" cy="194.52" rx="10.5" ry="7"/><ellipse cx="271.09" cy="168.52" rx="10.5" ry="7"/><path class="cls-4" d="M394.56,469.4c2.62,8.41,9.88,14.29,18,17.17,10.3,3.68,21.8,3.19,32.58,3.56l70,2.42c23.21.8,46.42,1.9,69.64,1.33,23.37-.58,46.72-1.68,70.08-2.56,11.33-.43,22.67-.71,34-1.31,9.12-.49,18.62-1.55,26.73-6.08a33.41,33.41,0,0,0,5.46-3.85c1.47-1.26-.66-3.37-2.12-2.12-7,6-16.4,8-25.4,8.73-10.59.9-21.27,1-31.89,1.37-22.64.86-45.28,1.8-67.93,2.56s-45.32.08-68-.7L458,487.58,440.93,487c-5.38-.19-10.78-.26-16.14-.83-9.17-1-19-4.06-24.57-12a19.89,19.89,0,0,1-2.76-5.6c-.58-1.84-3.47-1.05-2.9.8Z" transform="translate(-231.41 -205.48)"/><path d="M397.86,469.24l-1.5-6.35a1.5,1.5,0,1,0-2.89.8L395,470a1.52,1.52,0,0,0,1.84,1,1.54,1.54,0,0,0,1.05-1.85Z" transform="translate(-231.41 -205.48)"/><path class="cls-4" d="M389,485.4c1.24,8.91,9.35,15,17.34,17.79,10.45,3.61,22.12,3.18,33,3.61q35.88,1.38,71.78,1.94t71.81.31q35.91-.27,71.8-1.35c11.61-.35,23.23-.67,34.83-1.26,9.45-.49,19.3-1.44,27.85-5.81a34.11,34.11,0,0,0,5.66-3.68c1.51-1.2-.62-3.31-2.12-2.12-7.38,5.84-17.11,7.53-26.25,8.27-11,.9-22,1-33,1.38q-34.9,1.14-69.81,1.49t-69.5-.07q-34.91-.42-69.8-1.62c-11.23-.39-22.61-.39-33.8-1.55-9.24-1-19.87-3.88-24.93-12.44a15.18,15.18,0,0,1-2-5.69c-.27-1.9-3.16-1.09-2.9.8Z" transform="translate(-231.41 -205.48)"/><path class="cls-4" d="M388.86,505c.93,10.41,10.93,15.73,20.12,17.66,5.7,1.2,11.54,1.85,17.32,2.56q9,1.11,18,1.88c24.39,2.13,48.89,2.72,73.36,3.21s49.22.75,73.84.77,49.45-.2,74.18-.66l18.62-.39c5.14-.12,10.3-.12,15.43-.56,7.81-.67,16.66-2.32,22.31-8.26a18,18,0,0,0,3.29-4.82c.81-1.74-1.78-3.26-2.6-1.52-3.47,7.45-11.68,10.08-19.26,11.18a113.07,113.07,0,0,1-13.52.84q-9,.23-18,.41-35.58.72-71.18.77-35.76.06-71.51-.54c-23.64-.41-47.31-.83-70.9-2.36-11.7-.76-23.38-1.81-35-3.32-9.72-1.25-22.73-1.78-29-10.54a12.78,12.78,0,0,1-2.46-6.31c-.17-1.91-3.17-1.93-3,0Z" transform="translate(-231.41 -205.48)"/><path class="cls-5" d="M328.84,311.19c17.78-2,35.52-4.42,53.07-7.92A347.93,347.93,0,0,0,433.72,289a265.78,265.78,0,0,0,27.85-12c1.29-.65.15-2.59-1.14-1.94a280,280,0,0,1-49.76,19.06,430,430,0,0,1-52,11c-9.93,1.52-19.89,2.77-29.86,3.88-1.43.16-1.44,2.41,0,2.25Z" transform="translate(-231.41 -205.48)"/><path class="cls-6" d="M654.46,280.49a307.37,307.37,0,0,0,47.14,19.44,308.81,308.81,0,0,0,49.79,11.41q14.24,2.06,28.61,2.78c1.45.08,1.44-2.17,0-2.24a307.1,307.1,0,0,1-50.16-6.72,308.27,308.27,0,0,1-48.36-14.82q-13.22-5.26-25.89-11.79c-1.28-.66-2.42,1.28-1.13,1.94Z" transform="translate(-231.41 -205.48)"/><path d="M313.42,305.34a19.25,19.25,0,0,0-14.3,7.3c.5-3.61-4.62-5.9-7.78-4.1s-4.35,5.79-4.52,9.43.38,7.36-.55,10.88l-.85-16.55c-5.21-.53-9.5,4.85-9.8,10.09s2.19,10.17,4.61,14.82a45.85,45.85,0,0,1-5.38-16.9c-2.93-1.4-5.43,2.67-5.82,5.89a36.86,36.86,0,0,0,4.33,22.19l-7.07-16a8.54,8.54,0,0,0-2.43-3.64c-2.55-1.88-6.52-.16-7.86,2.71s-.67,6.3.58,9.21,3,5.59,4,8.61c.49-3.35-3-6.46-6.38-6.06s-5.95,3.68-6.13,7.07a10.8,10.8,0,0,0,4.35,8.76c-2.65-2.14-7.08.53-7.29,3.93s2.66,6.36,5.89,7.43,6.74.68,10.11.28c-2.58,1.21-5.63.5-8.46.86s-5.93,3-4.76,5.62a5.23,5.23,0,0,0,2.4,2.22,27.47,27.47,0,0,0,9.91,3.36c-4.28-1.12-9.37,1.89-9.92,6.28s4.31,8.68,8.46,7.14c-2.76-2.38-7.82-1.19-9,2.27s2.59,7.54,6.06,6.46l-6.11,2.86a18,18,0,0,0,9.84,7.77c-3.77-1.94-8.55,2.28-8.11,6.49s4.54,7.31,8.73,7.95c-3.56-2.9-9.48,1.77-8.45,6.25s6.62,6.72,11,5.46c-3,.12-6.32.39-8.37,2.59s-1,6.87,2,6.79c-3.07.42-4.5,4.6-3,7.32s4.86,3.91,8,3.86a6,6,0,0,0-2.86,11.29c-1.58-.53-3.32.72-3.93,2.28a10,10,0,0,0-.17,4.95l1.8,13.43c-8.05,5.17-16.38,10.63-21.27,18.84s-5.16,20.05,2,26.36a25.42,25.42,0,0,0,9.8,4.82c4.6,1.35,10.58,1.73,13.19-2.3l3.69,5.5a15.17,15.17,0,0,0,6.9-7.6c2.7,1.33,3,5.8,5.9,6.55,2.38.6,4.43-1.88,5.16-4.23s.92-5,2.68-6.77c.37,3.61,1.49,8,5,8.83,2.44.54,4.94-1.14,6.16-3.33s1.46-4.76,1.67-7.25c1.76,1.76-.1,5.16,1.44,7.12,1.37,1.75,4.19.94,6-.33a19.81,19.81,0,0,0,6.89-8.6c-.5,3.77.41,8.56,4.06,9.64,2.46.72,5.14-.74,6.63-2.83s2.06-4.68,2.59-7.19l-.46,8.42c2.92,1.23,6.43-.19,8.55-2.55s3.19-5.46,4.19-8.47l-2.61,9.77a13.59,13.59,0,0,0,11.73-11.3L343,537.69a15.92,15.92,0,0,0,11-12.27l-3.76,8.48c7-.3,12.54-8.29,10.36-15l-.64,8.81a6.91,6.91,0,0,0,6.49-6.65,7.4,7.4,0,0,0,5-8.44c-.93.26,1,.78,1.3-.13,2.66-7.06-1.44-15.3-7.71-19.5s-14.14-5.16-21.69-5.32-15.19.38-22.55-1.29a36.88,36.88,0,0,0,28-1.24,89.7,89.7,0,0,0,22.88,12.13,11.39,11.39,0,0,0,3.93-7.69,3.5,3.5,0,1,0,5.79-2.2c.57,2.49,4.12,3.38,6.22,1.92s2.73-4.4,2.2-6.9a19.67,19.67,0,0,0-3.47-6.78,5,5,0,0,1,4-.57,32.54,32.54,0,0,0,1.28-9.14,9.78,9.78,0,0,0-9,1.77c1.73-1.82.27-5.23-2.16-5.87s-5,.9-6.39,3-1.82,4.65-2.24,7.13c.95-2.82-3.4-5.23-5.75-3.41s-2.08,5.74-.08,7.94c-1.51-2.6-3.15-5.34-5.79-6.78s-6.59-.93-7.85,1.81c-1.48,3.22,1.46,6.63,4.13,9-1.6-3.36-3.55-7-7.08-8.22s-8.25,2.55-6.42,5.78a5,5,0,0,0-9.21,3.61,9,9,0,0,0-3.16-3.32c-1.39-.69-3.37-.43-4.07.95a9.8,9.8,0,0,0-8.85-3.87,5.88,5.88,0,0,0,1.61,3c-3.56-2.18-7.76-4.12-11.78-3s-6.59,6.88-3.46,9.65c-1.13-2.19-4.42,0-5.45,2.23-3.18,7-3.46,15.93,1.62,21.67,2.58,2.93,6.76,4.76,10.46,3.54s5.95-6.24,3.61-9.36c-1,4.68,5.5,7.65,10.09,6.31s8.29-4.91,12.91-6.12l-18.78,6.11a7.09,7.09,0,0,0-3.39,1.87c-1.76,2.12-.51,5.26.51,7.82s1.33,6.24-1.18,7.36c-.92-3.86-2.05-8-5.26-10.37-3.38-2.44-7.95-2.05-12.11-1.73a143.32,143.32,0,0,1-31-1c6,.59,13.47.36,16-5.05a14.73,14.73,0,0,0,.94-6.44l-.07-25.07c0-3.45-.06-7.06-1.64-10.12s-5.22-5.38-8.5-4.27l8.15,1.06A15.12,15.12,0,0,0,277,453a14.22,14.22,0,0,1,7.16,1.74,20.19,20.19,0,0,0-8.84-10.88c1.54,1.37,4.16.49,5.32-1.21s1.25-3.89,1.31-5.95a26.94,26.94,0,0,0-9.12-3.22c3.81-.46,7.6-3.43,7.66-7.27s-5.22-6.94-8-4.26c1.89-2.39,5-3.59,6.88-6s1.45-7-1.59-7.21c-1.3-.07-2.47.76-3.75,1s-3-.57-2.7-1.83c3.43,1,7.64-1,8.43-4.49s-3-7.3-6.3-6.07c2.7.88,5.65-1.78,5.66-4.61s-2.28-5.31-4.95-6.25a14.59,14.59,0,0,0-8.38.06c2.8-.28,5.71-.6,8.06-2.14s3.91-4.68,2.71-7.22c-1.86-4-7.7-3-11.8-1.49,2.91-1,6-2.15,7.88-4.6s1.84-6.61-.87-8.08a6.88,6.88,0,0,0,1-10l6.78.34L276,336.74a52,52,0,0,0,6.12,12.5,7.6,7.6,0,0,0,2.71,2.75c3.05,1.49,6.72-1.66,7.1-5s-1.41-6.58-3.13-9.52c-.61,2.75,3.26,5,5.62,3.48s2.38-5.38.37-7.36a18.9,18.9,0,0,0,9.2,9.59A65.75,65.75,0,0,0,305.64,317,18,18,0,0,0,317,313.6" transform="translate(-231.41 -205.48)"/></svg>