<svg id="illustration" xmlns="http://www.w3.org/2000/svg" viewBox="0 0 551.72 363.72"><defs><style>.cls-1{fill:#fff;}.cls-2{fill:none;stroke:#fff;stroke-miterlimit:10;stroke-width:2px;}</style></defs><path class="cls-1" d="M330.41,301.3c-4.5-21.21,3.84-43.47,18.35-59C364,226,385.2,216.57,406.68,211.88,432,206.36,458.06,207,483.77,207l79,.2c26.35.07,52.73-.17,79.09.31,24.84.46,50,2.34,73.66,10.37,20.86,7.06,42.06,19.35,54,38.44,6.39,10.19,8.92,21.9,9.5,33.8.3,6,.17,12-.06,17.95-.22,5.71.1,12.13-2.38,17.43-4.16,8.86-14.93,10.09-23.6,9.64-10.47-.54-21-2.87-31.3-5-21.49-4.37-43-10.67-61.81-22.12a117.54,117.54,0,0,1-13.38-9.42l.38,1.46a307.32,307.32,0,0,0,8.86-33.62q1.69-8.31,2.92-16.71A144.34,144.34,0,0,0,660.52,234c.14-4.38-.76-8.9-4.17-11.94a17.32,17.32,0,0,0-11.06-3.9c-7.88-.22-15.49,3.64-20.76,9.33a29.51,29.51,0,0,0-7.87,24.72l1.45-1.9q-49-3.47-98.09-2.76-13.95.21-27.9.76l1.5,1.5c1.32-15.94-13.4-31.37-29.51-30.24-3.85.27-8.06,1.49-10.31,4.88-2.61,3.91-1.79,9.27-1.51,13.69a227.27,227.27,0,0,0,4.55,32.95q1.73,8,4,15.94c.72,2.46,1.53,4.9,2.29,7.36.9,2.91,1.28,5.59-1,8-3.32,3.55-8.6,5.94-12.91,8a118.4,118.4,0,0,1-14.89,5.88c-21,6.88-43,11.38-64.85,14.92q-9.84,1.6-19.72,2.83c-5.43.67-11.85,2.11-15.63-3-3.19-4.3-4-10.44-4.81-15.58a100.9,100.9,0,0,1-1.07-10.12c-.09-1.46-.19-2.94-.16-4.4a4,4,0,0,1,.25-1.79,2.87,2.87,0,0,1,.54-.84c.58-.3.53-.56-.15-.77.68,1.79,3.58,1,2.89-.8-1.36-3.55-4.94-1.24-6.05,1.24-.88,2-.47,4.4-.37,6.48.15,3.07.44,6.14.85,9.18,1.07,7.89,2.39,20.42,11.36,23.44,5.17,1.74,11.5,0,16.73-.64q8.52-1.12,17-2.52,17.65-2.9,35.1-7A303,303,0,0,0,439,317.87a112.12,112.12,0,0,0,14.3-6.14c4.08-2.13,9.21-4.58,12-8.4,3.16-4.33.86-9.24-.54-13.79q-2.56-8.27-4.47-16.72a220.58,220.58,0,0,1-5.05-35.55c-.18-2.91-.62-6.14.12-9,.79-3,3.26-4.63,6.18-5.32,5-1.18,10.4,0,14.86,2.31,8.92,4.69,15.07,14.35,14.22,24.55a1.51,1.51,0,0,0,1.5,1.5q49-1.91,98.12.36,13.93.66,27.87,1.64a1.51,1.51,0,0,0,1.44-1.89c-2.35-14.38,9.7-29.8,24.45-30.25,3.74-.12,7.93.71,10.68,3.44,3.27,3.24,3,8.14,2.62,12.38a281.25,281.25,0,0,1-4.66,30,308.63,308.63,0,0,1-8.6,32.34,1.46,1.46,0,0,0,.39,1.46c17.71,14.42,39.05,23.11,61,28.77,11.23,2.9,22.65,5,34.1,6.91,9.24,1.5,19.29,3.2,28.4.09a19.55,19.55,0,0,0,9.94-7.19c3.17-4.56,3.64-10.27,3.9-15.64.58-12.25,1.07-24.7-1.18-36.82a64.77,64.77,0,0,0-14.87-30.74,99.17,99.17,0,0,0-27-21.36c-21.49-11.94-46-17-70.26-19-27.27-2.25-54.82-1.41-82.16-1.48l-83.09-.21c-27.19-.07-54.76-1.27-81.79,2.27-22.92,3-45.88,10-64.36,24.36-17.2,13.35-29.56,33.42-30.79,55.48a60.91,60.91,0,0,0,1.26,15.93c.4,1.89,3.3,1.09,2.9-.8Z" transform="translate(-230.55 -203.81)"/><path class="cls-1" d="M459.62,275.69c.22,10.56,12.72,13.57,17.35,21.56a10.1,10.1,0,0,1,.53,8.56c-1.4,4.18-3.71,8.14-5.62,12.11L460.26,342c-6.6,13.71-12.87,27.74-21.16,40.54A100.32,100.32,0,0,1,426,399.12a70.55,70.55,0,0,1-8.23,7.11c-3.07,2.23-6.36,4.13-9.41,6.38a32.18,32.18,0,0,0-11.66,16.46c-2.4,7.33-3.18,15.17-4.24,22.77q-3.69,26.28-6.41,52.67-.69,6.72-1.32,13.44c-.36,3.9-.82,7.85-.25,11.75,1,7,6.06,11.79,12.12,15,6.9,3.62,14.54,6.15,22,8.38a176.29,176.29,0,0,0,23.83,5.4,186.21,186.21,0,0,0,49.69.69c8.78-1,17.53-2.25,26.35-2.71a201.43,201.43,0,0,1,26.34.8c8.77.71,17.54,1.51,26.36,1.52s17.53-.6,26.29-1.2,17.5-1.19,26.28-1.16c8.93,0,17.77,1,26.65,1.82,8.6.81,17.27,1.37,25.88.37a116.67,116.67,0,0,0,24.59-6c4-1.36,7.86-2.84,11.76-4.34,3.25-1.25,6.69-2.38,9.51-4.48,6.38-4.74,5.54-13,5.33-20a336.13,336.13,0,0,0-18.22-99.56c-1.22-3.52-2.43-7.15-5-9.91s-5.73-4.45-8.59-6.63a113.43,113.43,0,0,1-15-13.87c-9.35-10.28-16.89-22.06-23.35-34.33a383.37,383.37,0,0,1-17.31-39.07q-1.89-4.85-3.73-9.7c-1.32-3.47-3.11-7.29-2.13-11.08,1.27-4.84,6.07-8,9.75-11s7.66-6.47,9-11.38h-2.89l2.45,6.8c.65,1.8,3.55,1,2.89-.8l-2.45-6.79a1.51,1.51,0,0,0-2.89,0c-2.71,9.92-16.11,12.23-18.75,22.33-.94,3.62.07,7.19,1.34,10.59,1.19,3.19,2.42,6.36,3.65,9.53,2.5,6.46,5.06,12.89,7.78,19.26,10.68,25.08,24.11,50.09,45.16,68q3.86,3.27,8,6.2c3.28,2.32,6.06,4.5,7.7,8.29s2.78,7.73,4,11.61,2.48,8,3.6,12a332.22,332.22,0,0,1,9.84,49.5q1.49,12.48,2.05,25.05c.18,4,.37,8.12.29,12.18-.07,3.68-.7,7.36-3.65,9.86s-6.62,3.48-10,4.77c-3.9,1.5-7.81,3-11.77,4.31a108.59,108.59,0,0,1-24.48,5.76c-17.42,1.67-34.83-2.43-52.26-2.36s-34.57,2.43-51.91,2.36-34.63-3.22-52-2.32c-17,.88-33.64,4.3-50.68,4.13a174,174,0,0,1-48.39-7.4c-7.35-2.21-14.95-4.67-21.72-8.32a22.65,22.65,0,0,1-7.56-6c-2.41-3.21-3-7.11-2.88-11,.22-8.54,1.49-17.16,2.39-25.66q1.4-13.09,3-26.15t3.56-26.36c1-7,1.93-14.35,5-20.84a26.48,26.48,0,0,1,6.13-8.5,77.11,77.11,0,0,1,9.23-6.57,78.17,78.17,0,0,0,15.6-13.79c9.29-10.66,16.06-23.2,22.27-35.82,7.51-15.26,14.78-30.63,22.16-45.95,2.86-6,6.7-12.46,3.27-19-2.22-4.24-6.42-7.07-10-10-3.3-2.69-7.05-5.87-7.14-10.47,0-1.93-3-1.94-3,0Z" transform="translate(-230.55 -203.81)"/><path class="cls-1" d="M326.26,298.3,314,303a1.63,1.63,0,0,0-1.1,1.45l-1,7.34a6.5,6.5,0,0,0,0,3.07,2.9,2.9,0,0,0,2.67,1.94,10.72,10.72,0,0,0,3.2-.69l3.77-1.08,7.25-2.08a1.5,1.5,0,0,0-.8-2.89c-4.15,1.19-8.3,2.43-12.47,3.57-.08,0-.93.13-1,.17s.17.18.19.17a1.38,1.38,0,0,1-.07-.32,13.28,13.28,0,0,1,.29-2.74l.85-6.46-1.1,1.45,12.25-4.67a1.55,1.55,0,0,0,1.05-1.85,1.52,1.52,0,0,0-1.85-1.05Z" transform="translate(-230.55 -203.81)"/><path class="cls-1" d="M312.59,313.65a.75.75,0,0,0,0-1.5.75.75,0,0,0,0,1.5Z" transform="translate(-230.55 -203.81)"/><path class="cls-1" d="M312,312.52l-.8,1.58a.78.78,0,0,0-.07.58.81.81,0,0,0,.34.45.79.79,0,0,0,.58.07.77.77,0,0,0,.45-.34l.79-1.59a.81.81,0,0,0,.08-.57.76.76,0,0,0-.35-.45.78.78,0,0,0-.58-.08.73.73,0,0,0-.44.35Z" transform="translate(-230.55 -203.81)"/><path class="cls-1" d="M313.43,305.4a19,19,0,0,0-14.53,30.35c.56.76,1.81.09,1.29-.76a23.52,23.52,0,0,1,.75-25.24.76.76,0,0,0-.12-.91c-1.78-2.27-5-2.64-7.57-1.68-3,1.13-4.82,4-5.74,6.93a34.74,34.74,0,0,0-1.15,11.75,45.63,45.63,0,0,0,2.38,12.51c.31.91,1.73.54,1.45-.4a70,70,0,0,1-2.8-25.65.76.76,0,0,0-.75-.75c-6.44-.09-10.68,6.21-11.15,12.09-.61,7.79,5.11,14.56,9.81,20.11.63.74,1.67-.33,1.06-1.07a35.88,35.88,0,0,1-6.48-11.87,34.73,34.73,0,0,1-1.46-6.52c-.22-1.83-.18-3.9-1.51-5.35-2.12-2.31-5.3-.87-7.18,1-2.76,2.71-3.43,6.48-3.51,10.21A26.75,26.75,0,0,0,269.76,344l1.3-.76c-2.11-2.81-1.93-6.39-3-9.61-.84-2.58-3-5.35-5.82-5.76-3.1-.44-5,2.39-6.09,4.89a16.77,16.77,0,0,0,3,17.53c.49.53,1.21.06,1.28-.53.65-5.52-7.15-8.77-11.13-5.42-4.64,3.9-1.56,11.79,3.67,13.35l.2-1.47a7.2,7.2,0,1,0,.57,14.36l-.2-1.47a8.08,8.08,0,0,0,.83,16l-.19-1.48a6.28,6.28,0,0,0,0,12.45l.2-1.47-5.61-.1a.75.75,0,0,0-.72,1,13.42,13.42,0,0,0,7.86,8.6l-.18-1.37c-6.15,2.91-4.86,13.66,1.78,15.08.8.17,1.35-.94.58-1.37-4.07-2.31-7.82,2.8-7.37,6.57.63,5.25,7.12,7.23,11.39,8.35a.75.75,0,0,0,.73-1.25c-3.3-3.81-10-.77-10.7,3.81-.83,5.72,6.14,9.27,10.94,7.71.66-.21.77-1.29,0-1.45a8,8,0,0,0-6.23,14.43v-1.29a5.31,5.31,0,0,0-3,5.69,4.14,4.14,0,0,0,.53,1.55c.41.6,1,.56,1.68.68l5.78,1.05-.33-1.26c-3.42,3.66-7.91,9.78-4.34,14.75l.12-.91c-4.28,4.24-.94,11-2.54,16.17-1.54,5-6.15,8.3-10.13,11.27-4.33,3.22-9,6.47-11.62,11.31a20.27,20.27,0,0,0,14.63,29.9c.52.09,1.13-.32.93-.92l-1.2-3.45-1.25.73c2,2.42,4.71,4.93,8.05,4.7,2.67-.18,5.2-2.13,5.27-4.93,0-.82-1.35-1-1.47-.2-.58,4,3.24,7.23,7.08,7,4.57-.23,7.59-4.61,8.69-8.64a.75.75,0,0,0-1.45-.4c-1.26,3.74,1.68,8.21,5.7,8.3s7.1-4.28,6.07-8.06a.75.75,0,0,0-1.45.4,7.73,7.73,0,0,0,15.26-.51h-1.44a8.22,8.22,0,0,0,16.32-1h-1.5c.28,3.91,3.93,7.62,8.05,6.74a6.2,6.2,0,0,0,4.28-8.44c-.36-.76-1.69-.22-1.37.57a7.5,7.5,0,0,0,14.54-2.32l-1.4.38a6.33,6.33,0,0,1,.86,4.78.76.76,0,0,0,1.1.85,11.82,11.82,0,0,0,6.73-7.75l-1.47-.2c.32,3,3.54,4.28,6.22,3.62,3.7-.9,5.08-5.2,6-8.41l-1.47-.2.37,5.3c0,.52.63,1,1.13.65a16.59,16.59,0,0,0,6.94-11.9l-1.47.2,1.79,6.36a.76.76,0,0,0,1.11.45,15.67,15.67,0,0,0,6.12-10c.12-.77-1-1.41-1.37-.58-.83,1.65,1,2.17,2.3,1.73,1.82-.63,2.36-2.92,2.71-4.6a17.61,17.61,0,0,0-2.6-12.61,26.78,26.78,0,0,0-10.29-9.58c-5-2.64-10.86-3.48-16.47-3.75-7.09-.34-14.17.31-21.26.09l.2,1.47a54.13,54.13,0,0,1,37.77,2.88c3.48,1.63,7.18,4.7,11.24,4.37,3.2-.25,6.36-3.75,4.61-6.93l-1,1c3.51,2.41,9-.81,8.52-5.06l-1.4.38c.69,1.63,2,4,4.18,3.51,1.61-.37,2.79-2.39,1.47-3.7-.68-.69-1.74.37-1.06,1.06.44.44-.28,1.06-.67,1.17a1.4,1.4,0,0,1-1.31-.52,6.85,6.85,0,0,1-1.32-2.28c-.28-.67-1.47-.34-1.39.38.33,3.15-3.64,5.57-6.27,3.76-.64-.44-1.36.41-1,1,.87,1.58-.3,3.29-1.69,4.11-1.84,1.09-4.07.46-5.89-.37-3.42-1.56-6.57-3.53-10.1-4.87a55.78,55.78,0,0,0-22.38-3.51A55,55,0,0,0,322.18,488a.75.75,0,0,0,.2,1.47c10.29.32,20.86-1.3,31,1.24,7.79,2,15.13,7.52,17.68,15.37a14.89,14.89,0,0,1,.7,6.25,13.1,13.1,0,0,1-.73,3,3,3,0,0,1-.84,1.49,5.44,5.44,0,0,1-.5.22l-.23.05c-.29-.06-.34,0-.15.35l-1.37-.58a14.13,14.13,0,0,1-5.43,9.1l1.1.45-1.8-6.35a.75.75,0,0,0-1.47.19,14.93,14.93,0,0,1-6.19,10.6l1.12.65-.37-5.3a.76.76,0,0,0-1.48-.2c-.72,2.5-1.59,5.74-4.09,7-1.7.89-4.93.45-5.18-1.86a.75.75,0,0,0-1.47-.2,10.43,10.43,0,0,1-6,6.85l1.1.85a7.89,7.89,0,0,0-1-5.94.76.76,0,0,0-1.4.38A6,6,0,0,1,323.7,535l-1.37.57c1.18,2.5-.73,5.74-3.38,6.25-3.13.6-5.94-2.35-6.15-5.3a.75.75,0,0,0-1.5,0,6.73,6.73,0,0,1-13.38.59c-.13-.71-1.34-.74-1.44,0a6.25,6.25,0,0,1-12.37.5l-1.45.4c.78,2.84-1.54,6.27-4.62,6.16s-5.2-3.58-4.25-6.4l-1.45-.4c-.87,3.2-3,6.71-6.49,7.44-2.92.61-6.87-1.71-6.39-5l-1.47-.2c-.06,2.36-2.69,3.71-4.82,3.4-2.51-.37-4.42-2.35-5.94-4.23-.47-.58-1.49.05-1.26.73l1.2,3.45.92-.92A19.31,19.31,0,0,1,234,532a19.11,19.11,0,0,1,.7-18.29c2.7-4.48,7.23-7.5,11.34-10.58,3.67-2.75,7.59-5.74,9.54-10a16.55,16.55,0,0,0,1.17-7.94c-.18-3.08-.81-6.83,1.62-9.23a.76.76,0,0,0,.11-.91c-3.12-4.34,1.15-9.77,4.11-12.93a.75.75,0,0,0-.33-1.25l-3.7-.67-1.85-.33c-.67-.12-1.08,0-1.28-.69a3.85,3.85,0,0,1,2.23-4.54c.57-.23.4-1,0-1.29a6.48,6.48,0,0,1,5.07-11.69v-1.45c-3.72,1.22-9.41-1.21-9.1-5.75.25-3.61,5.64-6.21,8.2-3.26l.73-1.25c-3.58-.94-8.29-2.19-10-5.91-1.2-2.66,1.42-8.2,4.8-6.28l.58-1.37c-5.42-1.16-6.41-10-1.42-12.34.65-.31.35-1.15-.18-1.37a11.81,11.81,0,0,1-6.82-7.55l-.72.95,5.61.1c.82,0,1.05-1.35.19-1.48a4.79,4.79,0,0,1,0-9.55c.89-.13.59-1.4-.2-1.47a6.58,6.58,0,0,1-.43-13.09.76.76,0,0,0-.2-1.48,5.7,5.7,0,1,1-.57-11.36.75.75,0,0,0,.2-1.47c-4.07-1.22-6.75-7.47-3.21-10.67,3.06-2.78,9.27-.09,8.77,4.18l1.28-.53c-4.33-4.76-5.4-13-1.36-18.32,2.91-3.8,6.91.24,7.84,3.49s.91,6.79,3,9.6c.57.75,1.79.1,1.3-.76A25.09,25.09,0,0,1,267.74,332c-.18-3.48.07-7.52,2.38-10.31a6.54,6.54,0,0,1,3.52-2.43c1.81-.35,2.77,1.19,3,2.8.31,1.83.4,3.68.78,5.5a36.45,36.45,0,0,0,1.59,5.41,38.29,38.29,0,0,0,6.25,10.76l1.06-1.07c-4.27-5-9.44-11-9.41-18.06,0-5.37,3.74-11.66,9.69-11.57l-.75-.75a71.28,71.28,0,0,0,2.85,26.05l1.45-.4a42.34,42.34,0,0,1-1.78-21.23c.53-2.84,1.65-6.05,4.26-7.62,2.24-1.35,5.38-1.37,7.09.8l-.11-.91a25,25,0,0,0-.75,26.76l1.29-.76a17.5,17.5,0,0,1,13.24-28.09c1,0,1-1.55,0-1.5Z" transform="translate(-230.55 -203.81)"/><path class="cls-1" d="M392.93,467.62a8,8,0,0,0-14.27,5.63.75.75,0,0,0,1.47.2l1.74-5.62a31,31,0,0,0,1.55-5.45c.3-2.56-1.83-4.23-4.27-3.93-2.68.32-4.16,2.9-5.08,5.17a31.57,31.57,0,0,0-2.23,10.51c0,.83,1.35,1,1.48.2.61-4,.58-11.31-4.95-11.72-2.75-.21-5,2-5.94,4.45-1.28,3.49.33,7.26,1.71,10.46l1.29-.76c-1.48-2.06-2.08-4.67-3.78-6.58-1.29-1.46-3.4-2.58-5.38-2-4.31,1.25-2.63,6.83-1.2,9.62.39.74,1.7.21,1.38-.58-1.73-4.21-5.74-8.64-10.78-6.77a5,5,0,0,0-3.38,4.31,4.57,4.57,0,0,0,2.53,4.63.76.76,0,0,0,.91-1.18,16.23,16.23,0,0,0-3.6-3.22,15.65,15.65,0,0,0-2.32-1.24,5.27,5.27,0,0,0-1.89-.66c-1.08.08-2.19,2-2.64,2.82a9.65,9.65,0,0,0-1.16,4.56l1.47-.2a14.92,14.92,0,0,0-4.36-7,.76.76,0,0,0-1.06,0,14,14,0,0,0-3.46,8.75l1.4-.38a25.8,25.8,0,0,0-6.87-6.83,3,3,0,0,0-3.37-.14,2.09,2.09,0,0,0-.7,2.66l1-1a13.69,13.69,0,0,0-12.32.91A18.65,18.65,0,0,0,297.71,488a29.49,29.49,0,0,0-1,14c.71,3.94,2.8,8,6.75,9.46,3.56,1.33,8.29.48,10-3.23h-1.29l3.36,5.4,1.18-.91c-.69-.77-.13-1.76.55-2.33a2.5,2.5,0,0,1,2.85-.42c2,1,2.73,3.45,3.28,5.41a.76.76,0,0,0,1.45,0c.85-2.69,2-5.95,4.71-7.33,2-1,5.27-.65,6.06,1.78a.75.75,0,0,0,1.45-.4l-.84-4.62-.52.92a5.58,5.58,0,0,1,5.52,1.31c.37.35,1.17.26,1.26-.33a11.87,11.87,0,0,0-.44-5.55l-.73.95,5.29.26c1,.05,1-1.45,0-1.5l-5.29-.26a.75.75,0,0,0-.72.95,10.21,10.21,0,0,1,.44,4.75l1.25-.33a7.14,7.14,0,0,0-7-1.7.77.77,0,0,0-.53.92l.84,4.63,1.45-.4c-1-3-4.48-4-7.28-3.09-3.68,1.2-5.32,5.27-6.39,8.65h1.45c-.78-2.77-2.49-7.06-6.06-6.81-2.6.18-5.17,3.31-3.13,5.6.56.64,1.62-.18,1.17-.9l-3.36-5.4a.75.75,0,0,0-1.29,0c-1.37,2.91-4.9,3.59-7.77,2.72-3.63-1.09-5.5-4.74-6.2-8.23-1.51-7.53.44-17.6,6.88-22.41,3.49-2.6,8.27-3.74,12.37-1.93a.75.75,0,0,0,1-1c-.32-.74.83-.92,1.27-.83a3.82,3.82,0,0,1,1.28.7,23.81,23.81,0,0,1,2.16,1.86,31.55,31.55,0,0,1,3.65,4.09.75.75,0,0,0,1.39-.38,12.39,12.39,0,0,1,3-7.69h-1.06a13.3,13.3,0,0,1,4,6.29.76.76,0,0,0,1.48-.19,8.09,8.09,0,0,1,2.83-6.1l-.73.2a14.77,14.77,0,0,1,6.95,4.7l.9-1.18a3.13,3.13,0,0,1-1.78-3.33,3.69,3.69,0,0,1,3.33-3.14c3.88-.6,6.57,2.8,7.88,6l1.37-.58c-1-1.9-3-7.63,1.09-7.52,3.88.11,4.87,5.47,6.68,8a.75.75,0,0,0,1.29-.76c-1.13-2.62-2.5-5.71-1.77-8.62.56-2.22,2.66-4.52,5.15-3.95,3.84.89,3.51,6.82,3.06,9.74l1.47.2a30.32,30.32,0,0,1,1.47-8.17c.66-2,1.65-5.14,3.94-5.9a2.68,2.68,0,0,1,2.79.56c.95,1.07.11,2.83-.25,4l-2.61,8.43,1.48.2a6.51,6.51,0,0,1,11.7-4.57c.61.75,1.67-.32,1.07-1.06Z" transform="translate(-230.55 -203.81)"/><path class="cls-1" d="M313.24,313.21a10.93,10.93,0,0,0-7.95,4.78c-2.23,3.3-1.86,7.14-1.12,10.86.71,3.52,1.85,8.33-1,11.24-1.74,1.75-6.33,1.53-6.36-1.58l-1.4.38c1,2.09-3,4.21-4.21,2.21a.75.75,0,0,0-1.3.76c.64,1.32-.87,2.07-1.94,2.31a4.11,4.11,0,0,1-3.89-1c-2.32-2.3-3.46-5.69-6.59-7.12a.75.75,0,0,0-1.1.44c-.63,3.46,1.71,6,3.18,8.85.75,1.45,1.5,3.63.17,5-.76.78-2.39,1.39-3.12.27a.75.75,0,0,0-1.3.75l2,3.49.45-1.1a11.46,11.46,0,0,0-5.1,2.67c-.53.48,0,1.53.73,1.25a3.43,3.43,0,0,1,3.26.24l-.35-.84a9.6,9.6,0,0,1-3.66,4.43.76.76,0,0,0,0,1.29c2.41,1.65,1.8,5.34.1,7.27-2.29,2.6-6.24,3.08-9.46,3.49-.64.08-1.14,1-.38,1.39a19.12,19.12,0,0,0,15.28.51l-.92-.92a11.74,11.74,0,0,1-14.16,9.13c-.51-.13-1.13.37-.92.93.86,2.31,3.26,3,5.54,2.81,2.9-.25,6.46-2.88,9.27-1.3,2.52,1.42,1.54,5.2-.22,6.81-2.6,2.37-6.79,1.93-10,1.65l.65,1.13c2.54-3.86,9.35-1.88,10.5,2.22,1.54,5.48-5.82,9.49-10.3,7.39l-.57,1.37,14,4.59-.52-.92A14,14,0,0,1,267,418.7v1.5a38,38,0,0,1,8.29,1.13,37.49,37.49,0,0,1,4,1.26c1.12.42,2.87,1,3,2.41.27,2.47-3.33,3.32-5.07,3.78s-3.66,1.13-4.78,2.81c-.43.65.4,1.37,1,1a5.37,5.37,0,1,1,4.22,9.79.75.75,0,0,0,.4,1.44c2.51-.41,4.59,1.78,5.25,4,.75,2.53.32,5.26,0,7.84l-.88,8.18-.44,4.1a18.51,18.51,0,0,0,.44,4.24,81.27,81.27,0,0,1-2,32.15c-1.3,4.58-3.5,9.26-7.94,11.51l1,1a8.32,8.32,0,0,1,10.77-2.64c3.82,2.1,5.31,7,4.1,11h1.44c-.68-3.58-1.54-8.17,1.38-11,2-1.92,5.08-2.25,6.67.25,2.21,3.46,1.14,8.13,2.37,11.92a4.86,4.86,0,0,0,3.9,3.65c.51.07,1.14-.32.93-.92-1.71-4.76-4-10.92-1.39-15.77,1.83-3.36,6.39-6,10-3.62.8.54,1.55-.76.75-1.3-3.95-2.67-9-.24-11.49,3.33-3.63,5.28-1.23,12.34.72,17.76l.92-.93c-2.22-.32-2.89-2.24-3.25-4.23-.41-2.35-.41-4.77-.86-7.12a7.83,7.83,0,0,0-2.91-5.26c-2.5-1.69-5.7-.64-7.62,1.43-3.09,3.32-2.29,8.19-1.52,12.24.14.76,1.24.67,1.44,0,1.43-4.76-.48-10.59-5.07-12.9a9.85,9.85,0,0,0-12.53,3.33c-.43.67.39,1.35,1,1,4.09-2.08,6.49-6.11,8-10.31a66.73,66.73,0,0,0,3.13-16.45A86.13,86.13,0,0,0,284,472a20.21,20.21,0,0,1-.38-4.24c.13-1.69.36-3.38.54-5.06.33-3.08.71-6.16,1-9.24.26-2.82.26-5.93-1.47-8.33a6.09,6.09,0,0,0-6-2.69l.4,1.44a6.87,6.87,0,1,0-5.38-12.53l1,1c1.53-2.29,4.87-2,7.1-3.18,1.82-1,3.64-3,2.74-5.19-1-2.39-4.56-3.16-6.77-3.79a39.14,39.14,0,0,0-9.8-1.49.75.75,0,0,0,0,1.5,15.49,15.49,0,0,0,14.9-9.49.76.76,0,0,0-.52-.93l-14-4.58c-.79-.27-1.35,1-.57,1.37a9.32,9.32,0,0,0,12.31-5.05c1.73-4.73-2.26-8.91-6.85-9.37a6.42,6.42,0,0,0-6.2,2.75.76.76,0,0,0,.64,1.13c3.47.3,7.48.58,10.46-1.59a6.81,6.81,0,0,0,2.58-7c-.93-3.22-4.38-3.64-7.2-2.89-2.27.6-7.68,3.14-9-.35l-.92.92c7,1.85,14.77-3.05,16-10.18.08-.49-.34-1.16-.93-.92a17.74,17.74,0,0,1-14.12-.36l-.38,1.4c4-.51,8.8-1.18,11.19-4.81,1.8-2.72,1.81-6.78-1.07-8.74v1.29a11.43,11.43,0,0,0,4.35-5.33.74.74,0,0,0-.34-.84,4.87,4.87,0,0,0-4.42-.4l.73,1.26a10,10,0,0,1,4.44-2.29.75.75,0,0,0,.44-1.1l-2-3.48-1.3.75c1.67,2.55,5.56,1.11,6.41-1.44,1.67-4.92-4.76-8.26-3.89-13l-1.11.45c3.84,1.76,4.63,7.52,9,8.35,2.69.52,7.14-1.15,5.5-4.57l-1.3.76c2.22,3.66,8.65.12,6.8-3.73-.32-.69-1.4-.33-1.39.38,0,2.84,2.87,4.38,5.47,4.19,3.41-.25,5.24-3.37,5.63-6.49.57-4.54-1.71-8.85-1.28-13.37a9.28,9.28,0,0,1,8.15-8.13c.95-.1,1-1.6,0-1.5Z" transform="translate(-230.55 -203.81)"/><path class="cls-1" d="M425.65,556.05c3.83-.38,6.58,3.05,9.2,5.32a23.45,23.45,0,0,0,8.33,4.65,27.18,27.18,0,0,0,19-1.14,23.35,23.35,0,0,0,8.65-6.53c.91-1.11-.68-2.71-1.6-1.59A23.73,23.73,0,0,1,435.61,559c-2.79-2.52-5.87-5.63-10-5.23-1.43.14-1.44,2.39,0,2.25Z" transform="translate(-230.55 -203.81)"/><path class="cls-1" d="M646.53,558.64c4,6.44,11.87,9.57,19.24,8.76,8.26-.9,15.35-6.13,20.36-12.51.89-1.13-.69-2.73-1.59-1.59-4.55,5.8-10.88,10.77-18.39,11.8-6.67.92-14.06-1.71-17.67-7.6-.76-1.23-2.71-.1-2,1.14Z" transform="translate(-230.55 -203.81)"/><ellipse class="cls-2" cx="323.95" cy="156.19" rx="70.5" ry="53"/><ellipse class="cls-2" cx="324.45" cy="165.19" rx="79" ry="63"/><ellipse class="cls-2" cx="326.95" cy="110.19" rx="10.5" ry="7"/><ellipse class="cls-2" cx="288.95" cy="186.19" rx="10.5" ry="7"/><ellipse class="cls-2" cx="266.95" cy="146.19" rx="10.5" ry="7"/><ellipse class="cls-2" cx="277.95" cy="125.19" rx="10.5" ry="7"/><ellipse class="cls-2" cx="301.95" cy="111.19" rx="10.5" ry="7"/><ellipse class="cls-2" cx="355.95" cy="117.19" rx="10.5" ry="7"/><ellipse class="cls-2" cx="370.95" cy="185.19" rx="10.5" ry="8"/><ellipse class="cls-2" cx="345.95" cy="196.19" rx="10.5" ry="7"/><ellipse class="cls-2" cx="316.95" cy="196.19" rx="10.5" ry="7"/><ellipse class="cls-2" cx="271.95" cy="170.19" rx="10.5" ry="7"/><path class="cls-1" d="M394.56,469.54c2.66,8.42,10,14.23,18.14,17.07,10.42,3.66,22,3.18,32.91,3.55l70.75,2.4c23.44.8,46.88,1.89,70.34,1.32s47.19-1.66,70.78-2.54c11.44-.43,22.9-.71,34.34-1.31,9.19-.48,18.78-1.53,27-6a33.78,33.78,0,0,0,5.52-3.83c1.47-1.25-.66-3.36-2.12-2.12-7.14,6-16.61,7.92-25.67,8.68-10.69.89-21.49,1-32.21,1.36-22.87.85-45.74,1.78-68.62,2.54s-45.77.08-68.68-.7l-68.41-2.32L441.38,487c-5.43-.18-10.89-.26-16.3-.82-9.22-1-19.17-4-24.83-11.88a19.8,19.8,0,0,1-2.79-5.57c-.58-1.83-3.48-1.05-2.9.8Z" transform="translate(-230.55 -203.81)"/><path class="cls-1" d="M397.86,469.24l-1.5-6.35a1.5,1.5,0,1,0-2.89.8L395,470a1.52,1.52,0,0,0,1.84,1,1.54,1.54,0,0,0,1.05-1.85Z" transform="translate(-230.55 -203.81)"/><path class="cls-1" d="M388.92,482.62c1.15,9,8,16,16.18,19.38,10.34,4.35,22.16,4,33.17,4.48Q475,508,511.79,508.69q36.6.63,73.21.35,36.78-.29,73.54-1.5c11.85-.4,23.72-.73,35.56-1.43,9.44-.55,19.29-1.71,27.66-6.44a33.91,33.91,0,0,0,5.57-4c1.47-1.26-.66-3.37-2.12-2.12-7.2,6.23-16.81,8.28-26.05,9.15-11,1-22.2,1.15-33.27,1.54q-35.42,1.28-70.86,1.66-35.6.4-71.21-.07t-71.19-1.81q-8.85-.35-17.7-.73c-5.48-.24-11-.37-16.44-1-9.49-1.17-19.63-4.73-24.54-13.57a17.1,17.1,0,0,1-2-6.1c-.24-1.89-3.24-1.91-3,0Z" transform="translate(-230.55 -203.81)"/><path class="cls-1" d="M388.86,504.6c.92,10.38,10.73,15.86,19.93,17.86,5.71,1.24,11.58,1.9,17.38,2.63q9,1.13,18.07,1.92c24.52,2.17,49.15,2.78,73.76,3.28q37.44.76,74.91.79,37.3,0,74.59-.68,9.36-.18,18.73-.4c5.18-.12,10.39-.11,15.56-.59,7.77-.71,16.53-2.45,22.1-8.4a18.65,18.65,0,0,0,3.25-4.85c.8-1.74-1.78-3.27-2.59-1.51-3.47,7.5-11.65,10.22-19.28,11.36a110.43,110.43,0,0,1-13.36.85q-9,.24-18.06.42-35.94.74-71.91.79T530,527.52c-23.88-.41-47.78-.85-71.62-2.42-11.76-.78-23.51-1.85-35.19-3.39-9.77-1.29-22.86-1.89-29-10.87a13.11,13.11,0,0,1-2.34-6.24c-.17-1.91-3.17-1.93-3,0Z" transform="translate(-230.55 -203.81)"/><path class="cls-1" d="M328.84,311.19c17.78-2,35.52-4.42,53.07-7.92A347.93,347.93,0,0,0,433.72,289a265.78,265.78,0,0,0,27.85-12c1.29-.65.15-2.59-1.14-1.94a280,280,0,0,1-49.76,19.06,430,430,0,0,1-52,11c-9.93,1.52-19.89,2.77-29.86,3.88-1.43.16-1.44,2.41,0,2.25Z" transform="translate(-230.55 -203.81)"/><path class="cls-1" d="M654.46,280.49a307.37,307.37,0,0,0,47.14,19.44,308.81,308.81,0,0,0,49.79,11.41q14.24,2.06,28.61,2.78c1.45.08,1.44-2.17,0-2.24a307.1,307.1,0,0,1-50.16-6.72,308.27,308.27,0,0,1-48.36-14.82q-13.22-5.26-25.89-11.79c-1.28-.66-2.42,1.28-1.13,1.94Z" transform="translate(-230.55 -203.81)"/></svg>