<svg id="tesla" xmlns="http://www.w3.org/2000/svg" viewBox="0 0 436.9 636.31"><defs><style>.cls-1{fill:#fff;}.cls-2,.cls-3{fill:none;stroke:#fff;stroke-miterlimit:10;}.cls-2{stroke-width:5px;}</style></defs><title>tesla</title><path class="cls-1" d="M222.8,456.69c-9.1,6.18-18.77,13.11-23.1,23.63-2.54,6.16-2.21,12.71-1.28,19.18a142.08,142.08,0,0,0,3.43,16.6,152.86,152.86,0,0,0,31.4,59.25,148.06,148.06,0,0,0,28.18,25.43,2.52,2.52,0,0,0,3.42-.89,2.55,2.55,0,0,0-.9-3.42,146.83,146.83,0,0,1-55.82-76.67,140.62,140.62,0,0,1-3.84-15.42c-1.12-5.86-2.4-12.24-1.18-18.17,2.37-11.55,13.07-19,22.21-25.2,2.65-1.8.15-6.13-2.52-4.32Z" transform="translate(-168.47 -244.79)"/><line class="cls-2" x1="94.21" y1="353.83" x2="87.32" y2="426.27"/><line class="cls-2" x1="54.43" y1="430.8" x2="87.32" y2="426.27"/><line class="cls-2" x1="53.3" y1="467.1" x2="54.43" y2="430.8"/><line class="cls-2" x1="31.7" y1="473.9" x2="53.3" y2="467.1"/><line class="cls-2" x1="2.26" y1="536.28" x2="31.7" y2="473.9"/><line class="cls-2" x1="170.12" y1="602.06" x2="2.26" y2="536.28"/><line class="cls-2" x1="238.17" y1="569.17" x2="170.12" y2="602.06"/><line class="cls-2" x1="266.53" y1="622.48" x2="238.17" y2="569.17"/><line class="cls-2" x1="407.17" y1="633.82" x2="266.53" y2="622.48"/><line class="cls-2" x1="343.65" y1="529.48" x2="432.12" y2="628.15"/><line class="cls-3" x1="358.4" y1="521.54" x2="343.65" y2="529.48"/><line class="cls-2" x1="316.43" y1="479.57" x2="358.4" y2="521.54"/><line class="cls-2" x1="31.7" y1="473.9" x2="432.12" y2="628.15"/><line class="cls-2" x1="53.3" y1="467.1" x2="283.54" y2="556.7"/><path class="cls-1" d="M456.37,805c11.84-17.32,31.26-28.8,51.92-31.84a72.8,72.8,0,0,1,17.39-.37,2.51,2.51,0,0,0,2.5-2.5,2.55,2.55,0,0,0-2.5-2.5c-22.15-2.12-44.79,5.84-61.31,20.61a77.5,77.5,0,0,0-12.32,14.07,2.5,2.5,0,0,0,4.32,2.53Z" transform="translate(-168.47 -244.79)"/><path class="cls-1" d="M271.25,593a183.3,183.3,0,0,0,46.46,100.79,178.44,178.44,0,0,0,44.83,35.41,184.48,184.48,0,0,0,54.39,19.91,179.78,179.78,0,0,0,28.69,3.25c8.72.28,18.32,0,26-4.71a22.93,22.93,0,0,0,4.91-4.09c2.14-2.39-1.38-5.93-3.54-3.54-5.57,6.19-14.35,7.33-22.24,7.41a158.89,158.89,0,0,1-27.55-2.26,179.9,179.9,0,0,1-53-17.54,175,175,0,0,1-44.67-32.85,178.8,178.8,0,0,1-48.33-95.28c-.35-2.16-.67-4.33-.94-6.5a2.58,2.58,0,0,0-2.5-2.5,2.51,2.51,0,0,0-2.5,2.5Z" transform="translate(-168.47 -244.79)"/><path class="cls-1" d="M476.34,743.38c15.69-20.78,31.12-41.82,44.45-64.21a339.08,339.08,0,0,0,32-71.58c8-25.2,13.56-51.06,19-76.89,5.49-26.11,11.62-52.92,8.6-79.75a101.29,101.29,0,0,0-9.89-34.58,81.43,81.43,0,0,0-20.86-25.75c-16.92-13.94-38-21.78-59.16-26.74-24.83-5.83-50.12-8-75.45-4.52a186.87,186.87,0,0,0-68.16,23.55,172.18,172.18,0,0,0-15.16,9.9,23.48,23.48,0,0,0-6.16,6,23.94,23.94,0,0,0-2.92,8.21c-2.62,12.9-5.34,25.72-8.82,38.42a462.65,462.65,0,0,1-27.3,74.08c-1.49,3.17-4.62,11.28-9.4,9.34l1.75,1.75c-6.1-25.95-26.21-45.58-45.1-63.06-5.39-5-12-9.94-19.75-8.24-3.14.69-1.81,5.51,1.33,4.82,6.48-1.42,12.19,4.42,16.46,8.43,4.76,4.47,9.48,9,14,13.67,8.95,9.25,17.28,19.29,23,30.91a71,71,0,0,1,3.52,8.63c.48,1.44.92,2.9,1.3,4.38.46,1.78.73,3.09,2.66,3.73,6,2,10.9-4.26,13.21-9a428.77,428.77,0,0,0,17.17-40.72q7.69-21,13.36-42.56,2.84-10.8,5.14-21.71c.75-3.55,1.44-7.1,2.13-10.65.59-3.1,1.23-6.43,3.31-8.92s5.16-4.37,7.86-6.21q4.28-2.94,8.72-5.61a180.69,180.69,0,0,1,56.44-22.14,179.65,179.65,0,0,1,40.52-3.84A215,215,0,0,1,488,368.43c23.51,5.4,47.67,14.35,64.87,31.92,19.34,19.76,24.64,47.94,23,74.68-.95,15.59-4,30.94-7.2,46.19-3.07,14.67-6.13,29.34-9.57,43.92-6.78,28.84-15.11,57.49-28,84.26-12.69,26.42-29.12,50.82-46.42,74.4q-6.3,8.58-12.73,17.06c-1.93,2.57,2.4,5.06,4.32,2.52Z" transform="translate(-168.47 -244.79)"/><path class="cls-1" d="M230.62,454.41q-4.73-40.8-6.88-81.82-.54-10.39-.92-20.8c-.22-6.31-.65-12.72,0-19,1-10,6.31-17.89,14.52-23.42,7.69-5.17,16.5-8.37,25-11.78a133,133,0,0,0,28-14.69c9.6-6.77,18.59-14.45,28.71-20.47a90.26,90.26,0,0,1,33.14-11.51c24.67-3.63,49.59,1.8,72.82,10,12.33,4.32,24.36,9.44,36.38,14.57Q480,283.35,498.6,291.3c22.5,9.66,45,19.93,64,35.55,4.58,3.75,9.05,7.62,13.78,11.19a90.12,90.12,0,0,0,15.34,9.18c2.68,1.29,4.7,2.85,5.84,5.68a39.74,39.74,0,0,1,2,8.68,80.12,80.12,0,0,1,.42,18.7c-1.08,12.86-4.61,25.4-8.09,37.78s-6.66,24.61-8.93,37.2c-4.43,24.57-6.66,49.61-13.53,73.68a170.64,170.64,0,0,1-5.9,17.23,2.5,2.5,0,1,0,4.82,1.33c9.63-23.77,12.86-49.34,16.73-74.5,2-12.8,4.15-25.56,7.38-38.11,3.3-12.8,7.39-25.4,10.08-38.35,2.62-12.61,3.85-25.6,1.49-38.35-1.12-6-3-11.65-8.69-14.71-2.58-1.39-5.28-2.48-7.82-3.94a80.31,80.31,0,0,1-7.62-5c-5-3.65-9.56-7.72-14.32-11.6A168.93,168.93,0,0,0,550.78,312a257.53,257.53,0,0,0-33.46-17.89c-11.92-5.45-24-10.48-36.07-15.63-12.45-5.32-24.87-10.75-37.42-15.83C420,253,395,244.91,369,244.79a108,108,0,0,0-35.88,5.61c-11.6,4-21.7,10.62-31.47,17.93-9.46,7.07-18.76,14.51-29.46,19.65-8.73,4.2-18,7.2-26.77,11.25-8.3,3.83-16.36,8.78-21.68,16.41-7,10.09-6.39,22.54-6,34.26q1.45,42.18,5.66,84.19,1,10.17,2.2,20.32c.36,3.16,5.37,3.19,5,0Z" transform="translate(-168.47 -244.79)"/><path class="cls-1" d="M306.91,289.21a294,294,0,0,1,38.1,7.66q9.56,2.58,18.91,5.79,4.45,1.53,8.86,3.19c3,1.15,6.44,3,9.54,1,1.39-.89,2.25-2.29,3.34-3.49a18,18,0,0,1,3.06-2.72A18.46,18.46,0,0,1,397,297.5a2.55,2.55,0,0,0,2.46-2.17,2.48,2.48,0,0,0-1.79-2.75L361.1,287.2c-11.94-1.76-23.9-3.87-35.9-5.15a63.91,63.91,0,0,0-20.19.63c-3.15.68-1.82,5.5,1.32,4.82,11.26-2.41,23,0,34.18,1.68l35.57,5.24,20.26,3,.66-4.91a23.44,23.44,0,0,0-15.14,7.67c-.62.71-1.44,2.31-2.37,2.6s-2.9-.79-3.84-1.15q-4.5-1.74-9.06-3.32a296.12,296.12,0,0,0-37.66-10.39c-7.29-1.51-14.64-2.72-22-3.7-1.34-.18-2.5,1.28-2.5,2.5a2.57,2.57,0,0,0,2.5,2.5Z" transform="translate(-168.47 -244.79)"/><path class="cls-1" d="M359.53,269.55,431.61,293,452,299.58a2.5,2.5,0,0,0,2.95-1.45,2.55,2.55,0,0,0-1-3.12q-9.24-6.66-18.49-13.31a137.37,137.37,0,0,0-18.13-11.37,95.52,95.52,0,0,0-39.7-10,92.12,92.12,0,0,0-11.39.37c-3.74.36-7.4.89-9.75,4.13a2.51,2.51,0,0,0,.9,3.42,2.55,2.55,0,0,0,3.42-.9,4.35,4.35,0,0,1,2.64-1.26,29.8,29.8,0,0,1,4.32-.52,91.26,91.26,0,0,1,9.64-.24,89.82,89.82,0,0,1,37,9.12,128.34,128.34,0,0,1,17.37,10.75c6.58,4.66,13.1,9.41,19.65,14.13l1.93-4.57-72.08-23.41-20.39-6.63c-3.07-1-4.38,3.83-1.33,4.83Z" transform="translate(-168.47 -244.79)"/><path class="cls-1" d="M386.76,331.59c13.29-2,26.92.72,40.13,2.12q20.17,2.13,40.46,2.89,11.5.43,23,.42c2,0,3.51-2.84,1.77-4.26-5.36-4.41-10.92-8.9-17.65-11-7.15-2.23-14.47-.62-21.76-.44a33.39,33.39,0,0,1-11.17-1.71,78.81,78.81,0,0,0-10.88-2.86A72.93,72.93,0,0,0,408,317a198,198,0,0,0-25.38,6.18c-3.08.91-1.77,5.73,1.33,4.83,14-4.11,28.58-8.34,43.32-6.76A54.84,54.84,0,0,1,438,323.72a48.23,48.23,0,0,0,10.65,2.5c7.07.61,14.18-1.5,21.22-.42,7.28,1.11,13.24,6,18.76,10.49l1.76-4.27q-20.53,0-41-1.37-10.36-.7-20.7-1.76c-6.71-.69-13.38-1.6-20.09-2.27a91.11,91.11,0,0,0-23.1.15,2.52,2.52,0,0,0-1.74,3.08,2.55,2.55,0,0,0,3.07,1.74Z" transform="translate(-168.47 -244.79)"/><path class="cls-1" d="M506.59,342a7.37,7.37,0,0,0,0,7A2.48,2.48,0,0,0,510,350a2.53,2.53,0,0,0,1.15-1.49,2.76,2.76,0,0,0-.25-1.93c-.07-.13-.13-.26-.19-.39l.25.59a5,5,0,0,1-.32-1.2l.09.67a4.86,4.86,0,0,1,0-1.32l-.09.66a5.09,5.09,0,0,1,.33-1.2l-.25.6c0-.14.12-.27.18-.4a2.6,2.6,0,0,0,.26-1.93,2.56,2.56,0,0,0-1.15-1.49,2.5,2.5,0,0,0-3.42.9Z" transform="translate(-168.47 -244.79)"/><path class="cls-1" d="M489.36,297.77c5.69,6.26,8.56,14.39,10.68,22.44a97.36,97.36,0,0,1,2.84,12.61,13.79,13.79,0,0,1-.37,6.13c-.64,1.94-2.15,3.46-2.87,5.37-1.66,4.37,1.69,8.77,5.95,9.77a15.51,15.51,0,0,0,7.35-.4c1.45-.38,2.58-.68,3.48-1.95a13.88,13.88,0,0,0,1.51-2.85c3.26-8.06-.86-17.19-4.32-24.45a128.17,128.17,0,0,0-17.08-26.57,2.5,2.5,0,0,0-3.53,0,2.54,2.54,0,0,0,0,3.53,123.18,123.18,0,0,1,12.84,18.86q2.75,5,5,10.13a37.22,37.22,0,0,1,3,9.55,12.52,12.52,0,0,1-2,9.58l1.49-1.15c-2.13.62-4.57,1.45-6.79.81-1.21-.36-2.6-1.43-2.35-2.81a7.29,7.29,0,0,1,1.32-2.47,17,17,0,0,0,1.65-3.23,16.42,16.42,0,0,0,.78-6.92c-.37-4.62-1.67-9.21-2.81-13.68A89.37,89.37,0,0,0,500.9,307a44.57,44.57,0,0,0-8-12.77c-2.16-2.39-5.69,1.15-3.53,3.53Z" transform="translate(-168.47 -244.79)"/><path class="cls-1" d="M539.83,355.84c4.28.83,8.45.09,12.73-.07a14.84,14.84,0,0,1,5.7.65,12.41,12.41,0,0,1,4.68,3.6c6.62,7.3,12.91,14.93,19.34,22.38l.51-3.92c-2.69,1.33-5.9.19-8.27-1.31-2.88-1.82-5.06-4.63-7.38-7.08a35.86,35.86,0,0,0-8.42-6.65,99.39,99.39,0,0,0-9.28-4.38c-1.82-.8-3.64-1.61-5.41-2.53-.84-.44-1.68-.88-2.48-1.39a8.84,8.84,0,0,1-.78-.61c.19-.09,0,.83.06.59-.08.44-.68,1.15-1.27.9l-1.1-.64.2.18c2.4,2.14,5.94-1.38,3.54-3.53a3.73,3.73,0,0,0-5.88,1.21c-1.28,2.46.55,4.83,2.55,6.13,3.59,2.34,7.74,3.84,11.63,5.58s7.71,3.59,10.84,6.43c3.4,3.09,6.08,6.87,9.84,9.56,4.1,2.94,9.48,4.15,14.13,1.86,1.54-.77,1.48-2.8.51-3.93l-10-11.6c-3.28-3.8-6.43-7.77-9.9-11.4a16,16,0,0,0-11.9-5.12c-4.25-.05-8.61,1.09-12.84.27a2.55,2.55,0,0,0-3.07,1.74,2.52,2.52,0,0,0,1.74,3.08Z" transform="translate(-168.47 -244.79)"/><path class="cls-1" d="M358.61,476.73c17.24-15.44,41.31-20.59,63.9-18.94,13,.95,25.75,4.06,38.09,8.17,6.12,2.05,12.3,4.2,18.19,6.85a12.47,12.47,0,0,1,3.6,2.18,6.82,6.82,0,0,1,1.42,1.95,8,8,0,0,1,.31,5.09,11.5,11.5,0,0,1-9.23,8.76c-6.27,1.24-12.82-1.78-18-5.09-1.51-1-3.93.28-3.76,2.16a103.54,103.54,0,0,1,.18,16.89l4.91-.66a42.55,42.55,0,0,0-8.49-13.79c-3.52-3.79-8.55-8.15-14.14-6.42-4.79,1.49-7.11,6.12-10.23,9.63-2.91,3.27-7,6.5-11.69,6.18-4.06-.28-8.17-4.41-6.68-8.47.83-2.24-1.89-3.66-3.67-2.82a34.85,34.85,0,0,1-11.22,3.14l2.16,3.76A61.43,61.43,0,0,1,407,477.12a2.53,2.53,0,0,0-1.77-4.27q-25.37,1.14-50.77.54c-3.22-.08-3.22,4.92,0,5q25.38.6,50.77-.54l-1.77-4.27a65.61,65.61,0,0,0-13.5,19.2c-.7,1.53.09,4,2.16,3.76a42.19,42.19,0,0,0,13.75-3.82l-3.68-2.83c-1.79,4.87,1,9.89,5.05,12.64,4.43,3,10,2.56,14.57.2s7.57-6.37,10.77-10.32c1.24-1.54,2.69-3.29,4.68-3.8,2.29-.58,4.53,1.08,6.15,2.51a36.35,36.35,0,0,1,10,14.3,2.51,2.51,0,0,0,4.91-.67,103.54,103.54,0,0,0-.18-16.89L454.41,490c5.4,3.47,11.8,6.21,18.34,6a16.8,16.8,0,0,0,14.06-7.67c2.59-4.06,3.48-9.4,1.35-13.84a12.86,12.86,0,0,0-6.26-5.74c-3.2-1.53-6.57-2.74-9.87-4-25.3-9.64-52.87-15.79-79.81-10-13.67,3-26.69,9-37.15,18.4-2.4,2.15,1.15,5.67,3.54,3.53Z" transform="translate(-168.47 -244.79)"/><path class="cls-1" d="M512.88,492.21a45,45,0,0,0-8,25.9,29.7,29.7,0,0,0,.66,7c.66,2.62,2.7,3.82,5.08,4.7A101.94,101.94,0,0,0,525.27,534a108.87,108.87,0,0,0,17.44,2.11c2.77.11,3.48-4.44.67-4.91a48.55,48.55,0,0,1-21.06-9.05l-1.26,4.66A17.28,17.28,0,0,0,537.87,511l-3.76,2.15,23.11,16.83a2.52,2.52,0,0,0,3.77-2.16,30.85,30.85,0,0,0-19.5-25.94c-2.64-1-4.44,3.29-1.93,4.57L568.37,521a2.53,2.53,0,0,0,3.67-1.49l1.69-8.2c.56-2.72,1.37-5.63-.83-7.87-1.6-1.62-4-2.63-6-3.67-2.21-1.16-4.47-2.23-6.76-3.21a107,107,0,0,0-29-7.88,102.45,102.45,0,0,0-16.7-.69c-3.21.12-3.22,5.12,0,5a99.85,99.85,0,0,1,52.07,12.24,12.31,12.31,0,0,1,2.76,1.63c.45.45-.06,1.82-.23,2.64l-1.78,8.68,3.67-1.5-28.8-14.64-1.93,4.57A25.61,25.61,0,0,1,556,527.77l3.76-2.16-23.12-16.82c-1.66-1.21-3.64.46-3.76,2.16-.42,5.92-5.94,10.85-11.81,10.87a2.54,2.54,0,0,0-2.41,1.83,2.62,2.62,0,0,0,1.15,2.83A51.69,51.69,0,0,0,542.05,536l.66-4.91a101,101,0,0,1-27-4.79c-1-.34-2.08-.69-3.11-1.06-.63-.23-1.76-.46-2.14-1a5.83,5.83,0,0,1-.38-2.17c-.1-1-.17-2.07-.2-3.11a40.16,40.16,0,0,1,1.47-11.89,40.61,40.61,0,0,1,5.86-12.32,2.52,2.52,0,0,0-.89-3.42,2.55,2.55,0,0,0-3.42.9Z" transform="translate(-168.47 -244.79)"/><path class="cls-1" d="M506,530.47l-3.51,59.11-1,16.71,1.83-2.41a21.22,21.22,0,0,1-10.79-.08,55.09,55.09,0,0,1-11.29-4.44c-7.43-3.69-14.82-8.37-23.07-10a23.47,23.47,0,0,0-13.35,1l2.82,1.15c-.69-1.57.15-3.64.63-5.15a15.75,15.75,0,0,0,1.11-5.57c-.2-3.17-1.86-6.88-5.21-7.73a5.45,5.45,0,0,0-5.07,1.48,7.65,7.65,0,0,0-1.92,5,31,31,0,0,0,.55,5.91l.93,6.83,2.19,16.1,2.41-3.16c-14.68-.35-30.24,1.11-43.16,8.68a40.83,40.83,0,0,0-14.42,13.95A38.92,38.92,0,0,0,380,646a28.19,28.19,0,0,0,6.4,19.68,2.52,2.52,0,0,0,3.93-.51,32.47,32.47,0,0,1,25.27-18c11.4-1.18,22.1,4.05,32.29,8.4a94.79,94.79,0,0,0,16.65,5.84,44.42,44.42,0,0,0,8.66,1.09,76.86,76.86,0,0,0,7.74-.41c4.57-.37,9.5-.94,13.75.6a6.74,6.74,0,0,1,3.79,3.39c1.25,2.58.65,5.65.08,8.33a218.33,218.33,0,0,1-15,45.07,2.5,2.5,0,0,0,4.31,2.52,461.45,461.45,0,0,0,38.61-62.62,466.39,466.39,0,0,0,28.28-68.14q6.38-19.61,11-39.71c.71-3.13-3.93-4.44-4.82-1.33a284.3,284.3,0,0,1-33.29,74q-6.12,9.64-13,18.76l4.66,1.26a46.74,46.74,0,0,0-15.91-30.92L501,617.49c5.11,1.11,9.14-2.12,11.32-6.53,2.59-5.22,2.8-10.91,3.1-16.61a300,300,0,0,0-.85-42.71q-1.11-12.12-3.17-24.15a2.52,2.52,0,0,0-3.08-1.74,2.56,2.56,0,0,0-1.75,3.07,294.54,294.54,0,0,1,4.06,39.64q.35,9.76.05,19.54-.17,5.13-.49,10.25a32.4,32.4,0,0,1-.95,6.82,15.74,15.74,0,0,1-2.81,5.88,5,5,0,0,1-2,1.6c.34-.14-.17.05-.26.07s-.88.16-.5.13a4.2,4.2,0,0,1-1.3-.08c-2.25-.49-4.47,2.44-2.44,4.18a41.66,41.66,0,0,1,14.45,27.38A2.53,2.53,0,0,0,519,645.5a289.7,289.7,0,0,0,39.47-71.89q4.11-10.89,7.31-22.08l-4.82-1.33A461.55,461.55,0,0,1,539,620a458.42,458.42,0,0,1-32.6,65.23q-10.65,17.64-22.84,34.28l4.31,2.52a228.1,228.1,0,0,0,14.72-42.65c1.45-6.17,3.27-13.49-1.78-18.58-3.66-3.67-9.28-4.15-14.18-4-5.35.14-10.67,1.1-16,.61-5.95-.54-11.7-2.62-17.19-4.85-11.2-4.56-22.4-10.63-34.83-10.5a37.38,37.38,0,0,0-32.55,20.6l3.92-.51c-7.19-8.59-5.82-21.21-.66-30.47,6.34-11.36,18.43-17.22,30.77-19.7a104.68,104.68,0,0,1,23.18-1.64c1.8,0,2.62-1.63,2.41-3.17l-2.12-15.61-1-7.32c-.23-1.7-.69-3.71-.24-5.36a1.62,1.62,0,0,1,.35-.77c-.23.25.31-.16.12-.06.31-.08.35-.1.11,0H443c-.4-.43.56.41.2.1a4.4,4.4,0,0,1,1.23,3.08c0,1.74-1,3.92-1.49,5.81a10.59,10.59,0,0,0,.42,7.13,2.5,2.5,0,0,0,2.82,1.15,18.55,18.55,0,0,1,10.41-1.05,44.49,44.49,0,0,1,11.1,3.89c7.64,3.65,15,8.37,23.25,10.5a26.93,26.93,0,0,0,13.75.16,2.58,2.58,0,0,0,1.84-2.42L510,547.18l1-16.71c.19-3.21-4.81-3.2-5,0Z" transform="translate(-168.47 -244.79)"/><path class="cls-1" d="M443.13,671.73a54.74,54.74,0,0,0,33.55,8.75l-2.16-3.77c-2.2,4.64-7.88,6.34-12.62,5.17-6.11-1.52-10.37-6.89-13.24-12.17-1.54-2.83-5.86-.31-4.32,2.52,3.55,6.54,9.23,13.08,16.87,14.61,6.65,1.33,14.56-1.14,17.63-7.6.75-1.57-.11-3.91-2.16-3.76a50.17,50.17,0,0,1-31-8.07c-2.69-1.77-5.2,2.56-2.52,4.32Z" transform="translate(-168.47 -244.79)"/><path class="cls-1" d="M461.08,502.77l-28.34,1.49c-3.2.17-3.22,5.17,0,5l28.34-1.49c3.2-.17,3.22-5.17,0-5Z" transform="translate(-168.47 -244.79)"/><path class="cls-1" d="M283.43,612.45a72.74,72.74,0,0,1-3-36.83l-4.91-.66a150.51,150.51,0,0,0,15.79,61.28,174.75,174.75,0,0,0,38.17,50.87A214.08,214.08,0,0,0,383.07,723a260.22,260.22,0,0,0,30.43,12.19c10.25,3.37,20.74,6.45,31.49,7.63,10.42,1.14,21.54.09,30.54-5.71a35.56,35.56,0,0,0,15.63-24.51,33.66,33.66,0,0,0,.28-7.37,2.55,2.55,0,0,0-2.5-2.5,2.52,2.52,0,0,0-2.5,2.5,30.71,30.71,0,0,1-9.68,24.62c-7.28,6.78-17.39,8.75-27,8.33-10.28-.43-20.34-3.27-30.11-6.29a254.05,254.05,0,0,1-29.28-11,215,215,0,0,1-52.63-33.13A173.49,173.49,0,0,1,299,640.06,147.65,147.65,0,0,1,281,582.48q-.33-3.75-.45-7.52c-.09-2.69-4.39-3.56-4.91-.67a77.93,77.93,0,0,0,3,39.49,2.57,2.57,0,0,0,3.08,1.75,2.52,2.52,0,0,0,1.74-3.08Z" transform="translate(-168.47 -244.79)"/><path class="cls-1" d="M218,494.7c14-3.6,28.19,3.51,37.88,13.35a95.92,95.92,0,0,1,13.24,17.59c1.86,3.06,4.3,6.35,5.06,9.9a6.38,6.38,0,0,1-1,4.66c-1,1.8-2.18,3.54-3.27,5.3l-15.3,24.75,3.92-.5c-4-4.09-10.47-10.84-6.9-17,1.38-2.4,3.91-3.92,6.41-5a33.44,33.44,0,0,1,4-1.38,25.5,25.5,0,0,0,4.71-1.39,4.15,4.15,0,0,0,2-5.36,46.33,46.33,0,0,0-2.33-5.25A57.3,57.3,0,0,0,260.6,525a60.13,60.13,0,0,0-7.59-8.28,35.66,35.66,0,0,0-9.18-6.36c-4-1.73-8.24-2.17-12.25-.32a10.48,10.48,0,0,0-6.26,8.89l4.66-1.26c-2-2.62-1.08-5.76-.18-8.65,1-3.14,3.08-7.26,1.9-10.57-.69-2-2.39-2.86-4.19-3.58a27.11,27.11,0,0,0-4.63-1.48c-3.59-.75-7.24-.48-10,2.09l3.92.51a6.25,6.25,0,0,1-.3-4.54l-2.41,1.84,3.18-.16c3.21-.17,3.23-5.17,0-5l-3.18.16a2.56,2.56,0,0,0-2.41,1.83,11.52,11.52,0,0,0,.81,8.39,2.52,2.52,0,0,0,3.92.51c1.78-1.63,4.55-1,6.64-.44A13,13,0,0,1,226.7,500c.75.52.08,2-.14,2.75-1.53,5.52-4.95,12.23-.9,17.5,1.47,1.92,4.52,1.39,4.66-1.26.12-2.32,2.21-4.08,4.31-4.76,3-1,6.09,0,8.72,1.53,5.71,3.24,10.64,8.46,14.39,13.79a57.71,57.71,0,0,1,5.11,8.81c.34.73.67,1.46,1,2.21a2.87,2.87,0,0,0,.23.6l.08.21.29-.76c-.11-.07-.4.08-.53.11-1.39.37-2.79.69-4.17,1.12-5.64,1.76-11.45,4.8-13.47,10.75-2.7,8,3.51,15.45,8.75,20.72a2.52,2.52,0,0,0,3.92-.51l14.53-23.49c1.2-1.94,2.41-3.87,3.6-5.82a13.76,13.76,0,0,0,2.21-5.78c.46-4.29-2.1-8.28-4.18-11.82-7.89-13.46-17.86-26.88-32.58-33.31-8.12-3.54-17.14-4.9-25.82-2.67-3.11.8-1.79,5.62,1.33,4.82Z" transform="translate(-168.47 -244.79)"/><line class="cls-2" x1="42.5" y1="478.06" x2="23.81" y2="532.88"/><line class="cls-2" x1="238.17" y1="569.17" x2="182.86" y2="585.62"/><line class="cls-2" x1="23.81" y1="532.88" x2="182.86" y2="585.62"/><line class="cls-2" x1="238.17" y1="569.17" x2="284.19" y2="611.14"/><line class="cls-2" x1="407.17" y1="633.82" x2="284.19" y2="611.14"/><line class="cls-2" x1="62.96" y1="470.5" x2="70.88" y2="448.95"/><line class="cls-2" x1="105.27" y1="348.17" x2="94.21" y2="439.93"/><line class="cls-2" x1="163.12" y1="459.23" x2="94.21" y2="439.93"/><line class="cls-2" x1="70.88" y1="448.95" x2="177.04" y2="470.5"/></svg>