<svg id="tesla" xmlns="http://www.w3.org/2000/svg" viewBox="0 0 433.24 632.44"><defs><style>.cls-1{fill:#fff;}.cls-2,.cls-3{fill:none;stroke:#fff;stroke-miterlimit:10;}.cls-3{stroke-width:0.25px;}</style></defs><title>tesla</title><path class="cls-1" d="M223.74,458.31c-8.64,5.87-18.1,12.51-22.23,22.5-2.42,5.85-2.16,12.05-1.28,18.19a142.08,142.08,0,0,0,3.43,16.6A150.53,150.53,0,0,0,234.58,574a146.19,146.19,0,0,0,27.79,25.13c.67.46,1.29-.62.64-1.07a148.88,148.88,0,0,1-56.69-77.79,142.93,142.93,0,0,1-3.84-15.42c-1.19-6.21-2.47-12.88-1.18-19.17,2.47-12,13.54-19.84,23.08-26.32.66-.45,0-1.53-.64-1.08Z" transform="translate(-170.28 -246.67)"/><line class="cls-2" x1="92.41" y1="351.96" x2="85.52" y2="424.39"/><line class="cls-2" x1="52.62" y1="428.93" x2="85.52" y2="424.39"/><line class="cls-2" x1="51.49" y1="465.22" x2="52.62" y2="428.93"/><line class="cls-2" x1="29.89" y1="472.03" x2="51.49" y2="465.22"/><line class="cls-2" x1="0.45" y1="534.41" x2="29.89" y2="472.03"/><line class="cls-2" x1="168.31" y1="600.19" x2="0.45" y2="534.41"/><line class="cls-2" x1="236.36" y1="567.3" x2="168.31" y2="600.19"/><line class="cls-2" x1="264.72" y1="620.6" x2="236.36" y2="567.3"/><line class="cls-2" x1="405.36" y1="631.95" x2="264.72" y2="620.6"/><line class="cls-2" x1="341.84" y1="527.6" x2="430.31" y2="626.28"/><line class="cls-3" x1="356.59" y1="519.66" x2="341.84" y2="527.6"/><line class="cls-2" x1="314.62" y1="477.7" x2="356.59" y2="519.66"/><line class="cls-2" x1="29.89" y1="472.03" x2="430.31" y2="626.28"/><line class="cls-2" x1="51.49" y1="465.22" x2="281.73" y2="554.82"/><path class="cls-1" d="M454.75,804c12.1-17.7,31.89-29.58,53-32.69a74.39,74.39,0,0,1,17.89-.44c.8.08.8-1.18,0-1.25-21.66-2.08-43.81,5.6-60,20.05a76.11,76.11,0,0,0-12,13.7c-.46.67.63,1.29,1.08.63Z" transform="translate(-170.28 -246.67)"/><path class="cls-1" d="M273.12,593A181.47,181.47,0,0,0,319,692.42a176.91,176.91,0,0,0,44.46,35.12,182.62,182.62,0,0,0,53.94,19.72,176.84,176.84,0,0,0,28.19,3.19c8.39.26,17.65.1,25-4.46a21.13,21.13,0,0,0,4.53-3.8c.54-.59-.34-1.48-.88-.88-5.91,6.56-15.2,7.87-23.57,8a161.81,161.81,0,0,1-28.05-2.33,181.67,181.67,0,0,1-53.43-17.73,176.32,176.32,0,0,1-45-33.15A180.4,180.4,0,0,1,275.39,600q-.58-3.5-1-7c-.09-.79-1.35-.8-1.25,0Z" transform="translate(-170.28 -246.67)"/><path class="cls-1" d="M474.72,742.43c17.92-23.73,35.53-47.83,50-73.85s24.82-54.09,32.51-83c3.9-14.66,7.23-29.47,10.41-44.3,3.26-15.24,6.71-30.49,9.1-45.9,4.27-27.54,4.41-57.58-10.17-82.34-12.71-21.58-35.2-34.56-58.37-42.29a232.93,232.93,0,0,0-40.31-9.33,184.09,184.09,0,0,0-119.79,22.9,145,145,0,0,0-16.79,11.09,16.46,16.46,0,0,0-5.44,6.94c-1.29,3.22-1.72,6.74-2.39,10.11q-4.32,22.07-10.78,43.65T297.62,498.9q-4.38,10.74-9.32,21.25c-1.42,3-2.77,6.18-5.17,8.59a7,7,0,0,1-4.3,2.37c-.56,0-1.46,0-1.81-.42a8.76,8.76,0,0,1-.71-2.54c-3.42-12.28-10.26-23.24-18.29-33-4.22-5.12-8.78-10-13.47-14.64s-9.41-9.43-14.47-13.7c-4.35-3.68-9.63-6.95-15.55-5.65-.79.17-.45,1.38.33,1.2,7.29-1.59,13.43,4.35,18.29,8.92s9.48,9,14,13.67c9.05,9.35,17.5,19.53,23.25,31.29a74.38,74.38,0,0,1,3.71,9.07c.48,1.45.91,2.91,1.3,4.38.29,1.13.2,2,1.35,2.42,5.08,1.83,9.23-4.31,11.09-8.09a423.17,423.17,0,0,0,17-40.28q7.69-20.94,13.37-42.56,2.82-10.8,5.14-21.71c.74-3.54,1.43-7.1,2.12-10.65s1.46-7,3.8-9.75,5.39-4.56,8.24-6.5,5.75-3.82,8.71-5.61A183.37,183.37,0,0,1,364,377.54a185.22,185.22,0,0,1,39.14-12.93,181.79,181.79,0,0,1,41-3.91,217.8,217.8,0,0,1,44.38,5.92c23.82,5.48,48.27,14.6,65.7,32.41,19.68,20.11,25.21,48.76,23.56,76-1,15.76-4,31.27-7.27,46.69-3.07,14.67-6.14,29.34-9.57,43.92-6.82,29-15.23,57.78-28.16,84.71-12.68,26.42-29.11,50.82-46.41,74.39q-6.3,8.58-12.73,17.06c-.48.65.6,1.27,1.08.63Z" transform="translate(-170.28 -246.67)"/><path class="cls-1" d="M228.74,454.41q-4.73-40.8-6.88-81.82-.54-10.39-.91-20.8c-.23-6.31-.66-12.72,0-19,1.12-10.67,6.65-19.11,15.46-25,7.81-5.26,16.79-8.5,25.49-12a131.51,131.51,0,0,0,27.54-14.51c9.61-6.77,18.59-14.45,28.72-20.47a91.66,91.66,0,0,1,33.58-11.7c25-3.68,50.24,1.68,73.82,10,12.48,4.38,24.66,9.57,36.82,14.76q18.58,7.95,37.17,15.89c22.67,9.72,45.2,20.1,64.42,35.84,4.45,3.64,8.8,7.42,13.39,10.89a90.9,90.9,0,0,0,15.34,9.18,12.28,12.28,0,0,1,6.61,6.58,39.26,39.26,0,0,1,2.14,8.91,81.59,81.59,0,0,1,.5,19.19c-1.1,13-4.63,25.73-8.16,38.28-3.46,12.31-6.66,24.61-8.93,37.2-4.43,24.57-6.66,49.61-13.53,73.68a171.5,171.5,0,0,1-5.9,17.23c-.3.75.91,1.07,1.21.33,9.62-23.77,12.85-49.33,16.72-74.5,2-12.79,4.15-25.56,7.38-38.11C594,421.6,598.13,409,600.82,396c2.55-12.26,3.78-25,1.49-37.35-1-5.56-2.55-10.76-7.83-13.6-2.57-1.38-5.28-2.47-7.82-3.93a80.31,80.31,0,0,1-7.62-5c-9.91-7.31-18.83-15.76-29.2-22.49a258.3,258.3,0,0,0-33.47-17.89c-11.91-5.45-24-10.48-36.07-15.63-12.3-5.26-24.57-10.63-37-15.65-23.69-9.58-48.52-17.67-74.33-17.79a106.34,106.34,0,0,0-35.39,5.53c-11.42,4-21.38,10.55-31,17.75-9.46,7.07-18.76,14.51-29.46,19.65-8.73,4.2-18,7.19-26.77,11.25-8,3.68-15.89,8.38-21,15.73-6.84,9.82-6.12,21.93-5.73,33.32q1.45,42.18,5.66,84.19,1,10.17,2.2,20.32c.09.79,1.34.8,1.25,0Z" transform="translate(-170.28 -246.67)"/><path class="cls-1" d="M306.91,287.34a298.26,298.26,0,0,1,38.6,7.72q9.56,2.58,18.91,5.79,4.45,1.53,8.86,3.19c2.42.92,5.6,2.89,8.1,1.24a17.6,17.6,0,0,0,2.95-3.2,20.19,20.19,0,0,1,3.45-3,20.43,20.43,0,0,1,9.22-3.45c.63-.07.93-1.12.17-1.23L360.61,289l-18-2.66c-5.78-.85-11.56-1.8-17.37-2.42a62.3,62.3,0,0,0-19.7.56c-.78.17-.45,1.37.34,1.21,11.61-2.5,23.62,0,35.16,1.68l35.58,5.23,20.26,3,.16-1.23a21.51,21.51,0,0,0-13.81,7.13c-.85,1-1.59,2.28-2.76,2.89-1.62.85-3.74-.37-5.27-1q-4.52-1.74-9.07-3.32a297.68,297.68,0,0,0-37.65-10.4q-10.69-2.2-21.53-3.62c-.79-.11-.78,1.14,0,1.25Z" transform="translate(-170.28 -246.67)"/><path class="cls-1" d="M360,267.74l72.07,23.41,20.4,6.62c.71.24,1-.75.48-1.14q-9.25-6.66-18.5-13.31A135.69,135.69,0,0,0,416.35,272a93.08,93.08,0,0,0-38.75-9.74,88.37,88.37,0,0,0-11.39.37c-3,.28-6.25.6-8.13,3.2-.47.65.61,1.27,1.08.63,1.82-2.53,5.79-2.5,8.58-2.72a92,92,0,0,1,47.59,9.14,128.34,128.34,0,0,1,17.37,10.75c6.58,4.67,13.1,9.42,19.65,14.13l.48-1.14-72.08-23.41-20.39-6.63c-.77-.25-1.1,1-.33,1.21Z" transform="translate(-170.28 -246.67)"/><path class="cls-1" d="M386.26,329.79c13.49-2.09,27.21.63,40.63,2s26.95,2.39,40.46,2.89q11.5.43,23,.43a.63.63,0,0,0,.44-1.07c-5.1-4.19-10.41-8.52-16.82-10.51-7-2.17-14.15-.55-21.26-.37A35.34,35.34,0,0,1,441,321.42a78.81,78.81,0,0,0-10.88-2.86,70.19,70.19,0,0,0-21.7.29c-8.62,1.32-17,3.73-25.38,6.18a.63.63,0,0,0,.33,1.21c14.14-4.15,28.93-8.43,43.82-6.82a56.94,56.94,0,0,1,11.23,2.49,46.8,46.8,0,0,0,10.15,2.44c7.24.62,14.5-1.52,21.72-.36,7.61,1.22,13.8,6.23,19.58,11l.44-1.07q-20.53,0-41-1.37-10.36-.7-20.7-1.77c-6.71-.68-13.38-1.59-20.09-2.27a89,89,0,0,0-22.6.09c-.79.12-.46,1.33.33,1.21Z" transform="translate(-170.28 -246.67)"/><path class="cls-1" d="M508.21,343a5.55,5.55,0,0,0,0,5.15.62.62,0,0,0,.85.22.63.63,0,0,0,.23-.85,4.24,4.24,0,0,1,0-3.89.64.64,0,0,0-.23-.85.62.62,0,0,0-.85.22Z" transform="translate(-170.28 -246.67)"/><path class="cls-1" d="M490.68,296.45c5.92,6.5,9,14.88,11.17,23.26a102.91,102.91,0,0,1,2.87,12.86,15.52,15.52,0,0,1-.4,6.88c-.65,2-2.13,3.46-2.87,5.37-1.33,3.43,1.32,6.68,4.64,7.46a13.41,13.41,0,0,0,6.35-.4c.91-.24,1.8-.3,2.36-1.09a11.91,11.91,0,0,0,1.32-2.4c3.11-7.54-.89-16.21-4.13-23a126.78,126.78,0,0,0-16.78-26.2c-.52-.62-1.4.27-.89.89a124.67,124.67,0,0,1,14.61,22,90.15,90.15,0,0,1,5.21,11.51c1.28,3.64,2.23,7.66,1.61,11.53a12.19,12.19,0,0,1-.64,2.46,6.86,6.86,0,0,1-1.39,2.61c-.62.54-2.16.67-3,.82a10.42,10.42,0,0,1-4.16.13,5.3,5.3,0,0,1-4.2-3.63c-.47-2.1,1.18-3.84,2.15-5.52,2-3.39,1.82-7.37,1.17-11.1-.7-4-1.73-8-2.77-11.88-2.25-8.46-5.41-16.85-11.38-23.42-.54-.59-1.43.29-.89.89Z" transform="translate(-170.28 -246.67)"/><path class="cls-1" d="M540.33,354c4.08.8,8.14,0,12.23-.13a16.63,16.63,0,0,1,6.2.71,14.08,14.08,0,0,1,5.51,4.09c6.62,7.29,12.9,14.92,19.34,22.38l.13-1c-3.33,1.64-7.17.58-10.16-1.31s-5.33-4.79-7.77-7.37a33.87,33.87,0,0,0-8-6.36,99.39,99.39,0,0,0-9.28-4.38c-1.82-.8-3.63-1.61-5.4-2.53-.84-.44-1.68-.89-2.49-1.39a4.4,4.4,0,0,1-1.15-.91,1.15,1.15,0,0,1-.34-1c0-.3.44-1.06.88-.66.6.53,1.49-.35.88-.89a1.86,1.86,0,0,0-2.93.83c-.66,1.51.74,2.82,1.88,3.57,3.59,2.34,7.73,3.84,11.63,5.58a41.14,41.14,0,0,1,11.22,6.73c3.26,3,5.85,6.67,9.46,9.26s8.19,3.85,12.24,1.86a.64.64,0,0,0,.12-1l-10-11.6c-3.28-3.8-6.44-7.76-9.9-11.39A14.13,14.13,0,0,0,554,352.62c-4.45,0-8.91,1.07-13.34.21-.78-.16-1.12,1.05-.33,1.2Z" transform="translate(-170.28 -246.67)"/><path class="cls-1" d="M357.28,475.4c17.61-15.76,42.13-21.18,65.23-19.49,13.16,1,26.09,4.08,38.58,8.25a199.3,199.3,0,0,1,18.65,7c2.47,1.12,4.82,2.64,5.88,5.25a10.05,10.05,0,0,1,.31,6.09,13.37,13.37,0,0,1-10.54,10.07c-6.82,1.32-13.78-1.66-19.41-5.28a.63.63,0,0,0-.94.54,104.67,104.67,0,0,1,.19,16.89l1.22-.16a40,40,0,0,0-8-13c-3-3.26-7.44-7.45-12.31-5.94-4.35,1.35-6.57,6-9.4,9.14-3.27,3.67-7.86,7-13,6.73s-10.43-5.53-8.48-10.84c.2-.56-.48-.91-.92-.7a37.63,37.63,0,0,1-12.17,3.4l.54.94a63,63,0,0,1,13-18.57.63.63,0,0,0-.44-1.07q-25.37,1.15-50.77.55a.63.63,0,0,0,0,1.25q25.38.6,50.77-.55l-.44-1.06a64,64,0,0,0-13.21,18.82c-.17.38,0,1,.54.94a39.67,39.67,0,0,0,12.8-3.57l-.92-.71c-1.49,4.06.82,8.22,4.19,10.52,3.87,2.64,8.63,2.27,12.67.2,4.51-2.3,7.3-6.21,10.39-10,1.46-1.8,3.19-3.68,5.51-4.28,3-.77,5.82,1.1,8,3a38.38,38.38,0,0,1,10.49,15.13.63.63,0,0,0,1.23-.17,104.67,104.67,0,0,0-.19-16.89l-.94.54c5.14,3.3,11.18,5.94,17.4,5.74a14.86,14.86,0,0,0,12.44-6.75c2.21-3.47,3.17-8.1,1.35-11.94a11.24,11.24,0,0,0-5.59-5.07c-3.05-1.46-6.27-2.61-9.42-3.81-25-9.51-52.21-15.72-78.81-10-13.36,2.89-26.1,8.76-36.32,17.91-.6.54.28,1.42.88.88Z" transform="translate(-170.28 -246.67)"/><path class="cls-1" d="M514.49,493.15a43.32,43.32,0,0,0-7.77,25,28.15,28.15,0,0,0,.6,6.54c.49,2,2,2.74,3.76,3.39a101.16,101.16,0,0,0,14.69,4.16,104.91,104.91,0,0,0,16.94,2c.69,0,.87-1.11.17-1.23a49.64,49.64,0,0,1-21.51-9.23l-.31,1.16A15.38,15.38,0,0,0,536,511l-.94.54,23.11,16.82a.63.63,0,0,0,.94-.54A28.88,28.88,0,0,0,541,503.64c-.66-.26-1.11.82-.48,1.14l28.8,14.64a.63.63,0,0,0,.92-.37l1.69-8.19c.41-2,1.28-4.39-.35-6.05-1.47-1.5-3.81-2.43-5.65-3.39q-3.33-1.73-6.76-3.2a103.6,103.6,0,0,0-28.06-7.62,102.46,102.46,0,0,0-16.7-.7c-.8,0-.81,1.28,0,1.25a101.83,101.83,0,0,1,53,12.5,14.94,14.94,0,0,1,3.13,1.92c1.26,1.19.56,3,.26,4.47L569,518.72l.91-.38-28.8-14.64-.48,1.14a27.57,27.57,0,0,1,17.2,22.93l.94-.54-23.11-16.82c-.42-.31-.91.11-.94.54a14.1,14.1,0,0,1-13.69,12.74.64.64,0,0,0-.32,1.17,50.6,50.6,0,0,0,21.81,9.36l.16-1.23a103.1,103.1,0,0,1-27.52-4.86c-1-.33-2.08-.69-3.11-1.06s-2.4-.73-3.11-1.72a7,7,0,0,1-.78-3.3c-.11-1-.18-2.07-.2-3.11a41.95,41.95,0,0,1,7.58-25.15c.47-.67-.62-1.29-1.08-.64Z" transform="translate(-170.28 -246.67)"/><path class="cls-1" d="M507.87,530.47l-3.51,59.11-1,16.71.46-.6c-8.16,2.22-16.29-1.12-23.53-4.71s-14.52-8.21-22.62-9.78a21.65,21.65,0,0,0-12.36,1l.71.28c-1.72-3.93,1.74-7.72,1.49-11.66-.15-2.3-1.34-5.33-3.84-5.92-2.92-.69-4.45,2.28-4.61,4.7a26.68,26.68,0,0,0,.48,5.41l.93,6.83,2.18,16.1.61-.79c-14.35-.34-29.58,1-42.21,8.43-10.85,6.36-18.49,17.64-19.13,30.37a26.24,26.24,0,0,0,5.85,18.35.63.63,0,0,0,1-.12,34.33,34.33,0,0,1,26.89-18.88c11.73-1.22,22.76,4.17,33.24,8.65a92.31,92.31,0,0,0,16.2,5.66,52.68,52.68,0,0,0,15.9.6c4.64-.37,9.78-1,14.25.68a8.68,8.68,0,0,1,4.91,4.25c1.53,3.05.95,6.57.26,9.76a219.23,219.23,0,0,1-15.22,45.52.63.63,0,0,0,1.08.63,460.45,460.45,0,0,0,38.61-62.62A462.43,462.43,0,0,0,553,590.74q6.38-19.61,11-39.71a.63.63,0,0,0-1.21-.33,286.05,286.05,0,0,1-33.47,74.46q-6.12,9.63-13,18.76l1.16.31a44.78,44.78,0,0,0-15.36-29.59l-.61,1c4.28.93,7.44-2.07,9.22-5.67,2.42-4.9,2.56-10.32,2.83-15.66a300,300,0,0,0-.84-42.71q-1.09-11.88-3.11-23.65c-.14-.79-1.34-.45-1.21.33a300.38,300.38,0,0,1,4.13,40.14q.33,9.76,0,19.54-.15,5.13-.48,10.25a35.48,35.48,0,0,1-1,7.32c-1.14,4.15-4,10-9.21,8.91-.57-.13-1.12.61-.61,1a43.57,43.57,0,0,1,15,28.71.64.64,0,0,0,1.17.32,287.76,287.76,0,0,0,39.28-71.44q4.11-10.89,7.31-22.08l-1.21-.33A460.68,460.68,0,0,1,508,686.14q-10.63,17.65-22.84,34.28l1.08.63a224.78,224.78,0,0,0,14.53-42.19c1.28-5.45,3.2-12.23-1.3-16.76-3.29-3.3-8.47-3.59-12.85-3.48-5.35.13-10.67,1.1-16,.61-6.13-.57-12-2.62-17.69-4.92-11-4.49-22.11-10.57-34.33-10.43a35.5,35.5,0,0,0-30.93,19.67l1-.13c-7.76-9.27-6.55-22.71-1-32.74,6.57-11.77,19.08-18,31.89-20.57a108,108,0,0,1,23.68-1.71.63.63,0,0,0,.6-.79L441.74,592l-1-7.32c-.28-2-.8-4.31-.25-6.35.5-1.83,2.38-3,4-1.61a6.17,6.17,0,0,1,1.79,4.4c0,2.16-1,4.25-1.56,6.31a8.52,8.52,0,0,0,.23,5.68.63.63,0,0,0,.71.29c7.76-3.13,15.79-.39,23,3,7.49,3.59,14.68,8.22,22.8,10.31a24.87,24.87,0,0,0,12.76.16.65.65,0,0,0,.45-.61l3.51-59.11,1-16.71c0-.8-1.21-.8-1.25,0Z" transform="translate(-170.28 -246.67)"/><path class="cls-1" d="M444.08,670.11a52.93,52.93,0,0,0,32.6,8.49l-.54-.94c-2.55,5.38-9.22,7.39-14.74,6-6.58-1.63-11.26-7.33-14.36-13-.39-.71-1.47-.08-1.08.63,3.34,6.13,8.56,12.31,15.75,13.74,5.88,1.18,12.81-1,15.51-6.74a.63.63,0,0,0-.54-.94,51.87,51.87,0,0,1-32-8.32c-.68-.44-1.3.64-.63,1.08Z" transform="translate(-170.28 -246.67)"/><path class="cls-1" d="M471.93,632.72a19.79,19.79,0,0,0-9.63,9.92.63.63,0,0,0,.1.76,15.1,15.1,0,0,0,16.29,2.07.64.64,0,0,0,.23-.86L469.79,632c-.47-.64-1.55,0-1.08.63l9.13,12.59.22-.85a13.79,13.79,0,0,1-14.78-1.88l.1.76a18.74,18.74,0,0,1,9.18-9.47c.73-.35.1-1.43-.63-1.08Z" transform="translate(-170.28 -246.67)"/><path class="cls-1" d="M461.08,504.64l-28.34,1.49c-.8.05-.8,1.3,0,1.25l28.34-1.49c.8,0,.8-1.29,0-1.25Z" transform="translate(-170.28 -246.67)"/><path class="cls-1" d="M281.63,613a74.73,74.73,0,0,1-3-37.83l-1.23-.16A148.51,148.51,0,0,0,293,635.3a173.74,173.74,0,0,0,37.88,50.49A212.57,212.57,0,0,0,384,721.37a254.24,254.24,0,0,0,30,12c10.07,3.32,20.42,6.41,31,7.57,10.11,1.1,20.85.18,29.59-5.46a33.69,33.69,0,0,0,14.77-23.39,32.23,32.23,0,0,0,.22-6.87c-.06-.8-1.31-.81-1.25,0a32.57,32.57,0,0,1-10.23,25.95c-7.65,7.11-18.21,9.31-28.37,8.88-10.45-.45-20.68-3.29-30.61-6.36a258.28,258.28,0,0,1-29.73-11.2,216.69,216.69,0,0,1-53-33.42,175,175,0,0,1-39-48.06,150.1,150.1,0,0,1-18.21-58.53c-.22-2.5-.36-5-.45-7.52,0-.67-1.09-.89-1.22-.17a75.94,75.94,0,0,0,3,38.49c.26.76,1.47.43,1.21-.33Z" transform="translate(-170.28 -246.67)"/><path class="cls-1" d="M217.5,492.89c14.69-3.77,29.54,3.51,39.71,13.83a98.45,98.45,0,0,1,13.53,18c1.94,3.19,4.45,6.64,5.24,10.34.92,4.27-2.35,8-4.46,11.41l-15.3,24.75,1-.13c-4.75-4.77-11.28-12.2-7.2-19.31,1.55-2.7,4.3-4.45,7.08-5.67a37.61,37.61,0,0,1,4.47-1.57,24.68,24.68,0,0,0,4.26-1.2,2.34,2.34,0,0,0,1.17-3.24,43.91,43.91,0,0,0-2.15-4.8A57.59,57.59,0,0,0,259,526a59.27,59.27,0,0,0-7.3-7.89,33.88,33.88,0,0,0-8.8-6.07,12.58,12.58,0,0,0-10.36-.32,8.66,8.66,0,0,0-5.34,7.27l1.17-.32c-2.32-3-1.41-6.75-.37-10.09.52-1.67,1.12-3.31,1.59-5,.4-1.43.9-3.12.32-4.57a4.65,4.65,0,0,0-2.89-2.28,27.69,27.69,0,0,0-4.63-1.47c-2.9-.61-5.94-.48-8.22,1.61l1,.12a8.2,8.2,0,0,1-.5-6l-.6.46,3.18-.16c.8,0,.81-1.29,0-1.25l-3.18.16a.65.65,0,0,0-.6.46,9.51,9.51,0,0,0,.62,6.95.64.64,0,0,0,1,.12c2.33-2.14,5.65-1.73,8.46-.92a18.85,18.85,0,0,1,4.13,1.55c1.87,1.06,1.2,3.18.73,4.87-1.39,5-4.77,11.28-1.09,16.06a.63.63,0,0,0,1.16-.32c.17-3.21,2.77-5.62,5.7-6.57,3.45-1.11,7.11,0,10.16,1.72,6,3.4,11.12,8.88,15.06,14.46a57.71,57.71,0,0,1,5.11,8.81c.4.88.79,1.76,1.15,2.66a2.05,2.05,0,0,1,.11,1.88c-.22.35-1,.49-1.35.59-1.39.37-2.79.69-4.17,1.12-4.95,1.54-10.38,4.17-12.16,9.44-2.47,7.3,3.51,14.11,8.26,18.89a.62.62,0,0,0,1-.12l14.53-23.49c1.2-1.94,2.41-3.88,3.6-5.82a12,12,0,0,0,2-4.84c.44-3.95-2-7.63-3.93-10.87-7.74-13.21-17.45-26.35-31.9-32.64-7.66-3.33-16.22-4.58-24.38-2.49a.63.63,0,0,0,.33,1.21Z" transform="translate(-170.28 -246.67)"/><line class="cls-2" x1="40.69" y1="476.19" x2="22" y2="531"/><line class="cls-2" x1="236.36" y1="567.3" x2="181.05" y2="583.74"/><line class="cls-2" x1="22" y1="531" x2="181.05" y2="583.74"/><line class="cls-2" x1="236.36" y1="567.3" x2="282.38" y2="609.26"/><line class="cls-2" x1="405.36" y1="631.95" x2="282.38" y2="609.26"/><line class="cls-2" x1="61.15" y1="468.62" x2="69.07" y2="447.07"/><line class="cls-2" x1="103.46" y1="346.3" x2="92.41" y2="438.06"/><line class="cls-2" x1="161.31" y1="457.35" x2="92.41" y2="438.06"/><line class="cls-2" x1="69.07" y1="447.07" x2="175.23" y2="468.62"/></svg>