<svg xmlns="http://www.w3.org/2000/svg" xmlns:xlink="http://www.w3.org/1999/xlink" viewBox="0 0 996 948"><defs><style>.cls-1{fill:none;stroke:#000;stroke-miterlimit:10;}.cls-2{fill:#fff;}.cls-3{fill:#d6f2ff;}.cls-12,.cls-19,.cls-4{font-size:36px;}.cls-12,.cls-4,.cls-9{font-family:FootlightMTLight;}.cls-5{letter-spacing:-0.01em;}.cls-6{letter-spacing:-0.01em;}.cls-7{letter-spacing:-0.01em;}.cls-8{letter-spacing:0em;}.cls-13,.cls-14,.cls-9{font-size:18px;}.cls-14,.cls-9{fill:gray;}.cls-10{letter-spacing:-0.01em;}.cls-11{letter-spacing:0em;}.cls-12{fill:#999;}.cls-13{fill:#b3b3b3;}.cls-13,.cls-14,.cls-19{font-family:Gadugi;}.cls-15{letter-spacing:-0.01em;}.cls-16{letter-spacing:0em;}.cls-17{letter-spacing:0.01em;}.cls-18{letter-spacing:-0.01em;}.cls-20{letter-spacing:0em;}.cls-21{letter-spacing:0em;}.cls-22{letter-spacing:-0.01em;}.cls-23{letter-spacing:0em;}.cls-24{letter-spacing:-0.01em;}.cls-25{letter-spacing:0.01em;}.cls-26{letter-spacing:-0.01em;}.cls-27{letter-spacing:0.01em;}</style></defs><g id="timeline"><g id="vertical_line"><line class="cls-1" x1="63.5" y1="441.5" x2="63.29" y2="942.15"/></g><circle id="point1" cx="179.5" cy="942.5" r="5.5"/><circle id="point2" cx="825.5" cy="942.5" r="5.5"/><circle id="point3" cx="660.5" cy="942.5" r="5.5"/><circle id="point4" cx="503.5" cy="942.5" r="5.5"/><circle id="point5" cx="339.5" cy="941.5" r="5.5"/><circle id="point6" cx="990.5" cy="941.5" r="5.5"/><line id="line1" class="cls-1" x1="63.5" y1="942.5" x2="179.5" y2="942.5"/><line id="line2" class="cls-1" x1="185" y1="942.5" x2="339.5" y2="942.5"/><line id="line3" class="cls-1" x1="342.5" y1="942.5" x2="503.5" y2="942.75"/><line id="line4" class="cls-1" x1="503.46" y1="942.75" x2="657.96" y2="942.75"/><line id="line5" class="cls-1" x1="660.5" y1="942.5" x2="820.96" y2="942.75"/><line id="line6" class="cls-1" x1="830.46" y1="942.75" x2="990.5" y2="942.5"/><g id="infobox"><rect class="cls-2" x="2" y="2" width="836" height="302"/><path d="M836-339V-41H4V-339H836m4-4H0V-37H840V-343Z" transform="translate(0 343)"/></g><rect class="cls-3" x="2" y="2" width="836" height="302"/><path d="M836-339V-41H4V-339H836m4-4H0V-37H840V-343Z" transform="translate(0 343)"/><text class="cls-4" transform="translate(217.99 45.11)"><tspan class="cls-5">T</tspan><tspan x="17.64" y="0">he i</tspan><tspan class="cls-6" x="71.71" y="0">n</tspan><tspan class="cls-7" x="91.22" y="0">v</tspan><tspan x="108.18" y="0">e</tspan><tspan class="cls-8" x="126.21" y="0">n</tspan><tspan x="146.05" y="0">tion of the lig</tspan><tspan class="cls-8" x="346.28" y="0">h</tspan><tspan x="366.11" y="0">t bulb</tspan></text><text class="cls-9" transform="translate(217.99 69.11)"><tspan class="cls-10">b</tspan><tspan x="10.12" y="0">y </tspan><tspan class="cls-11" x="22.41" y="0">E</tspan><tspan x="31.19" y="0">dison</tspan></text><text class="cls-12" transform="translate(730.99 79.11)">1879</text><text class="cls-13" transform="translate(217.99 118.11)">2h 22min</text><text class="cls-14" transform="translate(217.99 158.11)">Di<tspan class="cls-15" x="16.2" y="0">r</tspan><tspan class="cls-16" x="21.91" y="0">e</tspan><tspan class="cls-17" x="30.92" y="0">c</tspan><tspan class="cls-18" x="39.22" y="0">t</tspan><tspan x="45.07" y="0">ed </tspan><tspan class="cls-10" x="68.06" y="0">b</tspan><tspan x="78.17" y="0">y</tspan></text><text class="cls-19" transform="translate(217.99 199.11)"><tspan class="cls-20">A</tspan><tspan class="cls-21" x="21.92" y="0">l</tspan><tspan class="cls-22" x="30.42" y="0">f</tspan><tspan class="cls-23" x="40.46" y="0">onso </tspan><tspan class="cls-24" x="121.86" y="0">C</tspan><tspan x="142.31" y="0">ua</tspan><tspan class="cls-7" x="179.5" y="0">r</tspan><tspan class="cls-23" x="190.91" y="0">ón</tspan></text><text class="cls-14" transform="translate(217.99 244.11)"><tspan class="cls-25">S</tspan><tspan x="8.98" y="0">c</tspan><tspan class="cls-15" x="17.05" y="0">r</tspan><tspan x="22.75" y="0">eenpl</tspan><tspan class="cls-26" x="65.27" y="0">a</tspan><tspan class="cls-16" x="73.8" y="0">y </tspan><tspan class="cls-10" x="86.09" y="0">b</tspan><tspan x="96.21" y="0">y</tspan></text><text class="cls-19" transform="translate(217.99 278.11)"><tspan class="cls-20">S</tspan><tspan class="cls-18" x="17.64" y="0">t</tspan><tspan x="29.34" y="0">e</tspan><tspan class="cls-7" x="47.38" y="0">v</tspan><tspan x="64.33" y="0">e </tspan><tspan class="cls-27" x="90" y="0">K</tspan><tspan x="109.87" y="0">l</tspan><tspan class="cls-10" x="118.37" y="0">o</tspan><tspan class="cls-15" x="137.88" y="0">v</tspan><tspan x="154.83" y="0">es</tspan></text><image id="poster" width="512" height="512" transform="translate(0.05 36.64) scale(0.46)" xlink:href="nightlife_2.png"/></g></svg>