<svg xmlns="http://www.w3.org/2000/svg" viewBox="0 0 1780.87 407.93"><defs><style>.cls-1,.cls-2{fill:none;stroke-miterlimit:10;}.cls-1{stroke:#231f20;stroke-width:3px;}.cls-2{stroke:#000;stroke-width:2px;}</style></defs><title>Asset 2</title><g id="Layer_2" data-name="Layer 2"><g id="Layer_1-2" data-name="Layer 1"><g id="timeline"><g id="vertical_line" data-name="vertical line"><line class="cls-1" x1="1.72" x2="1.5" y2="396.6"/></g><line id="line1" class="cls-1" x1="1.72" y1="396.8" x2="123.15" y2="396.8"/><line id="line2" class="cls-1" x1="145.75" y1="396.8" x2="299.57" y2="396.8"/><line id="line3" class="cls-1" x1="322.17" y1="396.8" x2="480.4" y2="397"/><line id="line4" class="cls-1" x1="502.75" y1="397" x2="654.89" y2="397"/><line id="line5" class="cls-1" x1="677.48" y1="397" x2="838.53" y2="397.2"/><line id="line6" class="cls-1" x1="861.14" y1="397" x2="1022.18" y2="396.8"/><line id="line7" class="cls-1" x1="1044.78" y1="396.7" x2="1205.83" y2="396.5"/><line id="line8" class="cls-1" x1="1228.43" y1="396.6" x2="1389.47" y2="396.4"/><line id="line9" class="cls-1" x1="1412.08" y1="396.5" x2="1573.12" y2="396.3"/><line id="line10" class="cls-1" x1="1595.72" y1="396.4" x2="1756.76" y2="396.2"/><g id="bullets"><ellipse id="point10" class="cls-1" cx="1768.07" cy="396.5" rx="11.3" ry="9.42"/><ellipse id="point9" class="cls-1" cx="1584.42" cy="396.3" rx="11.3" ry="9.42"/><ellipse id="point8" class="cls-1" cx="1400.77" cy="396.4" rx="11.3" ry="9.42"/><ellipse id="point7" class="cls-1" cx="1217.13" cy="396.5" rx="11.3" ry="9.42"/><ellipse id="point6" class="cls-1" cx="1033.48" cy="396.8" rx="11.3" ry="9.42"/><ellipse id="point5" class="cls-1" cx="849.83" cy="397" rx="11.3" ry="9.42"/><ellipse id="point4" class="cls-1" cx="666.19" cy="397" rx="11.3" ry="9.42"/><ellipse id="point3" class="cls-1" cx="491.45" cy="397" rx="11.3" ry="9.42"/><ellipse id="point2" class="cls-1" cx="310.87" cy="396.8" rx="11.3" ry="9.42"/><ellipse id="point1" class="cls-1" cx="134.45" cy="396.8" rx="11.3" ry="9.42"/></g></g><g id="infoline"><line class="cls-2" x1="134.45" y1="386.98" x2="134.45" y2="326.13"/></g></g></g></svg>