<svg id="Layer_2" data-name="Layer 2" xmlns="http://www.w3.org/2000/svg" viewBox="0 0 592.06 1011.47"><defs><style>.cls-1{fill:#fff;}</style></defs><title>turbine</title><path class="cls-1" d="M397.77,1028q3.32-125.67,6.53-251.35c2-84.11,3.73-168.22,4.48-252.34q.63-70.83.27-141.66c0-3.21-5-3.22-5,0,.49,84.14-.29,168.27-1.75,252.39s-3.6,168.2-5.81,252.29L392.77,1028c-.09,3.22,4.91,3.21,5,0Z" transform="translate(-105.85 -23.3)"/><path class="cls-1" d="M450.25,1028q-7-122-10.52-244.21-3.51-121.72-3.58-243.52,0-68.36,1-136.7c.05-3.22-4.95-3.22-5,0q-1.86,122.4-.26,244.83,1.59,121.71,6.63,243.34,2.82,68.16,6.73,136.26c.18,3.2,5.18,3.22,5,0Z" transform="translate(-105.85 -23.3)"/><path class="cls-1" d="M437.4,398.64l.24-9.49-4.27,1.77q23.14,21.24,47.14,41.54t48.78,39.61q24.86,19.35,50.47,37.72t51.8,35.56q26.25,17.25,53.2,33.44l6.66,4a2.54,2.54,0,0,0,3-.39c7.17-7.59,1.83-18-3.66-24.85-3.38-4.17-7.52-7.75-11.37-11.47L666.09,533.2,613.9,482.83l-52.37-50.56-26.1-25.19c-7.58-7.32-15.09-15.28-24.45-20.37s-19.56-5.89-29.91-5.55c-9.9.32-20.11,1.65-29.89-.53a35.13,35.13,0,0,1-6.79-2.18,2.59,2.59,0,0,0-3.42.9,2.52,2.52,0,0,0,.9,3.42c9.3,4.14,19.42,4.29,29.42,3.84,9.79-.44,19.9-1.45,29.46,1.25s17.17,9.37,24.2,16.07c8.54,8.13,17,16.37,25.45,24.55L601.67,478l51.26,49.48,25.73,24.83c3.56,3.44,7.31,6.76,10.14,10.87,2.24,3.25,4.54,7.31,4.14,11.42a7.27,7.27,0,0,1-2,4.27l3-.39q-26.91-16-53.17-33T589,510.25q-25.63-18.17-50.53-37.35-24.72-19.06-48.65-39.12t-47.17-41.16l-5.74-5.23a2.52,2.52,0,0,0-4.26,1.76l-.24,9.49c-.08,3.22,4.92,3.21,5,0Z" transform="translate(-105.85 -23.3)"/><path class="cls-1" d="M433.28,392c8.18-.36,13.43-8.32,13.39-16,0-9-7.61-15.48-15.66-18A30.76,30.76,0,0,0,417.2,357c-5.09.82-9,4.26-11.36,8.77a23,23,0,0,0,3,25.22c6.62,7.6,18.48,9.41,27.27,4.75,2.85-1.5.32-5.82-2.52-4.31a18,18,0,0,1-18.94-1.79c-5.48-4.28-7.44-11.91-5.56-18.48,1-3.34,3-6.82,6.24-8.41s7.74-1.32,11.26-.65c6.27,1.2,13.29,4.92,14.86,11.48a12.6,12.6,0,0,1-1.36,8.82c-1.49,2.63-3.9,4.53-6.76,4.65-3.2.15-3.22,5.15,0,5Z" transform="translate(-105.85 -23.3)"/><path class="cls-1" d="M434.92,362.87q2.86-35.6,6.53-71.12,3.65-35.36,8.08-70.62t9.64-70.43c1.72-11.55,3.53-23.08,5.33-34.62,1.53-9.8,2.93-19.64,3.65-29.53,1.36-19,.1-38.9-9.12-55.92a65.7,65.7,0,0,0-3.8-6.16c-1.14-1.65-4.07-1.65-4.57.59q-8.34,37.38-16.5,74.78T418,174.69q-8,37.44-15.84,74.92c-2.61,12.45-5.25,24.9-7.77,37.37-1.17,5.75-2.13,11.63-1.08,17.46.94,5.22,3.94,9.5,6.88,13.77s5.23,8.57,5.17,14c-.06,5.64-1.62,11.19-1.26,16.85.49,7.63,7.7,16.86,16.23,15.05a8.41,8.41,0,0,0,4.65-2.89c2-2.45-1.47-6-3.54-3.53s-5.19,1.62-7.59-.18a12,12,0,0,1-4.8-9.63c-.1-5.46,1.36-10.8,1.31-16.25a25.75,25.75,0,0,0-4.68-14.19c-2.63-4-5.88-7.83-7.15-12.55-1.46-5.43-.41-11.18.68-16.58,2.44-12,5-24,7.49-36.06Q414.26,216.08,422,180t15.57-72.23q7.9-36.26,16-72.49,1-4.43,2-8.85l-4.57.6c11,15.84,13.36,35.2,12.55,54-.89,21-5.11,41.71-8.22,62.41q-5.25,35-9.75,70.08t-8.21,70.28q-3.7,35.18-6.65,70.43c-.25,2.88-.48,5.77-.71,8.65-.26,3.21,4.74,3.19,5,0Z" transform="translate(-105.85 -23.3)"/><path class="cls-1" d="M399.54,369.76c-4.48,1.95-9,3.89-13.43,5.9-4.86,2.2-9.6,4.68-14.48,6.82-9.94,4.36-19.92,8.61-29.89,12.91s-20,8.68-29.88,13.23q-7.58,3.48-15.07,7.13c-2.52,1.23-5,2.47-7.53,3.74-2.3,1.16-4.56,2.54-6.95,3.49-4.52,1.82-9.49,2-13.95,4-4.86,2.2-9.64,4.6-14.45,6.89q-14.39,6.84-28.74,13.73c-19.13,9.21-38.18,18.6-56.91,28.59-18.58,9.9-36.86,20.4-54.54,31.84q-3.34,2.16-6.66,4.38a2.57,2.57,0,0,0-.9,3.42c2,4,4.43,7.57,9.23,8.44,6,1.09,12.09-1.11,17.85-2.58,12.71-3.23,25.28-7.29,37.79-11.21,24.34-7.63,48.46-15.93,72.5-24.47s47.9-17.28,71.9-25.81q9-3.19,18-6.34c5.51-1.92,11-3.78,16.37-6.12A116.2,116.2,0,0,0,375.9,432,107.4,107.4,0,0,0,396.51,410c6.18-8.79,11.93-19.28,10.53-30.42a29.82,29.82,0,0,0-2.66-8.89,2.52,2.52,0,0,0-3.42-.89,2.55,2.55,0,0,0-.9,3.42,23.63,23.63,0,0,1,1.35,16,43.31,43.31,0,0,1-2.68,7.75,58,58,0,0,1-3.71,6.32,103.28,103.28,0,0,1-18.7,21.94,108.71,108.71,0,0,1-24.15,16c-10.18,5-21.15,8.24-31.83,12-23.15,8.18-46.22,16.61-69.34,24.88s-46.4,16.41-69.82,24q-18,5.79-36.09,11.1c-6,1.76-12.08,3.36-18.14,5-4.27,1.15-10.72,3.19-14.18-.74a17.83,17.83,0,0,1-2.29-4.06l-.9,3.42c17.61-11.72,35.84-22.47,54.43-32.57s37.45-19.53,56.46-28.75c9.63-4.67,19.29-9.27,28.95-13.88l14.28-6.8c2.37-1.12,4.71-2.34,7.11-3.39a37.64,37.64,0,0,1,6.85-1.92,39.18,39.18,0,0,0,7-2.06c2.54-1.08,5-2.48,7.42-3.73q7.35-3.71,14.81-7.22c10-4.71,20-9.19,30.14-13.59,9.95-4.33,19.93-8.58,29.89-12.89,9.59-4.17,19-8.81,28.54-13l6.65-2.9a2.51,2.51,0,0,0,.89-3.42,2.57,2.57,0,0,0-3.42-.89Z" transform="translate(-105.85 -23.3)"/><path class="cls-1" d="M385.75,1030.51q27.93.33,55.78,2.72,7.88.69,15.74,1.53a2.52,2.52,0,0,0,2.5-2.5,2.55,2.55,0,0,0-2.5-2.5q-27.76-3-55.71-3.9-7.9-.25-15.81-.35c-3.22,0-3.22,5,0,5Z" transform="translate(-105.85 -23.3)"/></svg>