<svg id="turbine" data-name="Layer 2" xmlns="http://www.w3.org/2000/svg" viewBox="0 0 597.03 1016.51"><defs><style>.cls-1{fill:#fff;}</style></defs><title>turbine</title><path class="cls-1" d="M400.27,1028q3.32-125.67,6.53-251.35c2-84.11,3.73-168.22,4.48-252.34q.63-70.83.27-141.66c0-6.43-10-6.44-10,0,.49,84.14-.29,168.27-1.75,252.39s-3.6,168.2-5.81,252.29L390.27,1028c-.17,6.44,9.83,6.43,10,0Z" transform="translate(-103.38 -20.76)"/><path class="cls-1" d="M452.75,1028q-7-122-10.52-244.21-3.51-121.72-3.58-243.52,0-68.36,1-136.7c.1-6.44-9.9-6.44-10,0q-1.86,122.4-.26,244.83Q431,770.12,436,891.75q2.82,68.16,6.73,136.26c.37,6.4,10.37,6.44,10,0Z" transform="translate(-103.38 -20.76)"/><path class="cls-1" d="M439.9,398.64l.24-9.49-8.54,3.54q23.16,21.24,47.14,41.54t48.79,39.6q25.1,19.56,51,38.12,25.54,18.3,51.81,35.56T683.49,581l6.67,4a5.1,5.1,0,0,0,6.06-.78,15.83,15.83,0,0,0,3.72-14.81c-1.16-5.07-4.16-9.59-7.39-13.57-3.38-4.18-7.51-7.75-11.37-11.48l-13.32-12.86-52.19-50.37L563.29,430.5,537.2,405.32c-7.74-7.47-15.42-15.58-25-20.77s-20.37-6.24-31.17-5.89c-5.06.17-10.12.54-15.18.63-2.57,0-5.13,0-7.69-.17q-1.68-.12-3.36-.33c1.27.16-.71-.12-.95-.16-.68-.12-1.37-.25-2.05-.41-1.16-.25-2.3-.56-3.44-.92l-1.59-.54-1-.38c-.79-.3,1.07.47-.18-.08-2.38-1.06-5.48-.78-6.84,1.79-1.15,2.18-.76,5.71,1.79,6.84,9.75,4.34,20.2,4.65,30.69,4.18,5-.23,10-.56,15-.53a74.62,74.62,0,0,1,7.47.41l1,.12c-.18,0-1-.16-.07,0l1.67.29c1.25.24,2.48.53,3.71.87s2.18.67,3.24,1.07l.8.32c-.94-.38-.05,0,.19.09.58.27,1.16.54,1.74.83a51.64,51.64,0,0,1,6.4,3.91l1.57,1.15c.15.11.75.58,0,0l.68.53c1,.82,2,1.66,3,2.51,1.86,1.62,3.67,3.3,5.45,5,8.54,8.13,17,16.37,25.46,24.55Q574.26,455,599.9,479.73l51.26,49.48L676.89,554c2,1.93,4.05,3.82,6,5.82.73.76,1.43,1.55,2.11,2.36.19.23,1.14,1.41.48.56.41.53.81,1.07,1.19,1.63.64.93,1.24,1.89,1.79,2.88.29.51.56,1,.81,1.55a3.51,3.51,0,0,1,.32.7c.08-.35-.31-.78,0,0a19.92,19.92,0,0,1,.85,2.95c.17.74.1-.2,0-.3a2.76,2.76,0,0,1,.07.68c0,.56,0,1.11,0,1.67,0,.78-.14-.31.06-.35,0,0-.15.69-.14.64-.05.21-.13.42-.18.63-.23,1,.13-.33.15-.27s-.53,1-.63,1.19-.75.89-.22.35-.29.27-.33.32l6.06-.79q-26.91-16-53.17-33t-51.79-35.16q-25.63-18.16-50.53-37.35l-.74-.58c-.64-.49.53.41-.11-.08l-1.49-1.15-3.15-2.46c-2.05-1.59-4.08-3.18-6.12-4.79q-6.2-4.87-12.34-9.81-12.19-9.81-24.19-19.86-24-20.1-47.17-41.16l-5.74-5.23a5.06,5.06,0,0,0-8.53,3.53l-.24,9.49a5,5,0,0,0,10,0Z" transform="translate(-103.38 -20.76)"/><path class="cls-1" d="M433.28,394.52c9.56-.42,15.94-9.4,15.89-18.51-.05-10.18-8.36-17.55-17.5-20.39a33.41,33.41,0,0,0-15.13-1.06c-5.68.93-10.27,4.88-12.86,9.92A25.61,25.61,0,0,0,407,392.73c7.38,8.46,20.57,10.29,30.3,5.14a5,5,0,0,0,1.8-6.84,5.13,5.13,0,0,0-6.85-1.79,6.15,6.15,0,0,0-1.26.62s.91-.35.39-.17l-.66.24a19.28,19.28,0,0,1-2.71.71c-1.17.22.69,0-.23.05-.46,0-.93.08-1.4.1a26.11,26.11,0,0,1-2.8-.09c-.93-.08,1,.18-.24,0-.41-.07-.81-.15-1.21-.25a26.8,26.8,0,0,1-2.68-.82c-.85-.29.78.37-.26-.12-.42-.2-.84-.42-1.25-.65s-.7-.41-1-.63l-.58-.39c-.77-.51.49.44,0,0a20.22,20.22,0,0,1-1.8-1.66c-.12-.13-1.14-1.23-.65-.71s0,.06,0-.06l-.51-.73c-.48-.75-.88-1.53-1.29-2.32-.25-.49.09-.38.08.22a1.78,1.78,0,0,0-.19-.5c-.19-.5-.35-1-.5-1.52a11.78,11.78,0,0,0-.54-2.43c.31.53.09.84,0,.27,0-.24-.05-.48-.06-.71,0-.48-.06-.95-.06-1.43s0-.95,0-1.42c0-.24.1-1.5.05-.75s.09-.53.14-.74c.1-.53.23-1,.38-1.56s.23-.79.37-1.18a3.56,3.56,0,0,1,.25-.66c-.05.06-.5,1.05-.08.21a23.07,23.07,0,0,1,1.4-2.47c.1-.15.22-.3.32-.46.39-.6-.54.58,0,.06.32-.35.61-.71.95-1.05s1.44-1.1.52-.52c.46-.29.91-.58,1.39-.84.82-.45.17-.07,0,0,.26-.09.53-.19.8-.27.48-.14,1-.2,1.45-.34.73-.2-.81.06,0,0l.64-.07c.64-.05,1.29-.07,1.93-.07a27,27,0,0,1,2.7.1c.21,0,1.56.11.77.06s-.1,0,.05,0c.35.06.71.11,1.06.18.83.16,1.65.35,2.45.58A8.33,8.33,0,0,1,431,366c-.08-.07-1.05-.48-.21-.09l.64.3c.37.18.73.37,1.1.57.82.45,1.58,1,2.35,1.5.46.31-.31-.23-.32-.25a3,3,0,0,0,.53.44c.31.27.6.54.89.82s.64.66,1,1c.07.08.23.35.33.39l-.25-.33.2.28c.51.73.9,1.49,1.34,2.26s-.32-1,0,0c.14.43.28.85.38,1.29,0,.2.08.39.13.59.17.67-.06-.24,0-.44a12.44,12.44,0,0,0,.1,1.35q0,.68,0,1.35a3.52,3.52,0,0,0,0,.45c0,.62.21-1.16,0-.28a19.28,19.28,0,0,1-.62,2.49c-.07.19-.15.37-.21.56-.17.59.5-1,.1-.23-.18.35-.34.71-.54,1.06s-.46.75-.7,1.11c-.11.17-.49.72,0,.08s-.07.06-.17.16a10.32,10.32,0,0,1-.8.82,3.29,3.29,0,0,0-.43.37c.11-.25,1-.65.23-.18-.32.2-.63.41-1,.59l-.5.25c-.51.3,1.11-.36.28-.13-.36.1-.72.23-1.09.31a2.74,2.74,0,0,0-.57.11l.75-.11-.6,0c-2.61.12-5.12,2.22-5,5,.12,2.61,2.2,5.13,5,5Z" transform="translate(-103.38 -20.76)"/><path class="cls-1" d="M437.42,362.87q2.86-35.6,6.53-71.12,3.65-35.36,8.08-70.62,4.38-34.95,9.55-69.76c1.72-11.55,3.53-23.09,5.33-34.63,1.56-10,3-20.07,3.74-30.19,1.39-19.41,0-39.77-9.47-57.18a63.66,63.66,0,0,0-3.8-6.16,5,5,0,0,0-5-2.39,5,5,0,0,0-4.15,3.58q-8.34,37.37-16.5,74.78T415.58,174q-8,37.46-15.83,74.92c-2.61,12.46-5.25,24.91-7.77,37.38-1.26,6.22-2.22,12.48-1.08,18.79,1,5.42,4.07,9.92,7.13,14.37a40.87,40.87,0,0,1,3.74,6.27c-.29-.65.28.79.34,1,.2.62.35,1.25.5,1.89a16.23,16.23,0,0,1,.25,3.59c-.06,5.64-1.62,11.19-1.26,16.85a19.11,19.11,0,0,0,6.18,13.11c3.58,3.25,8.32,5.4,13.21,4.35a10.64,10.64,0,0,0,5.76-3.53c1.73-2.07,2-5,0-7.07-1.78-1.78-5.34-2.09-7.07,0-.14.16-1.09,1.13-.57.68s-.38.18-.53.29c-.54.4.83-.46.25-.13a4.05,4.05,0,0,1-.5.12c.12-.05.95,0,.49-.07a3.53,3.53,0,0,0-.86,0c.71-.11.64.13-.07-.05-.24-.05-1.39-.45-.81-.22s-.45-.23-.62-.33a14.66,14.66,0,0,1-1.35-.86l.21.15-.62-.54c-.31-.29-.6-.59-.89-.9s-.37-.42-.55-.64c.05.06.47.64.15.18a16.34,16.34,0,0,1-.9-1.43c-.1-.17-.6-1.22-.38-.71s-.23-.7-.3-1c-.12-.44-.26-1.17-.13-.27a20.45,20.45,0,0,1-.15-2.35c-.1-5.46,1.36-10.8,1.31-16.25a28.2,28.2,0,0,0-5-15.46c-1.35-2.05-2.82-4-4.13-6.11a33,33,0,0,1-1.7-2.94c-.11-.22-.65-1.49-.44-.95a17,17,0,0,1-.63-1.95c-1.3-4.83-.34-10.2.68-15.24,2.44-12,5-24.05,7.5-36.06q7.54-36.16,15.27-72.3T440,108.4q7.91-36.27,16-72.49,1-4.42,2-8.85l-9.14,1.19a64.77,64.77,0,0,1,10.46,25q.35,1.7.63,3.39c.09.53.17,1.05.25,1.58l.12.79c-.08-.54,0,0,0,.26q.43,3.61.66,7.24A143.12,143.12,0,0,1,461,81c-.2,4.9-.62,9.79-1.16,14.66-.56,5.09-1.07,8.73-1.83,13.8-1.66,11.1-3.47,22.18-5.14,33.29q-5.31,35.31-9.84,70.74-4.49,35.1-8.21,70.28t-6.65,70.43c-.25,2.88-.48,5.77-.71,8.65-.22,2.7,2.45,5,5,5a5.11,5.11,0,0,0,5-5Z" transform="translate(-103.38 -20.76)"/><path class="cls-1" d="M398.28,367.6c-4.48,1.95-9,3.89-13.43,5.9-4.86,2.2-9.6,4.68-14.48,6.82-9.94,4.36-19.92,8.61-29.89,12.91s-20,8.68-29.88,13.23q-7.58,3.5-15.07,7.13-3.78,1.85-7.54,3.74l-3.37,1.72c-.61.31-1.22.62-1.82.94l-1,.51c-.73.37.61-.22-.15.07-4.75,1.86-9.88,2.19-14.56,4.3-4.85,2.2-9.63,4.6-14.44,6.89q-14.39,6.84-28.75,13.73c-19.12,9.21-38.17,18.6-56.9,28.59s-36.86,20.4-54.54,31.84q-3.34,2.18-6.66,4.38a5.15,5.15,0,0,0-1.8,6.84c2.27,4.61,5.32,8.59,10.73,9.59,6.51,1.2,12.92-1,19.17-2.57,12.71-3.24,25.28-7.3,37.79-11.22,24.34-7.63,48.47-15.93,72.5-24.47s47.91-17.28,71.9-25.81q9-3.2,18-6.34c5.72-2,11.42-3.95,17-6.38a117.84,117.84,0,0,0,26.61-16.13,109.58,109.58,0,0,0,21-22.58c6.41-9.11,12.32-20.14,10.87-31.68a33.73,33.73,0,0,0-3-10.15c-1.11-2.38-4.72-3.16-6.84-1.79a5.15,5.15,0,0,0-1.8,6.84c.44.94.28.59.19.37.14.34.27.69.39,1,.24.67.46,1.35.64,2s.31,1.33.44,2c.19,1,.06.38,0,.15q.07.73.12,1.47a30.94,30.94,0,0,1-.1,3.85c0,.17-.14,1,0,.09-.05.31-.1.63-.16.94-.13.7-.29,1.41-.46,2.1-.31,1.25-.69,2.48-1.11,3.7-.24.7-.5,1.38-.76,2.07-.12.3-.24.61-.37.91,0,.11-.54,1.23-.31.78s-.22.36-.27.45l-.44.79-.9,1.55c-.64,1.09-1.3,2.16-2,3.23q-2,3.15-4.23,6.17l-1.05,1.4c.61-.81-.42.53-.56.71-.76,1-1.55,1.91-2.35,2.85a103.58,103.58,0,0,1-10.12,10.3c-.86.76-1.73,1.51-2.62,2.24l-1.34,1.1-.67.53c-1.13.9.79-.59-.36.28-1.9,1.44-3.85,2.83-5.84,4.15A114.31,114.31,0,0,1,350.91,439a105.41,105.41,0,0,1-13.72,5.64q-8.76,3-17.51,6.13c-23.16,8.18-46.22,16.61-69.35,24.88s-46.4,16.4-69.82,24q-18,5.79-36.08,11.1c-6,1.76-12.09,3.35-18.15,5-1.31.36-2.62.72-4,1-.17,0-2,.37-1.13.25a17.74,17.74,0,0,1-2.52.14c-.35,0-.69,0-1,0-.09,0-1-.12-.26,0a9.75,9.75,0,0,1-1.83-.51c1,.38-.3-.27-.57-.43.15.09.76.7.16.1l-.6-.61c-.83-.86.37.69-.21-.3-.22-.36-.43-.71-.63-1.08-.38-.71-.71-1.45-1.06-2.17l-1.8,6.84c17.61-11.72,35.85-22.47,54.43-32.57s37.46-19.53,56.46-28.75q14.45-7,29-13.88l14.27-6.8,3.51-1.67,1.76-.84,1-.48c.07,0,.95-.46.54-.27s.43-.16.54-.2.46-.17.7-.24c.54-.18,1.1-.34,1.66-.49,1.21-.33,2.43-.59,3.65-.87a41.57,41.57,0,0,0,7.26-2.18c2.64-1.12,5.16-2.57,7.72-3.86q7.36-3.7,14.81-7.22c10-4.71,20-9.19,30.14-13.59,9.95-4.33,19.93-8.58,29.89-12.9,9.59-4.16,19-8.8,28.54-13l6.65-2.9c2.41-1,3.14-4.75,1.79-6.84-1.61-2.49-4.26-2.91-6.84-1.79Z" transform="translate(-103.38 -20.76)"/><path class="cls-1" d="M385.75,1033q27.93.33,55.78,2.72,7.88.69,15.74,1.53c2.61.28,5.12-2.5,5-5-.13-3-2.2-4.7-5-5q-27.76-3-55.71-3.9-7.9-.25-15.81-.35a5,5,0,0,0-5,5,5.1,5.1,0,0,0,5,5Z" transform="translate(-103.38 -20.76)"/></svg>