<svg id="Layer_2" data-name="Layer 2" xmlns="http://www.w3.org/2000/svg" viewBox="0 0 494.7 844.57"><defs><style>.cls-1{fill:#fff;}</style></defs><title>turbine</title><path class="cls-1" d="M398.87,945.26q2.76-104.84,5.45-209.67c1.69-70.16,3.11-140.32,3.73-210.5q.54-59.07.23-118.16c0-3.22-5-3.23-5,0,.41,70.18-.24,140.36-1.46,210.53s-3,140.32-4.85,210.47q-1.55,58.67-3.1,117.33c-.09,3.22,4.91,3.22,5,0Z" transform="translate(-154.53 -106.74)"/><path class="cls-1" d="M442.65,945.26q-5.83-101.78-8.78-203.71-2.92-101.53-3-203.14,0-57,.84-114c0-3.21-5-3.22-5,0q-1.56,102.12-.22,204.24,1.33,101.52,5.53,203,2.36,56.85,5.62,113.66c.18,3.2,5.18,3.22,5,0Z" transform="translate(-154.53 -106.74)"/><path class="cls-1" d="M431.93,420.25l.2-7.91-4.27,1.77q19.35,17.76,39.42,34.73t40.61,33q20.7,16.13,42,31.43T593.24,543q21.94,14.43,44.48,28,2.73,1.65,5.49,3.28a2.54,2.54,0,0,0,3-.39c6-6.42,1.83-15.15-2.8-21-2.81-3.53-6.26-6.53-9.5-9.65l-11-10.57-43.81-42.29L535.37,448l-21.9-21.14c-6.31-6.1-12.57-12.71-20.35-16.95s-16.32-5-25-4.7c-8.28.26-16.82,1.4-25-.41a29.8,29.8,0,0,1-5.59-1.78,2.57,2.57,0,0,0-3.42.9,2.53,2.53,0,0,0,.9,3.42c7.83,3.47,16.29,3.63,24.7,3.25,8.1-.36,16.47-1.21,24.39,1s14.26,7.74,20.11,13.3c7,6.7,14,13.49,21,20.23l42.91,41.42,42.73,41.25,21.36,20.62c3,2.9,6.19,5.69,8.59,9.13,1.84,2.65,3.68,5.86,3.49,9.19a5.68,5.68,0,0,1-1.58,3.51l3-.39q-22.49-13.35-44.42-27.61T558,512.9q-21.24-15.06-41.88-31t-40.62-32.66q-20.05-16.8-39.41-34.39l-4.73-4.32a2.53,2.53,0,0,0-4.26,1.77l-.2,7.91c-.08,3.22,4.92,3.22,5,0Z" transform="translate(-154.53 -106.74)"/><path class="cls-1" d="M428.08,415.15c7-.33,11.59-7.06,11.58-13.71,0-7.72-6.41-13.28-13.31-15.44a26.19,26.19,0,0,0-11.73-.92,13.51,13.51,0,0,0-9.75,7.44,19.6,19.6,0,0,0,2.58,21.73c5.69,6.4,15.69,7.85,23.15,3.92,2.85-1.5.33-5.82-2.52-4.32a14.54,14.54,0,0,1-15.31-1.43c-4.45-3.46-6-9.66-4.52-15,.75-2.64,2.37-5.44,4.89-6.72s6.25-1.12,9.08-.59c5.09.94,10.85,3.89,12.19,9.15a10.08,10.08,0,0,1-1.06,7.21,8.36,8.36,0,0,1-2.14,2.52,5.5,5.5,0,0,1-3.13,1.14c-3.2.15-3.22,5.15,0,5Z" transform="translate(-154.53 -106.74)"/><path class="cls-1" d="M429.86,390.42q2.4-29.7,5.45-59.33t6.74-58.91q3.68-29.37,8-58.64c1.43-9.64,2.94-19.26,4.44-28.89,1.28-8.21,2.46-16.45,3.06-24.74,1.14-15.89.06-32.59-7.67-46.86a54,54,0,0,0-3.17-5.13c-1.14-1.65-4.07-1.66-4.57.59q-6.94,31.17-13.76,62.38t-13.48,62.44q-6.68,31.23-13.21,62.49c-2.18,10.39-4.38,20.78-6.49,31.18-1,4.87-1.79,9.84-.9,14.79.79,4.39,3.31,8,5.78,11.58s4.31,7,4.26,11.47c-.05,4.7-1.35,9.33-1.05,14.05.42,6.68,6.66,14.5,14.06,13a7.35,7.35,0,0,0,4.07-2.52,2.57,2.57,0,0,0,0-3.53,2.53,2.53,0,0,0-3.54,0A2.65,2.65,0,0,1,415.3,387a7.38,7.38,0,0,1-3.22-1.44,9.54,9.54,0,0,1-3.8-7.68c-.09-4.55,1.13-9,1.09-13.56a21.88,21.88,0,0,0-4-12c-2.17-3.32-4.88-6.48-5.93-10.37-1.19-4.46-.32-9.18.57-13.61,2-10,4.16-20.06,6.26-30.08q6.3-30.17,12.74-60.31t13-60.25q6.58-30.24,13.31-60.46c.55-2.47,1.09-4.93,1.64-7.39l-4.57.6c9.11,13.16,11.09,29.22,10.42,44.86-.74,17.44-4.26,34.72-6.84,51.95q-4.39,29.25-8.15,58.57T431,324.44q-3.09,29.35-5.55,58.76c-.2,2.41-.4,4.81-.59,7.22-.26,3.2,4.74,3.19,5,0Z" transform="translate(-154.53 -106.74)"/><path class="cls-1" d="M399.72,395.8c-3.74,1.63-7.49,3.25-11.21,4.93-4.06,1.84-8,3.91-12.1,5.69-8.28,3.64-16.61,7.19-24.92,10.78s-16.67,7.24-24.93,11q-6.31,2.91-12.57,5.95-3.11,1.51-6.18,3.06a66.59,66.59,0,0,1-6,3c-3.7,1.41-7.72,1.65-11.36,3.26-4.06,1.79-8,3.82-12,5.72-8,3.82-16,7.62-24,11.47-16,7.68-31.87,15.52-47.51,23.86s-30.91,17.1-45.74,26.7c-1.83,1.19-3.65,2.38-5.46,3.59a2.57,2.57,0,0,0-.9,3.42c1.71,3.47,3.85,6.49,7.95,7.23,5,.92,10-.88,14.87-2.08,5.32-1.32,10.58-3,15.83-4.55S204,515.68,209.3,514c20.37-6.38,40.56-13.33,60.67-20.48s39.95-14.41,60-21.52q7.51-2.67,15.06-5.3c4.63-1.62,9.26-3.19,13.76-5.17a97.21,97.21,0,0,0,21.87-13.25,89.73,89.73,0,0,0,17.15-18.41c5.17-7.34,10-16.15,8.84-25.45a25.3,25.3,0,0,0-2.29-7.74,2.51,2.51,0,0,0-3.42-.9,2.56,2.56,0,0,0-.89,3.42,19.36,19.36,0,0,1,1.07,13.07,36.41,36.41,0,0,1-2.2,6.35,48,48,0,0,1-3.13,5.31,86.27,86.27,0,0,1-15.45,18.1,90.08,90.08,0,0,1-20.1,13.34c-8.41,4.13-17.48,6.81-26.3,9.93-19.37,6.84-38.66,13.9-58,20.82s-38.66,13.66-58.17,20q-15,4.84-30.19,9.29c-5,1.46-10.06,2.79-15.1,4.15-3.44.93-8.64,2.59-11.42-.5a16.88,16.88,0,0,1-1.85-3.31l-.9,3.42C173,509.37,188.19,500.4,203.7,492s31.42-16.38,47.35-24.11q12-5.79,24-11.48l12.13-5.78c1.87-.89,3.72-1.87,5.63-2.69a30.86,30.86,0,0,1,5.59-1.54,34,34,0,0,0,5.86-1.74c2.08-.89,4.08-2.05,6.11-3.07q6.24-3.15,12.57-6.13c8.24-3.89,16.57-7.6,24.93-11.24s16.62-7.16,24.92-10.76c8.08-3.5,16-7.41,24-10.94l5.46-2.37a2.51,2.51,0,0,0,.89-3.42,2.56,2.56,0,0,0-3.42-.9Z" transform="translate(-154.53 -106.74)"/><path class="cls-1" d="M388.43,947.76q29.9.38,59.66,3.55a2.51,2.51,0,0,0,2.5-2.5,2.55,2.55,0,0,0-2.5-2.5q-29.73-3.18-59.66-3.55c-3.22,0-3.22,5,0,5Z" transform="translate(-154.53 -106.74)"/></svg>