<svg id="tv-broadcast" xmlns="http://www.w3.org/2000/svg" viewBox="0 0 442.24 613.52"><defs><style>.cls-1{fill:none;stroke:#fff;stroke-miterlimit:10;stroke-width:5px;}</style></defs><title>tv-broadcast</title><line class="cls-1" x1="62.33" y1="297.01" x2="68.08" y2="357.92"/><line class="cls-1" x1="125.63" y1="362.49" x2="68.08" y2="357.92"/><line class="cls-1" x1="170.59" y1="357.01" x2="125.63" y2="362.49"/><line class="cls-1" x1="170.59" y1="304.94" x2="170.59" y2="357.01"/><line class="cls-1" x1="62.33" y1="297.01" x2="129.87" y2="298.73"/><line class="cls-1" x1="170.59" y1="304.94" x2="129.87" y2="298.73"/><line class="cls-1" x1="124.25" y1="418.35" x2="132.81" y2="361.61"/><line class="cls-1" x1="184.07" y1="440.1" x2="124.25" y2="418.35"/><line class="cls-1" x1="267.95" y1="419.15" x2="184.07" y2="440.1"/><line class="cls-1" x1="267.95" y1="350.11" x2="267.95" y2="419.15"/><line class="cls-1" x1="212.55" y1="334.86" x2="267.95" y2="350.11"/><line class="cls-1" x1="170.59" y1="338.87" x2="212.55" y2="334.86"/><line class="cls-1" x1="210.95" y1="316.13" x2="212.55" y2="334.86"/><line class="cls-1" x1="273.57" y1="301.84" x2="210.95" y2="316.13"/><line class="cls-1" x1="267.95" y1="271.44" x2="273.57" y2="301.84"/><line class="cls-1" x1="439.75" y1="279.47" x2="267.95" y2="271.44"/><line class="cls-1" x1="426.9" y1="448.06" x2="439.75" y2="279.47"/><line class="cls-1" x1="359.47" y1="419.15" x2="426.9" y2="448.06"/><line class="cls-1" x1="297.65" y1="433.61" x2="359.47" y2="419.15"/><line class="cls-1" x1="267.95" y1="419.15" x2="297.65" y2="433.61"/><line class="cls-1" x1="273.57" y1="301.84" x2="368.3" y2="316.13"/><line class="cls-1" x1="439.75" y1="279.47" x2="368.3" y2="316.13"/><line class="cls-1" x1="438.35" y1="297.87" x2="368.3" y2="316.13"/><line class="cls-1" x1="359.47" y1="419.15" x2="368.3" y2="316.13"/><line class="cls-1" x1="293.64" y1="336.87" x2="368.3" y2="316.13"/><line class="cls-1" x1="297.65" y1="433.61" x2="293.64" y2="336.87"/><line class="cls-1" x1="210.95" y1="316.13" x2="293.64" y2="336.87"/><line class="cls-1" x1="129.87" y1="298.73" x2="125.63" y2="362.49"/><line class="cls-1" x1="132.81" y1="361.61" x2="180.17" y2="375.04"/><line class="cls-1" x1="267.95" y1="350.11" x2="180.17" y2="375.04"/><line class="cls-1" x1="184.07" y1="440.1" x2="180.17" y2="375.04"/><line class="cls-1" x1="137.09" y1="411.13" x2="148.11" y2="375.04"/><line class="cls-1" x1="166.79" y1="380.62" x2="148.11" y2="375.04"/><line class="cls-1" x1="170.59" y1="422.37" x2="166.79" y2="380.62"/><line class="cls-1" x1="137.09" y1="411.13" x2="170.59" y2="422.37"/><line class="cls-1" x1="206.13" y1="486.72" x2="206.93" y2="573.36"/><line class="cls-1" x1="226.01" y1="486.72" x2="240.25" y2="573.36"/><line class="cls-1" x1="157.55" y1="573.36" x2="270.76" y2="573.36"/><line class="cls-1" x1="157.55" y1="611.02" x2="157.55" y2="573.36"/><line class="cls-1" x1="270.76" y1="602.19" x2="157.55" y2="611.02"/><line class="cls-1" x1="270.76" y1="573.36" x2="270.76" y2="602.19"/><line class="cls-1" x1="191.57" y1="440.1" x2="191.57" y2="480.87"/><line class="cls-1" x1="227.61" y1="429.22" x2="240.25" y2="475.35"/><line class="cls-1" x1="85.71" y1="193.57" x2="150.23" y2="286.64"/><line class="cls-1" x1="170.59" y1="286.64" x2="85.71" y2="193.57"/><line class="cls-1" x1="150.23" y1="286.64" x2="170.59" y2="286.64"/><line class="cls-1" x1="18.28" y1="214.44" x2="69.65" y2="179.12"/><line class="cls-1" x1="137.89" y1="156.64" x2="69.65" y2="179.12"/><line class="cls-1" x1="197.76" y1="176.71" x2="137.89" y2="156.64"/><line class="cls-1" x1="226.01" y1="82.78" x2="197.76" y2="176.71"/><line class="cls-1" x1="160.41" y1="89.2" x2="226.01" y2="82.78"/><line class="cls-1" x1="117.97" y1="71.54" x2="160.41" y2="89.2"/><line class="cls-1" x1="43.97" y1="89.2" x2="117.97" y2="71.54"/><line class="cls-1" x1="23.09" y1="149.41" x2="43.97" y2="89.2"/><line class="cls-1" x1="18.28" y1="214.44" x2="23.09" y2="149.41"/><line class="cls-1" x1="107.39" y1="129.74" x2="23.09" y2="149.41"/><line class="cls-1" x1="117.97" y1="71.54" x2="107.39" y2="129.74"/><line class="cls-1" x1="137.89" y1="156.64" x2="167.83" y2="88.48"/><line class="cls-1" x1="23.09" y1="149.41" x2="69.65" y2="179.12"/><line class="cls-1" x1="107.39" y1="129.74" x2="137.89" y2="156.64"/><line class="cls-1" x1="143.8" y1="143.19" x2="108.69" y2="122.56"/><line class="cls-1" x1="43.97" y1="89.2" x2="38.35" y2="132.87"/><line class="cls-1" x1="108.69" y1="122.56" x2="38.35" y2="132.87"/><line class="cls-1" x1="2.22" y1="76.36" x2="29.91" y2="129.74"/><line class="cls-1" x1="12.07" y1="80.37" x2="33.53" y2="119.31"/><line class="cls-1" x1="112.68" y1="41.84" x2="139.19" y2="111.04"/><line class="cls-1" x1="125.93" y1="24.17" x2="139.19" y2="111.04"/><line class="cls-1" x1="2.22" y1="76.36" x2="125.93" y2="24.17"/><line class="cls-1" x1="20.68" y1="3.3" x2="46.37" y2="2.5"/><line class="cls-1" x1="60.88" y1="51.61" x2="20.68" y2="3.3"/><line class="cls-1" x1="46.37" y1="2.5" x2="68.85" y2="48.25"/><line class="cls-1" x1="12.07" y1="80.37" x2="112.68" y2="41.84"/></svg>