<svg id="tv-broadcast" xmlns="http://www.w3.org/2000/svg" viewBox="0 0 439.41 610.52"><defs><style>.cls-1{fill:none;stroke:#fff;stroke-miterlimit:10;stroke-width:2px;}</style></defs><title>tv-broadcast</title><line class="cls-1" x1="61" y1="295.51" x2="66.75" y2="356.42"/><line class="cls-1" x1="124.3" y1="360.99" x2="66.75" y2="356.42"/><line class="cls-1" x1="169.26" y1="355.51" x2="124.3" y2="360.99"/><line class="cls-1" x1="169.26" y1="303.44" x2="169.26" y2="355.51"/><line class="cls-1" x1="61" y1="295.51" x2="128.53" y2="297.23"/><line class="cls-1" x1="169.26" y1="303.44" x2="128.53" y2="297.23"/><line class="cls-1" x1="122.91" y1="416.85" x2="131.48" y2="360.11"/><line class="cls-1" x1="182.73" y1="438.6" x2="122.91" y2="416.85"/><line class="cls-1" x1="266.62" y1="417.66" x2="182.73" y2="438.6"/><line class="cls-1" x1="266.62" y1="348.61" x2="266.62" y2="417.66"/><line class="cls-1" x1="211.22" y1="333.36" x2="266.62" y2="348.61"/><line class="cls-1" x1="169.26" y1="337.37" x2="211.22" y2="333.36"/><line class="cls-1" x1="209.62" y1="314.63" x2="211.22" y2="333.36"/><line class="cls-1" x1="272.24" y1="300.34" x2="209.62" y2="314.63"/><line class="cls-1" x1="266.62" y1="269.94" x2="272.24" y2="300.34"/><line class="cls-1" x1="438.42" y1="277.97" x2="266.62" y2="269.94"/><line class="cls-1" x1="425.57" y1="446.56" x2="438.42" y2="277.97"/><line class="cls-1" x1="358.14" y1="417.66" x2="425.57" y2="446.56"/><line class="cls-1" x1="296.32" y1="432.11" x2="358.14" y2="417.66"/><line class="cls-1" x1="266.62" y1="417.66" x2="296.32" y2="432.11"/><line class="cls-1" x1="272.24" y1="300.34" x2="366.97" y2="314.63"/><line class="cls-1" x1="438.42" y1="277.97" x2="366.97" y2="314.63"/><line class="cls-1" x1="437.01" y1="296.37" x2="366.97" y2="314.63"/><line class="cls-1" x1="358.14" y1="417.66" x2="366.97" y2="314.63"/><line class="cls-1" x1="292.31" y1="335.37" x2="366.97" y2="314.63"/><line class="cls-1" x1="296.32" y1="432.11" x2="292.31" y2="335.37"/><line class="cls-1" x1="209.62" y1="314.63" x2="292.31" y2="335.37"/><line class="cls-1" x1="128.53" y1="297.23" x2="124.3" y2="360.99"/><line class="cls-1" x1="131.48" y1="360.11" x2="178.84" y2="373.54"/><line class="cls-1" x1="266.62" y1="348.61" x2="178.84" y2="373.54"/><line class="cls-1" x1="182.73" y1="438.6" x2="178.84" y2="373.54"/><line class="cls-1" x1="135.76" y1="409.63" x2="146.78" y2="373.54"/><line class="cls-1" x1="165.46" y1="379.12" x2="146.78" y2="373.54"/><line class="cls-1" x1="169.26" y1="420.87" x2="165.46" y2="379.12"/><line class="cls-1" x1="135.76" y1="409.63" x2="169.26" y2="420.87"/><line class="cls-1" x1="204.8" y1="485.22" x2="205.6" y2="571.86"/><line class="cls-1" x1="224.68" y1="485.22" x2="238.92" y2="571.86"/><line class="cls-1" x1="156.22" y1="571.86" x2="269.43" y2="571.86"/><line class="cls-1" x1="156.22" y1="609.53" x2="156.22" y2="571.86"/><line class="cls-1" x1="269.43" y1="600.69" x2="156.22" y2="609.53"/><line class="cls-1" x1="269.43" y1="571.86" x2="269.43" y2="600.69"/><line class="cls-1" x1="190.24" y1="438.6" x2="190.24" y2="479.38"/><line class="cls-1" x1="226.28" y1="427.73" x2="238.92" y2="473.85"/><line class="cls-1" x1="84.38" y1="192.07" x2="148.9" y2="285.14"/><line class="cls-1" x1="169.26" y1="285.14" x2="84.38" y2="192.07"/><line class="cls-1" x1="148.9" y1="285.14" x2="169.26" y2="285.14"/><line class="cls-1" x1="16.94" y1="212.94" x2="68.32" y2="177.62"/><line class="cls-1" x1="136.56" y1="155.14" x2="68.32" y2="177.62"/><line class="cls-1" x1="196.43" y1="175.21" x2="136.56" y2="155.14"/><line class="cls-1" x1="224.68" y1="81.28" x2="196.43" y2="175.21"/><line class="cls-1" x1="159.08" y1="87.7" x2="224.68" y2="81.28"/><line class="cls-1" x1="116.64" y1="70.04" x2="159.08" y2="87.7"/><line class="cls-1" x1="42.63" y1="87.7" x2="116.64" y2="70.04"/><line class="cls-1" x1="21.76" y1="147.91" x2="42.63" y2="87.7"/><line class="cls-1" x1="16.94" y1="212.94" x2="21.76" y2="147.91"/><line class="cls-1" x1="106.06" y1="128.24" x2="21.76" y2="147.91"/><line class="cls-1" x1="116.64" y1="70.04" x2="106.06" y2="128.24"/><line class="cls-1" x1="136.56" y1="155.14" x2="166.5" y2="86.98"/><line class="cls-1" x1="21.76" y1="147.91" x2="68.32" y2="177.62"/><line class="cls-1" x1="106.06" y1="128.24" x2="136.56" y2="155.14"/><line class="cls-1" x1="142.47" y1="141.69" x2="107.36" y2="121.06"/><line class="cls-1" x1="42.63" y1="87.7" x2="37.01" y2="131.37"/><line class="cls-1" x1="107.36" y1="121.06" x2="37.01" y2="131.37"/><line class="cls-1" x1="0.89" y1="74.86" x2="28.58" y2="128.24"/><line class="cls-1" x1="10.74" y1="78.87" x2="32.2" y2="117.81"/><line class="cls-1" x1="111.35" y1="40.34" x2="137.86" y2="109.54"/><line class="cls-1" x1="124.6" y1="22.68" x2="137.86" y2="109.54"/><line class="cls-1" x1="0.89" y1="74.86" x2="124.6" y2="22.68"/><line class="cls-1" x1="19.35" y1="1.8" x2="45.04" y2="1"/><line class="cls-1" x1="59.55" y1="50.11" x2="19.35" y2="1.8"/><line class="cls-1" x1="45.04" y1="1" x2="67.52" y2="46.75"/><line class="cls-1" x1="10.74" y1="78.87" x2="111.35" y2="40.34"/></svg>