<svg id="tv" xmlns="http://www.w3.org/2000/svg" viewBox="0 0 450.83 633.11"><defs><style>.cls-1,.cls-2{fill:none;stroke:#fff;stroke-miterlimit:10;}.cls-1{stroke-width:2px;}</style></defs><title>tv_white</title><rect class="cls-1" x="1" y="1" width="448.83" height="473.52" rx="8.12"/><rect class="cls-2" x="65.5" y="75.74" width="250.43" height="177.61" rx="16.61"/><rect class="cls-2" x="19.43" y="29.67" width="411.69" height="267.53" rx="13.56"/><rect class="cls-2" x="26.86" y="37.84" width="396.09" height="252.66" rx="13.2"/><rect class="cls-2" x="40.24" y="50.47" width="303.2" height="228.88" rx="16.71"/><rect class="cls-2" x="355.32" y="47.13" width="56.48" height="232.6"/><rect class="cls-2" x="19.43" y="324.69" width="411.69" height="127.82" rx="13.84"/><rect class="cls-2" x="362.66" y="67.8" width="41.15" height="45.8"/><circle class="cls-2" cx="371.95" cy="151.43" r="5.31"/><circle class="cls-2" cx="371.95" cy="174.66" r="5.31"/><circle class="cls-2" cx="397.08" cy="174.66" r="5.31"/><circle class="cls-2" cx="397.08" cy="151.43" r="5.31"/><circle class="cls-2" cx="383.56" cy="237.76" r="22.37"/><path class="cls-2" d="M33.39,476.82q-3.18,16.32-5.93,32.71t-5,32.7q-2.31,16.44-4.19,32.93T14.91,608q-.73,8.28-1.34,16.56c-.17,2.19-.41,4.6,1.2,6.35a5.82,5.82,0,0,0,4.58,1.64c4.33-.27,6.69-4,7.85-7.77.74-2.39,1.23-4.87,1.8-7.3.63-2.7,1.25-5.41,1.87-8.11q3.71-16.14,7.09-32.35t6.49-32.59q3.11-16.35,5.91-32.75T55.64,479q.61-4,1.21-8.07a1,1,0,0,0-.7-1.23h0a1,1,0,0,0-1.23.7h0q-2.37,16.06-5,32.1t-5.6,32q-3,16-6.19,31.9T31.36,598.2q-1.75,7.89-3.58,15.77c-.61,2.61-1.21,5.23-1.84,7.84a18.89,18.89,0,0,1-2.18,6,5.71,5.71,0,0,1-4.11,2.83,3.73,3.73,0,0,1-3.78-1.47,5.85,5.85,0,0,1-.39-3.28c.09-1.34.2-2.68.3-4,.21-2.71.42-5.42.65-8.13q1.34-16.17,3.1-32.31t3.92-32.17q2.18-16.08,4.77-32.1t5.59-32q.75-3.92,1.51-7.85c.24-1.26-1.68-1.8-1.93-.53Z"/><path class="cls-2" d="M72.22,476.48l-1.66,31-1.66,31c-.2,3.89-1.07,9.94,3.82,11.36a3.88,3.88,0,0,0,4.65-2.19,16.77,16.77,0,0,0,1-3c.31-1.23.62-2.46.92-3.68Q83,526.17,85.94,511.2t5.25-30c.19-1.25.38-2.51.56-3.76a1,1,0,0,0-.7-1.23h0a1,1,0,0,0-1.23.7h0q-2.11,14.55-4.87,29t-6.2,28.86q-.85,3.57-1.74,7.14c-.29,1.16-.58,2.32-.88,3.47a4.53,4.53,0,0,1-1.08,2.27c-1.17,1-2.94,0-3.59-1.14-1.08-1.85-.7-4.31-.59-6.35l1.6-30,1.6-29.9.2-3.74c.06-1.28-1.94-1.28-2,0Z"/><path class="cls-2" d="M350.45,474.72q2.76,16.15,6.14,32.18T364,538.82c.67,2.64,1.34,5.29,2,7.93.52,1.94,1.28,4.12,3.23,5a5.18,5.18,0,0,0,5.48-1,7.92,7.92,0,0,0,2.57-6,53.39,53.39,0,0,0-.57-7.78l-.81-8.19-1.64-16.63L371,479.06l-.4-4.1a1,1,0,0,0-2,0l3.16,32,3.18,32.15c.23,2.35.69,4.87.16,7.21a4.63,4.63,0,0,1-3.42,3.75c-1.92.37-2.93-1.34-3.43-2.92-.75-2.35-1.28-4.8-1.89-7.19q-3.93-15.4-7.27-30.94T353,478c-.23-1.29-.45-2.58-.67-3.87a1,1,0,0,0-1.93.53Z"/><path class="cls-2" d="M379.09,474.42l9.27,33,9.31,33.13,9.27,33,9.27,33c2.1,7.46,4.54,15.71,10.37,21.17a17.38,17.38,0,0,0,4.58,3.15,11.54,11.54,0,0,0,2.66,1c1,.17,1.9-1,2.42-1.66,2.38-3.21,1.43-7.82.57-11.39l-8-33.35-8-33.35-8-33.35-8-33.35-2-8.22c-.3-1.25-2.23-.72-1.93.53l7.57,30.82,7.41,31.07,7.37,30.91,7.38,30.91,3.7,15.54a45.31,45.31,0,0,1,1.28,6.21,9.38,9.38,0,0,1-.56,5,4.35,4.35,0,0,1-1.48,1.73l.77-.1c-7.93-2.21-11.85-10.38-14.3-17.57-1.63-4.8-2.87-9.74-4.24-14.61L411,580.47l-9.57-34-9.61-34.19-9.61-34.18L381,473.88a1,1,0,0,0-1.93.54Z"/></svg>