<svg id="tv" xmlns="http://www.w3.org/2000/svg" viewBox="0 0 453.83 635.64"><defs><style>.cls-1,.cls-2{fill:none;stroke:#fff;stroke-miterlimit:10;}.cls-1{stroke-width:5px;}.cls-3{fill:#fff;}</style></defs><title>tv_white</title><rect class="cls-1" x="2.5" y="2.5" width="448.83" height="473.52" rx="8.12"/><rect class="cls-1" x="67" y="77.24" width="250.43" height="177.61" rx="16.61"/><rect class="cls-1" x="20.93" y="31.17" width="411.69" height="267.53" rx="13.56"/><rect class="cls-1" x="28.36" y="39.34" width="396.09" height="252.66" rx="13.2"/><rect class="cls-1" x="41.74" y="51.97" width="303.2" height="228.88" rx="16.71"/><rect class="cls-1" x="356.82" y="48.63" width="56.48" height="232.6"/><rect class="cls-1" x="20.93" y="326.19" width="411.69" height="127.82" rx="13.84"/><rect class="cls-1" x="364.16" y="69.3" width="41.15" height="45.8"/><circle class="cls-1" cx="373.45" cy="152.93" r="5.31"/><circle class="cls-1" cx="373.45" cy="176.16" r="5.31"/><circle class="cls-2" cx="398.58" cy="176.16" r="5.31"/><circle class="cls-2" cx="398.58" cy="152.93" r="5.31"/><circle class="cls-1" cx="385.06" cy="239.26" r="22.37"/><path class="cls-3" d="M194.49,738.38q-3.18,16.32-5.93,32.71t-5,32.7q-2.35,16.63-4.25,33.33Q177.39,853.56,176,870q-.74,8.28-1.34,16.56c-.2,2.63-.29,5.34,1.64,7.41a7.27,7.27,0,0,0,5.64,2.08,9,9,0,0,0,5.86-2.58,15.1,15.1,0,0,0,3.44-6.29c.73-2.39,1.23-4.87,1.79-7.31.64-2.7,1.26-5.4,1.88-8.1q3.69-16.14,7.09-32.35t6.52-32.63q3.11-16.35,5.91-32.75t5.28-32.7c.4-2.69.81-5.38,1.2-8.07a2.58,2.58,0,0,0-1.74-3.08c-1.19-.27-2.87.37-3.08,1.75q-2.37,16.07-5,32.1t-5.61,32q-3,16-6.19,31.9t-6.76,31.78q-1.75,7.89-3.58,15.77c-.61,2.61-1.22,5.23-1.84,7.84-.25,1-.52,2.09-.86,3.11-.08.23-.16.47-.25.7l-.13.34s.13-.3,0,0a13.44,13.44,0,0,1-.8,1.5l-.2.3s-.24.32-.09.13-.09.11-.1.12l-.24.27c-.17.18-.34.34-.52.51l-.24.2c.26-.2.22-.15,0,0s-.35.17-.49.27.12,0,.16,0l-.27.1a7,7,0,0,1-1.2.29c.51-.08,0,0-.19,0a5.24,5.24,0,0,0-.56,0c-.26,0,.17,0,.21,0l-.27,0-.61-.17c-.43-.12.32.21,0,0-.08,0-.61-.41-.34-.18s-.13-.17-.19-.22.08.12.11.17l-.2-.31s-.16-.3-.05-.07,0-.13,0-.16l-.09-.39c-.1-.42,0,.31,0-.13a13.07,13.07,0,0,1,0-1.77c.09-1.34.2-2.68.3-4,.21-2.71.42-5.42.65-8.13q1.34-16.17,3.1-32.31c1.15-10.56,2.46-21.33,3.87-31.71q2.18-16.08,4.76-32.1t5.6-32c.49-2.62,1-5.23,1.5-7.85a2.5,2.5,0,1,0-4.82-1.33Z" transform="translate(-161.05 -260.46)"/><path class="cls-3" d="M233.27,738.44l-1.66,31-1.66,31c-.13,2.48-.44,5,.11,7.48a7.07,7.07,0,0,0,4.81,5.33,5.38,5.38,0,0,0,6.35-2.88,38,38,0,0,0,2-7.06q3.67-14.79,6.65-29.76t5.25-30c.19-1.25.37-2.51.55-3.76a2.75,2.75,0,0,0-.25-1.93,2.54,2.54,0,0,0-1.49-1.14c-1.19-.27-2.88.36-3.08,1.74q-2.1,14.55-4.86,29t-6.2,28.86q-.85,3.58-1.75,7.14c-.29,1.16-.57,2.32-.88,3.47-.06.21-.11.41-.18.62s-.08.23-.11.35c-.1.34-.09,0,.05-.09a3,3,0,0,0-.29.56s-.16.18-.15.22c.2-.25.23-.31.11-.17l-.12.12c-.21.26.34-.26.09-.07l-.21.12c0-.07.52-.17.15-.08s.09-.09.2,0-.81-.07-.3,0-.26-.11-.37-.11c-.31,0,.41.22.14.06l-.23-.12c-.1,0-.19-.12-.28-.17-.28-.16,0-.13.1.09,0-.1-.36-.35-.43-.42s.12.15.13.18a2.26,2.26,0,0,0-.23-.34c-.07-.12-.12-.24-.18-.36s0,.07,0,.11c-.07-.28-.17-.54-.23-.81l-.06-.32c-.1-.36,0,.41,0,0s0-.57-.05-.85c0-1.14.05-2.27.11-3.4l1.6-30,1.6-29.9.2-3.74a2.51,2.51,0,0,0-2.5-2.5,2.55,2.55,0,0,0-2.5,2.5Z" transform="translate(-161.05 -260.46)"/><path class="cls-3" d="M511.51,737.08q2.76,16.14,6.15,32.18t7.4,31.91c.67,2.65,1.34,5.3,2.05,7.93.61,2.32,1.62,4.84,3.91,6a6.77,6.77,0,0,0,7.3-1.2c2.09-1.7,2.88-4.41,3-7a53.39,53.39,0,0,0-.57-7.78l-.81-8.19-1.64-16.63L535,741.11l-.4-4.1a2.56,2.56,0,0,0-2.5-2.5,2.53,2.53,0,0,0-2.5,2.5l3.16,32L536,801.18c.12,1.24.26,2.47.34,3.71,0,.58.05,1.16,0,1.74,0,.25,0,.51-.05.76,0,.48,0,.07,0,0,0,.21-.07.42-.11.63s-.13.48-.2.72c0,.07-.17.49-.06.2s0,.09-.09.17-.23.38-.34.57.31-.34.08-.1-.19.22-.29.32a4.4,4.4,0,0,0-.5.46c.05-.07.45-.31.09-.1l-.22.14-.29.16c-.18.09-.33,0-.08.05l.15-.07-.24.08-.39.1c-.44.13.15-.06.19,0a3.11,3.11,0,0,0-.32,0s-.31,0-.32,0,.62.15.2,0l-.31-.08s.56.3.15.06a2.53,2.53,0,0,0-.22-.13c-.26-.11.33.33,0,0l-.24-.24c-.33-.3.06,0,.06.1,0-.13-.31-.47-.38-.6s-.11-.21-.16-.31-.24-.29,0,.09a2.81,2.81,0,0,1-.27-.77c-.75-2.36-1.28-4.8-1.9-7.2q-3.92-15.4-7.26-30.94T517,739.62c-.22-1.29-.44-2.58-.67-3.87a2.51,2.51,0,0,0-3.07-1.75,2.58,2.58,0,0,0-1.75,3.08Z" transform="translate(-161.05 -260.46)"/><path class="cls-3" d="M540.19,736.77l9.27,33,9.31,33.13,9.27,33,9.27,33c2.17,7.71,4.74,16.19,10.76,21.83a18.45,18.45,0,0,0,4.88,3.38,15.5,15.5,0,0,0,3,1.14c1.77.41,3.16-1.06,4.11-2.35,2.63-3.54,1.67-8.61.73-12.55l-8-33.35-8-33.35-8-33.35-8-33.35-2-8.22A2.5,2.5,0,0,0,562.2,740l7.38,30.91L577,802l7.37,30.91,7.38,30.91,3.7,15.54c.28,1.16.58,2.33.83,3.5.1.45.19.91.27,1.36,0,.22.07.43.1.65s0-.09,0-.13c0,.15,0,.29,0,.43a15.88,15.88,0,0,1,0,2.67c0,.1,0,.2,0,.3s.09-.43,0-.15-.07.39-.12.59a5.12,5.12,0,0,1-.15.56c0,.13-.1.25-.13.37-.09.3.2-.31,0-.07s-.19.35-.28.5-.11.16-.16.24.29-.31.1-.13-.27.29-.4.42l-.22.2c.06-.06.4-.3,0,0l1.93-.25c-.47-.13-.93-.28-1.39-.45-.18-.07-.56-.25-.16-.06l-.73-.34q-.63-.33-1.23-.69l-.59-.39-.47-.33c.23.17-.31-.25-.37-.3l-.46-.4q-.55-.51-1.08-1c-.33-.35-.65-.7-1-1.07l-.45-.56c.32.41-.15-.21-.23-.32a33.14,33.14,0,0,1-3-5.16c-.22-.46-.43-.92-.63-1.39,0,0-.16-.36-.05-.1s-.06-.15-.08-.21l-.29-.71c-.39-1-.76-2-1.1-3-1.63-4.8-2.87-9.74-4.24-14.61L575,842.06l-9.56-34-9.61-34.18-9.61-34.19L545,735.45a2.52,2.52,0,0,0-3.07-1.75,2.55,2.55,0,0,0-1.75,3.07Z" transform="translate(-161.05 -260.46)"/></svg>